<svg xmlns="http://www.w3.org/2000/svg" viewBox="0 0 1998.49 1488.49"><defs><style>.cls-1{fill:#e6f3fe;}.cls-2{fill:#fefefe;}.cls-3{fill:#ecf5fe;}.cls-4{fill:#8cc6fe;}.cls-5{fill:#f0f7fd;}.cls-6{fill:#0052d1;}.cls-7{fill:#deeefe;}.cls-8{fill:#00335c;}.cls-9{fill:#d6ecfe;}.cls-10{fill:#cae5fe;}.cls-11{fill:#cd5b51;}.cls-12{fill:#b6433f;}.cls-13{fill:#c7e4fe;}.cls-14{fill:#fdfefe;}.cls-15{fill:#eff6fe;}.cls-16{fill:#ecf6fe;}.cls-17{fill:#f1f8fe;}.cls-18{fill:#0355d1;}.cls-19{fill:#d7ecfe;}.cls-20{fill:#1683f9;}.cls-21{fill:#1985fb;}.cls-22{fill:#e7f0f8;}.cls-23{fill:#cce6fe;}.cls-24{fill:#dfecfd;}.cls-25{fill:#e4effd;}.cls-26{fill:#d5e8fc;}.cls-27{fill:#c8e4fe;}.cls-28{fill:#fdfdfd;}.cls-29{fill:#c2defc;}.cls-30{fill:#0153d1;}.cls-31{fill:#cae3fd;}.cls-32{fill:#0e7ffd;}.cls-33{fill:#087dfd;}.cls-34{fill:#52b4fe;}.cls-35{fill:#01335c;}.cls-36{fill:#02345d;}.cls-37{fill:#e5f2fd;}.cls-38{fill:#fdfdfe;}.cls-39{fill:#fafcfe;}.cls-40{fill:#004396;}.cls-41{fill:#d6eafd;}.cls-42{fill:#c7e3fd;}.cls-43{fill:#0096e3;}.cls-44{fill:#eff7fd;}.cls-45{fill:#edf4fb;}.cls-46{fill:#fbfafa;}.cls-47{fill:#f2f7fc;}.cls-48{fill:#d5e7fc;}.cls-49{fill:#cee4fc;}.cls-50{fill:#e8f2fc;}.cls-51{fill:#cbe3fe;}.cls-52{fill:#fefefd;}.cls-53{fill:#f0f6fb;}.cls-54{fill:#e5f1fb;}.cls-55{fill:#00214d;}.cls-56{fill:#cbe8fe;}.cls-57{fill:#b92320;}.cls-58{fill:#04234b;}.cls-59{fill:#03224b;}.cls-60{fill:#0c254c;}.cls-61{fill:#212b4d;}.cls-62{fill:#0097e3;}.cls-63{fill:#d8e9fe;}.cls-64{fill:#dfeefe;}.cls-65{fill:#c3dffc;}</style></defs><title>Asset 2</title><g id="Layer_2" data-name="Layer 2"><g id="Layer_1-2" data-name="Layer 1"><path class="cls-1" d="M1998.49,1309.35q-340.7,0-681.4,0c-2.06,0-4.36.85-6.18-1,1.88-1.86,4.32-1.56,6.58-1.47,3.69.15,4.9-1.54,4.93-5.07a216.33,216.33,0,0,0-1.37-29.24c-.27-2.41.62-4.6,1.39-6.79,8.65-24.48,17.23-49,25.14-73.7,12.08-37.72,24.17-75.45,32.63-114.2a485.47,485.47,0,0,0,9.35-67.66q2.49-33.63,1.75-67.3c-.49-20.93-1.72-41.83-3.51-62.71-.44-5.14-2.56-10.43-.1-15.65,6.91,2.32,11.75,8.89,11.64,15.8-.22,15,.35,30,0,44.94,0,.5,0,1,0,1.5.35,8.76.89,9.29,9.53,9.29,12.83,0,25.65,0,38.47,0,5.47,0,6-.52,6-6.07.05-16.16.12-32.32,0-48.47-.06-5.07,1.53-9,5.36-12.27,10-8.57,19.47-17.69,29.32-26.42,3.07-2.73,5.52-2.8,8.63,0q15.14,13.44,30.13,27c3.42,3.1,4.62,6.53,4.58,11-.14,16-.08,32,0,48,0,6.89.43,7.3,7.41,7.31q19.74.06,39.47,0c6.85,0,7.12-.28,7.13-7,0-16.15.11-32.31-.06-48.46,0-4.7,1.34-8.33,4.88-11.43,9.65-8.44,19.14-17.06,28.67-25.63,4.93-4.43,6.22-4.24,11,.18,9.66,8.93,19.33,17.85,29.18,26.57,3.3,2.91,4.28,6.47,4.26,10.7-.08,16,0,32,0,48,0,6.76.29,7,7,7.06,13.33,0,26.65,0,40,0,5.58,0,6-.43,6-6,0-16,.12-32,0-48-.05-5.41,1.82-9.38,5.85-13.07,9.47-8.65,19.27-16.92,28.52-25.81,3.8-3.65,5.07-3.78,8.94-.5q16.39,13.88,32,28.71a8.29,8.29,0,0,1,2.61,5.76c.12,2.16.09,4.33.09,6.49q0,117.16,0,234.34c0,3.65-.36,7.37,1.59,10.73a1.69,1.69,0,0,1-.06,1.67c-2-.18-2.16.62-2.15,2.6q.18,84.14.13,168.27c0,7,0,7,7.16,7h197.72Z"/><path class="cls-2" d="M169.55,1129.45c-7.69-2.94-12-9.24-15.9-16-1-1.7-.52-3.58-.52-5.37q0-541.81,0-1083.62c0-1.79-.51-3.67.51-5.38,2.44-6.8,6.18-12.4,12.72-16.17,1.8-1,3.94,0,5.22-1.75,1.53-1,3.24-.53,4.87-.53q384.9,0,769.8,0c1.62,0,3.34-.49,4.86.54,9.64,2.84,15.2,9.54,18,18.91,1,1.71.49,3.58.5,5.37q0,147.44,0,294.88c0,1.8.35,3.65-.33,5.42-2.63,2.09-5.11.46-7.47-.5a380.58,380.58,0,0,0-88.88-24.2,328.13,328.13,0,0,0-40.69-3.71,29.2,29.2,0,0,1-6-.52c-7.8-1.05-15.63-.31-23.44-.46-7.33-.13-14.66,0-22,0-8-.05-9.13-1.21-9.2-9.38-.07-8.49,0-17,0-25.48-.06-6.24-.6-6.73-6.91-6.87-2,0-4,0-6,0H326a56,56,0,0,1-7-.14c-5.07.16-10.14,0-15.2.08-1.94,0-4-.24-5.63,1.14-1.89,2.16-1.21,4.78-1.21,7.21q0,93.18,0,186.36,0,335.25,0,670.5c0,3.26.83,6.68-1.12,9.75-1.25.7-2.61.43-3.92.43H173.44C172.14,1129.92,170.77,1130.24,169.55,1129.45Z"/><path class="cls-2" d="M1795.64,1129.48c-1.2-.2-2.76.36-2.69-1.9.08-2.48-.31-5-.31-7.44q0-119.66.06-239.31a12.67,12.67,0,0,0-4.61-10.56c-10-9.2-20.2-18.1-30.32-27.14-2-1.78-3-2.13-5.14-.12-10.41,9.7-21,19.19-31.59,28.71a10.41,10.41,0,0,0-3.42,8.43c.09,17.49-.08,35,.13,52.46,0,4-1.16,5.09-5.09,5q-23-.31-46,0c-3.91.05-5.14-1-5.09-5,.2-17.48,0-35,.15-52.45,0-3.39-.66-6-3.3-8.37q-15.93-14.16-31.6-28.64c-2-1.81-3-2.16-5.15-.16-10.75,9.86-21.67,19.51-32.6,29.16-2.12,1.87-2.42,4.07-2.41,6.68.07,17.82-.08,35.64.12,53.45,0,4.09-1,5.45-5.26,5.38q-23-.36-46,0c-4.73.08-6-1.58-5.91-6.09.21-17.48,0-35,.15-52.45a8.5,8.5,0,0,0-3.14-7.24c-11-9.64-21.69-19.51-32.46-29.36-1.28-1.17-2.09-1.7-3.66-.25q-16.47,15.15-33.11,30.11c-2.22,2-2.71,4.28-2.7,7.1.09,17.48-.07,35,.14,52.46,0,4.17-.77,5.84-5.42,5.74-15.15-.3-30.31-.16-45.46-.07-3.16,0-4.89-.17-5.41-4.28-1.51-11.91-.2-23.81-.7-35.7-.3-7-.15-14,.18-21,.09-1.91-.74-2.59-1.81-3.63-2.84-2.75-5.56-5.62-8.32-8.45-3.5-4.57-2.79-10.16-3.34-15.3q-4.91-45.62-13.22-90.71c-.52-2.77-1.22-5.53-.93-8.39.08-3.63,2.31-4.86,5.54-5,4-.17,8-.07,12-.11,2.92,0,4.25-1.38,4.24-4.26,0-1.49,0-3,0-4.49,0-32.59.13-65.19-.09-97.79-.06-8.45.6-16.89.27-25.33-.07-4.85,1.1-9.55,2-14.29.6-3.31,2.29-4.46,5.68-3.39,9.72,3.08,9.73,3,14.86-6,1.31-2.29,2.19-4.91,4.74-6.26,2.13-.66,3.85.4,5.59,1.32A166,166,0,0,0,1451,596c2.5.83,5.06,1.64,6.32,4.33,1.3,3.87,1,7.89,1,11.86q0,62.31,0,124.63c0,9.35.06,9.41,9.5,8.81.82-.06,1.65-.17,2.48-.26a66.7,66.7,0,0,1,9.48-.29h301.82c9.32,0,9.33,0,9.33-9.25V152.13c0-9.44,0-9.44-9.68-9.44H1480.48a60,60,0,0,1-10.47-.42c-11.44-1.52-11.56-1.42-11.56,10q0,200.55,0,401.1a87.72,87.72,0,0,1-.62,13.94c-.77,2.62-2.81,2.72-4.7,1.83-6.33-3-13-5.37-18.53-9.89-1-2.19.25-3.92,1.36-5.48,2.4-3.36,1.32-5.53-1.65-7.9a116.43,116.43,0,0,0-35-19.44c-2.33-.8-4.83-1.39-6.16-3.86-1.33-3.38-.91-6.92-.91-10.39q0-179.82,0-359.65c0-10.33.81-9.84-9.69-9.84h-301.2a57.26,57.26,0,0,1-10-.41c-12.54-1.76-12.69-1.64-12.68,10.85.06,67.12-.11,134.24.09,201.35a12,12,0,0,1-.72,5.38c-1.75,2.73-3.62,1.17-5.47.13s-3.35-3.08-6.8-3.6c3.61,5.42,9.89,6.77,12.34,11.92.56,3.77,1.34,7.58-1.39,10.93-1.9.56-3.17-.69-4.47-1.67-10.51-7.9-21.09-15.7-32.16-22.81-1-.64-2.6-1.11-2-2.94,1.88-3.06.54-6.76,2-9.9.65-3.26-3.15-5.21-2.48-8.49q0-154,0-308c0-1.78-.53-3.66.52-5.36,1.68-4.13,3.1-8.4,5.94-12,.07-3.26,3.59-3.1,5-5l9-2c1.73-.93,3.6-.47,5.39-.47q382.89,0,765.78,0c1.8,0,3.67-.47,5.39.48,3.59,1.82,7.89,2.05,11,5,1.6-.25,2.3.41,2,2,3.29,3.34,4.07,7.92,5.94,12,1,1.53.52,3.25.52,4.87q0,538.8,0,1077.61c0,1.63.42,3.33-.47,4.89l-3,11c-.66,2.85-1.71,5.37-5,6l-11,4.94A72.5,72.5,0,0,1,1795.64,1129.48Z"/><path class="cls-3" d="M1279.94,1401.35c2.08,4.33,6.07,2,8.85,1.94,22.29-.64,44.54,1.06,66.81,1.32,12.87.15,25.84,1.3,38.72,1.46,16.13.2,32.24.83,48.33,1.46,14.57.57,29.13,1.4,43.72,1.91,18.87.65,37.71,2.08,56.57,3,15,.77,30.07,1.81,45.1,2.84,17,1.17,34,2.23,50.94,4.07,18.56,2,37.19,3.29,55.72,5.64,15.09,1.92,30.16,4,45.12,6.48,9.4,1.58,18.89,3.68,27.66,7.85a9.11,9.11,0,0,1,1.72,1c1.64,1.27,4.51,1.9,4.15,4.45-.32,2.24-2.86,3.09-4.78,3.93-11.94,5.23-24.7,7.34-37.43,9.48q-14.4,2.41-28.91,4.3-15.7,2.09-31.48,3.71c-14.14,1.43-28.3,2.68-42.46,3.9q-13.85,1.2-27.72,2.11c-19.66,1.27-39.33,2.08-59,3.88-7.08.65-14.25.87-21.35,1-18.59.26-37.1,2.13-55.7,2.4-14.89.21-29.8,1.31-44.71,1.9-19.57.77-39.16,1.16-58.7,2.13-10.47.52-21-.16-31.35.86-16.62,1.63-33.29-.21-49.84,1.06-15.31,1.18-30.62-.19-45.84,1-21.29,1.61-42.57.4-63.84.85-111,2.33-222.1.72-333.15.71-21.58,0-43.26.43-64.82-.91-15.47-1-31,.3-46.34-1-16.47-1.36-32.92-.06-49.35-.9-19.39-1-38.82-1.2-58.19-2.18-10.31-.53-20.6-.14-30.86-.79-16.23-1-32.48-1.45-48.71-2.15q-19.86-.85-39.72-1.82c-18.87-.94-37.74-1.74-56.58-3.12-10.07-.75-20.18-.94-30.22-1.95-15.14-1.52-30.33-2.33-45.49-3.55-13.19-1.07-26.33-2.72-39.55-3.5-11.86-.7-23.68-2.33-35.45-4q-20.58-3-41-6.87a90.72,90.72,0,0,1-20.44-6.11c-2.22-1-5.3-1.8-5.53-4.42-.26-2.86,3-3.92,5.08-4.88a100.86,100.86,0,0,1,20.31-6.52c21.16-4.7,42.72-6.86,64.13-9.81,12.76-1.76,25.72-2.08,38.57-3.2,13.66-1.2,27.31-2.61,41-3.86,5.27-.48,10.56-.39,15.87-.91,12.68-1.23,25.46-1.46,38.2-2.22,19.35-1.15,38.69-2.44,58.07-3.23,6.1-.25,12.24-.44,18.36-.76,18-1,36.06-2,54.09-2.94,2.82-.15,5.66-.15,8.49,0,16.63.7,33.25-.57,49.83-1.31,12.3-.55,24.59-.08,36.85-.75,25.05-1.36,50.14-1.27,75.19-2.24,15.63-.6,31.24-.29,46.85-.7,50.75-1.34,101.53-.22,152.26-1.3,29.95-.65,59.92-1.23,89.82-.45,41.27,1.08,82.55-.42,123.78,1,22.13.76,44.23.22,66.33.75,1.45,2.76-.23,4.3-2.21,5.73-6,.22-8.56,3.66-9.76,9.22-1.59,7.3-3.88,14.44-5.77,21.68-1.49,5.74,0,7.83,6,7.85q44.64.18,89.27,0c4.12,0,7.92-1.13,10.59-4.6,3.68-4.78,2.51-8.19-3.5-9.72s-11.88-3.18-17.7-5.19a124,124,0,0,1-18.64-8.35c-1.85-1-4-1.91-4.45-4.37a3.48,3.48,0,0,1,2.82-1.5c1.54-.14,3.09-.06,4.63-.09.32,0,.65,0,1,0,2.58-.22,5.59-1,5.23-3.87s-3.44-1.14-5.37-1.27c-1.53.2-3.81,1-4-1.08A3.81,3.81,0,0,1,1279.94,1401.35Z"/><path class="cls-4" d="M1371.84,750.73c1.8,10.92,3.64,21.84,5.38,32.76,2.5,15.67,4.92,31.34,6.67,47.12,1.26,11.33,2.71,22.65,4.08,34,1.25,15.86,3,31.71,3.64,47.6.71,17.27,1.48,34.55,1.31,51.86a699.37,699.37,0,0,1-4.25,72.51c-3.2,28.07-9.57,55.54-17.3,82.68-10.74,37.71-22.7,75-35.39,112.15q-7,20.5-14.07,41c-.27,8-4.31,14.79-6.79,22.07-1.62,4.75-2.24,10.09-6.11,13.9-5.61,13.39-10.69,27-15,40.84-3.68,2.94-8,1.77-12,1.52-13.25-.85-26.5-1.53-39.77-1.84-3-.07-6,.07-8.31-2.48,2.67-12.1,7.31-23.7,9-36.05-1.39-2.9-.31-5.6.65-8.32a14,14,0,0,0,2-7.11c.61-4.11.92-8.3,3-12,2-3.56,2.58-7.47,3-11.44a25.28,25.28,0,0,1,2.24-7.89,40.74,40.74,0,0,0,2.06-7.51c.1-.47.23-.93.37-1.39a86.58,86.58,0,0,0,2.26-9.81c.15-4.61,1.68-8.86,3.33-13.08a55.45,55.45,0,0,0,2-7.72,14.11,14.11,0,0,1,.37-1.42c1-4.34,2.35-8.6,3.42-12.93,1.57-7.4,3.45-14.73,5.23-22.07a52.49,52.49,0,0,0,1.62-8.32,11,11,0,0,1,1.08-5.29,17.33,17.33,0,0,0,2.1-7.21c2.89-12,5.34-24.15,8.17-36.19a15.19,15.19,0,0,0,.65-3.34c3.25-17.67,7-35.23,9.25-53.09a450.37,450.37,0,0,0,3.62-54.19c0-13.63-.64-27.27.43-40.89a202.39,202.39,0,0,0,18.26-48.45,245.39,245.39,0,0,0,6.38-52.43c.22-18.65-.2-37.27-2.41-55.81a2.32,2.32,0,0,1,.45-2.07c-6.23,36.53-15,72.15-23.54,107.83-3,9.37-5,19-7.9,28.41-7.23,23-14.4,46.1-23.18,68.62-1.54,3.33-2.85,6.76-4.13,10.19a54.44,54.44,0,0,0-3.08,7.15c-1.36,3-3,5.77-4,8.92-1.29,2.7-2.66,5.36-4,8.06-.76,1.39-1.45,2.81-2.13,4.24-1.42,2.54-2.58,5.21-4,7.76A25,25,0,0,0,1244,1076c-.77,1.53-1.15,3.24-2.22,4.63a17.28,17.28,0,0,0-1.85,2.55,12.64,12.64,0,0,1-.61,1.15c-1.24,2.07-2.57,4.09-3.66,6.25a34.5,34.5,0,0,0-2.09,3.33c-1,1.76-2.09,3.41-3.11,5.14-5.25,8.14-10.31,16.4-15.67,24.47a38.79,38.79,0,0,0-3.2,4.23c-1.4,1.93-2.7,3.93-4,5.94a45.52,45.52,0,0,0-3.48,4.69c-.24.38-.5.74-.76,1.11-1.41,2-3,3.94-4.39,6-.48.69-.94,1.4-1.4,2.11a20.1,20.1,0,0,1-1.54,1.91c-.24.33-.49.64-.74,1-.61.84-1.14,1.72-1.72,2.58a33.64,33.64,0,0,1-2.25,3.21c-2.73,3.09-5,6.53-7.54,9.78-3,4-5.94,8-9,11.94-1.91,2.8-4.44,5.14-6.13,8.11-10.9,13.72-22.11,27.19-33,40.88-9.39,10.71-18.48,21.68-27.88,32.37-5.33,6-9.93,12.82-16.62,17.6-2.05,0-3.21-1.52-4.51-2.76-10.42-9.89-19.61-21-29.95-31a6,6,0,0,1-2.22-3.76c.92-3.56,3.19-6.44,4.83-9.64q38.49-66.94,76.75-134c17.9-32.17,37.59-63.41,50.55-98.13,1.74-4.67,3.33-9.38,4.74-14.17,8.47-25.2,13.44-51.1,16.39-77.51,1.82-16.28,1.38-32.56,2.07-48.84a65.09,65.09,0,0,0,.47-16.43c-1.82-22.76-.63-45.55-.7-68.32a103.25,103.25,0,0,1,3-23.2c1.84-10.31,6.69-19.51,10.78-29,3.59-1.18,7.2,0,10.71.36,4.61.46,6.11-1.35,6.76-5.48.51-3.15.69-6.62,3.45-9,3.21-1,6-1,6.89,3.08.37,2.87-.5,5.6-1,8.35s.39,4.5,3.44,4.69c11.9.75,23.77,2,35.65,3.05,3.71.35,6-.91,6.62-4.89a28.2,28.2,0,0,1,2.43-8.59c3-2.42,5.8-2.21,8.27.84.58,2.87-.5,5.56-1,8.32-.8,4.79-.34,5.71,4.4,6.12,8.74.74,17.47,1.51,26.21,2.21,2.65.21,5.29.4,7.9.84,3.94.67,6.34-.58,6.94-4.87a25.75,25.75,0,0,1,2.25-8.62c2.9-2.89,5.59-2.44,8.12.51,1.11,3.36-.31,6.52-1,9.7s-.12,4.78,3.41,4.77a7.07,7.07,0,0,1,4.55,1.76c2.61,4,3,8.54,3.12,13.13C1371.57,747.89,1371,749.35,1371.84,750.73Z"/><path class="cls-5" d="M318.48,253H766.86c6.34,0,6.35,0,6.36,6.45q0,14.47,0,29c0,6.52,0,6.53,6.76,6.53,14,0,28,0,41.94,0,1.78,0,3.69-.57,5.28.79-1.72,2.08-4.16,1.75-6.41,1.77-7.08.07-14.17.09-21.25,0a86.1,86.1,0,0,0-8.65-.16c-11.25-.08-22.5.08-33.74.17-2.45,0-5,.27-7.15-1.42-1.48-4.16-1.45-8.51-1.38-12.81.07-4-1.44-5.94-5.54-5.7-1.66.09-3.33,0-5,0H354.36c-11,0-10.23-.37-10.23,10.46q0,491.89,0,983.8c0,12.94-.36,11.85,12.08,11.85q187.86,0,375.73-.06c4.81,0,9.58,1,14.37.26,2.5-1.13,2.34-3.44,2.33-5.56,0-22,.2-44-.09-66.07,0-2.11-.67-4.36,1.41-6,2-1,3.47.21,4.86,1.4a55.9,55.9,0,0,1,5.32,5.23c2.46,2.75,5.28,4.38,9.11,4.2,2-.09,4.07.09,5,2.42a21.89,21.89,0,0,1,.6,6.93q0,36.87,0,73.75c0,2.78.45,5.71-1.6,8.11-1.65,1.72-3.78,1-5.68,1q-224.53.06-449.07,0c-1.34-1.46-1.52-3.27-1.59-5.12-.08-2-.05-4-.05-6q0-517.05,0-1034.11C316.88,260.37,315.9,256.39,318.48,253Z"/><path class="cls-1" d="M1137,1096.46q-18.48,32.49-37,65-19.43,34-39,67.89a7.35,7.35,0,0,1-1,1.12c-2-4.55-1.29-9.43-1.51-14.15-.36-7.63,0-15.29-.12-22.93,0-5.91-.4-6.3-6.17-6.33q-20.19-.08-40.39,0c-5.65,0-6.17.54-6.18,6.4-.06,27.1,0,54.2,0,81.29a60.39,60.39,0,0,1-.23,8c-.31,2.72-2.43,3.66-4.52,4.76-4.81,2.54-5.34,4.35-2.7,9.11,1.45,2.6,3.07,5.1,4.57,7.68.89,1.54,2,3.07,1.41,5.07l-76.06,0a3.53,3.53,0,0,1-.58-1.83c-.1-55.44,0-110.88,0-166.32,0-3.16.2-6.33-.71-9.41a6.81,6.81,0,0,1-.34-1.72c1-6.61.15-13.25.11-19.88-.12-2.47,1.59-3.93,3.11-5.44q34.74-34.8,69.6-69.5c1.4-1.38,3.16-5.41,5.92-1,.47,5.48.42,11,.43,16.44q0,53.35,0,106.7c0,8.1.38,8.5,8.41,8.5,12.63,0,25.26.16,37.89-.08,6.12-.12,6.39-.61,6.57-6.63.29-9.29-.77-18.6.62-27.86a1.94,1.94,0,0,0-.05-2.85,17.49,17.49,0,0,1-.62-5.93c-.13-47,.2-94.1-.17-141.14a13,13,0,0,1,.16-2c-.46-3.26,1.72-5.18,3.72-7.18,9.85-9.87,19.77-19.69,29.58-29.61a332.13,332.13,0,0,0,37.81-45.53,15.76,15.76,0,0,1,3.11-3.87c1.46-1.13,2.72-1.21,3.4.88,1,11.47.26,23,.45,34.45.12,7.43.08,7.49,7.55,7.5q19.23,0,38.47,0c7.81,0,7.89-.08,7.9-7.69,0-14.82.25-29.65-.11-44.47-.16-6.7,1.6-11.91,7-16.13,3.12-2.46,6-5.31,8.94-8,1.33-1.19,2.63-2.65,4.77-2.14,1,41.77-4.28,82.67-17,122.53-.5,1.56-1.24,3-1.88,4.54-1.84-1.65-1.62-3.91-1.67-6-.1-5.17-.08-10.33,0-15.49,0-3.23-1.07-5-4.59-5h-44.47c-3.43,0-4.78,1.63-4.69,4.91,0,2,0,4,0,6q0,56.2,0,112.42C1136.57,1086.5,1137.25,1091.46,1137,1096.46Z"/><path class="cls-6" d="M1004.09,1032.52q-24.69,24.51-49.36,49c-9.26,9.24-18.4,18.59-27.6,27.9-2.58,5-7.29,8-10.91,12-2.32,2.57-4.88,4.93-7.33,7.39-.82.81-1.64,1.62-2.43,2.45q-41.65,41.64-83.32,83.27c-1.79,1.78-3.16,4.49-6.43,4-2-1-3.35-2.73-4.87-4.25Q675.61,1078.15,539.56,941.8c-29.63-29.89-52.62-64.8-70.19-103.17a386,386,0,0,1-31.85-110.45c-2.86-21.48-4.32-43.09-3.25-64.73,2.09-42.16,9.78-83.31,25.09-122.77A385.72,385.72,0,0,1,606.59,357.57c48.11-31.92,101-51.39,158-59.64a168.61,168.61,0,0,1,26.87-1.47c2.57-.23,5.18.5,7.7-.42l28-.3A382.92,382.92,0,0,1,941.13,316c9,3.06,17.93,6.63,26.89,10,.62.48,1.59.2,2.08,1,16.42,7.49,32.3,16,48,24.87,12.84,8.77,25.79,17.39,38,27.05,3.9.95,6.42,4,9.32,6.36,2,1.68,4,3.5,6.14,5.06,7.57,7.65,16,14.35,23.36,22.25,10.12,11.48,20.31,22.89,29.58,35.1a364.56,364.56,0,0,1,30.43,47.46,380,380,0,0,1,28,65.06c1.77,6.76,4.17,13.33,6.1,20.05a364.65,364.65,0,0,1,7.7,37.91,369.38,369.38,0,0,1,4.62,74.62c-.39,9.45-1.06,18.92-2.08,28.34-1.39,8.37-2,16.86-3.89,25.16a391.18,391.18,0,0,1-27.07,88,378.2,378.2,0,0,1-30,54.62c-.9,1.37-1.73,2.88-3.53,3.33-12.11,17-24.82,33.57-39.39,48.58-12,12.38-24.29,24.49-36.45,36.72-.39,2.34-2.32,3.56-3.81,5.06q-18.09,18.15-36.24,36.26c-.81.8-1.63,1.58-2.42,2.4C1012.26,1024.87,1009.16,1029.79,1004.09,1032.52Z"/><path class="cls-7" d="M318.48,253V1309.34H0c2.43-1.49,4.22-.95,5.89-.95q141.62,0,283.24.07c4.77,0,6.55-.79,6.53-6.17-.23-57.28-.15-114.57-.15-171.85l.36-.92a39.92,39.92,0,0,0,.14-6q0-432.07,0-864.16c0-2.13-.51-4.33.45-6.4Z"/><path class="cls-2" d="M817.17,1218.24c8.91-7,16.23-15.55,24.23-23.44,21.67-21.36,43.17-42.88,64.74-64.34a33.92,33.92,0,0,1,21,0c3.48,1,1.94,3.88,1.94,5.87q.13,83.18,0,166.35c0,1.91.75,4-1,5.69-1.39.84-2.92.47-4.39.47q-72.56,0-145.13,0c-1.46,0-3,.37-4.39-.47h-1v-89.78c1.6-1.9,3.85-1.74,6-1.75,10.59-.09,21.18,0,31.77,0A13.51,13.51,0,0,1,817.17,1218.24Z"/><path class="cls-1" d="M1167.86,1185.36c1.35-3.16,4-5.3,6-8,3.26-3.42,6.81-6.37,11.39-8,1.59-.57,2.81-2.53,4.67-.4.11.12-.22-1.46.24-2.15,1.24-3.8-1.06-7.82.75-11.57l1.92-2.91c2.5.35,1.11-2.17,2.13-2.9h0c1.4.45,1.74.06,1.92-2.16,0-.78.13-1.51.94-1.9a16.87,16.87,0,0,0,5.12-6.94h0c1.77-1.36,2.73-3.35,3.92-5.15a12.29,12.29,0,0,1,3.84-5.9,14.4,14.4,0,0,0,3.14-4.13,270.76,270.76,0,0,1,15.86-24.85,10.38,10.38,0,0,0,3.18-5,3.24,3.24,0,0,1,1.82-3c2-2,3-4.48,4.19-7a5.35,5.35,0,0,1,.18-1c.61-.65,1.81-.83,1.69-2.08l2.29-4.92c1.66-.9,2-2.67,2.78-4.16a25,25,0,0,1,3.87-7.94c1.14-.63,1.55.34,2.07.94.13.08.21.28.38.39a3.62,3.62,0,0,1-.8-1.19,6,6,0,0,1,.5-4.15,22.13,22.13,0,0,1,3.82-7.92c1.21-.83.73-3.26,2.94-3.13.4.09.27.73.74.78-.28-.42-.64-.78-1-1.19-.24-.67-.2-1.76.14-1.83,2.68-.55,1.18-2.38,1.27-3.72a11.46,11.46,0,0,1,2.93-6.88c1.1-1.24,1.13-3,2.28-4.26s2.21-1,2.89.6a19.44,19.44,0,0,1,.6,6.44q0,41.92,0,83.85c0,2.32.13,4.67-.72,6.91-2.11,1.91-2.52,4.29-2.46,7.08.16,8.41,0,16.81.06,25.2-.05.66.14,1.4-.49,1.93.51-.38.46-1,.53-1.53,0-8.62,0-17.21,0-25.8,0-1.55-.74-3.33.83-4.63,2.52,1.2,2,3.59,2,5.61.13,7.12,0,14.25.06,21.37,0,6.62,0,6.62,6.62,7.67a8.77,8.77,0,0,1,1.9.53c2.27,2.61-.52,5.25,0,7.88-1.68,1.43-.61,3.42-1,5.1-.64.52-.28,1.77-1.25,2-1.15.21-1.33-.79-1.34-1.57,0-1.26.32-2.52,0-3.62a9.67,9.67,0,0,1-1,5.8,2.66,2.66,0,0,1-1.92.88c1.09.3,1.67-.9,2.66-.91,2,1,1.49,2.4.76,3.88-4.58.88-5.74,3.77-5.52,8.16.27,5.38.56,10.84-1.06,16.13-2,4.22-1.56,8.87-2.26,13.32l0,0c-1.43,2.49-1.51,5.31-1.94,8-.78,4.71-3.49,9-3.19,13.92-1.67.9-2.31.23-2.27-1.49a4.15,4.15,0,0,0,.62-4c-.15-.67-.87.28-.27,0,.29-.12.44,0,.44.24,0,1.14.3,2.34-.52,3.36-1,3.94.17,8-.89,11.94h0c-2,2.35-1,5.47-2,8.07-.39,2.71-2.16,5.06-2,7.9-1.88.25-1.39-1.11-1.69-2.11a34.64,34.64,0,0,1-1.34,14c-2.22,3.73-2.39,8-3,12.09-2.09,1.91-1.12,4.7-2,7-1.64,2.43-.63,5.52-2,8-1.81-1.11-3.81-1-5.81-1q-85.64,0-171.27,0c-2.09,0-4.44-.61-5.82,1.8-3.26,2.36-7,1.85-10.65,1.73a2.63,2.63,0,0,1-1.29-2.07,3.56,3.56,0,0,1,2.24-3.85c10.06-.36,8.41,1,8.15-8.7.42-2.5,2.48-3.81,4-5.53,2.62-1.87,3.62-5.36,6.73-6.74,3.27.48,4.93,3.21,6.87,5.33,2.71,3,5.07,3.69,8.37.82a70.81,70.81,0,0,1,8-5.77c2.81-1.83,3-3.54.6-5.84-1.15-1.08-2.62-2.16-2.16-4.15,13.89-15.2,27.25-30.86,40.41-46.7a41.79,41.79,0,0,1,3.59-3.44c2.27,2.32,1.64,5.29,1.65,8,.06,21.62,0,43.23,0,64.85,0,7.38.22,7.59,7.51,7.59q21.19,0,42.39,0a13.92,13.92,0,0,1,4.94.34c1.61,1.28,3.51.78,5.29.78,13.79,0,27.58,0,42,0-.54,0-.52-.08-.51-.29s-.06-.3-.18-.27c-6,1.22-12.08.36-18.12.49-7.8.17-15.62.07-23.43,0-1.61,0-3.34.51-4.8-.7-1.79-2.54-1.28-5.45-1.28-8.23q-.06-49.94,0-99.87c0-1.83,0-3.67,0-5.49-.21-5.65-.87-6.32-6.41-6.46-3.49-.09-7,0-10.49-.07C1171.45,1186.93,1169.38,1187,1167.86,1185.36Z"/><path class="cls-8" d="M1048.43,1309.62c.31.9.62,1.8.92,2.7-3,3.65.22,7.75-.83,11.55-1.75,13.89.24,27.39,4.21,40.69,1,3.33,2.48,6.68-1.58,9.21-3.69,2.29-8.2,1.73-11.83-1.57-3.41-3.09-5.13-7.26-7.21-11.19-9.19-17.29-16.82-35.43-27.91-51.7l-6.93-11.87c-3.8-6.52-2.92-8.9,4.27-11.71.89-.35,1.72-.85,2.57-1.28,6.61-4.59,14.36-6.43,21.8-9a4.67,4.67,0,0,1,5.61,2.1c5.28,9.22,10.41,18.54,15.51,27.87A8,8,0,0,1,1048.43,1309.62Z"/><path class="cls-6" d="M1234,1346.39c20,1.43,40,2.44,60.07,2.8,3.69,1.24,7.56.76,11.81,1.28-3.29,6.21-6.56,12.26-9.71,18.36-.9,1.76-2.36,1.52-3.82,1.54l-16.43.16c-4.24,2.19-8.84,1.49-13.26,1.26-6.9-.36-13.93,0-20.63-2.26-5.3-.15-10.61-.32-15.92-.45-2.55-.06-3.49-.94-2.72-3.7a52.54,52.54,0,0,0,2.34-11.62C1226,1348.09,1227.94,1345.2,1234,1346.39Z"/><path class="cls-9" d="M153.64,19.11c0,1.67,0,3.33,0,5q0,542.43,0,1084.88c0,1.5,0,3,.07,4.49-2.11-2.48-1-5.44-1-8.14q-.1-397.26-.06-794.52V23c0-1.5,0-3,0-4.5,0-.11.19-.22.29-.33Z"/><path class="cls-10" d="M1833.59,1107.48V24.11c0-1.33,0-2.67-.06-4,0-.16,0-.37.13-.47a3.59,3.59,0,0,1,.63-.45c.1,1.28.29,2.56.29,3.84q0,539.64,0,1079.28C1834.56,1104.05,1835.25,1106,1833.59,1107.48Z"/><path class="cls-11" d="M1226,1406.29c.63-1.67,1.27-3.33,1.91-5q5.41-11.62,10.82-23.26c9.68-.68,19.37-.23,29-.2a5,5,0,0,1,4,1.46l-9,22c-.14,2.43-.43,4.79-3,6-10.24,1.18-20.5.52-30.76.39A4.05,4.05,0,0,1,1226,1406.29Z"/><path class="cls-9" d="M951.11,1.2c-1.49,0-3-.07-4.49-.07h-770c-1.67,0-3.34,0-5,.05-.16,0-.37,0-.48-.12a3.62,3.62,0,0,1-.44-.64c1.28-.1,2.55-.29,3.83-.29H948.23c1.17,0,2.33,0,3.5,0,.11,0,.21.18.32.29Z"/><path class="cls-10" d="M1814.61,1.14H1038.05c1.45-1.7,3.42-1,5.16-1q383.13,0,766.25,0C1811.2.15,1813.17-.58,1814.61,1.14Z"/><path class="cls-12" d="M1271.83,1379.29c-9.37,0-18.74,0-28.11,0-1.73,0-3.69.57-5-1.26,1.09-2.83,2.17-5.67,3.26-8.5l33.89,1Z"/><path class="cls-13" d="M1018.14,20.11q0,122.84-.06,245.65,0,35,.06,69.91c-1,.64-1.19.15-1.07-.77q0-155.43,0-310.87c0-1.5,0-3,0-4.49,0-.12.18-.23.27-.34Z"/><path class="cls-13" d="M970.1,326.94a2.11,2.11,0,0,1-2.08-1c1.59-1.26,1.07-3.05,1.07-4.65q0-150.6,0-301.22c2.14,1.09,1,3,1,4.52Q970.15,175.79,970.1,326.94Z"/><path class="cls-14" d="M1309,1308.35l12.9-36c1.54,4.72,1.69,9.66,1.91,14.54.27,5.81-.07,11.65.12,17.47.09,3.07-1,4.19-4,4s-6,0-9,0Z"/><path class="cls-15" d="M965.77,1357.18H760.56v-.5H966Z"/><path class="cls-16" d="M459.07,1350.18H263.85v-.49H459.27Z"/><path class="cls-17" d="M774.22,1308.35H928.13c0,.33,0,.66,0,1q-74.37,0-148.74,0C777.66,1309.32,775.7,1310,774.22,1308.35Z"/><path class="cls-18" d="M1017.07,334.9l1.07.77c2.59,1.47,5.23,2.93,1.93,6.24-9-4.91-18-9.84-27-14.71-1.26-.68-2.41-1.16-1.57-2.94s2.08-1.77,3.64-.94Q1006.08,329.14,1017.07,334.9Z"/><ellipse class="cls-15" cx="1787.52" cy="1359.78" rx="104.3" ry="0.27"/><path class="cls-19" d="M169.55,1129.45h126c.26.22.34.45.25.67s-.17.33-.26.33l0,0q-60.39,0-120.79,0C173,1130.42,171,1131.1,169.55,1129.45Z"/><path class="cls-20" d="M1048.52,1323.87a22.26,22.26,0,0,0-1.36-4.11c-1.81-3.31-1.32-5.78,2.19-7.45,3.57-.47,7-1.82,10.72-1.15,1.88,1.26,2.85,3.13,1.82,5.12-1.49,2.88-4.74,1.48-7.45,2.3,1.1,1.23,2.08,2.29,3,3.39,1.34,1.58,2.65,3.42.83,5.24s-4.26,1.78-6.33.17A33.56,33.56,0,0,1,1048.52,1323.87Z"/><path class="cls-21" d="M1279.94,1401.35l-3.61,4.47c1.29.94,2.41-.5,3.65-.31.7.25,1.31.57,1.13,1.49-2.45,2.75-6,2.78-9.2,3.62,1.89-.24,3.9-1.08,5.25,1.14-.15,1.4-1.49.79-2.17,1.3l-3.48.14c-3.41.5-6.28.29-5.78-4.38.77-2.31,1-4.86,3.11-6.55,1.81-1.8,3.19-4.26,5.82-4.89C1277.77,1396.63,1280.79,1396.56,1279.94,1401.35Z"/><ellipse class="cls-15" cx="1661.59" cy="1359.78" rx="40.74" ry="0.28"/><path class="cls-22" d="M1268.84,1402.27c-.8,2.35-1.59,4.7-2.39,7.06-2.35-.27-4.52-.87-5.86-3.07.53-1.77.87-3.62,2.28-5,1-.18.8,3.9,2.75.69C1265.94,1401.43,1267.79,1401.54,1268.84,1402.27Z"/><path class="cls-23" d="M1795.64,1129.48l19-.09,1.91.26v.79h-20.88C1795.62,1130.12,1795.62,1129.8,1795.64,1129.48Z"/><path class="cls-24" d="M1825.58,1124.45c2.24-1.53,3.34-4,5-6C1831,1122.57,1829.37,1124.49,1825.58,1124.45Z"/><path class="cls-25" d="M1029.08,3.12c-.83,2.51-4,2.72-5,5C1023.29,4,1027.08,4.46,1029.08,3.12Z"/><path class="cls-26" d="M1827.59,8.15l-2-2a1.19,1.19,0,0,1,2-.33C1828.43,6.52,1828.75,7.36,1827.59,8.15Z"/><path class="cls-2" d="M1531.8,1129.48c-2.45-.37-2-2.27-2-3.87q0-82.12-.06-164.26c0-3.77,1.49-4.87,5.06-4.85,15.64.13,31.29.16,46.93,0,4.07,0,5.07,1.62,5.07,5.36q-.12,81.63-.08,163.26c0,1.67.77,3.88-2,4.37-1.63,1.49-3.66,1.37-5.63,1.37q-20.83,0-41.67,0C1535.45,1130.85,1533.41,1131,1531.8,1129.48Z"/><path class="cls-2" d="M1398.86,1129.51q0-77.19,0-154.37c0-5.08-1.28-10.08-.15-15.26.54-2.52,1.27-3.36,3.73-3.35q24.48.09,49,0c2.65,0,3.63,1.07,3.42,3.58-.07.82,0,1.66,0,2.49v166.86c-1.78,1.61-4,1.39-6.13,1.39q-21.84,0-43.69,0C1402.87,1130.85,1400.65,1131.09,1398.86,1129.51Z"/><path class="cls-2" d="M1662.69,1129.46c-1.11-1.8-1-3.8-1-5.81q0-80.43-.08-160.85c0-4.71,1.23-6.44,6.17-6.34q22.21.42,44.45,0c4.51-.09,5.54,1.3,5.52,5.63q-.21,83.69-.09,167.35c-2,1.39-4.34,1.43-6.68,1.43-14,0-28.11,0-42.16,0C1666.69,1130.85,1664.47,1131.07,1662.69,1129.46Z"/><path class="cls-2" d="M1586.73,1246.74c0,19-.1,38,.08,56.92,0,3.79-1.16,4.81-4.85,4.77q-23.71-.27-47.43,0c-3.71,0-4.84-1-4.82-4.79q.18-56.42,0-112.85c0-4.18,1.42-5.49,5.52-5.44,15.47.18,31,.23,46.43,0,4.4-.07,5.19,1.56,5.15,5.49C1586.63,1209.45,1586.73,1228.1,1586.73,1246.74Z"/><path class="cls-2" d="M1454.81,1246.74c0,19-.09,37.93.08,56.9,0,3.76-1.11,4.83-4.82,4.78-15.64-.18-31.28-.14-46.92,0-3.18,0-4.37-.86-4.36-4.21q.14-57.4,0-114.81c0-3.05,1-4,4-4,16,.1,32,.13,47.92,0,3.48,0,4.12,1.41,4.1,4.47C1454.76,1208.8,1454.81,1227.77,1454.81,1246.74Z"/><path class="cls-2" d="M1717.66,1247.6c0,18.46-.11,36.93.08,55.39,0,4-.83,5.53-5.18,5.46-15.13-.26-30.27-.21-45.41,0-4.07,0-5.54-1.23-5.53-5.42q.2-55.65,0-111.29c0-4.26,1.58-5.35,5.59-5.38,15-.09,29.92.59,44.87-.32,3.72-.23,5.82.91,5.72,5.7C1717.44,1210.33,1717.66,1229,1717.66,1247.6Z"/><path class="cls-2" d="M1584.74,1130.47a5.63,5.63,0,0,1,2,4.76c-.12,9-.16,17.93,0,26.89,0,3.15-.82,4.41-4.18,4.38-16.27-.14-32.54-.09-48.81,0-2.48,0-4.1-.33-4.06-3.45.13-9.63.06-19.26,0-28.88,0-1.63.43-2.94,2-3.68,3.74-1,7.56-.42,11.33-.45,12.26-.09,24.52,0,36.78,0C1581.5,1130,1583.2,1129.55,1584.74,1130.47Z"/><path class="cls-2" d="M1454.82,1130.46c0,10.46-.11,20.93,0,31.38.05,3.33-.75,4.71-4.4,4.67q-23.65-.26-47.32,0c-3.7,0-4.41-1.45-4.36-4.71.15-10.46.06-20.92.06-31.38,4.25-1,8.56-.39,12.83-.42,12.76-.09,25.52,0,38.27,0C1451.57,1130,1453.27,1129.56,1454.82,1130.46Z"/><path class="cls-2" d="M1716.65,1130.46c2,4.14.83,8.53,1,12.8.2,6.48,0,13,.09,19.47.06,2.83-1,3.76-3.8,3.75-16.14-.09-32.29-.06-48.43,0-1.92,0-3.77,0-3.76-2.69,0-10.32,0-20.64.1-31a7.56,7.56,0,0,1,.88-2.31c2.56-1,5.24-.45,7.85-.47,13.75-.07,27.5,0,41.25,0C1713.41,1130,1715.11,1129.56,1716.65,1130.46Z"/><path class="cls-13" d="M1454.82,1130.46l-56,0c0-.3,0-.61,0-.91l56,0Z"/><path class="cls-27" d="M1716.65,1130.46h-54v-1l55,0C1718.49,1130.93,1717,1130.18,1716.65,1130.46Z"/><path class="cls-27" d="M1584.74,1130.47l-53,0c0-.32,0-.65,0-1h52.93C1584.73,1129.81,1584.74,1130.14,1584.74,1130.47Z"/><path class="cls-5" d="M455.45,148.12c-.08-7.08-.08-7.08,6.82-7.08,54,0,107.92.08,161.88-.13,5.23,0,6.07,1.57,6.34,6.43.63,11.36,2.26,22.67,3.42,34,.84,8.22,1.59,16.45,2.38,24.67-2,1.35-4.34,1.49-6.71,1.49l-161.78,0c-6.67,0-7.36-.74-8.07-7.25-1.84-16.86-3.52-33.73-3.83-50.71A3.72,3.72,0,0,0,455.45,148.12Z"/><path class="cls-28" d="M295.49,1130.46v-1q0-434.91.05-869.82c0-2.22-.95-4.68.95-6.67q0,435.42,0,870.84C296.45,1126,297.41,1128.48,295.49,1130.46Z"/><path class="cls-29" d="M455.45,148.12c1.74,3.84,1.35,8.06,1.81,12.07,1.67,14.29,2.87,28.63,4.13,42.95.19,2.17,1.1,2.94,3.12,2.86,1.33-.05,2.67,0,4,0l167.78,0c-1.23,2.75-3.58,3-6.23,3q-85.11,0-170.21,0c-3.52,0-4.54-1.13-4.51-4.58C455.49,185.72,455.43,166.92,455.45,148.12Z"/><path class="cls-5" d="M1469.85,141,1786,141c6.57,0,6.58,0,6.58,6.38V740.34c0,6.34,0,6.34-6.62,6.34H1469.81c-1.89-1.86-1.61-4.29-1.61-6.58q-.08-65,0-129.9c0-2.31-.14-4.71,1.58-6.64a5.32,5.32,0,0,1,4.23-.85c5.68.9,11.3,2.17,17,3.08a4.79,4.79,0,0,1,3.56,2.42c1.16,2.7.85,5.57.85,8.38q0,47.22,0,94.43c0,1.83,0,3.66.11,5.49A3.26,3.26,0,0,0,1499,720c2,.13,4,.11,6,.11h234.81c4,0,8-.1,12,.26,2.72.25,4.06-.86,4.17-3.59.08-1.84.09-3.67.09-5.5,0-36.3-.09-72.61.12-108.91,0-4.45-1.31-6-5.62-5.74-2.63.14-5.31-.2-8-.2q-105.42,0-210.83,0c-4,0-8,.78-12,.17-2.2-1.1-1.26-2.85-.67-4.28a77.64,77.64,0,0,0,5.6-25.15c.16-2.52.21-5.41,2.79-7.14,3.06-1.18,6.26-.79,9.4-.79q105.66,0,211.32,0c3.48,0,7,.29,10.45-.48,8.35-1.15,8.36-1.15,8.36-9.77v-373c-.08-6.53-.08-6.53-6.39-7.51a13.32,13.32,0,0,1-1.94-.46c-2.15-1.22-4.53-1.1-6.83-.84-7.3.82-14.63.55-21.94.55q-112.61,0-225.21,0c-9.26,0-9.27,0-9.27,9.32V427.15a47.3,47.3,0,0,0,.57,9.44c.63,2.51-1.12,3.11-3,3.63-2.87.81-5.84,1.09-8.76,1.64s-4,1.82-3.45,4.79c1.23,6.83,2.06,13.73,3.27,20.56.53,3,2.61,4.83,4.41,7,2.6,3.11,6.78,4.88,7.87,9.26q-.11,33.92,0,67.81c0,6.84.23,7,7.1,6.25,1.56.92,1.61,2.48,1.44,4a60.81,60.81,0,0,1-4.25,17.4c-1.29,3-3.47,4.23-6.78,3.64a164.77,164.77,0,0,1-20.75-5.42c-2.13-.67-3.92-1.87-4.5-4.27a37.21,37.21,0,0,1-.41-8q0-207.14,0-414.29C1468.2,147.35,1467.35,143.87,1469.85,141Z"/><path class="cls-6" d="M1250.18,709.46c-.44-4.91-4-2.27-6.33-2.6-4.15,2.22-8.38,1.69-12.64.42-1.49-1.24-1.41-2.92-1.19-4.59,2.27-17.13,3.16-34.37,4.27-51.6.91-14-.71-27.87-1.35-41.79a113.36,113.36,0,0,0-.76-11.92c-.27-1.71-1-3.32-2.74-1.31-3.4,3.87-6.32,2.31-9.38-.34a49.36,49.36,0,0,1-4.85-4.27c-6.9-7.09-14.69-13.2-21.84-20a56.81,56.81,0,0,0-7.59-6.87c-1.72-1.29-3.15-2.85-3.32-5.18.71-4.8,3.88-8.42,6.1-12.46,6.58-12,13.92-23.46,23.94-33a23.57,23.57,0,0,1,13.11-6.59c11-1.67,22.2-1.53,33.27-2.69,4.84-.51,5.89.63,6.32,5.43.66,7.34,3.72,13.83,7.35,20a138.42,138.42,0,0,0,29.37,35.63c3.08,2.62,4.64,2.1,6.55-1,4.83-7.87,11.3-14.36,17.93-20.69,3.9-3.71,5.14-3.67,9.16.17,6.62,6.34,12.94,12.93,18,20.68,2.3,3.56,2.88,3.45,5-.16,5.7-10,5.31-20.7,3.37-31.51a64.43,64.43,0,0,0-4.06-13.35c-.71-1.69-2.21-3.52-.56-5.54,4.43-1.52,8.47.73,12.68,1.33,5.53,1.79,11.18,3.15,16.83,4.48a18.86,18.86,0,0,1,8.11,3.55c15.18,4.42,28.67,11.93,41,21.77,3.62,2.89,4.34,5.2,1.37,8.75a23.41,23.41,0,0,0-2.31,4.35c-1.6,6.53-5.85,11.69-9.08,17.37-1.6,2.81-2.73,6.07-5.86,7.77-2.91,4.83-6,9.57-8.65,14.54-1.37,2.57-2.67,2.88-5,1.53s-4.81-2.22-7.18-3.41c-1.68-.84-2.82-.89-3.16,1.35-.71,4.58-1.47,9.16-2.21,13.74-4,32-12.87,63.05-20.23,94.38-1,4.33-1.45,8.84-3.4,13-3.18.84-6.27.88-9.12-1.1-2.1-2.22-4.43-2.42-7-.76-4.16,2.63-8.49.46-12.68.26-9.95-.48-19.87-1.53-29.78-2.62-2-.22-4-.33-5.61-1.78-2.13-1.85-4.54-1.51-7-.91-2,1.56-4.37,1.4-6.69,1.17Q1271.26,710.94,1250.18,709.46Z"/><path class="cls-5" d="M1394.84,523.66l-25-6.85a7.12,7.12,0,0,1-1.58-5.12c.08-17.95-.43-35.89.27-53.83a4.77,4.77,0,0,1,.43-1.92c10.72-19.89,6.62-40.13,1.36-60.37-.79-3-1.83-6-2.32-9.13-.41-2.76,1.15-5.4.47-8.19-.38-31-.25-61.92-.26-92.88q0-52.93,0-105.87c0-1.49,0-3,0-4.49-.14-5.65-.34-5.87-5.79-6.47-.83-.09-1.66-.16-2.48-.31a56.24,56.24,0,0,0-10.45-.58H1118.7c-5.16,0-10.31,0-15.47-.42-6.37-.47-7.56.75-7.56,7.26q0,78.18,0,156.36,0,26.23,0,52.46a43.18,43.18,0,0,0,1,10.4c0,1.84-.46,3-2.59,1.9a12.6,12.6,0,0,1-3.41-2.84A217.61,217.61,0,0,0,1072.41,376c-1.84-1.54-3.46-3.13-3.16-5.8.3-21.47.17-42.92.18-64.38q0-77.85,0-155.7c0-3.07-.78-6.38,1.59-9.08h316.12c6.67,0,6.67,0,6.67,6.77q0,184.53,0,369.06C1393.87,519.16,1393.41,521.56,1394.84,523.66Z"/><path class="cls-11" d="M1420,583.67l14.94-25.14c7.16,3.75,14.06,8,21.84,10.48a23.84,23.84,0,0,1,12.9,5c8.18,3.79,17,5.34,25.67,7.47,2.55.63,3.18-1.16,3.89-2.83a59.14,59.14,0,0,0,4.34-20.8c-1.32-1.54-1.21-3.39-1-5.2,2-19.89,0-39.68-1.24-59.5-.3-4.5-4.52-6.43-5.68-10.24-11.95-7.68-14.66-19.69-15.77-32.72-.76-8.94-1.15-8.87,8-10.4,2.75-.47,5.45-1.22,8.17-1.84,6.68-3.88,10-3.14,13.11,3.44,3.42,7.2,8,13.77,10.79,21.31,3.08,8.46,4.54,17,1.64,25.83-1.09,3.3-.73,6.52,0,9.82a382.45,382.45,0,0,1,6.6,50.8c.28,3.86,1.17,8-1.24,11.64-.87,12.07-2,24.08-7.93,35-3.15,9.14-16.26,15.47-25.09,12.11l-23-4.23c-5.32,0-10.35-1-14.78-4.14A315.67,315.67,0,0,1,1420,583.67Z"/><path class="cls-27" d="M1469.65,574a51.36,51.36,0,0,1-12.9-5c0-3.63,0-7.27,0-10.9q0-204.25,0-408.51c0-10.11,3-12.11,13.06-8.58q0,212.76,0,425.51C1469.8,569,1469.7,571.52,1469.65,574Z"/><path class="cls-27" d="M1071.06,141q0,108.36-.06,216.71c0,4.72.27,9.5-.94,14.15-6.23-1.67-10.64-5.68-14.08-10.95,1.38-1,1.47-2.57,1.45-4-.88-70.59-.08-141.17-.46-211.75,0-4.3,1.39-5.74,5.4-5.12C1065.26,140.48,1068.36,139,1071.06,141Z"/><path class="cls-5" d="M1369.88,718.22c.31-8.69,3.41-16.82,5.37-25.15,6.34-26.87,12.72-53.73,17.92-80.85,0-.29.36-.54.55-.8q.06,65.75.17,131.5c0,2.75-.88,3.89-3.72,3.8-4.81-.15-9.64.13-14.45-.1-3.19-.15-4.16,1.25-3.88,4.11q-2-8.62-3.95-17.25C1368,728.32,1370.63,723.49,1369.88,718.22Z"/><path class="cls-27" d="M1456,599.53l14.78,4.14c-1.56,1.5-1,3.45-1,5.21q0,68.89,0,137.8c-3.63,1.4-7.33.31-11,.32-1.49,0-2.14-.36-2-1.91.08-1.15,0-2.32,0-3.49q0-65.86,0-131.75C1456.75,606.41,1456.27,603,1456,599.53Z"/><path class="cls-30" d="M1056,360.94l14.08,10.95,26,23.75c3.08,1.91,3,2.55-.85,5.55-2.32.21-3.58-1.52-4.9-2.92-5.9-6.25-12.47-11.78-18.82-17.55-4.7-4.39-10.55-7.5-14.41-12.84l-11.39-8.74c-1.18-.91-2.52-1.64-1-3.53,1.33-1.69,2.32-1.19,3.68-.15C1050.82,357.36,1053.42,359.12,1056,360.94Z"/><path class="cls-31" d="M1057.06,367.88A142.59,142.59,0,0,1,1072,380c.52,3.78,1.57,7.62-1,11.12l-14.86-12.21C1057.94,375.33,1057.2,371.58,1057.06,367.88Z"/><path class="cls-8" d="M1260.59,1406.26c2,.9,4.26,1.39,5.87,3.06-.62,4.3,3.58,2.3,5,3.88,12.81,9.16,27.62,13.39,42.62,17.11,5.79,1.43,7.36,4.48,4.58,9.73-2.56,4.85-7,7.16-12.27,7.18q-46.38.13-92.76,0c-4.7,0-6.77-2.54-5.61-7.14,2.57-10.12,5.46-20.16,8.19-30.24.67-2.49,2.28-3.47,4.76-3.42,1.66,0,3.32-.1,5-.15Z"/><path class="cls-32" d="M1281.17,1406.42l-1.19-.91c2.63,0,6.47-2.42,7.23,1.86.74,4.1-3.15,5-6.38,5.74a3.59,3.59,0,0,1-1-.06c-.68-.23-1.29-.51-1.15-1.41a3.33,3.33,0,0,1,2.41-1.51C1285.43,1408.94,1283,1407.68,1281.17,1406.42Z"/><path class="cls-33" d="M1278.6,1412.12l1.26.93H1275l2.09-.86A1.06,1.06,0,0,1,1278.6,1412.12Z"/><path class="cls-2" d="M1134.81,892.21c8.08-13.11,16.2-26.17,23.26-39.9a380.74,380.74,0,0,0,33.9-95.92c.68-3.24,1.43-6.46,2.15-9.7,6.11-2.8,12.39-1.76,18.66-.8a1.53,1.53,0,0,1,1.23,1.84c-5,27.44-2.73,55.15-2.89,82.76,0,7.09,1,14.19.78,21.31-.06,2,.17,4-.91,5.82-5.63,5.11-11.2,10.28-16.9,15.31-2,1.77-2.15,3.91-2.14,6.31,0,17.8-.1,35.6.11,53.41,0,4.05-1.26,5-5.12,5q-23.46-.28-46.92,0c-3.89.05-5.16-1-5.11-5C1135.09,919.16,1134.87,905.68,1134.81,892.21Z"/><path class="cls-2" d="M1167.86,1185.36c6.48,0,13,.16,19.42,0,3.26-.07,4.52,1.49,4.66,4.43.06,1.32,0,2.65,0,4v113.56h0c-1.63,1-3.45,1-5.3,1-15.64,0-31.28-.12-46.92.07-3.74,0-4.82-1.08-4.81-4.8.12-25.79,0-51.59,0-77.38q12.52-15.68,25-31.35C1162.56,1191.68,1165.23,1188.53,1167.86,1185.36Z"/><path class="cls-2" d="M1137,1096.46c-1.68-2.79-2-5.86-2-9,0-41.75.09-83.49-.1-125.23,0-4.74,1.45-5.82,5.91-5.75,15.46.25,30.93.2,46.4,0,3.68,0,5,1,4.84,4.77-.24,7.81,0,15.63,0,23.44-2.82,11.85-7.78,22.92-12.81,33.89C1167,1045.49,1151.66,1070.81,1137,1096.46Z"/><path class="cls-2" d="M1267,1129.43q0-49.46,0-98.91c-1.38-1.7-.57-3.43-.09-5.15,1.87-7.94,5.55-15.25,8-23,4.6-14.37,9.3-28.72,14-43.07.3-.94.73-1.84,1.11-2.76,3.69-2.16,7.21-2.25,10.49.83,1.21,7,2.28,14,.64,21,0,15.28,0,30.57-.18,45.85a417.87,417.87,0,0,1-8.63,80.8c-1.6,7.77-3,15.58-4.45,23.37-1.23,2.29-3.41,2.37-5.61,2.39-3.66,0-7.31,0-11,0C1269.68,1130.75,1268.09,1130.77,1267,1129.43Z"/><path class="cls-2" d="M1030.87,1278.29c-1.62-2.91-3.91-2.16-6.35-1.25-6.78,2.51-13.6,5-20.41,7.41,0-31.3,0-62.61-.09-93.92,0-3.73.73-5.28,4.92-5.21,15.48.25,31,.22,46.46,0,3.84,0,4.67,1.27,4.75,4.89.24,11.28-1.09,22.59.72,33.86.33,2-.5,4.23-.8,6.35l-5,9c-3-.31-4.88,1.17-6.51,3.57a96.62,96.62,0,0,1-6.4,8.92c-2.13,2.49-2.17,4.6.42,6.81,1.36,1.16,2.81,2.42,2.9,4.48-1.51,2.94-3.86,5.24-5.83,7.83C1036.37,1273.07,1035.26,1277.67,1030.87,1278.29Z"/><path class="cls-34" d="M1301.07,978.41l-1.38-20.86c-3.14-9.44-2.9-19.09-1.9-28.8,1.67-11.83,5.33-23.21,8-34.83,5.07-22.26,10-44.55,14.22-67,.58-3,.71-6.24,2.47-9.57a195.73,195.73,0,0,1,3.24,31.46c.47,16.76.88,33.58-.86,50.32-2.34,22.53-7.34,44.4-16.36,65.27C1306.37,969.27,1304.32,974.15,1301.07,978.41Z"/><path class="cls-6" d="M1044.92,1263.26c-1.64-3.2-6.8-4.59-6.25-8.2.47-3,3.8-5.66,5.86-8.46a63.85,63.85,0,0,0,4.62-6.45c1.76-3.22,3.57-3.28,5.88-.72,11.89,12.39,23.36,25.19,35.9,37a6,6,0,0,0,.38.91c1.59,2.6,6.27,3.8,5.36,7-.65,2.28-4.37,3.72-6.79,5.45-10.15,7.23-10.15,7.21-19-1.65-.47-.46-1-.86-1.51-1.29-1.94.27-3-1.21-4.15-2.27-6.54-6-12.65-12.44-18.91-18.72A4.32,4.32,0,0,1,1044.92,1263.26Z"/><path class="cls-8" d="M1250.18,709.46a3.9,3.9,0,0,1,3.83-1.59c15,1.39,30,2.66,45,4-.3,1.79-.52,3.59-.91,5.36-2.34,10.58-2.33,10.4-12.92,9.27-10.85-1.16-21.74-2-32.62-2.81-3.85-.27-5.41-1.39-4.08-5.46A70.4,70.4,0,0,0,1250.18,709.46Z"/><path class="cls-8" d="M1306,712.75l48.07,4.14q-.54,3.18-1.07,6.35c-1.52,9.36-1.59,9.2-10.84,8.17-11.68-1.31-23.4-2.32-35.13-3.19-3.6-.27-4.57-1.25-3.37-4.82S1305.2,716.31,1306,712.75Z"/><path class="cls-2" d="M1277.92,1167.43c-11-.61-11-.61-11-11.59q0-12.19,0-24.38c.71-2.78,3-1,4.43-1.49,5.17.27,10.39-.57,15.54.48-2,12.47-4.93,24.73-8.09,37C1278.52,1167.89,1278.23,1167.92,1277.92,1167.43Z"/><path class="cls-5" d="M1214,747.73c-4.69-2.25-9.65-.54-14.47-1-1.79-.18-3.61,0-5.42,0q1.89-12.5,3.79-25c2.09-1.8,4.64-1.39,7.08-1.48,5.09-.19,10.22.53,15.24-.9a2.29,2.29,0,0,1,2.8,1.57c.35.77,1.82,1,.94,2.36C1219.07,730.76,1216.55,739.25,1214,747.73Z"/><path class="cls-35" d="M1223,720.89c-.67-.43-1.35-.85-2-1.27.32-5.47,4-9.19,7-13.18a2.16,2.16,0,0,1,2.77-.14l13,.56c-.82,4.23-1.73,8.44-2.41,12.7-.4,2.57-1.48,3.13-4,2.73C1232.64,721.56,1227.82,721.33,1223,720.89Z"/><path class="cls-36" d="M1369.88,718.22c.51.37,1.49.8,1.45,1.09-.64,4.84-.24,10-3.45,14.17l-9.9-1.05c1-5.12,2-9.95,3-14.78Z"/><path class="cls-37" d="M1297.79,928.75q.95,14.4,1.9,28.8c-3.1-1.83-6.5-.67-9.75-1C1292.34,947.23,1294.28,937.77,1297.79,928.75Z"/><path class="cls-38" d="M1265.94,1210.39c1.48-6,.93-12.09,1-18.15,0-6.84,0-6.84,7-6.8a1.56,1.56,0,0,1,.08,2.08l-5.19,22.88C1267.84,1212.11,1266.89,1212,1265.94,1210.39Z"/><path class="cls-39" d="M1190.93,1155.28c.26,4,2.49,8.09,0,12.15-1.73,1.14-3.77.6-5.64.87-1.59.24-3.36-.47-2.36-2.88C1185.5,1161.94,1187.58,1158.11,1190.93,1155.28Z"/><path class="cls-1" d="M1183,1165.42c1.83,4,5.38,1.15,8,2-1.1.07,2.27,5.15-2,1.76-1.15-.93-1.45.51-2.17.86a88.27,88.27,0,0,0-12.94,7.34Z"/><path class="cls-1" d="M1265.94,1210.39a2.37,2.37,0,0,0,2.86,0c-1.14,4.39-1.89,8.89-3.82,13C1264.36,1219,1263.14,1214.56,1265.94,1210.39Z"/><path class="cls-1" d="M1274,1187.52c0-.69,0-1.38-.08-2.08,0-1.46,0-2.92-2-3a27.54,27.54,0,0,0,.56-10.09c2.07,2,1.17,4.54,1.43,6.86.33,2.8,1.31.26,2,.24C1275.48,1182.18,1275.32,1185,1274,1187.52Z"/><path class="cls-1" d="M1249.94,1283.27c1.22-4.88-.93-10,1.23-15,1.36.63.37,2.58,1.8,3.07A32.67,32.67,0,0,1,1249.94,1283.27Z"/><path class="cls-1" d="M1257.93,1243.39a1.81,1.81,0,0,0,1.94,2c-.88,3.38-1.11,6.94-2.89,10C1256.92,1251.39,1254.42,1247.15,1257.93,1243.39Z"/><path class="cls-1" d="M1258.93,1048.5l-3.21,3a22.19,22.19,0,0,1,4.12-9.08c2,2.41,2,2.34-.44,3.89C1259,1046.56,1259.07,1047.73,1258.93,1048.5Z"/><path class="cls-9" d="M1286.89,1130.45l-16,0c-.34-.21-.45-.42-.34-.63s.23-.31.35-.31c5.6-.6,11.36,1.13,16.86-1.06A1.85,1.85,0,0,1,1286.89,1130.45Z"/><path class="cls-1" d="M1266.83,1025.37l.09,5.15c-2.37.83-2.06,3.89-4.14,5A29.15,29.15,0,0,1,1266.83,1025.37Z"/><path class="cls-1" d="M1277.92,1167.43l.88,0a12.92,12.92,0,0,1-1.87,6.93C1277.46,1172.06,1273.17,1169.09,1277.92,1167.43Z"/><path class="cls-1" d="M1255,1263.49c.84-2.65-2.17-6.26,2-8.07A16.48,16.48,0,0,1,1255,1263.49Z"/><path class="cls-1" d="M1244.94,1302.32c-.18-2.56-1.8-5.52,2-7A14.7,14.7,0,0,1,1244.94,1302.32Z"/><path class="cls-1" d="M1263.06,1231.46c-.35-2.92-.66-5.83,1.94-8A17.56,17.56,0,0,1,1263.06,1231.46Z"/><path class="cls-1" d="M1238.93,1083.45c-.21,3-1.15,5.62-4.18,7A17.63,17.63,0,0,1,1238.93,1083.45Z"/><path class="cls-1" d="M1203,1138.46c-.13,3.48-2.18,5.53-5.12,6.94Z"/><path class="cls-1" d="M1206.9,1133.3c-.35,2.44-1.41,4.35-3.92,5.15A10.66,10.66,0,0,1,1206.9,1133.3Z"/><path class="cls-1" d="M1232.92,1093.41a4.43,4.43,0,0,1-3.18,5A13.55,13.55,0,0,1,1232.92,1093.41Z"/><path class="cls-1" d="M1245.87,1071.32c.19,2.13-.15,3.9-2.78,4.16C1243.7,1073.88,1244.34,1072.3,1245.87,1071.32Z"/><path class="cls-1" d="M1251.89,1059.37l0,5.12-2.2-1.11A8.54,8.54,0,0,1,1251.89,1059.37Z"/><path class="cls-1" d="M1213.88,1123.27c.06,2.21-1.24,3.4-3.14,4.13A6.91,6.91,0,0,1,1213.88,1123.27Z"/><path class="cls-1" d="M1196.91,1147.3c-.27,1.21,1.32,2.22.4,3.38a13.74,13.74,0,0,1-2.32-1.22Z"/><path class="cls-1" d="M1240.8,1080.4c1.73,2.55-.57,1.84-1.69,2.08A3.06,3.06,0,0,1,1240.8,1080.4Z"/><path class="cls-1" d="M1195,1149.47c-.65,1,1.63,4.17-2.13,2.9Z"/><path class="cls-1" d="M747.24,1285.36a2.49,2.49,0,0,1-3.15.76c-2.58-1.08-5.25-.75-7.89-.75H350c-7.38,0-7.48-.09-7.48-7.6q0-497.91-.11-995.83c0-4.82,1.31-6.08,6.1-6.07q197.87.18,395.73,0c4.74,0,6.56,1.13,6.12,6-.41,4.6-.08,9.26-.08,13.89-4.86,2.73-10.36,1.88-15.49,2.25a380.19,380.19,0,0,0-185.08,64.56,433.6,433.6,0,0,0-43,34.14c-22,19.62-40.84,42-57.57,66.14a367.19,367.19,0,0,0-42.93,83.25A374.63,374.63,0,0,0,386.45,625a384.39,384.39,0,0,0-3,75.15,393.34,393.34,0,0,0,12.36,76.75,373.65,373.65,0,0,0,58.5,123.44A411.4,411.4,0,0,0,498,950.91q120.4,120.17,240.6,240.56c2.44,2.44,5.42,4.57,5.95,8.4.63,19.07.13,38.14.28,57.2,0,6.47.08,12.94,0,19.4A14,14,0,0,0,747.24,1285.36Z"/><path class="cls-8" d="M743.24,1198.41c-1.1-1.22-2.15-2.5-3.31-3.67Q616.65,1071.44,493.4,948.1c-55.2-55.46-91.27-121.57-104.87-198.74-22.13-125.64,9.32-236.79,95.23-331.31,55.7-61.29,125.31-99.09,206.62-115.24,19.79-3.94,39.76-5.93,59.86-7l41,.26c.33.22.43.41.29.57a.53.53,0,0,1-.39.21c-37,1.89-72.56,10.23-107.2,22.91A368.09,368.09,0,0,0,598.16,365,384.52,384.52,0,0,0,473.3,512a373.24,373.24,0,0,0-33,106.16,392.9,392.9,0,0,0-4.82,56.49A388.43,388.43,0,0,0,446,766.92c12.6,53.2,35.81,101.33,69.05,144.67,19.74,25.72,43.54,47.62,66.34,70.45Q697.37,1098.2,813.5,1214.17c1.29,1.29,2.45,2.71,3.67,4.07l-43.94.33c-8.12,1.64-13.26-3-18-8.48a44.93,44.93,0,0,0-4-3.68C747.63,1204.69,745.22,1201.76,743.24,1198.41Z"/><path class="cls-7" d="M743.24,1198.41a47.25,47.25,0,0,1,8,8,2.58,2.58,0,0,0-1.64,2.72c1.43,24.27.25,48.56.66,72.84,0,2.19-.49,3.6-3,3.39-4.45.24-4-2.9-4-5.76Z"/><path class="cls-40" d="M791.11,296.82a6.93,6.93,0,0,0,.1-.78h8C796.65,297.72,793.83,296.72,791.11,296.82Z"/><path class="cls-2" d="M1018.08,1018.52l40.89-41c1.81,3.18,1,6.71,1,10q.16,70.95.07,141.89c-.26.22-.51.56-.79.59-11.28,1-22.7,3-33-3.9a8.82,8.82,0,0,1-1.31-.88c-2.67-2.69-4.17-6.18-6.25-9.29a7,7,0,0,1-.6-1.47c-.26-2.24-1.08-4.36-1.29-6.61-.19-27.55,0-55.09-.09-82.63C1016.66,1022.89,1016.79,1020.59,1018.08,1018.52Z"/><path class="cls-2" d="M1004.09,1032.52l11.95-12c3.06.86,1.42,3.36,1.43,4.94.13,27.51.09,55,.09,82.51a27.92,27.92,0,0,0,1.53,7.55l0,0c1.59,3.28,3.19,6.56,6,9l0,0c4.85,4.14,10.52,5.6,16.83,5.58,6,0,12.12-.68,18.14.45,0,11-.06,22,.07,33,0,2.65-.48,3.53-3.47,3.67-15.46.72-30.92,0-46.38.34-4.7.09-6.34-1.58-6.31-6.69.27-37.45.14-74.9.14-112.34Q1004.08,1040.46,1004.09,1032.52Z"/><path class="cls-38" d="M908.1,1128.4l19-18.93c1.19,6.67,2.45,13.34,0,20-5.85,1-11.73.25-17.6.42C908.55,1129.92,908,1129.44,908.1,1128.4Z"/><path class="cls-41" d="M1060,1130.48c-8.92-.5-17.91,1.09-26.77-1-3.28-.77-6.35-1.92-8.2-5,10.85,7.3,23.15,4.47,35,5C1060.73,1129.79,1060.72,1130.13,1060,1130.48Z"/><path class="cls-42" d="M908.1,1128.4c4.37,2.22,9,.56,13.55,1a52.29,52.29,0,0,0,5.46,0,7.85,7.85,0,0,1,0,1l-21,0Z"/><path class="cls-2" d="M1095,400.84c1.2-1.56,4.1-2.79,1-5.2-2-3.06-2-6.46-2-10q.06-106.16,0-212.32c0-7.41,2.46-9.43,9.92-7.78a29.85,29.85,0,0,0,6.44.45q121.65,0,243.3.05c2.06,0,4.36-.83,6.18,1s1.61,4.3,1.61,6.62q0,66.08,0,132.15c0,2.32,0,4.66-1.12,6.8-.16.28-.3.66-.57.79-3.07,1.48-15.9-1.75-17.65-4.41-9-13.7-25.42-16-37.76-5.06-3,2.69-5.75,3.09-9.49,1.72-7.49-2.75-15-2.56-22.21,1.25-5.44,2.88-8.64,7.44-8.3,13.69.2,3.71-1.07,5.43-4.55,6.36a22.31,22.31,0,0,0-15.25,13.28c-2.5,5.69-1.78,10.79,2.79,14.91,3,2.67,1.37,4.34-.68,6a38.52,38.52,0,0,0-9.16,9.77c-5.54,9.05-3.81,15.09,5.74,19.62a9,9,0,0,1,4.5,4.41c2.5,5.21,6.56,8.55,12.38,8.73,5.65.19,8.78,3,10.64,8,1.15,3.1,3.21,5.82,4.06,9.08a5.55,5.55,0,0,1,0,2c-2.17,10.7,1,17.18,11.34,21.71a18.47,18.47,0,0,1,9.64,9.53,7.79,7.79,0,0,1,1.13,3.8c-1.11,13.85-.49,28-7.5,40.8-.55,1-1,2.08-1.68,3.06-3.67,5.75-3.61,5.67,1.81,10.14a280.69,280.69,0,0,0,36.86,25.53c3.48,2,6.09,1.74,8.81-1.13,3.65-3.86,7.78-7.28,9.15-12.8,1.61-6.43.33-9.53-5.54-12.59-11.74-6.13-15.79-14.5-13.31-27.53.84-3.37.9-7,3.32-9.83,1.79-1.08,3.8-1,5.76-.94a41.38,41.38,0,0,0,20-4.48c1.76-.89,3.67-2.52,5.83-.63a8.67,8.67,0,0,1,.88,4.33c.05,11.41.19,22.82-.07,34.23-.08,3.54-.08,7.43-4.53,8.88,5.62,11.86,9,24.1,7.23,37.44a40,40,0,0,1-5.46,15.3c-1.47,2.48-2.64,3.82-4.9.12-5.2-8.55-11.81-16-19-23.06-2.79-2.74-4.6-3-7.53-.09a141.73,141.73,0,0,0-19.31,23.44c-.85,1.33-1.35,3.63-3.9,1.35-16.26-14.53-30.69-30.38-38.29-51.34-.73-2-1.9-4.32-1.52-6.2,1.36-6.58-2.81-5.77-6.7-5.53-8.78.55-17.56,1.54-26.34,1.62-11.44.09-18.62,6.69-25.12,14.85-9.14,11.48-16.12,24.29-23.1,37.1-.33.61-.72.65-1.18.13-6.66-18.84-13.94-37.42-23-55.23a382.56,382.56,0,0,0-61.22-87.33c-1.24-1.33-2.35-2.78-3.52-4.17C1092.36,408.89,1091.22,404.64,1095,400.84Z"/><path class="cls-43" d="M1185.05,675.15c-.57,54.15-10.55,103.69-31.26,151a363.66,363.66,0,0,1-53.93,87c-20.46,24.61-44.18,46.14-66.73,68.76Q928.22,1087.21,823,1192.18c-5.25,5.24-5.24,5.24-10.37.12Q682.41,1062.09,552.34,931.76c-20.76-20.9-37.94-44.77-52.74-70.37a363.11,363.11,0,0,1-31.51-71.48A351.08,351.08,0,0,1,453.3,721c-1.64-15-3.1-30-2.79-45.08.76-36.62,5.82-72.59,16.82-107.68a372,372,0,0,1,46.51-96.63A368.6,368.6,0,0,1,710,326.6a377.76,377.76,0,0,1,69.07-13.88,365.73,365.73,0,0,1,186.74,29,364.4,364.4,0,0,1,83.07,50.83A386.71,386.71,0,0,1,1099.87,443a349.47,349.47,0,0,1,45,68,361.87,361.87,0,0,1,34.33,103.49A445.52,445.52,0,0,1,1185.05,675.15Z"/><path class="cls-2" d="M1230.82,706.3c-2.56-.13-3.09,2-4.06,3.65-2,3.21-3.84,6.44-5.76,9.67-1,2.34-3.13,2.08-5.13,2.08h-18c.85-16.74,2.52-33.42,2.11-50.23A485.58,485.58,0,0,0,1195.4,618c.13-2.12,1.6-3.55,2.71-5.15,4.68-6.77,9.75-13.28,14.19-20.22.74-1.17,1.31-2.77,3.17-2.71,2.29,1.91,4.85,3.58,6.8,5.79,2.47,2.81,4.14,2.39,6.09-.41,1.1-1.57,2.54-2.91,4.43-5.05A465.22,465.22,0,0,1,1230.82,706.3Z"/><path class="cls-11" d="M1215.47,589.94A281.41,281.41,0,0,1,1195.4,618c-2.08-12.84-5-25.51-7.86-38.2.42-4.28,2.32-7.59,6.28-9.54Q1204.65,580.11,1215.47,589.94Z"/><path class="cls-44" d="M1095,400.84c-1.51,4-.72,8.23-1.1,12.34l-23-22.11c.65-3.68-1-7.57,1-11.12C1080.21,386.28,1087.22,394,1095,400.84Z"/><path class="cls-45" d="M1193.82,570.28l-6.27,9.54-5.85-19.91,1.18-.13Z"/><path class="cls-13" d="M1017.14,1109.46q0-41.65-.1-83.32c0-1.89.79-4-1-5.65a3.53,3.53,0,0,1,2-2l0,91C1017.74,1109.94,1017.44,1109.92,1017.14,1109.46Z"/><path class="cls-11" d="M1030.87,1278.29q4-4.11,8-8.24c7.92,6.31,14.86,13.71,22.42,20.42a4.68,4.68,0,0,1,1.79,2.9l-4,5c-2,3.59-3.92,7.3-8.1,8.94l-2.59,2.32Q1039.65,1294,1030.87,1278.29Z"/><path class="cls-12" d="M1063.11,1293.37c-7.8-7-15.61-14-23.35-21.07-.53-.48-.59-1.49-.86-2.25q3-3.4,6-6.79l24.47,23.52Z"/><path class="cls-1" d="M1265.07,1122.12v-85.28h.5v85.48Z"/><path class="cls-46" d="M1051,1307.3l8.1-8.94c.18.77.41,1.53.54,2.31C1061,1308.69,1059,1310.17,1051,1307.3Z"/><path class="cls-1" d="M1192,1307.34c13.93,0,27.85,0,41.77,0,1.59,0,3.31.57,4.77-.67.39-.33.5-2.74,1.49-.34.28.69.61,1.68-.62,2a10,10,0,0,1-2,.09h-42.26c-1.16,0-2.35.07-3.17-1Z"/><path class="cls-1" d="M1271,1129.49c0,.31,0,.62,0,.94-1.38.18-3-.44-4,1-1.51,1.29-1,3-1,4.62,0,7.58,0,15.15,0,22.73,0,1.58.53,3.34-1,4.62v-28.85c0-2-.31-4.09,2-5.15Z"/><path class="cls-1" d="M1187.65,1180.23H1175.1C1180,1174.65,1185,1181.43,1187.65,1180.23Z"/><path class="cls-1" d="M1265.74,1188.64v17.19C1263.26,1199.83,1265,1194.22,1265.74,1188.64Z"/><path class="cls-1" d="M1176.21,1183.67h13.72v.5h-13.69Z"/><path class="cls-1" d="M1267.15,1182.37c1.93-1.61,3.35-.56,4.75.11a2.09,2.09,0,0,1-.43,1.27C1269.72,1185,1268.57,1183.83,1267.15,1182.37Z"/><path class="cls-1" d="M1236.47,1091.68c1.31,2.6,2.78,4.38,2.07,6.87C1238,1096.46,1235.26,1095.23,1236.47,1091.68Z"/><path class="cls-1" d="M1221.89,1119.66c-.07.9-.41,1.65-1.42,1.64-1.29,0-.86-1.11-1-1.8-.13-1,.33-1.7,1.3-1.66S1221.9,1118.83,1221.89,1119.66Z"/><path class="cls-1" d="M1239.46,1298.73c-.46-2.44-1.08-3.69.23-4.61a1.38,1.38,0,0,1,1.26.41C1241.83,1296,1240.51,1296.72,1239.46,1298.73Z"/><path class="cls-1" d="M1254.83,1057.38v6C1254.12,1061.78,1252.84,1060.27,1254.83,1057.38Z"/><path class="cls-1" d="M1204,1147.45c-1.53-2.13-.27-3,.3-4.67C1205.2,1144.71,1205.1,1145.88,1204,1147.45Z"/><path class="cls-1" d="M1247.39,1284.28c-1.32-2.2-.36-3.54.07-6C1248.05,1280.8,1248.15,1282.21,1247.39,1284.28Z"/><path class="cls-1" d="M1255.49,1240.2a4.68,4.68,0,0,1-.11,4.38A4.68,4.68,0,0,1,1255.49,1240.2Z"/><path class="cls-1" d="M1244.27,1080c1.71.64,1.64,1.84,2.52,3.47A3.35,3.35,0,0,1,1244.27,1080Z"/><path class="cls-1" d="M1251.93,1064.44c1.48.92,2.11,1.76,1.71,3.47C1251.77,1067.26,1252,1065.8,1251.93,1064.44Z"/><path class="cls-1" d="M1258.56,1047.28c1.3,2.38,2.45,3.17,1.46,4.37a1.23,1.23,0,0,1-1.19,0C1257.81,1050.61,1259.21,1049.57,1258.56,1047.28Z"/><path class="cls-1" d="M1258.06,1243.31v-3.76c.24,0,.43-.1.44-.07C1259.18,1240.9,1259.22,1242.24,1258.06,1243.31Z"/><path class="cls-1" d="M1230.86,1103.27l-.92.76a3.49,3.49,0,0,1-.53-1.08c0-.21.35-.59.61-.68C1230.71,1102.05,1230.8,1102.57,1230.86,1103.27Z"/><path class="cls-1" d="M1265.31,1164.25l-1.68,1.45c-.18-.36-.61-.89-.5-1a2.7,2.7,0,0,1,1.34-1.11C1265.69,1163.25,1264.21,1164.28,1265.31,1164.25Z"/><path class="cls-47" d="M1055,1327c-2-.08-6.14-5.27-5.74-7.36.08-.41.5-1.09.71-1.07,2.27.23,3.64,2,5.27,3.32,1.1.88,2.48,1.88,2.06,3.59A2.23,2.23,0,0,1,1055,1327Z"/><path class="cls-48" d="M1049.19,1315.26c3.24-2.23,5.81-3.08,8.69-2.91,1.44.08,2.76.68,2.86,2.21.12,1.87-1.52,1.91-2.81,2A19,19,0,0,1,1049.19,1315.26Z"/><path class="cls-49" d="M1278.6,1412.12l-1.52.08c-1.89-1.3-4.21-.33-6.49-1.32,3.23-2.49,7.2-2.82,10.58-4.46,1.56.38,4.18-1.37,4.53,1.25s-2.06,3.34-4.31,3.7A25.59,25.59,0,0,0,1278.6,1412.12Z"/><path class="cls-50" d="M1268.44,1409.07c1.56-4.4,2.85-7.73,6-9.9,1.12-.77,2.56-1.43,3.63-.41,1.33,1.27-.14,2.44-.88,3.33A24.58,24.58,0,0,1,1268.44,1409.07Z"/><path class="cls-2" d="M1526.82,560.79c0-22-3-43.76-7.38-65.3a9.44,9.44,0,0,1,.14-5.32c3.91-11.07,2-21.62-3.15-31.81-2.82-5.65-6-11.12-8.61-16.86-1.82-4-4.08-5.72-8.41-3.91a11.76,11.76,0,0,1-3.45.36c-1.28-.23-2.14-.86-2.14-2.29s0-3,0-4.5q0-129.14,0-258.27c0-6.86,0-6.86,7.1-6.86q120.39,0,240.79,0c4.26,0,8.53-.46,12.78-.84,1.82-.16,3.32,0,4.17,1.86l.21,1a56,56,0,0,1,.21,8q0,186.48,0,373c0,3,0,6,.07,9a3.11,3.11,0,0,1-.49,1.88c-1.65,1.72-3.78,1-5.68,1Q1639.89,560.82,1526.82,560.79Z"/><path class="cls-2" d="M1493.8,607.9c10.65.7,18.92-3.53,25.09-12.11a93.22,93.22,0,0,1,16.86-1q104.38,0,208.79,0c3.77,0,7.51,1.13,11.32.14,1.75-.46,1.92.57,1.91,2.31q-.18,60.2-.1,120.38c0,4.13-1.1,6-5.62,4.54-1.82-.6-4-.37-5.93-.37q-122.88,0-245.76,0c-6.56,0-6.57,0-6.57-6.39Q1493.8,661.6,1493.8,607.9Z"/><path class="cls-51" d="M1758.64,559.79l0-1c-.84-1.75-.43-3.61-.43-5.41q0-190.48,0-381c0-1.8-.43-3.66.45-5.4h0c10,0,10,0,10,9.91v373C1768.64,559.83,1768.64,559.83,1758.64,559.79Z"/><path class="cls-51" d="M1768.64,658.76c0,18.8-.07,37.6.06,56.4,0,3.71-.32,5.78-5,5.71-4.3-.06-5.2-1.51-5.19-5.5.14-37.77.08-75.54.09-113.3,0-4.21,5.25-7.6,9-5.75,1.73.86.95,2.67,1,4Q1768.69,629.57,1768.64,658.76Z"/><path class="cls-52" d="M1495.6,482.91c6.19,3.31,7.25,8.77,7.59,15.32,1,19.88,2.48,39.73.36,59.62-1.84,2.86-4.75,2.27-7.18,1.68-2.69-.65-1.52-3.35-1.53-5.14q-.1-33.85,0-67.72C1494.8,485.38,1494.47,484,1495.6,482.91Z"/><path class="cls-27" d="M1356.77,514.78c2.35-2.47,3.11-5.48,3.1-8.81q-.06-19.61-.06-39.19a22.69,22.69,0,0,1,10-9.93l.07,60C1365.42,516.72,1361.32,514.27,1356.77,514.78Z"/><path class="cls-53" d="M1335,580.91c0,1.79.27,4.32-1.86,4.5-2.34.19-2.26-2.34-2.23-4.11s-.14-4.21,2.19-4.25C1335.16,577,1334.91,579.3,1335,580.91Z"/><path class="cls-54" d="M1335.37,563.3c-.4,1.47.25,4-2.15,3.66-2.12-.27-2.17-2.62-2.15-4.44,0-1.63.1-3.9,2.22-3.68C1335.61,559.09,1335,561.64,1335.37,563.3Z"/><path class="cls-11" d="M1369.81,456.85a82.28,82.28,0,0,1-10,9.93c-9.37,5.9-19.64,8-30.58,7.16-6,1.53-10.91-1.68-16.08-3.71-1.69-.66-3-2.1-5.39-2.81A29.33,29.33,0,0,0,1322.05,481c1.64.76,3.5,1.15,4.6,2.81-1.61,14.5,2,20.93,15.41,27.1,4.63,2.12,4.82,6.13,4.32,10.06-1.14,8.82-7.46,14.15-13.94,19.25-1.54,1.2-2.73.36-4.07-.4a258.81,258.81,0,0,1-43.28-30.25c-2.31-2-2.85-3.26-.42-6.09,7.9-9.18,9.06-20.76,10.21-32.21.35-3.47.35-7,.6-10.45A14.49,14.49,0,0,0,1286.3,446c-.77-.3-1.57-.55-2.3-.92-10.12-5.24-13.31-12.9-10-23.84,2.08-4,5.78-4.84,9.74-4.54,3.44.27,4.62-1.08,5.07-4.36a104.5,104.5,0,0,0,.33-22.36c-.39-5.23.19-6.22,5.54-6.34a34,34,0,0,0,15.2-4.29c2.56-1.34,4.94-3.12,5.86-5.88,1.48-4.43,4-4.34,7.66-2.78a22.7,22.7,0,0,0,15.13,1c4-1.09,7.32-2.78,9.87-6.22s6.28-3.63,9.36-.51a35.55,35.55,0,0,1,6.61,9.32c1.93,4,1.33,4.92-3.32,5.82,4.72-.67,7.24,1.53,8,6,4.14,13.49,7.69,27,8,41.34C1377.31,438,1375.49,447.82,1369.81,456.85Z"/><path class="cls-55" d="M1369.1,386c-2-4.67-5.48-5.65-10.07-4.19-1,.32-2.63.87-3-.6-.46-1.8,1.31-2.07,2.56-2.28,1.79-.31,3.63-.4,5.92-.62-1.61-5.34-4.83-9.53-8.42-13.28a4,4,0,0,0-6.09.43c-6.53,8.1-17.47,10.65-27.74,6.39-1.21-.5-2.36-1.14-3.55-1.73-3,8.87-11.57,14.78-22.47,14.74-4.68,0-6.6.24-5.66,6,1.34,8.18.58,16.58-.65,24.85-.35,2.39-.89,3.63-3.8,2.59-4.5-1.62-8.41.38-12.08,2.87-1-2.09-2.14-4.13-2.94-6.3-2.29-6.19-5.36-10.45-13.21-10.35-5.24.06-9.59-3.67-11.15-9.23-.64-2.29-1.93-2.94-4-3.62-8.6-2.76-11.52-9.7-8-18.12,2.86-6.85,8.39-11.32,14.1-15.71-7.23-4.87-8.85-10.75-5.29-18.51a24.34,24.34,0,0,1,17-14.13c1.61-.4,2.75-.3,2.65-2.87-.37-10.37,5.08-17,15.53-19.22,5.95-1.26,12-1.1,17.49,1.75,2.82,1.46,4.43,1.12,6.66-1.22,9.54-10,26.36-11.28,35.71-1.26,5,5.35,9.41,9.47,16.74,10,1.23.1,2.39,1.1,3.57,1.68,5.13,2.79,7.72,10.78,4.06,16.92-3.16,5.31-2.7,8.08,2,12,5.47,4.58,5.42,11.48,1.29,17.91-.86,1.34-1.54,2.71-.88,4.19,2.1,4.73,2.35,10,4.6,14.69C1373.35,382.4,1367.65,383.76,1369.1,386Z"/><path class="cls-27" d="M1369.89,379.86c-2.41-.13-2.1-2.3-2.59-3.7-1-2.8-1.37-5.82-2.55-8.52-1.5-3.45-1.75-5.86,1.51-8.86,3.64-3.34,2.47-7.93.15-11.9s-6.1-6.41-9.71-9.05c8-7.6,8.63-15.78,2.1-23.72a26.87,26.87,0,0,0,1.09-8.33q-.06-69.39,0-138.76c10-.05,10-.05,10,9.9Z"/><path class="cls-41" d="M1025.09,1124.47c-3.48-2-5.78-4.84-6-9C1021.93,1117.89,1023.15,1121.42,1025.09,1124.47Z"/><path class="cls-56" d="M1017.14,1109.46h.91c1.2,1.85,1.05,4,1,6A8.55,8.55,0,0,1,1017.14,1109.46Z"/><path class="cls-12" d="M1326.65,483.81c-9.88-2.68-17-8.38-20.31-18.46a56.43,56.43,0,0,0,22.89,8.59Z"/><path class="cls-6" d="M816.47,312.88A366,366,0,0,1,936.63,332.7a370.45,370.45,0,0,1,72.77,34.63,364.1,364.1,0,0,1,145,170.11,367.61,367.61,0,0,1,23.25,80.65c2.55,15.16,3.53,30.57,4.65,46,1,13.7.23,27.28-.68,40.76a350.78,350.78,0,0,1-13.41,74.68,370,370,0,0,1-28.12,69.69,330.74,330.74,0,0,1-39.79,59.54c-34.1,40.18-73.15,75.55-110.11,112.94-55.63,56.27-111.85,111.94-167.67,168-3.62,3.64-5.35,3.49-8.89-.06Q681.51,1057.12,549.23,924.75c-18.68-18.79-33.76-40.57-47-63.53a361.34,361.34,0,0,1-29.32-63.77,351.21,351.21,0,0,1-15.47-62.69,409.8,409.8,0,0,1-4.25-48,387.52,387.52,0,0,1,3-56.38,360.58,360.58,0,0,1,73.93-177.06,398.05,398.05,0,0,1,36.15-39.83,361.55,361.55,0,0,1,101.09-68.23,365.34,365.34,0,0,1,81.42-25.9,376.56,376.56,0,0,1,43.83-5.53C800.59,313.23,808.51,313,816.47,312.88Z"/><path class="cls-5" d="M1758.62,167q0,195.88,0,391.77c-1.58-1.5-.93-3.45-.94-5.2q0-190.7,0-381.38C1757.67,170.46,1757,168.51,1758.62,167Z"/><path class="cls-57" d="M1351.71,407.87c4,3.06,6.33,7,9.74,10.1.84.76,2.63,1.51,1.6,3.12-1.25,2-3.59,2.17-5.64,2.67-1.56.38-2.44-.51-2.76-2.06C1353.69,417.09,1352.69,412.48,1351.71,407.87Z"/><path class="cls-58" d="M1365.12,390.77c-.74,2.42-2,3.61-1,5.48,1.24,2.31,1.4,4.95-1.33,6.45-1.72.94-3.12-.17-4-1.84-1.38-2.77-1.53-5.43,1.21-7.46A38.49,38.49,0,0,1,1365.12,390.77Z"/><path class="cls-59" d="M1334.18,397c-.24,2.16-1.14,3.62-.15,5.58,1.13,2.25,1,4.65-1.35,6.09-1.43.89-2.89.1-3.72-1.43-1.36-2.49-2.07-5.14.18-7.33C1330.49,398.61,1332.48,398,1334.18,397Z"/><path class="cls-60" d="M1313.15,387.85c-1.68-.41-1.55-1.53-.82-2.61a16.07,16.07,0,0,1,10.93-7.11,1.83,1.83,0,0,1,2.08,1,1,1,0,0,1-.62,1.58,17.73,17.73,0,0,0-10.63,6.82C1313.92,387.74,1313.49,387.74,1313.15,387.85Z"/><path class="cls-61" d="M1347.42,435c-6.54,3.47-15.54,1.11-20.09-5.09C1333.58,433.43,1340,436.15,1347.42,435Z"/><path class="cls-62" d="M1012.12,678c.63,106.76-86.62,194.09-193.61,194.5A194.46,194.46,0,0,1,623.32,674c2-104.38,86.66-189.8,193-190.58C925.94,482.58,1012.89,572,1012.12,678Z"/><path class="cls-6" d="M817.83,485.81c105.64-.43,192.84,86.08,192.17,192.91-.65,104.93-83.91,190.75-190.85,191.47-108,.74-195.08-85.93-193.63-195.59C626.87,571.54,711.65,485.41,817.83,485.81Z"/><path class="cls-2" d="M773.19,506.76A61.39,61.39,0,0,1,794,502.82c13.27.27,25.37,5.2,37.43,9.86a166.64,166.64,0,0,1,57.58,37.87c22.09,22,37.84,48,46.4,78.08a174.31,174.31,0,0,1,6.93,53.75c-1.46,42-15.64,79.25-42.94,111.41-23.55,27.73-53.09,46-87.81,56.21-6.07,1.78-12.2,3.16-18.59,2.84-6.82.09-13.28-1.87-19.8-3.49-2.23-2.92-1.65-6.36-1.65-9.64q0-132.68,0-265.34,0-29.73,0-59.47C771.6,512.11,771.19,509.19,773.19,506.76Z"/><path class="cls-1" d="M742,837.73c-21.12-9.37-39.13-23.07-54.66-40C663.13,771.38,648,740.4,642.64,705c-6.62-44,2.06-85.15,26-122.76,16.68-26.17,39-46.44,66.37-61.07,3.19-1.71,6.59-3,9.9-4.52,2.25-.66,2.94.28,1.94,2.21-2.44,4.68-2,9.71-2,14.67q0,141.76,0,283.52c0,5.82-.54,11.63-.21,17.46C744.76,836.07,745.29,838.72,742,837.73Z"/><path class="cls-8" d="M793,852.84c54.74-10.27,96.78-39.1,124.69-87.28,40.5-69.92,27.18-160.53-31-215.46C861,525.81,830.83,510,795.88,503.57a9.36,9.36,0,0,1-1.84-.75c3.85-1.88,8.12-1.56,12.14-1.8,31.83-1.91,62.24,4,90.77,18.31,38.11,19.18,65.68,48.57,83.16,87.42,7.9,17.55,12.25,36,14.1,55.17a170.92,170.92,0,0,1-19.06,97.35c-21.62,41.44-54.84,69.89-98.81,85.88-24.2,8.8-49.19,10.69-74.61,9.35C798.82,854.35,795.94,853.41,793,852.84Z"/><path class="cls-5" d="M773.19,506.76q0,171.3,0,342.59a123.54,123.54,0,0,1-23-7.87c-1.83-1.84-1.77-4.18-1.77-6.53q.35-155.69,0-311.35c0-3-.29-6,.65-8.9C756.9,511.2,764.79,508.21,773.19,506.76Z"/><path class="cls-7" d="M749.18,514.7c2.44,4.15,1,8.67,1,13q.18,152,.09,303.93c0,3.3,0,6.59,0,9.89a28.29,28.29,0,0,1-8.26-3.75c1.12-.16,1.49-.52,1.48-1.91q-.19-89.1-.23-178.19,0-63.69.09-127.38c0-4.32-1.79-9.45,3.16-12.68l-1.56-.88Z"/><path class="cls-63" d="M820.17,699.75c23.13,0,46.27.07,69.4-.12,4.44,0,5.69,1.5,5.67,5.79q-.16,33.2.17,66.39c0,4-2.54,2.79-4.35,2.81-14,.08-28,0-41.94,0q-14.48,0-29,0c-1.27-1.58-.95-3.47-.95-5.27q0-32.16,0-64.32C819.21,703.22,818.89,701.33,820.17,699.75Z"/><path class="cls-29" d="M820.17,699.75v74.86c-2.56-.29-2-2.28-2-3.82q0-33.62,0-67.23C818.21,702,817.59,700,820.17,699.75Z"/><path class="cls-2" d="M687.27,719.7A24.19,24.19,0,0,1,704,712.44c9.68-.51,20.56,8,20.33,20.95a20.42,20.42,0,0,1-20.53,20.28h-3.48c-2.62,1.58-4.86,0-7-1.09-11.88-6.05-13.67-19.64-9.49-29.6A5,5,0,0,1,687.27,719.7Z"/><path class="cls-64" d="M687.27,719.7c-8.54,11.45-4.3,31,13,34,1.64,2,4.19.22,6.22,1.54-4.75,1.34-9.27,3.17-14.18,2.28-8.51-1.53-15.72-8.16-17-15.44-1.68-9.83,2.26-18.6,10.49-23.37C687.08,718,687.16,718.83,687.27,719.7Z"/><path class="cls-2" d="M831.14,723.74c-.36-2-.7-3.9-1.08-5.85-1.36-7-1.21-7.17,5.61-7.18,14.47,0,29,.14,43.42-.08,4.4-.06,5.93,1.07,6.23,5.82.73,11.67,2.48,23.28,3.46,34.95.25,3.07,2.32,6.84-1.64,9.32-1.58,1.64-3.64,1.42-5.62,1.43q-20.7,0-41.41,0c-6.1,0-7-.73-7.55-6.71C831.54,744.9,830.41,734.36,831.14,723.74Z"/><path class="cls-65" d="M831.14,723.74q1.54,17.28,3.09,34.56c.28,3.21,2.74,2.34,4.53,2.34,16.12.08,32.25.07,48.38.08,1.27,3.13-1.07,2.92-2.84,2.92-17,0-33.92,0-50.88,0-1.92,0-3.22-.45-3.23-2.73-.05-12.1-.14-24.2-.16-36.3C830,724.34,830.75,724,831.14,723.74Z"/></g></g></svg>