<svg xmlns="http://www.w3.org/2000/svg" viewBox="0 0 66.98 53.71"><defs><style>.cls-1{fill:#e0f4fd;}.cls-2{fill:#69c6ea;}.cls-3{fill:#e1f5fe;}.cls-4{fill:#41d7d2;}.cls-5{fill:#b7d6e1;}.cls-6{fill:#f79787;}.cls-7{fill:#5c9cd2;}.cls-8{fill:#30256a;}.cls-9{fill:#84def6;}.cls-10{fill:#325095;}.cls-11{fill:#fefefe;}.cls-12{fill:#5b9cd2;}.cls-13{fill:#5b9dd2;}.cls-14{fill:#f79788;}.cls-15{fill:#72a4d4;}.cls-16{fill:#232357;}.cls-17{fill:#84dff6;}.cls-18{fill:#83def6;}.cls-19{fill:#84def7;}.cls-20{fill:#2a1d52;}.cls-21{fill:#e0ecf1;}.cls-22{fill:#5b9dd3;}.cls-23{fill:#2a1e52;}.cls-24{fill:#fcfcfc;}.cls-25{fill:#fdfdfd;}.cls-26{fill:#fee568;}.cls-27{fill:#3f65ad;}.cls-28{fill:#fd6779;}.cls-29{fill:#ce6f70;}.cls-30{fill:#fd677a;}.cls-31{fill:#fbb3c3;}.cls-32{fill:#fdca2f;}.cls-33{fill:#cd437e;}.cls-34{fill:#fefefd;}.cls-35{fill:#35bcb2;}.cls-36{fill:#ce6f6f;}.cls-37{fill:#e5eff2;}.cls-38{fill:#d07272;}.cls-39{fill:#315095;}.cls-40{fill:#659dcd;}.cls-41{fill:#38bcb3;}.cls-42{fill:#c46065;}.cls-43{fill:#291d51;}.cls-44{fill:#cf6f6f;}.cls-45{fill:#db7b76;}.cls-46{fill:#e2827b;}.cls-47{fill:#e6877e;}.cls-48{fill:#d77774;}.cls-49{fill:#281936;}.cls-50{fill:#271836;}.cls-51{fill:#cf6f70;}.cls-52{fill:#cb7375;}.cls-53{fill:#36bcb2;}.cls-54{fill:#fbcb33;}.cls-55{fill:#cf7071;}.cls-56{fill:#fccb32;}.cls-57{fill:#d17272;}.cls-58{fill:#fcce38;}.cls-59{fill:#dd7d77;}.cls-60{fill:#ce7071;}.cls-61{fill:#5f9ed1;}.cls-62{fill:#cc437e;}.cls-63{fill:#335297;}.cls-64{fill:#cd6f6f;}.cls-65{fill:#cd7272;}.cls-66{fill:#dd7d78;}.cls-67{fill:#dc7d78;}.cls-68{fill:#271936;}.cls-69{fill:#271835;}.cls-70{fill:#d07071;}.cls-71{fill:#e6877f;}.cls-72{fill:#c86d70;}.cls-73{fill:#e5877f;}.cls-74{fill:#c56c70;}.cls-75{fill:#d87976;}.cls-76{fill:#c56065;}.cls-77{fill:#e0807a;}.cls-78{fill:#2b1e51;}.cls-79{fill:#de7f79;}.cls-80{fill:#e6887f;}.cls-81{fill:#c16a6f;}.cls-82{fill:#e18a84;}.cls-83{fill:#cc7274;}.cls-84{fill:#d57473;}.cls-85{fill:#362968;}</style></defs><title>Asset 1</title><g id="Layer_2" data-name="Layer 2"><g id="Layer_1-2" data-name="Layer 1"><path class="cls-1" d="M42.65,8.69,43.52,8a.38.38,0,0,0,.15-.13c.13,0,.13.14.16.23a4.19,4.19,0,0,1,0,2.38A4.6,4.6,0,0,1,43.18,12a4.81,4.81,0,0,1-2.26,1.69,1.85,1.85,0,0,0-1.24,1.5,1.82,1.82,0,0,0,0,.77c.18.71.36,1.42.55,2.12,0,.19.09.38.15.56a.45.45,0,0,0,.52.34,5.45,5.45,0,0,0,.58-.14l1.2-.32c.42-.11.53-.3.42-.72s-.23-.95-.37-1.42c-.09-.31-.08-.34.2-.49a7.26,7.26,0,0,0,3.19-3.29,7.33,7.33,0,0,0,.69-2.48,7.57,7.57,0,0,0-.47-3.43c0-.07-.07-.14,0-.21l.12-.05s.1,0,.15-.07c.36-.13.72-.26,1.09-.37a8.26,8.26,0,0,1,1.09-.27c.1,0,.2,0,.3-.08l.57-.07c.05,0,.13,0,.19,0H50s.13,0,.19,0h.15c.09,0,.2,0,.3,0h.15a.32.32,0,0,1,.27,0h.89a.32.32,0,0,1,.27,0h.11a.5.5,0,0,0,.27,0,.29.29,0,0,1,.18,0,.21.21,0,0,0,.15,0,.19.19,0,0,1,.26,0h0a.15.15,0,0,1,.19,0s.1,0,.15,0a.4.4,0,0,1,.38.07h0a.09.09,0,0,1,.12,0l.07,0c.11-.08.21,0,.32,0l.24.07h.08a.5.5,0,0,1,.19.1h.22L55.6,6c.08,0,.17,0,.21.1s.22.11.34.08a3.2,3.2,0,0,1,.74.24l.16.1a4.72,4.72,0,0,0,.87.3c-.07.14-.22.19-.33.28a3.39,3.39,0,0,0-.82,1c-.12.22-.09.31.13.42l.62.31c.23.09.29.07.43-.16a2.11,2.11,0,0,1,1.41-1,.49.49,0,0,1,.24,0,12.37,12.37,0,0,1,2,1.39,1.05,1.05,0,0,0,.25.18,1.45,1.45,0,0,1,.05.94,2.1,2.1,0,0,1-1.26,1.58,2.42,2.42,0,0,1-1.28.13.89.89,0,0,0-1.05.68c-.07.27-.16.53-.22.8a1.33,1.33,0,0,0-.1.34c0,.18,0,.24.2.3l.25.07.45.12c.21,0,.29,0,.35-.2s.1-.34.15-.5.1-.29.36-.28A3.58,3.58,0,0,0,61.14,13,3.41,3.41,0,0,0,63,11.14c0-.12.06-.27.18-.36a.19.19,0,0,1,.17.16.14.14,0,0,0,.07.08c.11,0,.13.15.19.22s0,.13.11.15a4.21,4.21,0,0,1,.56.77,10.28,10.28,0,0,1,.64,1.11l0,.12a5.41,5.41,0,0,1,.45.86,1.54,1.54,0,0,0,.08.19l0,.15c.07.07.07.17.11.26h0a1.6,1.6,0,0,1,.19.57l0,.11A1.16,1.16,0,0,1,66,16c0,.11.06.23.1.34a1.8,1.8,0,0,0,.06.22,3.24,3.24,0,0,1,.12.62v.08a1,1,0,0,1,.16.64v0a.14.14,0,0,1,.07.15c0,.1,0,.18,0,.27s0,.18,0,.26a.08.08,0,0,1,0,.11v0c0,.06.09.11,0,.19s0,.11,0,.15a.14.14,0,0,1,0,.19.07.07,0,0,0,0,.07.26.26,0,0,1,0,.08c0,.08,0,.15,0,.22v0a.21.21,0,0,1,0,.23v0c.08.06.07.14.07.22s0,.16,0,.23v.08a.23.23,0,0,1,0,.18c0,.09-.05.18,0,.27v.11a.2.2,0,0,1,0,.17,1.74,1.74,0,0,0,0,.64c0,.38,0,.76,0,1.14a.3.3,0,0,1,0,.16v.11a1.19,1.19,0,0,0,0,.46.75.75,0,0,1,0,.33v.11c-.05.09,0,.18,0,.27a.34.34,0,0,1,0,.22v.11c-.07.11,0,.24,0,.34v.11c-.06.1,0,.21,0,.31v.07a4.19,4.19,0,0,1,0,.5.39.39,0,0,1,0,.18h0c-.05.08,0,.18,0,.26l0,.08a.28.28,0,0,1,0,.22v0c0,.07,0,.16,0,.22v.08c-.08.44-.11.88-.23,1.31h0a6.1,6.1,0,0,1-.22,1.13v0A1.4,1.4,0,0,1,66,30h0a3.57,3.57,0,0,1-.19.86h0a4.44,4.44,0,0,1-.22.87v0c0,.1-.07.18-.08.27v0a5.24,5.24,0,0,1-.34,1.17v0a9.87,9.87,0,0,1-.32,1.15c-.11.38-.23.77-.37,1.15s-.34,1-.53,1.55-.31.84-.47,1.26-.39,1.07-.6,1.6a.46.46,0,0,1-.08.13l0,0a13.29,13.29,0,0,1-.55,1.41c-.33.78-.66,1.55-1,2.32s-.78,1.71-1.2,2.56c-.1.21-.21.41-.31.61s-.12.3-.19.44a.4.4,0,0,1-.16.18v.08a0,0,0,0,1-.06,0,2,2,0,0,1-.11-.64q-.39-3.57-.92-7.12c-.1-.65-.21-1.29-.31-1.93a2.61,2.61,0,0,1,.27-.67,8.2,8.2,0,0,0,.56-2,7.76,7.76,0,0,0-.66-4.51,6.72,6.72,0,0,0-.4-.75.84.84,0,0,1-.12-.23c0-.11.13-.15.21-.2a18,18,0,0,0,1.64-1.1c.34-.26.35-.32.22-.71A13.16,13.16,0,0,0,59,26.15c-.42-.86-.84-1.72-1.29-2.57-.1-.17-.21-.34-.32-.51a1.19,1.19,0,0,0-.68-.5c-.45-.13-.89-.3-1.33-.45-.06,0-.11,0-.14-.09s0,0,0-.05c.33-.09.67-.12,1-.22a3.68,3.68,0,0,0,1.27-.59c.19-.14.2-.16.08-.36a1.56,1.56,0,0,1-.21-1.06,1.58,1.58,0,0,0-.29-1.26.52.52,0,0,0-.1-.11,1.51,1.51,0,0,1-.54-1.12,2.36,2.36,0,0,0-.1-.53,1.16,1.16,0,0,0-1.26-.82.58.58,0,0,1-.19,0c-.15-.07-.2-.24-.32-.35A1.71,1.71,0,0,0,53,15.13a2.72,2.72,0,0,0-2,1.28,2.32,2.32,0,0,0-.3,1.46,1.21,1.21,0,0,1-.22.94l-.14.22a1.52,1.52,0,0,0-.37.85.19.19,0,0,1-.16.11c-.54.06-.79.47-1,.88,0,.1-.08.2-.2.24a.2.2,0,0,0-.2.13c-.55,1-1.1,2-1.58,3.05a9,9,0,0,0-.56,1.41,1.74,1.74,0,0,0-.06.45.47.47,0,0,0,.18.4.7.7,0,0,0,.64.11,8.2,8.2,0,0,0,1.67-.56c.45-.18.88-.39,1.32-.58a.39.39,0,0,1,.18-.06.07.07,0,0,1,.08.08,2.46,2.46,0,0,0,.11.66.1.1,0,0,1,0,.09,3.53,3.53,0,0,1-.72.14,6.89,6.89,0,0,0-2,.62,7.66,7.66,0,0,0-2.5,1.83A7.74,7.74,0,0,0,44,30.51a.51.51,0,0,0,.25.79l1.1.55.64.32a.49.49,0,0,0,.71-.22,6.15,6.15,0,0,1,.93-1.22,4.82,4.82,0,0,1,2.77-1.31,1.73,1.73,0,0,1,.32,0,.17.17,0,0,1,.19.14,1.21,1.21,0,0,1,0,.19c-.07.75-.12,1.5-.14,2.25s0,1.79,0,2.68c0,1.08,0,2.15,0,3.23,0,.31,0,.62,0,.93s-.05.27-.27.24a5.23,5.23,0,0,0-1-.1,2.07,2.07,0,0,0-1.9,1.48c-.31,1-.63,2.08-.92,3.13a2.64,2.64,0,0,0-.15.55.48.48,0,0,0,.35.56l.68.2c.41.11.81.25,1.23.35a.51.51,0,0,0,.71-.4c.23-.8.47-1.6.7-2.39.09-.3.15-.34.44-.3.1,0,.17,0,.2.14a1.45,1.45,0,0,1,0,.36c.05,1.13.1,2.26.16,3.39,0,.85.1,1.69.17,2.53a.28.28,0,0,1,0,.09c-.19.21-.13.46-.13.7s.15.14.2.23a3.17,3.17,0,0,1,0,.87s0,.06-.06.06c-.18,0-.25.11-.33.23a.93.93,0,0,0,0,.1,1.49,1.49,0,0,1-1,.88c-.49.17-1,.35-1.47.48a.49.49,0,0,0-.41.32.13.13,0,0,1-.08.11c-.31,0-.63,0-1,0-.06,0-.11,0-.17,0s0-.05-.06-.08a.45.45,0,0,0-.39-.33,13.05,13.05,0,0,1-1.7-.57,1.1,1.1,0,0,1-.65-.6c-.06-.13-.14-.24-.21-.36a.22.22,0,0,0-.31-.12c-.1,0-.14-.1-.18-.17Q42.07,48.45,41,46.52c-.4-.72-.79-1.45-1.2-2.17a2.14,2.14,0,0,0-.43-.57,1.06,1.06,0,0,0-1.12-.26c-.3.11-.31.1-.38-.2l-.12-.39a1.72,1.72,0,0,0-.26-.48.85.85,0,0,0-.92-.27,3.87,3.87,0,0,0-1.39.83c-1.21,1.07-2.44,2.12-3.66,3.17a2.75,2.75,0,0,0-.26.22c-.33.26-.64.54-1,.81-.05,0-.1.12-.19.08s0-.07,0-.11a12.09,12.09,0,0,0-1-2.8c0-.09-.07-.17-.11-.26a1.11,1.11,0,0,1,0-.91,3,3,0,0,0,.18-.78c0-.25,0-.26.28-.27h.1a4.24,4.24,0,0,1,.71.05,1.52,1.52,0,0,0,1.11,0,.73.73,0,0,1,.36,0,.69.69,0,0,0,.57-.23c.44-.42.85-.88,1.25-1.34l.8-.93.9-1.1c0-.06.08-.16.2-.11a.32.32,0,0,1,0,.09c0,.18.1.27.27.31l.23.06.75.19c.24.07.36,0,.43-.24.17-.59.31-1.18.46-1.76.09-.32.08-.32.42-.33a4.49,4.49,0,0,0,4.45-3.88c0-.15,0-.3,0-.45a1.79,1.79,0,0,0,0-.73,4.44,4.44,0,0,0-2.17-3.34,4.31,4.31,0,0,0-1.56-.57,4.45,4.45,0,0,0-3,.5,4.39,4.39,0,0,0-1.83,1.91c-.12.24-.08.36.16.48s.61.29.92.43.34.07.47-.17a2.84,2.84,0,0,1,1.31-1.23,2.81,2.81,0,0,1,3,.43,2.8,2.8,0,0,1-.66,4.65,3,3,0,0,1-1.1.27,3.43,3.43,0,0,1-.56,0A1.19,1.19,0,0,0,36,36a.87.87,0,0,1-.11.32c-.81.64-1.57,1.33-2.34,2l-2,1.79c-.1.09-.18.2-.32.21a.61.61,0,0,0-.31-.11,2.9,2.9,0,0,0-.83,0c-.44,0-.87-.13-1.3-.2l-2.94-.51-.07,0c-.08-.19,0-.36.06-.55a2.61,2.61,0,0,1,.06-.27c.06-.12.17-.11.28-.11.29,0,.59,0,.89,0a.59.59,0,0,0,.54-.47,1.44,1.44,0,0,1,.13-.4A1.71,1.71,0,0,0,28.58,36a2.34,2.34,0,0,0,0-.26,3.55,3.55,0,0,1-.16-1.45,1.48,1.48,0,0,0-1-1.62,2.11,2.11,0,0,0-1.24-.2,2,2,0,0,0-.7.34,5.87,5.87,0,0,0-.72-.08A1.74,1.74,0,0,0,23.06,34a11.81,11.81,0,0,1-.42,1.4,3.84,3.84,0,0,0-.34.87A2.51,2.51,0,0,0,23,38.82a1.72,1.72,0,0,0,.68.36c.07,0,.17,0,.18.13s-.13.08-.2.11a7,7,0,0,0-1.28.66.59.59,0,0,0-.24.37,3.85,3.85,0,0,0-.11.83c0,.6-.05,1.2-.09,1.8,0,.77-.07,1.55-.13,2.32,0,.31,0,.62-.06.93,0,.14,0,.29-.17.38a.14.14,0,0,0,0,.12,5.09,5.09,0,0,1,0,.55.21.21,0,0,0,.08.21.27.27,0,0,1,.1.25.17.17,0,0,1,0,.07c0,.72-.08,1.43-.1,2.15,0,.36-.05.71-.05,1.07s0,.42,0,.63-.15.28-.31.35a4.49,4.49,0,0,1-1,.23,6.5,6.5,0,0,0-.87.12.63.63,0,0,0-.42.29,2.44,2.44,0,0,1-.81,0c-.07,0-.08-.09-.09-.15a.65.65,0,0,0,0-.13.53.53,0,0,0-.43-.32,13.27,13.27,0,0,1-1.68-.57,1.14,1.14,0,0,1-.61-.53,3.11,3.11,0,0,0-.44-.69,1.6,1.6,0,0,1,0-.49c0-.55,0-1.11.07-1.66,0-.78,0-1.56.1-2.34,0-.35,0-.69,0-1L15,43.42c0-.59,0-1.18.07-1.77a.57.57,0,0,1,.07-.34.36.36,0,0,1,.17-.07c.23-.06.26-.09.28-.34s0-.21,0-.32V34.8c0-.19,0-.39,0-.58s0-.49,0-.74.2-.3.34-.42.5-.46.75-.7l1.56-1.46c.27-.25.52-.53.81-.75a.2.2,0,0,1,.26,0,8.62,8.62,0,0,0,1.5.87.35.35,0,0,1,.17.12,1.61,1.61,0,0,0,1,.5,3.2,3.2,0,0,0,1.11.1,10.62,10.62,0,0,0,1.77.18,9.76,9.76,0,0,0,3-.42,10,10,0,0,0,6-5.18,9.56,9.56,0,0,0,.93-3.4,9.9,9.9,0,0,0-.2-3.07,7.12,7.12,0,0,0-.29-1c0-.07-.07-.15,0-.23a10.59,10.59,0,0,0,.89-1c.18-.21.35-.43.53-.65l.15-.23h0c.07,0,.07-.1.11-.15.34-.51.66-1,1-1.53s.8-1.17,1.22-1.73a.23.23,0,0,1,.12-.12.72.72,0,0,1,.11-.19c.48-.59,1-1.19,1.47-1.76s.86-.93,1.32-1.37L42,9.25c0-.05.09-.06.11-.11l.41-.34C42.56,8.77,42.6,8.72,42.65,8.69Z"/><path class="cls-2" d="M34.35,18.61a9.92,9.92,0,0,1,.36,1.21,5.69,5.69,0,0,0,.07.83,7.59,7.59,0,0,1,0,1.43,10.32,10.32,0,0,1-.31,2,9.43,9.43,0,0,1-1.6,3.35,8.09,8.09,0,0,1-2.75,2.28,10.84,10.84,0,0,1-3.71,1.2,9.44,9.44,0,0,1-2.19,0,.65.65,0,0,1-.24-.06.23.23,0,0,1,0-.18c.09-.43.05-.49-.38-.55a1.39,1.39,0,0,0-.88,0,1.85,1.85,0,0,0-.42.11.68.68,0,0,1-.54,0A9.11,9.11,0,0,1,20,29.08a1.14,1.14,0,0,0-1.64.08c-.79.78-1.61,1.54-2.41,2.31s-1.39,1.34-2.1,2c-.28.26-.55.53-.84.78a2.7,2.7,0,0,1-.67.4,1.14,1.14,0,0,1-.85,0l-.23-.11a1.42,1.42,0,0,1-.36-.33.14.14,0,0,1,0-.16,6.49,6.49,0,0,1,.76,0,1.14,1.14,0,0,0,.6-.15,1.36,1.36,0,0,1,.4-.14c.15,0,.33,0,.46-.11s0-.2-.1-.27a6.52,6.52,0,0,0-.8-.48,4,4,0,0,1-.71-.52c-.22-.19-.22-.28,0-.46a7.27,7.27,0,0,0,.57-.54l1.85-1.73a.41.41,0,0,1,.13-.1c.38-.23.71-.51,1.06-.77.83-.6,1.62-1.24,2.47-1.81a2.66,2.66,0,0,1,3.07.07,6.93,6.93,0,0,0,2.65,1.24A5.54,5.54,0,0,0,26.68,28a5.44,5.44,0,0,0,1.06-.64c.33-.23.68-.42,1-.67a5.88,5.88,0,0,0,2.19-4,8.69,8.69,0,0,0,0-1.35.05.05,0,0,1,0-.05,5.92,5.92,0,0,0-.87-2.44A5.55,5.55,0,0,0,29,17.57a6.07,6.07,0,0,0-2.71-1.4c-.15,0-.31-.05-.47-.08s-.15,0-.23,0h-.11a4.92,4.92,0,0,0-.94,0h-.11c-.07,0-.14,0-.2,0a5.47,5.47,0,0,0-2.34.82.69.69,0,0,1-1-.3,11.15,11.15,0,0,1-.67-2,.55.55,0,0,1,.19-.61,5,5,0,0,1,.93-.58,9.13,9.13,0,0,1,3.19-.91,8.87,8.87,0,0,1,1.26-.07,10.83,10.83,0,0,1,4,.85s.05,0,.07,0a6.74,6.74,0,0,1,1.17.73,10.29,10.29,0,0,1,1.26,1.12,9.94,9.94,0,0,1,1.9,2.88C34.19,18.26,34.27,18.43,34.35,18.61Z"/><path class="cls-3" d="M5.65,25.11a1.81,1.81,0,0,1,.57-.37c0,.26.12.4.3.53a.28.28,0,0,1,.11.15.94.94,0,0,1-.11.37c-.25.64-.49,1.28-.75,1.9a1,1,0,0,0,.1,1,14.35,14.35,0,0,0,1.32,1.68c.42.51.86,1,1.32,1.48a.38.38,0,0,1,.15.22.91.91,0,0,0,0,.49c-.08.77-.2,1.53-.3,2.3a.38.38,0,0,1-.21.27,1.83,1.83,0,0,0-.81,1,2,2,0,0,0,.46,2,.28.28,0,0,1,.11.15c0,.64-.16,1.27-.23,1.91L7.63,41c0,.23,0,.24.2.31a.39.39,0,0,1,.13.06.45.45,0,0,1,0,.3c-.08.54-.14,1.08-.2,1.62-.14,1.06-.27,2.12-.4,3.18s-.25,2-.37,2.93c0,.08,0,.16-.09.21C6.52,49,6.1,48.43,5.7,47.84c-.55-.81-1.08-1.64-1.55-2.5s-.77-1.43-1.1-2.17a18.47,18.47,0,0,1-.72-1.87,19.13,19.13,0,0,1-.66-2.71c0-.13-.11-.26-.08-.4s0-.13,0-.19a3.07,3.07,0,0,1-.08-.67c-.05-.07,0-.16,0-.23V37c-.05-.09,0-.18,0-.27v-.18c0-.14,0-.28,0-.42V35.9a7.62,7.62,0,0,1,0-1.17v-.26c0-.17,0-.35,0-.53v-.18c0-.06,0-.14,0-.19v-.15c.05-.06,0-.13,0-.19a3.16,3.16,0,0,1,.08-.68,1.76,1.76,0,0,1,.07-.33.8.8,0,0,1,0-.27c0-.08,0-.19.07-.26a6.85,6.85,0,0,1,.32-1.26,11.42,11.42,0,0,1,.77-1.88,9.13,9.13,0,0,1,1.34-2l.24-.3a.34.34,0,0,0,.12-.12l.6-.6c.08,0,.14-.13.22-.18l.08-.08C5.51,25.25,5.57,25.16,5.65,25.11Z"/><path class="cls-4" d="M6.61,25.41l-.28-.24c-.15-.12-.24-.25-.11-.43.17-.38.35-.75.53-1.12s.46-1,.71-1.53a16,16,0,0,1,.77-1.55.8.8,0,0,1,.43-.36c.07,0,.16,0,.23,0l2.36-.69c.05,0,.11,0,.16,0s.12.07.16.12a1.89,1.89,0,0,0,2.12.43.72.72,0,0,0,.45-.45.13.13,0,0,1,.06-.09c.53.14,1,.35,1.55.53a1.66,1.66,0,0,1,.93,1c.15.35.31.7.47,1.05a.22.22,0,0,1,.11.14l1,2.34a.26.26,0,0,1-.09.34l-.06.06a1.26,1.26,0,0,1-.43.29,1.57,1.57,0,0,1-.6.16.48.48,0,0,1-.54-.36,3,3,0,0,1-.09-.52,29,29,0,0,0-.3-2.94c-.05-.32-.14-.63-.17-1a29.78,29.78,0,0,1,.11,5.34c0,.57,0,1.14-.1,1.7a.57.57,0,0,1-.22.36c-.46.42-.9.85-1.35,1.27-.12.11-.26.21-.39.32l-1.39,1.29-.57.51a1.82,1.82,0,0,0-.83.14,2,2,0,0,1-.63.1.77.77,0,0,1-.6-.26,7.12,7.12,0,0,1-.36-2.1c0-.62,0-1.24,0-1.86a8.3,8.3,0,0,1,.55-2.91,2.5,2.5,0,0,1,.35-.56,2.75,2.75,0,0,0,.32-.52c-.14.1-.21.2-.32.27s-.08.06-.13,0,0-.08,0-.12a3.67,3.67,0,0,0-.09-1.19,2.58,2.58,0,0,0-.18-.46A3.05,3.05,0,0,1,10,23.46c-.25.72-.48,1.45-.71,2.18-.07.24-.12.52-.41.63-.06,0-.08,0-.11-.05a.3.3,0,0,0-.18-.08H8.56a4.22,4.22,0,0,1-1.78-.59A.33.33,0,0,1,6.61,25.41Z"/><path class="cls-2" d="M41.49,18.88a2.59,2.59,0,0,1-.61.15.46.46,0,0,1-.52-.33,2.59,2.59,0,0,1-.15-.61,1.57,1.57,0,0,1-.06-.61,3,3,0,0,0-.11-.89,4.9,4.9,0,0,1-.13-1,1.57,1.57,0,0,1,.67-1.42c.32-.22.68-.36,1-.55A3.79,3.79,0,0,0,43.14,12a5.66,5.66,0,0,0,.59-1.18,4.31,4.31,0,0,0,0-2.75.21.21,0,0,0-.08-.16,2.89,2.89,0,0,0-.48-1A4.56,4.56,0,0,0,40.55,5L40.14,5c-.06,0-.13,0-.19,0h-.37a.58.58,0,0,0-.32,0h-.18c-.07,0-.16,0-.23,0A4.44,4.44,0,0,0,36.2,6.32a4.54,4.54,0,0,0-1.14,2.27,1,1,0,0,0,0,.17c0,.06,0,.13,0,.19v.22c-.05.23,0,.46,0,.68s-.17.3-.37.31a1.55,1.55,0,0,1-.48,0,8.86,8.86,0,0,1-1.05-.2.64.64,0,0,1-.48-.53,3.26,3.26,0,0,1,0-1.08,10.28,10.28,0,0,1,.43-2,5.61,5.61,0,0,1,1-1.69,9.31,9.31,0,0,1,2.33-2c.2-.12.43-.21.64-.32a6,6,0,0,1,1.24-.33l.3-.05c.06,0,.13,0,.19,0h.14a11.42,11.42,0,0,1,1.17,0h.18c.07,0,.16,0,.23,0a8.19,8.19,0,0,1,1.76.48A7.13,7.13,0,0,1,44.52,4l.09.06c.07,0,.08.05.11.09a9.28,9.28,0,0,1,1.12,1.46,7.85,7.85,0,0,1,.32.8A6.21,6.21,0,0,1,46.47,8a7.88,7.88,0,0,1-1.81,5.47,7,7,0,0,1-2.25,1.81l-.4.21a.56.56,0,0,0-.33.71,10.77,10.77,0,0,0,.38,1.26,1.76,1.76,0,0,1,.1.3.79.79,0,0,1-.52,1.07S41.52,18.82,41.49,18.88Z"/><path class="cls-3" d="M18.15,24.8a.25.25,0,0,0,.06-.35c-.36-.82-.71-1.64-1.06-2.45h.12c.11.05.23,0,.34,0h.15c.08,0,.18,0,.26,0,.75.09,1.5.18,2.23.34s1.46.32,2.19.44h.25s.13,0,.18,0H23c.09.06.2,0,.3,0h.22c.1.05.21,0,.3,0h.57a.51.51,0,0,0,.3,0h.49c.12,0,.25,0,.38,0h.18c.07,0,.16,0,.23,0l.41,0c.06-.05.13,0,.19,0a5.25,5.25,0,0,1,.68-.08c0-.07.1,0,.15-.07a11.68,11.68,0,0,0,2-.6,12.47,12.47,0,0,0,1.43-.68c.05,0,.09-.08.15,0a4.54,4.54,0,0,1,0,1.22,5.8,5.8,0,0,1-.69,2.29A6,6,0,0,1,28,27.25l-.2.12a5.15,5.15,0,0,1-2.63.69,5.8,5.8,0,0,1-2.84-.63,6.73,6.73,0,0,1-1.4-1,2.57,2.57,0,0,0-2-.64.5.5,0,0,1-.21,0,.26.26,0,0,1-.11-.12l-.41-.81A.14.14,0,0,1,18.15,24.8Z"/><path class="cls-3" d="M9.38,52.74c0-.12-.09-.18-.15-.25-.22-.28-.44-.55-.67-.82a.62.62,0,0,0-.16-.1.48.48,0,0,1-.09-.35.85.85,0,0,0-.12-.47.78.78,0,0,1,0-.34c.52-2.34,1-4.67,1.57-7L10.12,42c0-.12,0-.25.12-.35.26,0,.32-.2.37-.41.36-1.37.66-2.76,1-4.15.09-.42.17-.83.28-1.25.06-.16,0-.35.14-.5s.13.11.16.18c0,.46.07.92.1,1.39s.07,1.15.12,1.73.07,1.22.14,1.83c0,.26,0,.53.06.79s.07.28.27.28l.06,0a.88.88,0,0,1,.09.42c0,.59.06,1.19.08,1.78s.07,1.16.1,1.74.06,1.15.09,1.72L13.36,49c0,.56.08,1.12.08,1.68a1.08,1.08,0,0,0-.13.52,3.07,3.07,0,0,1-.18.91c-.08.28-.06.3.22.31h.15l.05,0c0,.13-.12.08-.2.1s-.2-.05-.26.06-.06.1-.11.11a.8.8,0,0,1-.26,0h-3C9.58,52.79,9.47,52.82,9.38,52.74Z"/><path class="cls-5" d="M9.38,52.74H13a.32.32,0,0,1,.23,0H17.8c.08,0,.16,0,.22,0h.87a.32.32,0,0,1,.21-.06h7.16a.78.78,0,0,0,.22,0c.91,0,1.82,0,2.73,0,.23,0,.46,0,.69,0a2,2,0,0,0,.49,0h7.43c.24,0,.48,0,.71,0h7.78a2.69,2.69,0,0,0,.49,0c.32,0,.65,0,1,0s.63,0,.94,0h8a7.48,7.48,0,0,0,1.16,0l.54,0h4.13a1.3,1.3,0,0,1,.34,0,.32.32,0,0,0,.25.06h3.11c.06,0,.15,0,.17.05h-.11c-.07,0-.15,0-.22,0H66c-.11,0-.23,0-.34,0h-.07c-.13,0-.26,0-.38,0h0a.1.1,0,0,1-.12,0,1.91,1.91,0,0,0-.41,0l-.18,0a.81.81,0,0,0-.38,0h0c-.07.06-.15,0-.22,0a1.59,1.59,0,0,0-.38,0h0a.25.25,0,0,1-.19,0,2.35,2.35,0,0,0-.53,0h-.11a3.38,3.38,0,0,1-.45,0c-.06,0-.12,0-.18,0s-.08,0-.13,0a3.84,3.84,0,0,0-.59,0h-.15c-.21,0-.43,0-.64,0h0c-.07.06-.15,0-.23,0a3.73,3.73,0,0,0-.67,0h0c-.08.05-.16,0-.23,0a5.15,5.15,0,0,0-.68,0h0c-.08.07-.17,0-.26,0a5.56,5.56,0,0,0-.71,0h0c-.08.06-.16,0-.24,0h-.67c-.06,0-.13,0-.18,0s-.16,0-.23,0a6.76,6.76,0,0,0-.9,0h0a.36.36,0,0,1-.27,0c-.34,0-.67,0-1,0h0a.29.29,0,0,1-.27,0c-.35,0-.7,0-1,0h0c-.11.07-.23,0-.35,0-.38,0-.77,0-1.16,0h0c-.13.07-.26,0-.39,0H49.94c-.06,0-.12,0-.18,0h0a1.06,1.06,0,0,1-.53,0H47.91a.37.37,0,0,0-.18,0h-.08a1,1,0,0,1-.45,0H45.54a.37.37,0,0,0-.18,0h0a2,2,0,0,1-.64,0H42.44c-.07,0-.14,0-.2,0h0a3.58,3.58,0,0,1-1,0H36.43c-.06,0-.12,0-.17,0h0a.48.48,0,0,1-.24,0H31.42a.4.4,0,0,1-.24,0h0c-.05,0-.1,0-.16,0H26.16c-.06,0-.11,0-.17,0h0a8.19,8.19,0,0,1-1,0c-.06,0-.13,0-.19,0H22.43a1.57,1.57,0,0,1-.61,0h0a.45.45,0,0,0-.23,0H19.77a.52.52,0,0,1-.35,0h-.08a3.11,3.11,0,0,0-.61,0h-1a.65.65,0,0,1-.39,0h0a5.35,5.35,0,0,0-.8,0h-.66a.47.47,0,0,1-.31,0h0c-.41,0-.82,0-1.23,0a.6.6,0,0,1-.35,0c-.05,0-.11,0-.17,0h-1a.31.31,0,0,1-.28,0h0a9,9,0,0,0-1,0,.3.3,0,0,1-.23,0h0a7.69,7.69,0,0,0-1,0,.2.2,0,0,1-.17,0h-.08a6,6,0,0,0-.85,0,.36.36,0,0,1-.27,0h0a4.84,4.84,0,0,0-.85,0,.1.1,0,0,1-.09,0H8a7.3,7.3,0,0,0-.81,0,.15.15,0,0,1-.13,0H7a3.62,3.62,0,0,0-.87,0l-.07,0a3.66,3.66,0,0,0-.74,0,.15.15,0,0,1-.13,0h0a4.42,4.42,0,0,0-.63,0,.16.16,0,0,1-.16,0h0a3.75,3.75,0,0,0-.58,0,.15.15,0,0,1-.13,0h0a2,2,0,0,0-.55,0A.18.18,0,0,1,3,53H3a2,2,0,0,0-.55,0,.18.18,0,0,1-.1,0,1.39,1.39,0,0,0-.5,0,.12.12,0,0,1-.1,0,1.6,1.6,0,0,0-.44,0,.13.13,0,0,1-.12,0h0a1,1,0,0,0-.41,0l0,0a.9.9,0,0,0-.4,0l-.05,0c0-.11.13-.05.2-.05H3.62a.5.5,0,0,1,.27,0c1.46,0,2.92,0,4.37,0a.42.42,0,0,1,.29.06A4.58,4.58,0,0,0,9.38,52.74Z"/><path class="cls-6" d="M15.29,16.47v.11c0,.06,0,.13,0,.19s0,.07,0,.1a1.18,1.18,0,0,1-.68,1c-.18.11-.38.21-.57.31l-.05.07a1.21,1.21,0,0,1-.85.14,4.57,4.57,0,0,1-1.34-.48.16.16,0,0,0-.09-.07.6.6,0,0,1-.44-.5,5.78,5.78,0,0,1-.12-.57c0-.14-.08-.15-.19-.1a.46.46,0,0,1-.26,0A1.1,1.1,0,0,1,9.89,16a1.27,1.27,0,0,1-.06-.18s0-.1,0-.15a.82.82,0,0,1,.68-1,.37.37,0,0,1,.52.26,1.16,1.16,0,0,1,0,.18c0,.12.07.22.22.18s.12-.14.1-.24a2.94,2.94,0,0,1-.1-1.06,1.47,1.47,0,0,1,.68-1.26c.08,0,.17-.11.26,0a1.45,1.45,0,0,0,1.07.67,2,2,0,0,0,1.62-.29.22.22,0,0,1,.18,0,1,1,0,0,1,.24.46,1.5,1.5,0,0,1,.11.63c-.08.06-.14,0-.2,0a.83.83,0,0,0-.67,0c-.2.05-.22.12-.14.31a.29.29,0,0,1,0,.16.76.76,0,0,0,0,.26s0,.1,0,.11.16.18.21.29c.22.22.36.17.47-.18.14,0,.16-.1.2-.2s0-.17.12-.16c.11.17,0,.35,0,.53a.22.22,0,0,0,0,.18c0,.12,0,.25,0,.37v.15c0,.09,0,.18,0,.27v.15S15.32,16.41,15.29,16.47Z"/><path class="cls-6" d="M10.16,42,9.71,44l-1.5,6.71c-.08.16-.2.29-.28.44-.24.42-.37.3-.58,0s-.3-.45-.47-.66a.08.08,0,0,1,0-.08,8.33,8.33,0,0,0,.08-.86l.15-1.15.33-2.6c.11-.85.21-1.69.31-2.54.07-.55.15-1.1.22-1.65a2,2,0,0,0,1,.25,3.76,3.76,0,0,0,1.06,0A.23.23,0,0,1,10.16,42Z"/><path class="cls-2" d="M5.36,15.91,5,16.05a.25.25,0,0,1-.38-.14l-.12-.31c0-.32-.19-.61-.27-.92a.82.82,0,0,1,.36-1,2.18,2.18,0,0,0,.71-.74s0-.12.09-.18a3.89,3.89,0,0,0,.23-.68c0-.07,0-.15,0-.22v-.27c0-.06,0-.13,0-.19a2.07,2.07,0,0,0-1.58-1.7,2.07,2.07,0,0,0-2.56,1.64.33.33,0,0,0,0,.1,1.82,1.82,0,0,0,0,.57v.11a.41.41,0,0,1,0,.22.29.29,0,0,1-.27.15,1.51,1.51,0,0,1-.42,0,.42.42,0,0,1-.49-.37,4.46,4.46,0,0,1,0-.82A2.48,2.48,0,0,1,.73,9.87a4,4,0,0,1,1-1.07,2.85,2.85,0,0,1,1.15-.48l.24-.05c.07,0,.16,0,.23,0h.55c.06,0,.13,0,.19,0A3.64,3.64,0,0,1,6.15,9.36a.81.81,0,0,1,.22.3,3.41,3.41,0,0,1-.1,3.61,3.12,3.12,0,0,1-.95,1,.32.32,0,0,0-.14.45,2.52,2.52,0,0,0,.25.49C5.61,15.55,5.6,15.65,5.36,15.91Z"/><path class="cls-2" d="M20.69.11a3.1,3.1,0,0,1,1.56.68A3.43,3.43,0,0,1,23.5,2.85l.06.32a2.77,2.77,0,0,1,0,.41,3.6,3.6,0,0,1-3.18,3,5.14,5.14,0,0,1-.68,0c-.23,0-.31.06-.37.28s-.08.32-.11.48c-.09.45-.2.52-.64.47a.79.79,0,0,1-.26-.08c-.11-.07-.19-.15-.13-.3s.09-.29.13-.44a2.5,2.5,0,0,0,.3-.64A1.81,1.81,0,0,1,18.81,6a.75.75,0,0,1,.62-.32,4.36,4.36,0,0,0,1.08-.06.63.63,0,0,0,.23-.08A3.09,3.09,0,0,0,21.52,5a2,2,0,0,0,.61-1.15l0-.1a1.4,1.4,0,0,0,0-.5,2.1,2.1,0,0,0-1.83-1.84,2,2,0,0,0-.54,0,2.07,2.07,0,0,0-1.54,1c-.18.29-.26.31-.55.1a1.92,1.92,0,0,0-.22-.18.46.46,0,0,1-.11-.69A3.15,3.15,0,0,1,19.7.11a6.24,6.24,0,0,1,.86,0C20.62.06,20.65.09,20.69.11Z"/><path class="cls-2" d="M59.61,7.71A2,2,0,0,0,58,8.78c-.12.2-.24.23-.44.1a3.75,3.75,0,0,1-.44-.35.34.34,0,0,1-.08-.4s0,0,0-.05a3.15,3.15,0,0,1,1.23-1.3,3.36,3.36,0,0,1,2.2-.38A3.06,3.06,0,0,1,61.82,7a3.45,3.45,0,0,1,1.39,2.2,2.6,2.6,0,0,1,0,.39,1.23,1.23,0,0,1,0,.27,3.26,3.26,0,0,1-1,2,3.45,3.45,0,0,1-2.49,1h-.37c-.21,0-.27.06-.33.27s-.09.36-.13.54c-.09.37-.15.43-.51.45l-.16,0c-.36-.1-.41-.19-.29-.55l.07-.15c.14-.3.24-.62.39-.92a.83.83,0,0,1,1-.5,2.06,2.06,0,0,0,1.24-.24,2.19,2.19,0,0,0,1-1,2,2,0,0,0,.14-1.47A.67.67,0,0,1,61.66,9a2,2,0,0,0-1.82-1.2A.46.46,0,0,1,59.61,7.71Z"/><path class="cls-7" d="M41.49,18.88c-.06,0-.06,0,0-.06a1.13,1.13,0,0,0,.27-.13.71.71,0,0,0,.35-1c-.17-.5-.35-1-.47-1.51a.6.6,0,0,1,.34-.77A8.06,8.06,0,0,0,44.09,14a7.52,7.52,0,0,0,1.62-2.32,8.7,8.7,0,0,0,.65-2.18,6.72,6.72,0,0,0,0-2.1,6.54,6.54,0,0,0-.53-1.73.06.06,0,0,1,0-.07,6.8,6.8,0,0,1,.42.8.26.26,0,0,0,.07.11,10.22,10.22,0,0,1,.43,1.43,7.34,7.34,0,0,1-1.22,5.78A7.23,7.23,0,0,1,42.85,16c-.11.06-.13.11-.1.22.15.56.29,1.12.44,1.69a.49.49,0,0,1-.34.62Z"/><path class="cls-8" d="M12.16,12.7c-.05-.09-.11,0-.17,0a1.44,1.44,0,0,0-.7,1.23A3,3,0,0,0,11.41,15a.18.18,0,0,1-.13.26c-.13,0-.26,0-.28-.15L11,15c-.08-.38-.09-.39-.5-.42v-.11c0-.06,0-.13,0-.19,0-.34-.1-.67-.12-1a.76.76,0,0,1,0-.3.82.82,0,0,1,.2-.42,8.59,8.59,0,0,1,1-1,1,1,0,0,1,.51-.15c.08,0,.16,0,.24,0h.62c.21,0,.42,0,.62,0H14c.06,0,.16,0,.18.09s-.07.11-.12.15l-.21.16a.76.76,0,0,0,.4,0,2.8,2.8,0,0,0,1-.3l.08,0c.09,0,.18-.08.27,0a.26.26,0,0,1,0,.28l-.19.42a.09.09,0,0,1,0,.07,3.72,3.72,0,0,1-.55.64l-.1.06a2.26,2.26,0,0,1-2.3.06A.62.62,0,0,1,12.16,12.7Z"/><path class="cls-9" d="M29.79,13.35l-1-.34a10.39,10.39,0,0,0-2.14-.42,11.48,11.48,0,0,0-1.17-.07,9.87,9.87,0,0,0-4.17,1,4.43,4.43,0,0,0-.91.59.49.49,0,0,0-.15.52,14.64,14.64,0,0,0,.55,1.7.79.79,0,0,1,.08.29,3.93,3.93,0,0,1-.47-.68c-.28-.41-.54-.83-.81-1.25a.71.71,0,0,1-.16-.39.36.36,0,0,1,0-.23.73.73,0,0,1,.42-.53,10,10,0,0,1,1.93-.9,9.26,9.26,0,0,1,1.94-.45l.3,0c.08,0,.18,0,.26,0h.19a6.27,6.27,0,0,1,1,0h.3c.1.05.2,0,.3,0h.11c.06,0,.13,0,.19,0a11.19,11.19,0,0,1,1.8.42A8.28,8.28,0,0,1,29.79,13.35Z"/><path class="cls-10" d="M58,38c.11.7.24,1.38.34,2.08.19,1.33.38,2.67.55,4s.29,2.43.43,3.65c0,.07,0,.16,0,.23v.14c0,.07,0,.14,0,.2v.25a.13.13,0,0,1,0,.12c-.15.06-.17,0-.18-.14s-.07-.37-.1-.56c-.39-2.52-.8-5-1.2-7.56,0-.26-.07-.51-.12-.76-.07,0-.08.05-.1.08a4.84,4.84,0,0,1-1.8,1.47.27.27,0,0,1-.15,0c-.17-.12-.16-.31-.19-.49a.26.26,0,0,1,.11-.16,8.14,8.14,0,0,0,2.21-2.5S58,38,58,38Z"/><path class="cls-8" d="M59.57,50.52c.18-.12.24-.11.35.07s.22.39.33.58a.85.85,0,0,0,.37.33,11.91,11.91,0,0,0,1.93.67.47.47,0,0,1,.37.34H58.44l0,0a1.67,1.67,0,0,1,0-.77c0-.2.09-.39.1-.59s.09,0,.13,0c.22.26.21.26.42,0A3.9,3.9,0,0,1,59.57,50.52Z"/><path class="cls-8" d="M6.85,50.44a3.46,3.46,0,0,1,.49.65l0,0c.25.38.28.38.55,0a.12.12,0,0,1,0,.05c0,.4.17.78.19,1.18,0,0,0,.08,0,.11H3.64A.4.4,0,0,1,4,52.17a15.86,15.86,0,0,0,1.76-.6A1.07,1.07,0,0,0,6.39,51c.06-.13.14-.26.21-.39S6.72,50.43,6.85,50.44Z"/><path class="cls-9" d="M37,2.41c0,.07-.07.07-.1.09a9.2,9.2,0,0,0-2.66,2,5.66,5.66,0,0,0-1.5,3.18A10.14,10.14,0,0,0,32.61,9a2.1,2.1,0,0,0,0,.43.57.57,0,0,0,.51.47,7.83,7.83,0,0,0,1.44.22c-.07.06-.16,0-.23,0s-.21,0-.3,0h-.19c-.1,0-.21,0-.3,0H33.4c-.1,0-.2,0-.3,0H33a1.81,1.81,0,0,1-.52,0,.45.45,0,0,1-.35-.46,8.51,8.51,0,0,1,0-1V8.66c0-.06,0-.14,0-.2V8.39c0-.06,0-.13,0-.19a6.19,6.19,0,0,1,.48-1.73,7.29,7.29,0,0,1,1.13-1.84,7.08,7.08,0,0,1,1.78-1.54A6.13,6.13,0,0,1,37,2.41Z"/><path class="cls-6" d="M14.2,19.44a.67.67,0,0,1-.46.57,1.91,1.91,0,0,1-2.33-.58.6.6,0,0,0,.26-.36,4.85,4.85,0,0,0,0-.66c.08-.1.15,0,.21,0l.63.28a1.65,1.65,0,0,0,1.18,0,.65.65,0,0,1,.2,0h0v.08c0,.14,0,.28,0,.41S14.11,19.36,14.2,19.44Z"/><path class="cls-11" d="M62.92,52.7c-1.58,0-3.17,0-4.75,0-.41,0-.81,0-1.22,0-.07,0-.14,0-.2,0s0-.12,0-.17c.46-.82.91-1.65,1.36-2.47,0-.09.09-.19.22-.09a1.6,1.6,0,0,1,.1.84c-.14,0-.19.09-.2.23A4.81,4.81,0,0,1,58,52.23c-.06.2,0,.22.17.23a.4.4,0,0,1,.24,0v0a.34.34,0,0,0,.22,0h4c.13,0,.29,0,.35.15A.06.06,0,0,1,62.92,52.7Z"/><path class="cls-12" d="M58.41,14.13s0,0,0,0c.33,0,.41-.23.46-.49l.12-.53a.3.3,0,0,1,.34-.26,5.59,5.59,0,0,0,1.08-.05A3.62,3.62,0,0,0,62,12a3.28,3.28,0,0,0,1.24-2.1l0-.07a.14.14,0,0,1,0,.15l-.11.68s0,.08,0,.11a3.87,3.87,0,0,1-.83,1.41,3.43,3.43,0,0,1-2.54,1.07c-.28,0-.28,0-.36.27s-.09.35-.15.52a.26.26,0,0,1-.36.21Z"/><path class="cls-12" d="M18.59,7.82s.08,0,.13,0a.36.36,0,0,0,.43-.33l.15-.67a.32.32,0,0,1,.38-.26,3.53,3.53,0,0,0,2.95-1.13,3,3,0,0,0,.89-1.75s0,0,0,0a.28.28,0,0,1,0,.18,3.68,3.68,0,0,1-.78,1.91A3.41,3.41,0,0,1,21,6.87a2,2,0,0,1-.48.1c-.06,0-.13,0-.19,0-.52,0-.52,0-.67.47l-.09.32a.28.28,0,0,1-.37.22C19,8,18.79,7.88,18.59,7.82Z"/><path class="cls-13" d="M5.36,15.91c-.06-.06,0-.08,0-.1a.3.3,0,0,0,.06-.42c-.09-.18-.2-.36-.29-.55s-.1-.42.17-.61A3.5,3.5,0,0,0,6.71,12a3.38,3.38,0,0,0-.3-2.25.56.56,0,0,1,0-.12A3,3,0,0,1,7,10.9c0,.13,0,.26.08.38s0,.14,0,.2V12c0,.07,0,.16,0,.23a3.69,3.69,0,0,1-.73,1.7,3.13,3.13,0,0,1-.58.57c-.12.08-.14.16-.07.3a6,6,0,0,1,.28.63.22.22,0,0,1-.12.32Z"/><path class="cls-14" d="M58.44,50.82a4.23,4.23,0,0,0-.11-.87.19.19,0,0,1,0-.27.74.74,0,0,1,.36-.06c.26,0,.5-.09.76-.1.06,0,0,.13.05.18v.1c0,.06,0,.14,0,.2v.1c0,.06,0,.14,0,.2s0,.15,0,.22a6,6,0,0,1-.56.83c-.08.09-.16.09-.23,0s-.12-.18-.19-.26A.31.31,0,0,1,58.44,50.82Z"/><path class="cls-15" d="M59.42,48.67v-.11a1.22,1.22,0,0,1,.2.67.36.36,0,0,1,0,.27c-.06,0-.13,0-.2,0a8.4,8.4,0,0,1-1.12,0h-.18a.23.23,0,0,1-.24-.19,3.07,3.07,0,0,1-.06-.52.17.17,0,0,1,.14-.21h1.14C59.2,48.65,59.3,48.73,59.42,48.67Z"/><path class="cls-16" d="M14.86,12.79A.3.3,0,0,1,15,12.6a5.72,5.72,0,0,0,.4-.46c.09,0,.18,0,.26,0h.09c.09,0,.21-.09.27,0s0,.17-.07.25a.86.86,0,0,1-.41.41c-.1.05-.13.1-.08.22a2.19,2.19,0,0,1,.16.67c0,.13,0,.26,0,.38v0c0,.13,0,.28,0,.42s0,.39-.15.56c-.11,0,0-.08,0-.12s-.07-.27.07-.4,0-.15-.05-.22-.11-.09-.06-.18A2.75,2.75,0,0,0,15,13.05C15,13,14.86,12.92,14.86,12.79Z"/><path class="cls-2" d="M5.46,17.6a.69.69,0,0,1,.38-1.17.28.28,0,0,1,.18,0c.34.19.47.4.42.69a.66.66,0,0,1-.84.53A.33.33,0,0,0,5.46,17.6Z"/><path class="cls-2" d="M17.73,9.25a.71.71,0,0,1,.4-.73.76.76,0,0,1,.83.21.66.66,0,0,1-.31.82.64.64,0,0,1-.85-.24S17.77,9.25,17.73,9.25Z"/><path class="cls-17" d="M20.58.08c-.08.07-.18,0-.27,0a3.63,3.63,0,0,0-1.49.29A3.08,3.08,0,0,0,17.36,1.8c-.12.2-.05.37.16.53s.18.09.18.21a3.73,3.73,0,0,1-.64-.3c-.17-.09-.14-.23-.07-.37a3.53,3.53,0,0,1,.84-1A3.58,3.58,0,0,1,19.72,0a3,3,0,0,1,.67,0h.11S20.56.06,20.58.08Z"/><path class="cls-18" d="M60.44,6.4a4.73,4.73,0,0,0-1.63.18,2.62,2.62,0,0,0-1.19.77,4.89,4.89,0,0,0-.46.56c-.24.37-.22.5.13.76a.87.87,0,0,1,.22.21,6.13,6.13,0,0,1-.73-.35.23.23,0,0,1-.11-.32,3.53,3.53,0,0,1,2.52-1.85,1,1,0,0,0,.34-.08c.16,0,.33,0,.49,0A1.49,1.49,0,0,1,60.44,6.4Z"/><path class="cls-19" d="M1.71,8.8c0,.07,0,.08-.06.1a3.37,3.37,0,0,0-1.28,2,3.5,3.5,0,0,0,0,1.25c0,.22.15.3.38.3h.47l-.71.2a.36.36,0,0,1-.23,0c-.17-.1-.14-.29-.18-.45a1.21,1.21,0,0,1,0-.19,3.75,3.75,0,0,1,0-.67v-.08s0-.13,0-.18a3.09,3.09,0,0,1,.91-1.78l.1-.11A1.55,1.55,0,0,1,1.71,8.8Z"/><path class="cls-20" d="M8.14,52.5a12.51,12.51,0,0,1-.23-1.34.91.91,0,0,1,.3-.42c.09,0,.11.11.12.19s.05.43.07.64a4,4,0,0,0,.16.66s0,0,0,.05c0,.21,0,.23-.19.23Z"/><path class="cls-11" d="M59.39,47.66a9.23,9.23,0,0,0,.53-1c.3-.61.58-1.24.88-1.86.4-.85.78-1.72,1.15-2.59l.86-2a2.72,2.72,0,0,1-.25.84q-.24.6-.51,1.2c-.26.56-.48,1.14-.76,1.7s-.41.9-.62,1.35-.44.89-.63,1.34a1.28,1.28,0,0,1-.16.28,4.14,4.14,0,0,0-.26.61C59.57,47.56,59.53,47.67,59.39,47.66Z"/><path class="cls-11" d="M62.84,40.11a6.08,6.08,0,0,1,.34-.93c.36-1,.73-2,1.07-2.93s.63-1.92.92-2.88a1,1,0,0,1,0-.1c.07.1,0,.2,0,.3-.19.61-.38,1.23-.59,1.84-.13.39-.27.77-.38,1.17a10,10,0,0,1-.46,1.3c-.12.29-.2.59-.32.87s-.29.83-.48,1.23C62.94,40,62.93,40.1,62.84,40.11Z"/><path class="cls-21" d="M8.55,52.77H3.62v0c0-.09.09-.07.15-.07H8.4C8.48,52.66,8.56,52.66,8.55,52.77Z"/><path class="cls-19" d="M5.43,12.75a1.33,1.33,0,0,1-.53.78c-.11.11-.26.19-.38.3a.73.73,0,0,0-.21.81c.08.25.15.51.23.77a.21.21,0,0,1,0,.19,7.17,7.17,0,0,1-.42-1,.87.87,0,0,1,.33-.91l.29-.2a1.91,1.91,0,0,0,.6-.6A.19.19,0,0,1,5.43,12.75Z"/><path class="cls-22" d="M17.73,9.25l.05-.08a.61.61,0,0,0,1.16-.37.08.08,0,0,1,0-.07.63.63,0,0,1,.07.75.68.68,0,0,1-.7.37.61.61,0,0,1-.55-.45S17.7,9.31,17.73,9.25Z"/><path class="cls-23" d="M15.39,14.12c0,.13.17.17.17.3a.63.63,0,0,1,0,.14c-.25.12-.08.32-.09.48l-.05.12a1.2,1.2,0,0,1,0-.38s0-.12,0-.16a.11.11,0,0,1-.12-.06.47.47,0,0,0-.67-.21c-.06,0-.12.08-.19,0s-.15-.24,0-.33A.92.92,0,0,1,15.39,14.12Z"/><path class="cls-13" d="M5.46,17.6c0-.08.11,0,.17,0a.6.6,0,0,0,.54-1A1.49,1.49,0,0,1,6,16.43s0,0,0,0c.49.18.68.53.53.94a.66.66,0,0,1-.5.43.57.57,0,0,1-.26,0A.56.56,0,0,1,5.46,17.6Z"/><path class="cls-9" d="M20.74,5.53a.88.88,0,0,1-.58.19,4.42,4.42,0,0,1-.63,0,.78.78,0,0,0-.83.59,2.75,2.75,0,0,1-.25.59s-.05.1-.12.1l.19-.67a.93.93,0,0,1,.78-.76.65.65,0,0,1,.34,0h.07c.06,0,.13,0,.19,0h.31c.07,0,.15,0,.23,0Z"/><path class="cls-11" d="M31.18,53.64h5c0,.08-.11.07-.18.07H31.36C31.29,53.71,31.22,53.72,31.18,53.64Z"/><path class="cls-24" d="M26,53.64c.06-.07.13,0,.2,0H31c.07,0,.14,0,.19,0Z"/><path class="cls-11" d="M64.87,13.27a3.48,3.48,0,0,1-.43-.69,12,12,0,0,0-.75-1.11s0-.05,0-.08.16.1.21.17a12.58,12.58,0,0,1,.77,1.22C64.74,12.94,64.88,13.07,64.87,13.27Z"/><path class="cls-24" d="M36.26,53.64s.09,0,.14,0h4.86s0,0,0,0h-5Z"/><path class="cls-24" d="M62.92,52.7h3.75c-.07.1-.15.06-.22.07s-.14,0-.21,0H63.13C63.06,52.73,63,52.76,62.92,52.7Z"/><path class="cls-24" d="M3.62,52.73v0H.45c-.08,0-.15,0-.22,0s-.16,0-.23-.08Z"/><path class="cls-11" d="M66.08,16.36l-.26-.83c.09,0,.12.08.14.15.14.47.27.94.41,1.41,0,.06,0,.09-.07.09a3.5,3.5,0,0,1-.15-.64A.4.4,0,0,0,66.08,16.36Z"/><path class="cls-11" d="M65.21,33.23a12,12,0,0,1,.34-1.17c.1.13,0,.23,0,.33a3.43,3.43,0,0,1-.18.7A.24.24,0,0,1,65.21,33.23Z"/><path class="cls-11" d="M66.91,23.16V21.84a0,0,0,0,1,0-.07c.07,0,.07.1.07.17v1C67,23.05,67,23.12,66.91,23.16Z"/><path class="cls-25" d="M22.42,53.57h2.46c.05,0,.1,0,.14,0s0,0,0,0H22.42a0,0,0,0,1,0,0Z"/><path class="cls-11" d="M65.44,14.44c-.12-.07-.12-.2-.17-.3a7.36,7.36,0,0,1-.36-.75c.11,0,.13.09.17.15.11.23.22.47.32.7A.34.34,0,0,1,65.44,14.44Z"/><path class="cls-24" d="M42.24,53.6c0-.05.09,0,.14,0h2.3s0,0,0,0H42.24Z"/><path class="cls-11" d="M66.34,28.49a9.71,9.71,0,0,1,.23-1.31,1.79,1.79,0,0,1-.08.65c0,.09,0,.17,0,.25A1.82,1.82,0,0,1,66.34,28.49Z"/><path class="cls-11" d="M66.12,29.62a10.74,10.74,0,0,1,.22-1.13A2.18,2.18,0,0,1,66.12,29.62Z"/><path class="cls-25" d="M19.75,53.53h1.9s.1,0,.13,0h-2s0,0,0,0Z"/><path class="cls-11" d="M25,53.6h.8a.35.35,0,0,1,.22,0,2.7,2.7,0,0,1-.75,0C25.16,53.68,25,53.72,25,53.6Z"/><path class="cls-11" d="M56.9,6.47a4.17,4.17,0,0,1-.75-.26l0,0a1.4,1.4,0,0,1,.76.29S56.92,6.49,56.9,6.47Z"/><path class="cls-11" d="M41.26,53.64v0h1s0,.06-.07.06A3.47,3.47,0,0,1,41.26,53.64Z"/><path class="cls-24" d="M45.36,53.56s.09,0,.14,0h1.7l0,0H45.36Z"/><path class="cls-11" d="M65.85,30.86A5.08,5.08,0,0,1,66,30a1.4,1.4,0,0,1-.1.73A.15.15,0,0,1,65.85,30.86Z"/><path class="cls-25" d="M17.69,53.49H19.2c.05,0,.1,0,.14,0H17.69s0,0,0,0Z"/><path class="cls-24" d="M47.73,53.52s.09,0,.14,0h1.36l0,0H47.73Z"/><path class="cls-11" d="M65.63,31.73a6.52,6.52,0,0,1,.22-.87A1.66,1.66,0,0,1,65.63,31.73Z"/><path class="cls-25" d="M15.84,53.45h1.33s.1,0,.14,0H15.84s0,0,0,0Z"/><path class="cls-11" d="M66.46,17.9l-.16-.64c.06,0,.1,0,.11.08s.08.3.11.45S66.52,17.89,66.46,17.9Z"/><path class="cls-11" d="M55.81,6.13,55.29,6a.2.2,0,0,1-.12-.08A2.35,2.35,0,0,1,55.7,6,.13.13,0,0,1,55.81,6.13Z"/><path class="cls-24" d="M11.71,18.38a4,4,0,0,1,0,.69V18a.31.31,0,0,0,0-.21.06.06,0,0,1,.08,0A.56.56,0,0,1,11.71,18.38Z"/><path class="cls-25" d="M14.3,53.42h1.1s.11,0,.14,0H14.3v0Z"/><path class="cls-24" d="M49.76,53.49c.06-.07.14,0,.21,0h1s0,0,0,0H49.76Z"/><path class="cls-25" d="M1.37,34.73V35.9c-.07-.07,0-.16,0-.23A4.93,4.93,0,0,1,1.37,34.73Z"/><path class="cls-11" d="M44.68,53.6v0h.64c-.17.15-.36.06-.55.06Z"/><path class="cls-24" d="M40.06,2H38.89a.83.83,0,0,1,.44,0A2.54,2.54,0,0,1,40.06,2Z"/><path class="cls-24" d="M51.41,53.45c.09-.07.2,0,.29,0,.29,0,.59,0,.88,0,0,0,0,0,0,0a0,0,0,0,1,0,0Z"/><path class="cls-25" d="M12.8,53.38h1s.11,0,.14,0,0,0,0,0H12.8v0Z"/><path class="cls-11" d="M22.42,53.57v0a.7.7,0,0,1-.6,0Z"/><path class="cls-11" d="M66.68,26.28a3.08,3.08,0,0,1,.07-.68c.07.19,0,.37,0,.56S66.73,26.25,66.68,26.28Z"/><path class="cls-24" d="M53,53.41a.9.9,0,0,1,.43,0c.21,0,.41,0,.62,0,0,0,0,0,0,0H53Z"/><path class="cls-25" d="M11.48,53.34h.92s.1,0,.13,0h-1s0,0,0,0Z"/><path class="cls-11" d="M65.78,15.42l-.19-.57A.74.74,0,0,1,65.78,15.42Z"/><path class="cls-24" d="M32.08,8.84v1A3.42,3.42,0,0,1,32.08,8.84Z"/><path class="cls-24" d="M54.27,53.37a1.29,1.29,0,0,1,.48,0c.18,0,.36,0,.54,0v0h-1Z"/><path class="cls-24" d="M25.43,12.1h-1A2.87,2.87,0,0,1,25.43,12.1Z"/><path class="cls-25" d="M10.28,53.3h.84c.05,0,.1,0,.14,0h-1a0,0,0,0,1,0,0Z"/><path class="cls-11" d="M49.23,53.52v0h.53C49.59,53.64,49.41,53.55,49.23,53.52Z"/><path class="cls-24" d="M24.53,16.05a3,3,0,0,1,.94,0Z"/><path class="cls-11" d="M66.87,24.06v-.34s0-.11,0-.15A.42.42,0,0,1,66.87,24.06Z"/><path class="cls-24" d="M55.55,53.34a2.57,2.57,0,0,1,.68,0h.22s0,0,0,0,0,0,0,0Z"/><path class="cls-25" d="M9.19,53.26a4.1,4.1,0,0,1,.86,0H9.19v0Z"/><path class="cls-25" d="M8.06,53.23a4.22,4.22,0,0,1,.87,0H8.1S8.05,53.26,8.06,53.23Z"/><path class="cls-25" d="M6.14,53.18a2.13,2.13,0,0,1,.87,0Z"/><path class="cls-24" d="M56.68,53.3a4.1,4.1,0,0,1,.86,0s0,0,0,0h-.84S56.69,53.31,56.68,53.3Z"/><path class="cls-11" d="M13.93,53.41h.37v0A.25.25,0,0,1,13.93,53.41Z"/><path class="cls-25" d="M7.12,53.19a3.85,3.85,0,0,1,.83,0H7.12s0,0,0,0A0,0,0,0,1,7.12,53.19Z"/><path class="cls-11" d="M54.46,5.76l-.34,0s0-.09.09-.07a1.4,1.4,0,0,1,.4.11h0S54.5,5.79,54.46,5.76Z"/><path class="cls-11" d="M47.2,53.56v0h.45C47.51,53.67,47.36,53.58,47.2,53.56Z"/><path class="cls-11" d="M66.83,24.66c0-.16,0-.33,0-.49,0,.1,0,.19,0,.28S66.93,24.61,66.83,24.66Z"/><path class="cls-25" d="M5.32,53.11a3.15,3.15,0,0,1,.75,0H5.35S5.31,53.15,5.32,53.11Z"/><path class="cls-24" d="M57.81,53.26a2.8,2.8,0,0,1,.71,0s0,0,0,0h-.72Z"/><path class="cls-11" d="M17.69,53.49v0c-.14.06-.27.09-.38,0Z"/><path class="cls-25" d="M.12,11.36V12A1.52,1.52,0,0,1,.12,11.36Z"/><path class="cls-24" d="M58.78,53.22a2.61,2.61,0,0,1,.68,0s0,0,0,0h-.69Z"/><path class="cls-24" d="M35,9.85a5.27,5.27,0,0,1,0-.68A2.57,2.57,0,0,1,35,9.85Z"/><path class="cls-24" d="M59.69,53.19a2.16,2.16,0,0,1,.67,0s0,0,0,0l0,0Z"/><path class="cls-24" d="M20.39,0h-.67A1.38,1.38,0,0,1,20.39,0Z"/><path class="cls-24" d="M62.09,53.07a2.29,2.29,0,0,1,.64,0,2.42,2.42,0,0,1-.6,0A0,0,0,0,1,62.09,53.07Z"/><path class="cls-11" d="M51,53.49v0h.38C51.26,53.59,51.13,53.5,51,53.49Z"/><path class="cls-25" d="M4.56,53.08a2.28,2.28,0,0,1,.64,0H4.56v0Z"/><path class="cls-24" d="M60.59,53.15a2.28,2.28,0,0,1,.64,0A2.3,2.3,0,0,1,60.59,53.15Z"/><path class="cls-11" d="M19.75,53.53v0a.25.25,0,0,1-.33,0Z"/><path class="cls-11" d="M53.9,5.68a1.27,1.27,0,0,0-.38-.07A.28.28,0,0,1,53.9,5.68Z"/><path class="cls-24" d="M23.56,3.8V3.17A1.34,1.34,0,0,1,23.56,3.8Z"/><path class="cls-11" d="M63.56,11.24c-.1,0-.13-.14-.19-.22C63.51,11,63.54,11.06,63.56,11.24Z"/><path class="cls-25" d="M66.91,21.77v.07a2,2,0,0,1,0-.64h0Z"/><path class="cls-24" d="M13.49,11.36a2.56,2.56,0,0,1-.62,0A2.17,2.17,0,0,1,13.49,11.36Z"/><path class="cls-24" d="M61.38,53.11a2,2,0,0,1,.6,0s0,0,0,0h-.61Z"/><path class="cls-11" d="M52.58,53.45v0h.34C52.82,53.57,52.69,53.46,52.58,53.45Z"/><path class="cls-25" d="M3.81,53a2,2,0,0,1,.6,0h-.6s0,0,0,0Z"/><path class="cls-24" d="M51.6,5.46H51a0,0,0,0,1,0,0h.61s0,0,0,0S51.61,5.46,51.6,5.46Z"/><path class="cls-25" d="M2.38,53A1.83,1.83,0,0,1,3,53H2.42S2.38,53,2.38,53Z"/><path class="cls-11" d="M15.84,53.45v0a.22.22,0,0,1-.3,0Z"/><path class="cls-24" d="M1.52,12a.93.93,0,0,1,0-.57Z"/><path class="cls-11" d="M53.14,5.57a.75.75,0,0,0-.26,0C53,5.42,53.06,5.43,53.14,5.57Z"/><path class="cls-25" d="M3.1,53a1.5,1.5,0,0,1,.56,0H3.1a0,0,0,0,1,0,0Z"/><path class="cls-11" d="M65.59,14.85a.36.36,0,0,1-.11-.26C65.63,14.63,65.6,14.74,65.59,14.85Z"/><path class="cls-24" d="M62.84,53a1.38,1.38,0,0,1,.53,0s0,0,0,0,0,0,0,0Z"/><path class="cls-24" d="M19.79,1.43a1,1,0,0,1,.54,0Z"/><path class="cls-24" d="M32.43,10.31H33A.84.84,0,0,1,32.43,10.31Z"/><path class="cls-11" d="M66,30a.81.81,0,0,1,.08-.34A.29.29,0,0,1,66,30Z"/><path class="cls-25" d="M1.4,33.94a1.35,1.35,0,0,1,0,.53A1.89,1.89,0,0,1,1.4,33.94Z"/><path class="cls-24" d="M13.92,18.2l0,0a1.46,1.46,0,0,1,0,.51h0A.53.53,0,0,1,13.92,18.2Z"/><path class="cls-25" d="M1.78,52.93a1.56,1.56,0,0,1,.53,0,0,0,0,0,1,0,0H1.82S1.78,53,1.78,52.93Z"/><path class="cls-11" d="M66.79,20.19a.45.45,0,0,0,0-.23c.14.07.13.18.07.3S66.82,20.21,66.79,20.19Z"/><path class="cls-24" d="M22.16,3.27a.78.78,0,0,1,0,.5Z"/><path class="cls-11" d="M51,5.42v0h-.26C50.81,5.35,50.9,5.36,51,5.42Z"/><path class="cls-11" d="M52.17,5.46H51.9a0,0,0,0,1,0,0h0A.18.18,0,0,1,52.17,5.46Z"/><path class="cls-11" d="M66.79,25.11c0-.11,0-.23,0-.34a.65.65,0,0,0,0,.2C66.88,25,66.89,25.1,66.79,25.11Z"/><path class="cls-11" d="M9.19,53.26v0c-.1.06-.19.07-.26,0Z"/><path class="cls-11" d="M54,53.41v0h.26C54.2,53.48,54.11,53.47,54,53.41Z"/><path class="cls-11" d="M12.8,53.38v0a.18.18,0,0,1-.27,0Z"/><path class="cls-24" d="M60,6.32c-.16,0-.33,0-.49,0C59.7,6.3,59.86,6.24,60,6.32Z"/><path class="cls-25" d="M66.91,23.57c0,.05,0,.11,0,.15,0-.15,0-.3,0-.45Z"/><path class="cls-11" d="M66.83,20.68v-.19c.13.07.09.17,0,.26S66.86,20.7,66.83,20.68Z"/><path class="cls-25" d="M1.25,52.89a1.18,1.18,0,0,1,.46,0s0,0,0,0H1.25a0,0,0,0,1,0,0Z"/><path class="cls-11" d="M56.68,53.3h0c-.07.16-.18,0-.27,0v0Z"/><path class="cls-11" d="M11.48,53.34v0c-.08,0-.17.1-.22,0Z"/><path class="cls-11" d="M63.14,10.79v-.11c0,.1.19.12.15.26Z"/><path class="cls-11" d="M55.29,53.37v0h.26C55.48,53.45,55.38,53.41,55.29,53.37Z"/><path class="cls-24" d="M63.26,10V9.56A.61.61,0,0,1,63.26,10Z"/><path class="cls-25" d="M.28,52.85a.49.49,0,0,1,.41,0Z"/><path class="cls-25" d="M1.37,36.12c.08.13,0,.28,0,.42C1.33,36.4,1.39,36.26,1.37,36.12Z"/><path class="cls-24" d="M64.72,52.92c.14-.07.28,0,.42,0v0h-.43Z"/><path class="cls-24" d="M15.62,14.48a1.46,1.46,0,0,1,0-.42C15.64,14.2,15.69,14.34,15.62,14.48Z"/><path class="cls-25" d="M.73,52.88a.49.49,0,0,1,.41,0Z"/><path class="cls-11" d="M52.73,5.49h-.19s-.06,0-.07,0A.17.17,0,0,1,52.73,5.49Z"/><path class="cls-11" d="M66.76,19.93V19.7C66.84,19.78,66.89,19.85,66.76,19.93Z"/><path class="cls-24" d="M14,19.17a.94.94,0,0,1,0-.41C14,18.89,14,19,14,19.17Z"/><path class="cls-11" d="M66.64,19l0-.19C66.74,18.83,66.75,18.86,66.64,19Z"/><path class="cls-11" d="M65.55,32a.38.38,0,0,1,.08-.27C65.71,31.88,65.57,31.94,65.55,32Z"/><path class="cls-11" d="M58.52,53.26v0h.26C58.71,53.36,58.61,53.27,58.52,53.26Z"/><path class="cls-24" d="M63.56,53c.12-.07.25,0,.38,0a0,0,0,0,1,0,0h-.39Z"/><path class="cls-25" d="M5.65,25.11c-.06.08-.11.17-.22.19C5.49,25.22,5.54,25.13,5.65,25.11Z"/><path class="cls-24" d="M65.25,52.88c.12-.07.25,0,.38,0C65.51,52.92,65.38,52.87,65.25,52.88Z"/><path class="cls-24" d="M15.65,14a1.2,1.2,0,0,1,0-.38A.71.71,0,0,1,15.65,14Z"/><path class="cls-11" d="M66.57,27.1c0-.07,0-.16,0-.22S66.68,27,66.57,27.1Z"/><path class="cls-11" d="M66.64,26.54c0-.09,0-.18,0-.26C66.66,26.36,66.79,26.47,66.64,26.54Z"/><path class="cls-11" d="M63.94,53v0h.22C64.11,53.11,64,53,63.94,53Z"/><path class="cls-24" d="M15.36,15.71a.93.93,0,0,1,0-.37A.93.93,0,0,1,15.36,15.71Z"/><path class="cls-11" d="M66.68,19.29V19.1C66.8,19.16,66.8,19.22,66.68,19.29Z"/><path class="cls-25" d="M5.35,25.38c-.06.08-.11.17-.22.18C5.19,25.48,5.24,25.39,5.35,25.38Z"/><path class="cls-11" d="M66.76,25.53c0-.1,0-.21,0-.31C66.75,25.32,66.89,25.44,66.76,25.53Z"/><path class="cls-24" d="M64.16,53a.46.46,0,0,1,.38,0Z"/><path class="cls-25" d="M25.55,22.93c-.12.08-.26,0-.38,0C25.29,22.89,25.42,23,25.55,22.93Z"/><path class="cls-25" d="M1.63,32.22a.93.93,0,0,1-.07.33A.43.43,0,0,1,1.63,32.22Z"/><path class="cls-11" d="M54.76,5.83h-.08s-.09,0-.07-.07a.6.6,0,0,1,.3.07A.14.14,0,0,1,54.76,5.83Z"/><path class="cls-11" d="M60.36,53.19v0h.23C60.53,53.27,60.44,53.19,60.36,53.19Z"/><path class="cls-11" d="M66.49,18.08a.21.21,0,0,0,0-.15c.13,0,.15.09.08.19Z"/><path class="cls-11" d="M59.46,53.22v0h.23C59.63,53.31,59.54,53.23,59.46,53.22Z"/><path class="cls-24" d="M59.42,49.51h.19c-.07,0-.19.06-.15.2-.05-.05,0-.11,0-.16s0,0,0,0A0,0,0,0,1,59.42,49.51Z"/><path class="cls-11" d="M57.54,53.3v0h.23C57.71,53.39,57.62,53.3,57.54,53.3Z"/><path class="cls-24" d="M65.7,52.85c.11-.07.23,0,.34,0C65.93,52.88,65.81,52.83,65.7,52.85Z"/><path class="cls-25" d="M35.92,16.73a.39.39,0,0,1-.15.23A.31.31,0,0,1,35.92,16.73Z"/><path class="cls-25" d="M17.61,22c-.11,0-.23,0-.34,0C17.38,22,17.5,22,17.61,22Z"/><path class="cls-25" d="M49.08,5.64a.52.52,0,0,1-.3.08A.47.47,0,0,1,49.08,5.64Z"/><path class="cls-24" d="M19.64,5.57H19.3A.34.34,0,0,1,19.64,5.57Z"/><path class="cls-11" d="M53.37,5.57h-.19C53.24,5.43,53.31,5.49,53.37,5.57Z"/><path class="cls-24" d="M26,12.14a.52.52,0,0,1-.3,0C25.83,12.12,25.94,12.07,26,12.14Z"/><path class="cls-24" d="M33.59,10.27a.51.51,0,0,1,.3,0C33.79,10.3,33.69,10.25,33.59,10.27Z"/><path class="cls-11" d="M63.37,53v0h.19C63.51,53.09,63.44,53.08,63.37,53Z"/><path class="cls-25" d="M66.49,18.08l0,0a.93.93,0,0,1,0,.23A.38.38,0,0,1,66.49,18.08Z"/><path class="cls-24" d="M33.1,10.3c.09-.06.2,0,.3,0C33.31,10.34,33.2,10.29,33.1,10.3Z"/><path class="cls-25" d="M24.68,23a.27.27,0,0,1-.3,0Z"/><path class="cls-25" d="M1.74,31.69c0,.08,0,.18-.07.26C1.68,31.86,1.63,31.75,1.74,31.69Z"/><path class="cls-24" d="M34.08,10.23a.51.51,0,0,1,.3,0C34.28,10.26,34.18,10.22,34.08,10.23Z"/><path class="cls-25" d="M51.9,5.42v0h-.3v0Z"/><path class="cls-24" d="M39.26,4.93a.4.4,0,0,1,.32,0Z"/><path class="cls-25" d="M50.59,5.46c-.1.07-.2,0-.3,0C50.38,5.42,50.49,5.47,50.59,5.46Z"/><path class="cls-25" d="M23.29,22.93c-.1,0-.21,0-.3,0C23.09,22.91,23.2,22.86,23.29,22.93Z"/><path class="cls-25" d="M23.81,23c-.1,0-.2,0-.3,0C23.61,23,23.72,22.9,23.81,23Z"/><path class="cls-24" d="M10.31,13v.3A.32.32,0,0,1,10.31,13Z"/><path class="cls-11" d="M66.61,26.84v-.22C66.65,26.69,66.73,26.77,66.61,26.84Z"/><path class="cls-24" d="M5.84,17.79H6.1A.24.24,0,0,1,5.84,17.79Z"/><path class="cls-24" d="M24.27,12.11c-.08.06-.18,0-.26,0C24.09,12.08,24.18,12.12,24.27,12.11Z"/><path class="cls-25" d="M38.48,13a.37.37,0,0,1-.11.19A.18.18,0,0,1,38.48,13Z"/><path class="cls-24" d="M15.32,16.13c0-.09,0-.18,0-.27C15.34,16,15.38,16.05,15.32,16.13Z"/><path class="cls-24" d="M15.66,12.11a.46.46,0,0,1-.26,0l0,0Z"/><path class="cls-24" d="M20.58.08l-.08,0c.07,0,.16,0,.19.06S20.62.09,20.58.08Z"/><path class="cls-11" d="M3.1,53v0c-.07.07-.12,0-.15,0Z"/><path class="cls-11" d="M4.56,53.08v0c-.07.07-.11,0-.15,0Z"/><path class="cls-25" d="M66.83,20.68a.07.07,0,0,1,0,.07v.19C66.8,20.86,66.84,20.77,66.83,20.68Z"/><path class="cls-11" d="M66.91,21.2h0v-.15C66.93,21.09,67,21.13,66.91,21.2Z"/><path class="cls-25" d="M18,22.07c-.08,0-.18,0-.26,0C17.85,22,17.94,22,18,22.07Z"/><path class="cls-24" d="M10.62,16.66h.26A.23.23,0,0,1,10.62,16.66Z"/><path class="cls-11" d="M10.28,53.3v0c-.07.07-.11,0-.15,0Z"/><path class="cls-25" d="M1.41,36.72c.07.08,0,.18,0,.27C1.37,36.91,1.42,36.81,1.41,36.72Z"/><path class="cls-25" d="M52.47,5.46s.06,0,.07,0-.18,0-.26,0Z"/><path class="cls-24" d="M7.05,12.18a.36.36,0,0,1,0-.23C7.07,12,7.11,12.11,7.05,12.18Z"/><path class="cls-24" d="M5.69,11.85a.34.34,0,0,1,0,.22C5.66,12,5.63,11.92,5.69,11.85Z"/><path class="cls-24" d="M38.85,5c.07-.06.15,0,.23,0S38.93,5,38.85,5Z"/><path class="cls-25" d="M1.44,37.1c.07.07,0,.15,0,.23S1.45,37.18,1.44,37.1Z"/><path class="cls-24" d="M12.25,11.4a.48.48,0,0,1-.24,0C12.09,11.37,12.17,11.4,12.25,11.4Z"/><path class="cls-24" d="M8.89,20.15c-.07.06-.15,0-.23,0C8.73,20.12,8.81,20.16,8.89,20.15Z"/><path class="cls-25" d="M66.79,20.19a.08.08,0,0,1,0,.07v.15C66.76,20.35,66.8,20.26,66.79,20.19Z"/><path class="cls-25" d="M36,16.58c0,.07,0,.14-.11.15S36,16.61,36,16.58Z"/><path class="cls-24" d="M59.38,48a.45.45,0,0,1,0-.23h0Z"/><path class="cls-24" d="M6.07,16.42H5.84A.2.2,0,0,1,6.07,16.42Z"/><path class="cls-24" d="M25.58,16.06a.36.36,0,0,1,.23,0C25.74,16.08,25.65,16.12,25.58,16.06Z"/><path class="cls-24" d="M19.42,14.06v.23A.18.18,0,0,1,19.42,14.06Z"/><path class="cls-25" d="M26,22.89c-.07.07-.15,0-.23,0S25.88,22.91,26,22.89Z"/><path class="cls-25" d="M.31,12.67H.54A.18.18,0,0,1,.31,12.67Z"/><path class="cls-24" d="M66.12,52.81c.06-.06.14,0,.22,0C66.27,52.84,66.19,52.8,66.12,52.81Z"/><path class="cls-25" d="M42.65,8.69a.16.16,0,0,1-.15.11C42.54,8.74,42.58,8.69,42.65,8.69Z"/><path class="cls-11" d="M65.14,52.92v0h.11C65.24,53,65.2,53,65.14,52.92Z"/><path class="cls-24" d="M3.33,8.24a.36.36,0,0,1-.23,0C3.17,8.21,3.25,8.25,3.33,8.24Z"/><path class="cls-25" d="M66.75,19.66c-.06-.06,0-.15,0-.22s.06,0,0,.07Z"/><path class="cls-25" d="M54.76,5.83h.15l0,.08A.41.41,0,0,1,54.76,5.83Z"/><path class="cls-11" d="M1.67,52.92h.11l0,0C1.75,53,1.71,53,1.67,52.92Z"/><path class="cls-11" d="M66.61,18.72v-.11s.07,0,.06.07S66.64,18.72,66.61,18.72Z"/><path class="cls-11" d="M2.27,53h.11l0,0C2.35,53.07,2.31,53,2.27,53Z"/><path class="cls-11" d="M54.05,5.68h-.12s0-.07.07-.07S54,5.65,54.05,5.68Z"/><path class="cls-24" d="M20.44,5.57c-.07.06-.16,0-.23,0S20.36,5.58,20.44,5.57Z"/><path class="cls-11" d="M62,53.11v0h.15C62.1,53.15,62,53.15,62,53.11Z"/><path class="cls-11" d="M5.32,53.11l0,0c-.07.07-.11,0-.15,0Z"/><path class="cls-24" d="M40.47,2a.36.36,0,0,1-.23,0C40.32,2,40.4,2,40.47,2Z"/><path class="cls-24" d="M1.52,12.33v-.22A.18.18,0,0,1,1.52,12.33Z"/><path class="cls-24" d="M59.53,50.3a.34.34,0,0,1,0-.2C59.56,50.16,59.53,50.23,59.53,50.3Z"/><path class="cls-24" d="M5.66,11.39a.31.31,0,0,1,0,.19C5.63,11.52,5.66,11.45,5.66,11.39Z"/><path class="cls-24" d="M59.5,50a.28.28,0,0,1,0-.2C59.52,49.86,59.49,49.93,59.5,50Z"/><path class="cls-25" d="M1.44,33.57c0,.06,0,.13,0,.19S1.38,33.62,1.44,33.57Z"/><path class="cls-24" d="M7.08,11.48c0-.06,0-.13,0-.2S7.08,11.41,7.08,11.48Z"/><path class="cls-24" d="M.16,11.1c0,.06,0,.13,0,.18S.1,11.15.16,11.1Z"/><path class="cls-24" d="M9.79,15.64a.16.16,0,0,1,0,.15C9.77,15.75,9.79,15.69,9.79,15.64Z"/><path class="cls-25" d="M31,21.35l-.15,0c0-.07.08-.08.15-.07Z"/><path class="cls-11" d="M3.81,53v0c-.06.07-.08,0-.11,0Z"/><path class="cls-24" d="M24.22,16.09c.06-.05.13,0,.2,0S24.29,16.09,24.22,16.09Z"/><path class="cls-24" d="M15.29,16.47a.21.21,0,0,1,0-.19C15.31,16.34,15.34,16.41,15.29,16.47Z"/><path class="cls-24" d="M59.42,48.31a.28.28,0,0,1,0-.2C59.45,48.17,59.42,48.25,59.42,48.31Z"/><path class="cls-24" d="M15.25,16.77c0-.07,0-.14,0-.19S15.3,16.71,15.25,16.77Z"/><path class="cls-25" d="M1.56,38c.06.06,0,.13,0,.19S1.56,38.07,1.56,38Z"/><path class="cls-25" d="M22.87,22.89c-.06,0-.13,0-.18,0S22.82,22.83,22.87,22.89Z"/><path class="cls-11" d="M1.25,52.89v0c-.06.07-.08,0-.11,0Z"/><path class="cls-24" d="M1.17,9.21a.18.18,0,0,1-.1.11A.1.1,0,0,1,1.17,9.21Z"/><path class="cls-25" d="M42.09,9.14c0,.07-.07.09-.11.11S42,9.17,42.09,9.14Z"/><path class="cls-24" d="M35,9a.21.21,0,0,1,0-.19C35.05,8.82,35.08,8.89,35,9Z"/><path class="cls-11" d="M66.76,19.51s0-.06,0-.07v-.08C66.78,19.4,66.83,19.44,66.76,19.51Z"/><path class="cls-24" d="M32.12,8.46c0,.07,0,.14,0,.2S32.06,8.52,32.12,8.46Z"/><path class="cls-25" d="M56.9,6.47h0a.11.11,0,0,1,.11.08A.22.22,0,0,1,56.9,6.47Z"/><path class="cls-24" d="M32.16,8.2c0,.07,0,.14,0,.19S32.1,8.26,32.16,8.2Z"/><path class="cls-24" d="M20.31,7a.25.25,0,0,1,.19,0C20.44,7,20.37,7,20.31,7Z"/><path class="cls-25" d="M46.6,6.36a.18.18,0,0,1-.15.07C46.48,6.36,46.54,6.36,46.6,6.36Z"/><path class="cls-25" d="M4.53,26.16a.12.12,0,0,1-.12.12A.34.34,0,0,1,4.53,26.16Z"/><path class="cls-24" d="M40,4.94a.22.22,0,0,1,.19,0C40.07,5,40,5,40,4.94Z"/><path class="cls-11" d="M7.12,53.19v0c-.06.07-.08,0-.11,0Z"/><path class="cls-11" d="M44.72,4.11,44.61,4C44.71,4,44.71,4.05,44.72,4.11Z"/><path class="cls-24" d="M38.75,2c-.06,0-.13,0-.19,0S38.68,2,38.75,2Z"/><path class="cls-24" d="M26.33,12.18c-.06,0-.13,0-.19,0S26.28,12.12,26.33,12.18Z"/><path class="cls-11" d="M8.06,53.23l0,0c-.06.06-.1.05-.11,0Z"/><path class="cls-24" d="M19.9,5.6c-.06,0-.13,0-.19,0S19.85,5.55,19.9,5.6Z"/><path class="cls-25" d="M49.84,5.53c-.06.06-.13,0-.19,0S49.77,5.54,49.84,5.53Z"/><path class="cls-25" d="M26.56,22.82c0,.06-.12,0-.19,0S26.5,22.83,26.56,22.82Z"/><path class="cls-24" d="M10.43,14.32c.05.06,0,.13,0,.19S10.44,14.38,10.43,14.32Z"/><path class="cls-25" d="M50.14,5.49c-.06.07-.13,0-.19,0S50.07,5.5,50.14,5.49Z"/><path class="cls-25" d="M27.39,22.67l-.15.07C27.25,22.64,27.33,22.68,27.39,22.67Z"/><path class="cls-25" d="M1.48,33.23c0,.06,0,.14,0,.19S1.42,33.28,1.48,33.23Z"/><path class="cls-24" d="M4.07,8.27a.32.32,0,0,1-.19,0C3.94,8.24,4,8.21,4.07,8.27Z"/><path class="cls-2" d="M57.77,30.07a6.87,6.87,0,0,1,.85,1.82,7.92,7.92,0,0,1,.34,2.6,3.79,3.79,0,0,1-.09.89,7.93,7.93,0,0,1-.48,1.31,9.45,9.45,0,0,1-1.54,2.4,6.4,6.4,0,0,1-3.67,2,12.6,12.6,0,0,1-2.8.27.84.84,0,0,0-1,.72,20.52,20.52,0,0,1-.63,2,1.1,1.1,0,0,1-.89.78c-.14,0-.28,0-.42,0a6.09,6.09,0,0,0-.61-.17.58.58,0,0,1-.43-.79c0-.13.09-.26.13-.39.29-.82.61-1.62.92-2.43a3.62,3.62,0,0,1,.71-1.27,1.81,1.81,0,0,1,1.61-.54,6,6,0,0,0,2.31-.09,3.68,3.68,0,0,0,2-1.41c.15-.17.32-.32.45-.5a4.6,4.6,0,0,0,1.11-2.55,4.79,4.79,0,0,0-.08-1.6c-.06-.24-.14-.47-.22-.71a1.34,1.34,0,0,0-.12-.24c-.06-.2-.22-.36-.25-.57,0,0,.05-.07.1-.08a3,3,0,0,0,1.19-.52c.08-.05.16-.11.26-.07s.14,0,.2-.08c.25-.21.49-.42.71-.64A.56.56,0,0,1,57.77,30.07Z"/><path class="cls-26" d="M55.22,22c.49.16,1,.34,1.46.49a1.22,1.22,0,0,1,.73.55,20.05,20.05,0,0,1,1,1.94,29.73,29.73,0,0,1,1.3,2.81v0c.07.37-.16.55-.44.73-.74.48-1.49.94-2.27,1.36a1.06,1.06,0,0,1-.86.16.56.56,0,0,1-.18-.25.75.75,0,0,0,0-.16.28.28,0,0,1,.1-.36c.24-.19.47-.4.69-.6.41-.34.8-.7,1.19-1,.16-.05.29-.17.47-.17a3,3,0,0,0-.51.09.62.62,0,0,1-.23-.28c-.39-.65-.77-1.3-1.12-2a2.68,2.68,0,0,1-.24-1.67,1.89,1.89,0,0,0-.12.62,2.61,2.61,0,0,1,0,.28.25.25,0,0,1-.22.27c-.11,0-.13.08-.09.17a1.49,1.49,0,0,1,0,1.19c-.14.4-.3.79-.42,1.2a.22.22,0,0,1-.08.14.29.29,0,0,1-.21-.06,8.38,8.38,0,0,0-3.09-1.11,9.51,9.51,0,0,0-1.41-.06c-.09,0-.19,0-.26-.06a1.44,1.44,0,0,1-.14-.71s0-.07,0-.08a2.9,2.9,0,0,1,.4-1c.39-.65.79-1.31,1.22-1.94a12.23,12.23,0,0,0-1.09,1.4c-.25.34-.51.68-.78,1a4.12,4.12,0,0,1-1.37,1,6.7,6.7,0,0,1-1.85.66,1.5,1.5,0,0,1-.37,0,.71.71,0,0,1-.16-.76A8.49,8.49,0,0,1,47,24c.46-.95,1-1.88,1.47-2.8.06-.13.12-.12.21-.07s.07,0,.1,0a.44.44,0,0,0,.16.06l0,0c.25.11.48.23.72.35s.05.18,0,.27c-.23.74-.45,1.49-.68,2.24,0,.06,0,.12,0,.18a2.86,2.86,0,0,0-.17.52,4.31,4.31,0,0,0,.34-.68,3,3,0,0,1,.65-.48c.59-.39,1.18-.78,1.79-1.15a3,3,0,0,1,.88-.29c.15,0,.3-.15.47-.07s0,.16,0,.24a11,11,0,0,0-.38,1.6c0,.12-.07.29,0,.36s.22-.07.32-.14a7.57,7.57,0,0,0,.81-.69c.46-.42.9-.85,1.34-1.29A.3.3,0,0,1,55.22,22Z"/><path class="cls-6" d="M31.17,46.39l1.23-1.08,2.07-1.78a7.88,7.88,0,0,1,1.67-1.26,1.64,1.64,0,0,1,.69-.18.83.83,0,0,1,.65.34,2.14,2.14,0,0,1,.4,1c0,.15.08.18.22.12a1.12,1.12,0,0,1,1.42.42,8.38,8.38,0,0,1,.75,1.26c1,1.74,2,3.46,3,5.18a.83.83,0,0,0,.11.15s0,.09,0,.12-.25.36-.37.53-.08.13-.16.15-.13-.09-.18-.16c-1-1.31-2-2.62-2.94-3.95a8.5,8.5,0,0,1-.9-1.62,1.6,1.6,0,0,0-.07.64c0,.05,0,.1,0,.15s0,.18,0,.28c.2.91.39,1.82.59,2.73.08.39.17.78.24,1.18a3,3,0,0,1-.54.82c-.09.1-.21.06-.3,0a1.75,1.75,0,0,1-.16-.25c-.07-.13-.18-.24-.24-.38-.25-.74-.52-1.48-.79-2.22-.1-.28-.21-.56-.3-.84a1.23,1.23,0,0,0-.12-.26,1.51,1.51,0,0,0-.13-.46,7.14,7.14,0,0,1-.49-1.8,1.64,1.64,0,0,0-.19.24c-.51.78-1.1,1.5-1.64,2.25-.34.48-.69,1-1,1.43,0,0,0,.08-.1.1s-.14-.12-.19-.2l-.12-.19a8.93,8.93,0,0,0-1-1.34c-.28-.32-.58-.61-.87-.91A.2.2,0,0,1,31.17,46.39Z"/><path class="cls-2" d="M50.4,26.27c.47,0,.94,0,1.4,0a8.24,8.24,0,0,1,3.41,1.16l.15.08c.19,0,.3.21.47.28s.53.46.8.69a.36.36,0,0,1,.16.24c-.22.2-.44.41-.67.6s-.18.18-.12.33a.81.81,0,0,1-.56.17,4.86,4.86,0,0,1-1.26-.08c-.07,0-.17-.08-.17.07s.18.3.34.38.18,0,.19.15a.18.18,0,0,1-.09.06,1.06,1.06,0,0,1-.91-.21.76.76,0,0,0-.19-.12,4.78,4.78,0,0,0-2.18-.63c-.11,0-.21,0-.31,0s-.14-.08-.21-.07a4.69,4.69,0,0,0-2,.59,4.84,4.84,0,0,0-1.94,2,.51.51,0,0,1-.72.23l-.68-.35a2.89,2.89,0,0,1-.57-.42.61.61,0,0,1-.16-.6,2,2,0,0,1,.26-.58,11.05,11.05,0,0,1,1-1.53,5.75,5.75,0,0,1,1-.94,8.06,8.06,0,0,1,2.43-1.31l.42-.11A6.17,6.17,0,0,1,50.4,26.27Z"/><path class="cls-2" d="M35.85,39l-.16,0c-.34-.09-.38-.15-.37-.5a1,1,0,0,1,.12-.47c.23-.55.39-1.13.6-1.69a3.61,3.61,0,0,1,.24-.57,1.07,1.07,0,0,1,1.15-.56,2.51,2.51,0,0,0,1.65-.37,3.78,3.78,0,0,0,.83-.61A2.76,2.76,0,0,0,40,30.49a2.76,2.76,0,0,0-4.52.55c-.14.26-.29.3-.52.17a4.13,4.13,0,0,1-.63-.47.46.46,0,0,1-.11-.55,3.62,3.62,0,0,1,.56-.84,4.11,4.11,0,0,1,3.11-1.55,3.57,3.57,0,0,1,.8,0,3.5,3.5,0,0,1,1.54.53,4.47,4.47,0,0,1,2.24,3.41,1.46,1.46,0,0,1,0,.72s0-.07,0-.11a2.91,2.91,0,0,1-.16.83,3.68,3.68,0,0,1-.36.78,4.85,4.85,0,0,1-3.37,2.32,4.6,4.6,0,0,1-1.05.06.39.39,0,0,0-.48.35c-.14.6-.29,1.19-.4,1.8-.08.4-.32.58-.7.49A.11.11,0,0,0,35.85,39Z"/><path class="cls-27" d="M31.17,46.39a16.68,16.68,0,0,1,1.4,1.51,5.66,5.66,0,0,1,.6.85c-.37.51-.76,1-1.16,1.48s-.64.76-1,1.13a2.4,2.4,0,0,1-1.36.71,7.63,7.63,0,0,1-1.43.15H26.55a2.58,2.58,0,0,1-1.49-.38,2,2,0,0,1-.49-1.05,2.85,2.85,0,0,1,.08-1.36c0-.06,0-.13.08-.16a1.78,1.78,0,0,0,1.09-.19,2.7,2.7,0,0,0,.88-.56.29.29,0,0,1,.34-.06,1.88,1.88,0,0,0,1.3,0,.76.76,0,0,0,.28-.15,3.57,3.57,0,0,1,.45-.19,2.14,2.14,0,0,0,.89-.74.44.44,0,0,1,.13-.14Z"/><path class="cls-28" d="M30.09,47.28a2.14,2.14,0,0,1-1.36,1.06l-.06,0A1.73,1.73,0,0,1,27,48.15a.28.28,0,0,0-.38,0,2.71,2.71,0,0,1-.8.48.41.41,0,0,1-.34.07.32.32,0,0,1,0-.27,7.07,7.07,0,0,1,.4-1.5.57.57,0,0,0-.1-.62,6.82,6.82,0,0,1-1-1.65,1.89,1.89,0,0,1-.09-.34c0-.05-.05-.12,0-.15a.26.26,0,0,1,.15.07,1.54,1.54,0,0,0,1.21.29,1,1,0,0,0,.67-.43.57.57,0,0,1-.63-.09.78.78,0,0,1-.2-.65,11.1,11.1,0,0,1,.24-1.28c.06-.24,0-.48.12-.71.06-.07.16,0,.24-.06.4,0,.54-.27.37-.63a2.92,2.92,0,0,0-.69-.87c-.08-.09-.21-.14-.21-.29a.77.77,0,0,1,.63.08,7.34,7.34,0,0,1,2,1.32,1.45,1.45,0,0,1,.53,1c0,.09,0,.14.13.15s.1,0,.11.07H29.3c-.14,0-.18,0-.19.18a3.05,3.05,0,0,1-.21.94.86.86,0,0,0,0,.65l.57,1.33A10.74,10.74,0,0,1,30.09,47.28Z"/><path class="cls-27" d="M55.67,33.15a4.88,4.88,0,0,1,0,2.15,4.6,4.6,0,0,1-1,2l-.08.08c-.09,0-.1-.15-.12-.23-.21-.7-.41-1.4-.62-2.1a2.08,2.08,0,0,1,0-.23,8.5,8.5,0,0,1-.07.87s0,.09-.08.08a.13.13,0,0,1,0-.06,0,0,0,0,0,0,0,7.1,7.1,0,0,1-.12,1.12q-.07.73-.18,1.47a.61.61,0,0,1,0,.13.28.28,0,0,1-.17.13,4.78,4.78,0,0,1-1.81.52,3,3,0,0,1-.52,0c-.14,0-.23-.06-.22-.23a7.35,7.35,0,0,0,0-.94c0-.94,0-1.88,0-2.82s0-2.1.07-3.15c.12,0,.17.06.22.14a.55.55,0,0,0,.17.17,4.5,4.5,0,0,0,3.28,1,4.84,4.84,0,0,0,1.07-.15A.6.6,0,0,1,55.67,33.15Z"/><path class="cls-8" d="M26.3,41.39A13.85,13.85,0,0,1,26,43.08a1.51,1.51,0,0,0,0,.56.5.5,0,0,0,.76.42l.1,0c-.36.84-1.62.73-2.13.18a.27.27,0,0,1-.15-.13,1.57,1.57,0,0,1-.24-.82,3.92,3.92,0,0,1,.09-1,5.15,5.15,0,0,0,.17-1.3,2.33,2.33,0,0,0-.37-1.22c-.12-.13-.17-.32-.32-.43A2.44,2.44,0,0,1,22.33,36a9.17,9.17,0,0,0,.45-1.13c.07-.26.12-.52.2-.78a1.88,1.88,0,0,1,2.49-1.26.48.48,0,0,1,.34.28c.07.13.13.22.29.21a.08.08,0,0,1,.09.08s-.07,0-.11,0-.13.08-.11.17a6.25,6.25,0,0,1,0,1c0,.13-.12.11-.19.12a1.26,1.26,0,0,0-.38.1.61.61,0,0,0-.22.2c0,.05-.06.1,0,.15s.09,0,.13,0a.64.64,0,0,1,.39-.2h.07a1.19,1.19,0,0,1-.42.61,1.73,1.73,0,0,1-.64.38c-.22.07-.22.07-.19.31a.57.57,0,0,1-.05.34.15.15,0,0,1-.13.11c-.06,0-.09,0-.12-.1S24,36.25,24,36.1a.48.48,0,0,0-.57-.22.45.45,0,0,0-.31.45,1.23,1.23,0,0,0,.53,1,.5.5,0,0,0,.5.05c.05,0,.11-.07.17,0a1.82,1.82,0,0,1,0,.33c-.07.35-.1.72-.16,1.07,0,.16,0,.22.17.25a2.24,2.24,0,0,1,1.14.54,2.75,2.75,0,0,1,.89,1.69C26.32,41.27,26.35,41.33,26.3,41.39Z"/><path class="cls-27" d="M15.69,34.21c0,.08,0,.16,0,.24,0,2.07,0,4.15,0,6.22a1.1,1.1,0,0,1,0,.52c-.08.15-.31.09-.46.16a.35.35,0,0,1-.17.06,7.48,7.48,0,0,1-1,.11,2.72,2.72,0,0,1-.57-.1.48.48,0,0,1-.34-.37c-.11-.54-.19-1.09-.29-1.64l-.45-2.8a1.66,1.66,0,0,1,0-.22c0-.13.05-.16.16-.1h0c.34.3.65.15.94-.08s.79-.65,1.17-1,.66-.62,1-.95A.13.13,0,0,1,15.69,34.21Z"/><path class="cls-7" d="M12.11,35.45s0-.14-.1-.15a6.54,6.54,0,0,1-.68-.71s-.05-.07,0-.12a2.4,2.4,0,0,0,.66.19,1.4,1.4,0,0,0,.88-.32A17.9,17.9,0,0,0,14.27,33c.84-.79,1.67-1.59,2.5-2.39.54-.52,1.09-1,1.61-1.55A1.22,1.22,0,0,1,20.06,29a8.94,8.94,0,0,0,1.73,1.11.58.58,0,0,0,.5,0,2.75,2.75,0,0,1,1-.16.46.46,0,0,1,.23.05.06.06,0,0,1-.06.06,2.45,2.45,0,0,0-1.24.52,6.24,6.24,0,0,1-.66.38.92.92,0,0,1-.61.11,10.1,10.1,0,0,1-1.66-.94c-.08-.06-.13-.06-.2,0l-2.38,2.23c-.35.33-.72.64-1,1a.55.55,0,0,1-.15.19c-.28.21-.51.48-.77.71-.46.42-.91.85-1.35,1.27a.75.75,0,0,1-1.17,0C12.2,35.54,12.17,35.48,12.11,35.45Z"/><path class="cls-28" d="M23.9,39.28c.15,0,.17.13.24.22a.65.65,0,0,0,.09.16,2.88,2.88,0,0,1,.23,1.61,6.66,6.66,0,0,1-.12.76s0,.13-.08.13-.09-.07-.11-.13-.11-.37-.15-.47a8,8,0,0,1-.18,2.86c-.11.62-.21,1.24-.33,1.86a1.37,1.37,0,0,1-.07.29c-.07.1-.18.1-.29.1H22c-.3,0-.31,0-.28-.33.08-1.45.15-2.9.24-4.35,0-.44,0-.88.09-1.31a1,1,0,0,1,.59-.82A11.63,11.63,0,0,1,23.9,39.28Z"/><path class="cls-6" d="M15.17,41.61c0,.91-.08,1.81-.11,2.71S15,46,15,46.82s-.06,1.92-.11,2.88c0,.24,0,.48,0,.73a8.44,8.44,0,0,0-.61.83c-.2.25-.31.25-.49,0l-.07-.11a.54.54,0,0,1-.08-.21c0-.47-.06-.93-.05-1.4,0-.93,0-1.87,0-2.8,0-.64,0-1.28,0-1.93-.06-.83,0-1.66-.07-2.49,0-.35,0-.37.37-.42A5.71,5.71,0,0,0,15,41.63.25.25,0,0,1,15.17,41.61Z"/><path class="cls-6" d="M48.7,21.13l-.07,0c.15-.23.31-.45.44-.69a.79.79,0,0,1,.51-.38,1.17,1.17,0,0,0,.4-.13c.11-.1.27-.1.4-.15a4.1,4.1,0,0,1,.5-.14c.12,0,.25-.05.32.09-.1.15-.27.09-.4.15a3.84,3.84,0,0,0,.46-.11c.18,0,.2-.12.17-.28a3.83,3.83,0,0,1,0-1.07c0-.07.09,0,.12,0l.18.13c.22.16.27.16.48,0,.19,0,.21-.17.25-.31a.55.55,0,0,0,0-.31.4.4,0,0,1,0-.19.32.32,0,0,0,0-.28c-.05-.15,0-.27.07-.41a.07.07,0,0,1,.07-.06s0,0,.06.08a3.11,3.11,0,0,0,0,.43c0,.14,0,.31.14.41s.23.07.35.1.13,0,.19,0,0,.14.05.21a.37.37,0,0,0,.24.34c.25.17.26.17.48,0s.15-.13.21-.21,0-.12.08-.16a1.43,1.43,0,0,0,.28-.13.66.66,0,0,1,.37,0c.1.1.07.24.11.37s0,.14.05.25a2.28,2.28,0,0,0,.11-.53.48.48,0,0,1,.1-.28A.64.64,0,0,1,56,17.8a.57.57,0,0,1,.29.57,1.36,1.36,0,0,1-.42,1,.49.49,0,0,1-.44.16c-.17,0-.26,0-.3.17a.45.45,0,0,1-.06.12,2.28,2.28,0,0,1-2,1.35,1.23,1.23,0,0,1-1.3-.8c0-.11.14-.17.21-.25a.46.46,0,0,0,.14-.24c-.09.18-.28.25-.43.36a8.61,8.61,0,0,1-1.16.62.48.48,0,0,1-.18.06.57.57,0,0,0-.7.38c0,.11-.15.13-.27.1a4.14,4.14,0,0,1-.49-.19h0A.84.84,0,0,0,48.7,21.13Z"/><path class="cls-6" d="M24.26,37.33a.68.68,0,0,1-1-.31,1.18,1.18,0,0,1-.24-.7.51.51,0,0,1,1-.25c.08.14.15.3.23.45s0,.11.08.1.09-.06.11-.12a.68.68,0,0,0,0-.4c-.05-.16,0-.21.16-.22l.11,0c.18,0,.32-.14.5-.18a.11.11,0,0,1,.09,0,.27.27,0,0,0,.32.11c.27.18.34.16.5-.15A.55.55,0,0,0,26,35a.11.11,0,0,1-.06-.12c0-.06.11-.08.16-.12s.12-.19,0-.26a.09.09,0,0,1-.06,0,3.94,3.94,0,0,1-.05-.6,1.35,1.35,0,0,0,0-.29c-.05-.2-.05-.2.26-.2a.14.14,0,0,1,.14,0,1.65,1.65,0,0,1,1.23,1.15.1.1,0,0,1,0,.09.28.28,0,0,1-.22,0,.7.7,0,0,0-.25,0c-.15,0-.21.1-.17.25s0,.23,0,.35.07.22.21.22a.36.36,0,0,1,0,.09c0,.12.07.22.2.24s.21-.08.26-.2.11-.17.22,0a5.39,5.39,0,0,1,.08,1.92.33.33,0,0,1-.05.12c0,.13-.06.25-.1.38-.17.5-.3.49-.8.54a6.26,6.26,0,0,1-.75,0c-.08,0-.15,0-.19.08a.85.85,0,0,0-.24-.09,2,2,0,0,1-1.43-1C24.29,37.44,24.31,37.37,24.26,37.33Z"/><path class="cls-7" d="M24,30.82a10.33,10.33,0,0,0,1.57.08,9.76,9.76,0,0,0,3.16-.63A10.42,10.42,0,0,0,31,29.11a8,8,0,0,0,2.5-2.73,9.87,9.87,0,0,0,1.14-3.46,10.67,10.67,0,0,0,.14-2,6.51,6.51,0,0,0-.06-.88.32.32,0,0,1,0-.27,9.93,9.93,0,0,1-1.8,8.24,9.82,9.82,0,0,1-6.22,3.77,10,10,0,0,1-3.54,0l0,0c.08-.11.24-.14.32-.26a1.63,1.63,0,0,0,.45-.59C23.89,30.87,23.9,30.82,24,30.82Z"/><path class="cls-7" d="M47.47,44.91c.13-.07.28,0,.42,0a1.06,1.06,0,0,0,.85-.76c.27-.67.43-1.37.64-2.07a.86.86,0,0,1,.89-.69A12.14,12.14,0,0,0,53.62,41a6.23,6.23,0,0,0,2.65-1.37,8.28,8.28,0,0,0,1.66-2.11,9.39,9.39,0,0,0,.89-2.09v0s0,0,0,0a7.88,7.88,0,0,1-.7,2.32A1.17,1.17,0,0,0,58,38a12.3,12.3,0,0,1-.86,1.27,7.85,7.85,0,0,1-1.48,1.4l-.08.08a3.2,3.2,0,0,1-.83.54,8,8,0,0,1-1.63.67,7.06,7.06,0,0,1-1.58.27,3.93,3.93,0,0,1-.84,0,.31.31,0,0,0-.53.15c-.24.81-.49,1.61-.71,2.42a.6.6,0,0,1-.8.46C48.29,45.14,47.88,45,47.47,44.91Z"/><path class="cls-16" d="M55,19.81s0,0,0-.07c.07-.19.11-.4.41-.27a.37.37,0,0,0,.37-.14,1.29,1.29,0,0,0,.4-1.12.5.5,0,0,0-.67-.41l-.22.1c-.07-.06,0-.14,0-.21a3.19,3.19,0,0,0-.1-1.15,1,1,0,0,0-.26-.47c0-.05-.09-.09-.07-.17A1.24,1.24,0,0,1,56.45,17a4.51,4.51,0,0,0,.12.72,1.08,1.08,0,0,0,.33.55,1.54,1.54,0,0,1,.51,1.54,1.37,1.37,0,0,0,.26,1.08c.1.13.07.18,0,.26a3.77,3.77,0,0,1-1.51.72,5.71,5.71,0,0,1-.92.16c-.16.05-.22-.05-.27-.16a.75.75,0,0,1-.07-.42c0-.37,0-.74.06-1.11A2.19,2.19,0,0,1,55,19.81Z"/><path class="cls-26" d="M50.89,32.1,50.7,32c0-.76.07-1.52.15-2.27a.24.24,0,0,1,.2,0,6.42,6.42,0,0,1,2.11.53.56.56,0,0,1,.17.09.38.38,0,0,1,.09.18,1.19,1.19,0,0,0,1.11.93l.08,0a2.14,2.14,0,0,1,.55,1c-.13.2-.36.26-.55.39A4.21,4.21,0,0,1,53,32.9a4.08,4.08,0,0,1-2-.65A.8.8,0,0,1,50.89,32.1Z"/><path class="cls-27" d="M51.07,48.67c-.1-1.27-.17-2.54-.23-3.82,0-.74-.07-1.48-.1-2.23a.74.74,0,0,1,.39,0,5.11,5.11,0,0,0,1.35-.07l.14,0c.19,0,.24,0,.22.2,0,.39-.1.78-.15,1.17-.19,1.5-.37,3-.57,4.49,0,.23,0,.22.19.23s.18,0,.24.07-.14.08-.22.08h-1C51.21,48.77,51.1,48.79,51.07,48.67Z"/><path class="cls-8" d="M38.52,51.08l0,.05c.25.38.28.39.55,0l.36-.54c.11-.23.28-.25.42-.05a4.1,4.1,0,0,1,.3.54.84.84,0,0,0,.42.39,8.88,8.88,0,0,0,1.22.44c.44.17.35.11.42-.23,0-.17,0-.37.12-.54s.13,0,.16.1a.17.17,0,0,0,.28.06c.21-.24.36-.53.56-.78s.24-.09.32.06l.33.57a.79.79,0,0,0,.38.34,10.67,10.67,0,0,0,1.85.65c.2,0,.4.12.44.37a.32.32,0,0,1-.23.06H38.58a.44.44,0,0,1-.16,0,.09.09,0,0,1-.06,0,.71.71,0,0,1,0-.43c0-.32.13-.62.16-.93A.1.1,0,0,1,38.52,51.08Z"/><path class="cls-8" d="M54.87,15.9a2.11,2.11,0,0,1,.47,1.8c0,.07,0,.13,0,.2s-.08.32-.12.49a1.72,1.72,0,0,1-.12.44,3,3,0,0,1-.15-.74c-.11-.12-.26-.05-.39-.06s-.06,0-.06,0a.66.66,0,0,0-.56-.45c-.08,0-.17,0-.21-.11a1.82,1.82,0,0,1-.07-.25,1.71,1.71,0,0,1,0-.38,1.24,1.24,0,0,1-.07.56.09.09,0,0,1-.11,0s-.1,0-.13,0a.12.12,0,0,0,0,.15c.06.06.16.09.15.2a.25.25,0,0,1-.21.16,1.08,1.08,0,0,1-.64-.06c-.2-.08-.12-.27-.15-.41s0-.57,0-.78a2.59,2.59,0,0,1-.23.7.28.28,0,0,1-.16.06.81.81,0,0,0-.61.38.31.31,0,0,1-.09.07h-.09c-.28,0-.31-.07-.27-.34a4.59,4.59,0,0,1,.33-1.15,2,2,0,0,1,1.5-1.18,1.94,1.94,0,0,1,1.77.35A1.35,1.35,0,0,1,54.87,15.9Z"/><path class="cls-6" d="M35.47,38l-.15.43c-.32.4-.65.79-1,1.18l-.08.08c-.24.21-.46.44-.69.66-.5.5-1,1-1.55,1.47a.46.46,0,0,1-.18.13c-.3.07-.42,0-.45-.32s-.08-.73-.14-1.1c0-.1,0-.21.07-.28,1.38-1.25,2.73-2.51,4.15-3.71a2.17,2.17,0,0,1,.42-.31c.05.08,0,.17,0,.25C35.78,37,35.63,37.54,35.47,38Z"/><path class="cls-6" d="M22.42,52.73H18.89c0-.16.08-.21.19-.25a2.65,2.65,0,0,1,.73-.16,5.47,5.47,0,0,0,1.34-.25c.25-.09.33-.18.34-.44,0-1,.09-2,.15-3,0-.25,0-.51,0-.76.22,0,.43,0,.65,0s.41,0,.61-.08.12,0,.18,0a.4.4,0,0,1,0,.24l-.39,3c0,.39-.09.78-.14,1.17C22.6,52.4,22.61,52.61,22.42,52.73Z"/><path class="cls-2" d="M45.5,47.59a1.43,1.43,0,0,1,.25-1.1A1.58,1.58,0,0,1,48,46.12a1.41,1.41,0,0,1,0,1.67,1.48,1.48,0,0,1-2.46,0C45.56,47.73,45.57,47.65,45.5,47.59Z"/><path class="cls-16" d="M27.84,37.6a7.82,7.82,0,0,0,0-1.53c0-.18-.06-.36-.08-.55s-.09-.15-.08-.24,0-.16.13-.16.1-.17,0-.25-.21-.18-.31-.29a1.66,1.66,0,0,0-1-1.11l-.38-.1a.43.43,0,0,1-.45-.31c0-.12-.18-.16-.26-.25a1.19,1.19,0,0,1,.87-.38,2.14,2.14,0,0,1,1.74.67,1.24,1.24,0,0,1,.35,1,4.87,4.87,0,0,0,.17,1.74A1.67,1.67,0,0,1,27.84,37.6Z"/><path class="cls-10" d="M12.11,35.45c.1-.05.12,0,.16.09a.7.7,0,0,0,1.12,0l2.23-2.08.07,0v.79l-.47.45c-.58.55-1.15,1.1-1.78,1.59a2.92,2.92,0,0,1-.37.24c-.23.12-.43,0-.62-.13,0,0-.07-.1-.12-.06s0,.09,0,.14c.12.73.23,1.46.36,2.19s.28,1.6.41,2.4a.39.39,0,0,0,.32.34,1.76,1.76,0,0,0,.51.09s0,.06,0,.06a2,2,0,0,1-1,0c-.35,0-.35,0-.38-.37-.11-1.14-.19-2.29-.26-3.43C12.21,37,12.16,36.22,12.11,35.45Z"/><path class="cls-12" d="M35.85,39c.08-.06.17,0,.26,0a.41.41,0,0,0,.43-.34c.15-.63.3-1.26.43-1.89.08-.36.2-.45.56-.44a4.69,4.69,0,0,0,3.39-1.2,4.58,4.58,0,0,0,1.31-1.91,3.78,3.78,0,0,0,.22-.94l0,.22a4.55,4.55,0,0,1-3.76,4.33,4.16,4.16,0,0,1-.93.06c-.11,0-.15,0-.18.14l-.48,1.87c-.09.33-.22.41-.54.32Z"/><path class="cls-2" d="M41.25,22.14a1.46,1.46,0,0,1,1-2,1.16,1.16,0,0,1,.64,0,1.26,1.26,0,0,1,.68,1.36,1.22,1.22,0,0,1-.9,1.07,1.25,1.25,0,0,1-1.38-.37Z"/><path class="cls-6" d="M55,20.31l-.06,1.14c0,.27,0,.53.29.55,0,0,0,0,0,0a23.48,23.48,0,0,1-2.37,2.2c-.1.07-.22.2-.33.14s-.06-.25-.05-.37a8.35,8.35,0,0,1,.32-1.4,4.23,4.23,0,0,0,.13-.51c0-.09.13-.08.17-.14a.46.46,0,0,0,.08-.25c0-.07,0-.14.07-.18a2.38,2.38,0,0,1,.37-.06,1.8,1.8,0,0,0,1.22-1C54.87,20.41,54.88,20.32,55,20.31Z"/><path class="cls-8" d="M47.84,52.5a.51.51,0,0,1,.42-.35,14.52,14.52,0,0,0,1.79-.61,1,1,0,0,0,.53-.49c.09-.17.18-.33.28-.49a.17.17,0,0,1,.29-.07c.08,0,.11.08.15.13s.27.41.42.6.17.16.31,0,.07-.16.17-.05a8.51,8.51,0,0,1,.17,1.11.41.41,0,0,1,0,.24l0,0a.62.62,0,0,1-.19,0h-4C48,52.56,47.91,52.58,47.84,52.5Z"/><path class="cls-8" d="M13.7,51.12c.28.4.3.4.57,0l.35-.51a.36.36,0,0,1,.21-.17.41.41,0,0,1,.25.28,1.73,1.73,0,0,0,1.25,1c.43.13.85.28,1.28.4.19.05.36.12.38.35a.27.27,0,0,1-.21.05h-4c-.07,0-.14,0-.19,0l0,0a.21.21,0,0,1,0-.19c0-.38.19-.75.2-1.14C13.67,51.15,13.69,51.14,13.7,51.12Z"/><path class="cls-29" d="M12.91,41.55l.84,0c.06,0,.13,0,.18,0,.42,0,.83-.09,1.25-.11v.26a4,4,0,0,1-1.18.3l-.18,0c-.37.07-.39.07-.37.45,0,.71,0,1.43.05,2.14s0,1.18,0,1.76,0,1.35,0,2,0,1.21,0,1.81c0,.29,0,.57,0,.85-.13,0-.18-.13-.23-.23l-.18-3.26-.12-2.24C13,44,13,42.78,12.91,41.55Z"/><path class="cls-10" d="M52.55,48.68h-.23c-.3,0-.3,0-.26-.31.1-.82.22-1.64.33-2.47s.2-1.69.31-2.53c0-.23.06-.47.1-.7s0-.12-.13-.1a5.4,5.4,0,0,1-1.26.13,3.07,3.07,0,0,1-.67-.08v-.37a.09.09,0,0,1,.08,0,9.37,9.37,0,0,0,2.36-.3,1,1,0,0,1,0,.49l-.3,3.34c-.08.9-.15,1.81-.25,2.71a.65.65,0,0,1,0,.2S52.57,48.69,52.55,48.68Z"/><path class="cls-9" d="M49.65,26.39l-1,.37a8.35,8.35,0,0,0-2,1.19,7.51,7.51,0,0,0-1.81,2.34,2,2,0,0,0-.19.36c-.22.5-.05.7.32,1,.09.07.23.09.29.22-.43-.18-.85-.4-1.26-.62a.54.54,0,0,1-.15-.69,7.18,7.18,0,0,1,1-1.44A7.83,7.83,0,0,1,47.68,27a8.62,8.62,0,0,1,1.78-.58Z"/><path class="cls-9" d="M50.63,37.93a4.72,4.72,0,0,1,0,.84c0,.27,0,.28.28.28a4.78,4.78,0,0,0,2.39-.64c.08-.06.08-.19.19-.23s0,.13.08,0,.35-.25.51-.39a.08.08,0,0,1,.09,0,3.12,3.12,0,0,1-.77.81,3.6,3.6,0,0,1-1.8.75,6.36,6.36,0,0,1-1.51,0,3,3,0,0,0-.95,0,1.92,1.92,0,0,0-1.33,1.07c-.27.53-.46,1.1-.68,1.66l-.54,1.39s0,0-.06.07c.11-.36.21-.73.31-1.09.2-.68.41-1.35.6-2a2.2,2.2,0,0,1,1.9-1.54,5,5,0,0,1,1,.1c.23,0,.23,0,.24-.21Z"/><path class="cls-30" d="M25.85,39.39c.66.07,1.3.22,1.95.32l2.37.4a.19.19,0,0,1,0,.14c0,.59,0,1.19,0,1.79,0,.08-.08.08-.15.07L29.51,42a.17.17,0,0,1-.14-.14,1.91,1.91,0,0,0-1-1.3,12.94,12.94,0,0,0-1.68-.91,1.85,1.85,0,0,0-.57-.15.42.42,0,0,1-.25-.06S25.83,39.4,25.85,39.39Z"/><path class="cls-16" d="M54.61,15.57a.05.05,0,0,1-.08,0,1.85,1.85,0,0,0-1.74-.3,2,2,0,0,0-1.21.78,3.38,3.38,0,0,0-.47,1.2l0,.22c0,.33,0,.33.3.38.06.09,0,.21.07.3a.2.2,0,0,1,0,.19,7.41,7.41,0,0,0,.08,1.15c0,.25,0,.25-.22.27,0,0-.06,0-.08-.07a.29.29,0,0,0-.31-.05c-.3.07-.59.19-.9.24a1.06,1.06,0,0,1,.19-.65l.26-.37a1.31,1.31,0,0,0,.27-.94,2.47,2.47,0,0,1,1.79-2.72,2.18,2.18,0,0,1,1.38-.09A1.46,1.46,0,0,1,54.61,15.57Z"/><path class="cls-6" d="M25.85,39.39v0s.12,0,.14.12a9.22,9.22,0,0,1,.74.79,1.25,1.25,0,0,1,.22.37c.16.38,0,.65-.43.67H26.3A3,3,0,0,0,25.79,40a2.28,2.28,0,0,0-1.56-1c-.16,0-.2-.08-.17-.25.07-.36.11-.74.17-1.11.07,0,.08.05.1.09a1.92,1.92,0,0,0,1.52,1.08l.1,0Z"/><path class="cls-31" d="M30.17,42.1v-2a1.59,1.59,0,0,1,.75,0c.14,0,.32,0,.41.16a.65.65,0,0,0,0,.31,10.55,10.55,0,0,1,.05,1.49.24.24,0,0,1-.05.16.25.25,0,0,1-.24.11h-.7a.2.2,0,0,1-.19-.12A.1.1,0,0,1,30.17,42.1Z"/><path class="cls-7" d="M45.5,47.59c.13.06.15.2.24.3A1.43,1.43,0,0,0,48,46.2s0-.05,0-.08a1.58,1.58,0,1,1-2.5,1.64A1,1,0,0,1,45.5,47.59Z"/><path class="cls-12" d="M41.25,22.14a.35.35,0,0,1,.15.11,1.29,1.29,0,0,0,2.1-.67A1.3,1.3,0,0,0,43,20.22s-.12,0-.1-.11a1.46,1.46,0,0,1,1.18,1.36,1.47,1.47,0,0,1-2.81.67Z"/><path class="cls-9" d="M43.14,12a1.55,1.55,0,0,1-.39.71A4.44,4.44,0,0,1,41,14a1.61,1.61,0,0,0-1,1.47,6.36,6.36,0,0,0,.15,1.22,2.65,2.65,0,0,1,.08,1,1,1,0,0,0,0,.37c-.18-.5-.28-1-.41-1.52a3.82,3.82,0,0,1-.2-1.12,2,2,0,0,1,1.26-1.79,4.7,4.7,0,0,0,1.9-1.23C42.89,12.29,43,12.14,43.14,12Z"/><path class="cls-32" d="M46.37,26.58c.13-.07.27,0,.41,0a6,6,0,0,0,1.3-.41,6.17,6.17,0,0,0,1.21-.66,6.06,6.06,0,0,0,1.14-1.23,20.46,20.46,0,0,1,1.34-1.73.33.33,0,0,1,.19-.14c-.18.29-.35.54-.5.79l-.92,1.52a2.44,2.44,0,0,0-.25.63.48.48,0,0,1-.08.16,16.66,16.66,0,0,1-3,1.18,2.46,2.46,0,0,1-.46.08A.56.56,0,0,1,46.37,26.58Z"/><path class="cls-31" d="M21.74,46.34c0,.27,0,.27.29.27h1.18c.08,0,.15,0,.19-.08a.26.26,0,0,1,.16.3,5.4,5.4,0,0,1-.08.69c0,.15-.11.19-.36.18-.4,0-.8,0-1.2,0-.14,0-.14.14-.24.17s0-.2-.13-.24-.07-.09-.07-.16c0-.22.06-.45.05-.68a.11.11,0,0,1,0-.1C21.73,46.62,21.7,46.46,21.74,46.34Z"/><path class="cls-2" d="M34.76,40.71a.86.86,0,0,1,.61-.79.84.84,0,0,1,.89.17.81.81,0,0,1-.16,1.09.87.87,0,0,1-1.09,0A.73.73,0,0,1,34.76,40.71Z"/><path class="cls-6" d="M52.16,51.11c0,.08-.11.15-.16.22s-.16.11-.24,0a3.94,3.94,0,0,1-.38-.53l-.23-.32,0-1,.06,0a4.46,4.46,0,0,0,1,.12.21.21,0,0,1,.15,0,1.42,1.42,0,0,1,0,.58c0,.17,0,.33,0,.5A.52.52,0,0,1,52.16,51.11Z"/><path class="cls-9" d="M38.67,27.82a6.24,6.24,0,0,0-2,.26,3.51,3.51,0,0,0-1.82,1.2c-.16.21-.33.41-.48.64a1.05,1.05,0,0,0-.12.21c-.14.29-.13.38.11.61l.55.47a7.13,7.13,0,0,1-1-.49.28.28,0,0,1-.11-.39,4.54,4.54,0,0,1,2.29-2.22,4.67,4.67,0,0,1,2.24-.36A.75.75,0,0,1,38.67,27.82Z"/><path class="cls-15" d="M52.55,48.68h0a.86.86,0,0,1,.07.82c-.1.09-.22,0-.34.06a11.43,11.43,0,0,1-1.17,0h0c-.16,0-.22-.09-.21-.25a2.29,2.29,0,0,0,0-.37.22.22,0,0,1,.15-.25v0A8,8,0,0,0,52.55,48.68Z"/><path class="cls-12" d="M57.77,30.07c-.33.3-.64.63-1,.91-.06,0-.13.1-.22,0s-.12,0-.17.06a4,4,0,0,1-1.09.52c-.08,0-.17,0-.23,0s-.18-.18-.27-.27a.07.07,0,0,1,.06-.07,5.46,5.46,0,0,0,1.42-.78.37.37,0,0,1,.18-.08c.21,0,.35-.16.53-.25l.45-.26c.06,0,.13-.1.22-.07A.41.41,0,0,1,57.77,30.07Z"/><path class="cls-2" d="M57.46,15.61a.68.68,0,0,1,.3-.76.67.67,0,0,1,.87.12.64.64,0,0,1-1.09.67S57.53,15.53,57.46,15.61Z"/><path class="cls-32" d="M57.65,29.87l-1,.57c-.06,0-.13.1-.21,0a.45.45,0,0,1-.27-.41,1.72,1.72,0,0,0,1.22-.36c.55-.31,1.08-.64,1.62-1l.51-.33a.41.41,0,0,0,.2-.38c0-.06,0-.12,0-.16.14.4.13.47-.22.74a18.81,18.81,0,0,1-1.67,1.13A1.64,1.64,0,0,0,57.65,29.87Z"/><path class="cls-33" d="M30.17,42.1v.14l-.76,0c-.24,0-.3-.1-.31-.34a1.31,1.31,0,0,0-.53-.92,7.91,7.91,0,0,0-1.89-1.24,1.37,1.37,0,0,0-.69-.15c-.06,0-.14,0-.14-.12a2.35,2.35,0,0,1,1,.25,12.33,12.33,0,0,1,1.92,1.12,1.56,1.56,0,0,1,.6.94.26.26,0,0,0,.24.24A2.08,2.08,0,0,1,30.17,42.1Z"/><path class="cls-29" d="M31.3,42.25V40.6c.07.23.06.47.11.71s0,.26,0,.39,0,.21.1.24a.47.47,0,0,0,.38,0l.29-.26,1.34-1.29.63-.6s.05-.06.08,0c-.61.74-1.24,1.46-1.9,2.15A1.12,1.12,0,0,1,31.3,42.25Z"/><path class="cls-34" d="M38.36,52.52h8.32s0,.06,0,.07,0,.07-.06.08c-1.2,0-2.39,0-3.59,0H39.82c-.59,0-1.19,0-1.78,0a.27.27,0,0,1-.15,0c-.07-.11,0-.13.09-.14A1,1,0,0,1,38.36,52.52Z"/><path class="cls-9" d="M35.47,38l.39-1.59c0-.06,0-.12,0-.18s.09-.32.15-.48A1.18,1.18,0,0,1,37.32,35a3.29,3.29,0,0,0,1.76-.2,1.25,1.25,0,0,1-.76.37,3.55,3.55,0,0,1-1,0c-.61-.06-1,.23-1.2.93l-.6,1.73S35.52,38,35.47,38Z"/><path class="cls-34" d="M59.61,7.71a2.08,2.08,0,0,1,2.15,1.37.94.94,0,0,1,0,.16c-.1,0-.15-.05-.21-.1A13,13,0,0,0,60.07,8C59.91,7.92,59.76,7.81,59.61,7.71Z"/><path class="cls-29" d="M23.45,31.54a.64.64,0,0,1-.35.23,3.2,3.2,0,0,1-1.73-.3.74.74,0,0,1-.39-.35,2.93,2.93,0,0,0,1.26-.53c0,.12-.07.19-.13.28-.2.28-.14.45.19.55a2.22,2.22,0,0,0,1,.08C23.33,31.49,23.4,31.48,23.45,31.54Z"/><path class="cls-13" d="M34.76,40.71a1,1,0,0,0,.5.55.77.77,0,0,0,.85-.16.75.75,0,0,0,.2-.85.43.43,0,0,1-.05-.16.91.91,0,1,1-1.5.62Z"/><path class="cls-35" d="M53.33,30.31a6.43,6.43,0,0,0-2.48-.62v-.18c.17-.16.38-.08.56-.07a5.14,5.14,0,0,1,1.63.45c.11.05.21.12.32.18s0,.13,0,.2Z"/><path class="cls-36" d="M26,38.87A1.87,1.87,0,0,1,24.42,38a3.72,3.72,0,0,1-.19-.34l0-.33.34.46a1.86,1.86,0,0,0,1.23.7c.08,0,.16,0,.17.12Z"/><path class="cls-37" d="M18,52.73H13l0-.11a1.77,1.77,0,0,1,.65,0h4.13c.07,0,.14,0,.18,0A.08.08,0,0,1,18,52.73Z"/><path class="cls-34" d="M18,52.62h-5c0-.1,0-.07.08-.07s.28,0,.41,0H18S18,52.58,18,52.62Z"/><path class="cls-34" d="M47.84,52.5h4.48a1.19,1.19,0,0,1,.42,0c.1,0,.16.06,0,.15s-.46,0-.69,0H48a.41.41,0,0,1-.19,0l0,0Z"/><path class="cls-18" d="M60.62,11.73a1.61,1.61,0,0,1-1.25.29.81.81,0,0,0-.89.43,7.69,7.69,0,0,1-.4.88l0,.06a4.28,4.28,0,0,1,.29-1,.91.91,0,0,1,1.09-.52,2.23,2.23,0,0,0,1.12-.1A.15.15,0,0,1,60.62,11.73Z"/><path class="cls-13" d="M57.46,15.61v-.14c.13.17.23.32.43.37a.58.58,0,0,0,.58-.15.53.53,0,0,0,.17-.55.2.2,0,0,1,0-.17.67.67,0,0,1,.1.82.69.69,0,0,1-1.27-.18Z"/><path class="cls-38" d="M21.68,47.85c0-.21.13-.23.3-.23s.63,0,.94,0a.42.42,0,0,1,.22,0c0,.05,0,.09,0,.12a3.63,3.63,0,0,1-1.43.11Z"/><path class="cls-3" d="M46.68,52.62l0,0a8.42,8.42,0,0,1,.87,0c.08,0,.18-.1.22,0s0,.06,0,.08h-1S46.68,52.71,46.68,52.62Z"/><path class="cls-25" d="M54.61,5.76l.08.07a.35.35,0,0,1-.23-.07Z"/><path class="cls-25" d="M66.08,16.36c.09,0,.07.11.07.18A.31.31,0,0,1,66.08,16.36Z"/><path class="cls-6" d="M8.59,26.1h0c0,.09,0,.16,0,.23-.21.52-.41,1.05-.63,1.56a.37.37,0,0,0,0,.37c.27.42.52.85.8,1.27s.59.95.93,1.39a3.89,3.89,0,0,1,.32.39,1,1,0,0,0,1,.17c.24-.05.47-.12.71-.18a.33.33,0,0,1,.33.05,3.76,3.76,0,0,1-.64.62c-.1.09-.09.15,0,.24A4.21,4.21,0,0,0,12.5,33a4.67,4.67,0,0,1,.6.38c.07.07.2.15,0,.27a.33.33,0,0,1-.24,0,4.8,4.8,0,0,1-1.1-.39,4.89,4.89,0,0,0,.75.3c.06,0,.15,0,.19.1s-.06.06-.1.08l-.37.12a1.59,1.59,0,0,1-1,0,2.89,2.89,0,0,1-.78-.31,6,6,0,0,1-.93-.66c-.26-.23-.54-.45-.78-.7A.62.62,0,0,1,8.63,32c-.44-.46-.87-.92-1.27-1.4a22.06,22.06,0,0,1-1.49-1.86,1.14,1.14,0,0,1-.12-1.18c.27-.59.49-1.2.73-1.8.09,0,.17,0,.25.05A3.13,3.13,0,0,0,8.59,26.1Z"/><path class="cls-9" d="M18.66,25.79a2.89,2.89,0,0,1,1.24.07,2.7,2.7,0,0,1,1.07.6,5.8,5.8,0,0,0,3,1.47,5.93,5.93,0,0,0,3.68-.53s.05,0,.08,0a4.61,4.61,0,0,1-1.91.93,5,5,0,0,1-1.64.11A5.86,5.86,0,0,1,22,27.85,10.06,10.06,0,0,1,20.55,27a2.53,2.53,0,0,0-1.29-.45,2.85,2.85,0,0,0-2.05.68c-.65.5-1.32,1-2,1.47l-1,.73a.61.61,0,0,1-.22.13l1.2-1.15.55-.51a.69.69,0,0,0,.16-.22c.32-.26.58-.57.89-.83A4.12,4.12,0,0,1,18,26,1.09,1.09,0,0,1,18.66,25.79Z"/><path class="cls-39" d="M9.56,32.89l.9.64c.13.18.34.3.43.52a3.19,3.19,0,0,0,.4.42l.6.65c0,.06.11.1.12.18l-.11.49c-.13,0-.16-.11-.22-.18a23.64,23.64,0,0,0-1.58-1.87c-.27-.27-.62-.41-.92-.71-.07.35-.09.65-.13.95s-.05.46-.08.69a.23.23,0,0,1-.08.16,2.8,2.8,0,0,1-.41.13c-.05,0-.14,0-.13-.07l.31-2.37s.07,0,.11,0C9,32.64,9.31,32.73,9.56,32.89Z"/><path class="cls-6" d="M23.45,31.54a2.71,2.71,0,0,1-1.17-.07c-.36-.11-.44-.3-.23-.6a2.75,2.75,0,0,1,.19-.28,2.35,2.35,0,0,1,1.31-.54c.53,0,.57.21.44.66l0,.11A1.61,1.61,0,0,1,23.45,31.54Z"/><path class="cls-12" d="M10.89,34.05c-.15-.17-.36-.29-.43-.52a4.35,4.35,0,0,0,1,.36,3.21,3.21,0,0,0,.76,0,.75.75,0,0,1-.53.18C11.46,34.06,11.17,34.05,10.89,34.05Z"/><path class="cls-40" d="M12.88,33.61h.26c0,.12-.12.14-.22.14h-.28l.09-.06C12.76,33.62,12.83,33.64,12.88,33.61Z"/><path class="cls-2" d="M8.35,34.89c0,.07.06,0,.11,0l.43-.12a.49.49,0,0,1,.24-.08A2,2,0,0,1,11,35.88.32.32,0,0,1,11,36a1.86,1.86,0,0,1-3.7.38c0-.1,0-.2,0-.3a1.86,1.86,0,0,1,.86-1A.34.34,0,0,0,8.35,34.89Z"/><path class="cls-7" d="M7.35,36.05c.08.11,0,.24.06.36a1.82,1.82,0,0,0,3.57,0A1.86,1.86,0,0,0,11,36c.11,0,.11.11.14.18a2,2,0,0,1-3,2.36.55.55,0,0,1-.26-.24,2,2,0,0,1-.6-2.13Z"/><path class="cls-10" d="M7.91,38.27A2,2,0,0,0,11,37.63c.11,0,.06.12,0,.18a1.61,1.61,0,0,1-.4.63A2.13,2.13,0,0,1,8.86,39c-.34,0-.34,0-.38.31s-.11.92-.17,1.39a.48.48,0,0,0,.32.57,3.22,3.22,0,0,0,.44.14c.07,0,.17,0,.11.14A5,5,0,0,1,8,41.42.13.13,0,0,1,8,41.36c-.52-.12-.42,0-.37-.52C7.69,40,7.81,39.12,7.91,38.27Z"/><path class="cls-29" d="M8,41.36a10.32,10.32,0,0,0,1.23.15l.06,0a.6.6,0,0,1,.19,0,2.91,2.91,0,0,0,.51,0,.33.33,0,0,1,.29.09l-.08.34c-.27,0-.54.06-.82,0a5.89,5.89,0,0,1-1.18-.17c-.09,0-.22,0-.22-.18Z"/><path class="cls-29" d="M8.59,26.1a1.8,1.8,0,0,1-1.1,0,4.48,4.48,0,0,1-1-.35l.13-.38A5.4,5.4,0,0,0,8,26Z"/><path class="cls-41" d="M9.56,32.89c-.32-.08-.59-.26-.9-.37-.15-.16-.05-.33,0-.49Z"/><path class="cls-35" d="M10.05,31.31a2.67,2.67,0,0,1-.58-.67,11,11,0,0,1-.69-1.08,1.82,1.82,0,0,1,0-.52c.05-.66.11-1.31.11-2,0-.18,0-.37,0-.56a.32.32,0,0,1,.05-.23c0-.08,0-.17.13-.15s.12-.06.14-.13c.18-.54.35-1.09.53-1.64.1-.31.19-.63.3-.94A2.74,2.74,0,0,0,10,21.89a.29.29,0,0,1,0-.09,0,0,0,0,1,0,0,2.5,2.5,0,0,1,.38,1.88c.21,0,.28-.31.53-.34a1.56,1.56,0,0,1-.32.55,4.31,4.31,0,0,0-.76,1.87,11.85,11.85,0,0,0-.17,3,7.78,7.78,0,0,0,.25,2.14C10,31,10,31.17,10.05,31.31Z"/><path class="cls-3" d="M8.88,26.28a12.83,12.83,0,0,1,0,2c0,.44-.07.88-.11,1.32-.27-.35-.46-.76-.73-1.11A.68.68,0,0,1,8,27.7c.24-.52.43-1.06.64-1.6C8.77,26.09,8.87,26.13,8.88,26.28Z"/><path class="cls-35" d="M16.07,25.9a5.08,5.08,0,0,1,0-.78c0-.07,0-.14,0-.22,0-.78,0-1.55,0-2.33,0-.63-.05-1.26-.14-1.88a.69.69,0,0,1,0-.2A8.41,8.41,0,0,1,16.29,22a15.47,15.47,0,0,1,.16,1.67c0,.37.07.74.11,1.11s.32.61.79.48c.13,0,.26-.08.39-.12,0,.12-.14.17-.23.22a4.9,4.9,0,0,1-1.16.54C16.26,25.9,16.17,26,16.07,25.9Z"/><path class="cls-6" d="M18.66,25.79a2.89,2.89,0,0,0-1.18.54c-.21.17-.41.37-.62.56h0a2.26,2.26,0,0,1-.36-.75c0-.07.1-.08.17-.11a2.57,2.57,0,0,0,1.14-.81,3.7,3.7,0,0,0,.33-.36l0-.05C18.35,25.11,18.49,25.46,18.66,25.79Z"/><path class="cls-3" d="M16.48,26.13a4.49,4.49,0,0,0,.38.76l-.8.75s-.06.08-.11,0L16,26a.13.13,0,0,1,0-.1l.26-.06A.4.4,0,0,1,16.48,26.13Z"/><path class="cls-29" d="M16.48,26.13a1.14,1.14,0,0,1-.15-.29,4.7,4.7,0,0,0,1.41-.72l.36-.27a2.15,2.15,0,0,1-.48.6A2.66,2.66,0,0,1,16.48,26.13Z"/><path class="cls-27" d="M10.24,41.61c-.27-.06-.55,0-.83-.08a.37.37,0,0,0-.18,0h0c-.06-.09-.17,0-.26-.08a3.25,3.25,0,0,1-.4-.15.48.48,0,0,1-.28-.49c.06-.47.11-.94.18-1.42a2.07,2.07,0,0,1,0-.35c0-.11.08-.13.18-.11a2,2,0,0,0,1.24-.08,1.71,1.71,0,0,0,1.07-1s.08-.11,0-.17A1.9,1.9,0,0,0,11,36,1.92,1.92,0,0,0,9.5,34.81a1.57,1.57,0,0,0-.61,0A5,5,0,0,0,9,34c.05-.31.08-.64.11-1,0-.09.05-.08.11,0A7.25,7.25,0,0,1,11,34.74c.27.36.57.7.86,1-.15.7-.3,1.41-.46,2.12-.25,1.13-.5,2.27-.8,3.39C10.55,41.6,10.55,41.6,10.24,41.61Z"/><path class="cls-20" d="M13.4,50.74c.11,0,.15.15.23.23l.07.15a4.15,4.15,0,0,1-.17,1.11c0,.09,0,.18,0,.27l-.37,0c-.11,0-.13-.05-.11-.14a1.84,1.84,0,0,1,.05-.25,3.82,3.82,0,0,0,.21-1.1C13.3,50.92,13.29,50.81,13.4,50.74Z"/><path class="cls-3" d="M52.81,52.62c0-.08,0-.07-.08-.07s-.28,0-.41,0v0a.56.56,0,0,1,.31,0c.11,0,.15-.05.13-.15v0A5.66,5.66,0,0,1,52.5,51a.16.16,0,0,0-.18-.16l0-1.13a.1.1,0,0,1,0-.15c.29,0,.29,0,.28-.36s.07-.36-.09-.51c0-.37.05-.74.08-1.1.09-.92.17-1.83.25-2.75s.15-1.62.22-2.43a2.59,2.59,0,0,1,0-.48,12.14,12.14,0,0,0,1.19-.45,8.3,8.3,0,0,0,1.09-.62s.1-.09.16-.09l.15.49c.09.06.09.15.11.23q1,3.47,2,6.93c0,.09.08.18,0,.27s0,.3,0,.45c0,.38,0,.38.38.41a.11.11,0,0,1,0,.16l0,.26a.13.13,0,0,0-.13.09l-1.44,2.64s0,0,0,0H52.84S52.78,52.67,52.81,52.62Z"/><path class="cls-3" d="M38.36,52.52c-.11.06-.23,0-.34,0s-.13,0-.14.07,0,.08,0,.08a.41.41,0,0,1-.22,0H30.09c-.06,0-.13,0-.18,0s.1-.08.17-.1a4.4,4.4,0,0,0,1.34-.82A10.12,10.12,0,0,0,33,50.11a.75.75,0,0,1,.16-.15c.36-.22.69-.48,1-.71l2.54-1.67a2.46,2.46,0,0,1,.27-.17.16.16,0,0,1,.1,0c.06,0,.08,0,.1.1l1.12,3.16a.2.2,0,0,1,0,.11.73.73,0,0,0-.13.4,3,3,0,0,1-.19,1l0,.14c0,.13,0,.19.16.19a.42.42,0,0,1,.27,0Z"/><path class="cls-3" d="M23.11,47.78l0-.12c.27,0,.27,0,.3-.29s0-.28.07-.42a.46.46,0,0,0-.11-.42l.38-2.1c.06,0,.09.06.12.11a15.54,15.54,0,0,0,1.51,1.84.69.69,0,0,1,.15.66,8.2,8.2,0,0,1-.42,1c-.09.25-.2.49-.3.73,0,.07,0,.13,0,.18a.47.47,0,0,1-.13.36,2.62,2.62,0,0,0,.34,2.56,2,2,0,0,1,.28.23,2.2,2.2,0,0,0,.92.54c.07,0,.15,0,.19.1s-.1,0-.16,0h-3.9a2,2,0,0,0,.19-.87c.13-1,.25-1.94.37-2.91C23,48.56,23.06,48.17,23.11,47.78Z"/><path class="cls-10" d="M26.48,52.7a2.43,2.43,0,0,1-1.39-.87,3.89,3.89,0,0,0,.74.28,4.26,4.26,0,0,0,.5.06c.71,0,1.42,0,2.12,0a4.66,4.66,0,0,0,1.95-.39,2.47,2.47,0,0,0,.73-.6c.27-.31.55-.61.81-.93l1-1.32c.05-.07.09-.16.19-.17l.27.42a.28.28,0,0,1,0,.4,2.31,2.31,0,0,1-.34.42,17.94,17.94,0,0,1-1.29,1.46,4.68,4.68,0,0,1-1.93,1.25c-.11,0-.22,0-.34,0H27.1A2.58,2.58,0,0,1,26.48,52.7Z"/><path class="cls-1" d="M37.84,52.7a.09.09,0,0,0,0-.08h8.8l.11.08a1.47,1.47,0,0,1-.47,0c-2.6,0-5.19,0-7.79,0A2.66,2.66,0,0,1,37.84,52.7Z"/><path class="cls-1" d="M52.81,52.62l0,.08H47.77l0-.08Z"/><path class="cls-36" d="M13.92,18.2v.49a1.7,1.7,0,0,1-1.43,0,6.91,6.91,0,0,1-.78-.36v-.52a6.17,6.17,0,0,0,1.37.47A1.43,1.43,0,0,0,13.92,18.2Z"/><path class="cls-36" d="M14.86,12.79l.18.26a3,3,0,0,1-.72.34,2.22,2.22,0,0,1-2-.4.5.5,0,0,1-.19-.29,2.58,2.58,0,0,0,1.44.47,1.78,1.78,0,0,0,1.1-.32C14.75,12.82,14.79,12.76,14.86,12.79Z"/><path class="cls-42" d="M13.66,15.83a6.88,6.88,0,0,1,.08-.72c0-.06,0-.14.09-.15s.09,0,.12.09a4.56,4.56,0,0,1,.49,1.05.11.11,0,0,1,0,.08c0,.19-.23.2-.38.21s-.31.12-.38-.13A2.72,2.72,0,0,1,13.66,15.83Z"/><path class="cls-43" d="M12.16,14.55a.16.16,0,0,1-.19-.12.18.18,0,0,1,.08-.19,1,1,0,0,1,.57-.22,1.11,1.11,0,0,0,.67-.09.12.12,0,0,1,.18.05.18.18,0,0,1-.05.22,1,1,0,0,1-.28.12.51.51,0,0,1-.36.06.71.71,0,0,0-.51.14S12.19,14.53,12.16,14.55Z"/><path class="cls-44" d="M10.75,15.41c-.21-.28-.44-.26-.59.05a.09.09,0,0,1-.1.06c-.05,0,0-.06,0-.09,0-.23.29-.42.55-.35a.75.75,0,0,1,.29,1.16s-.07.08-.13,0,0-.1,0-.13a.58.58,0,0,0,.14-.4.16.16,0,0,0-.13-.18.17.17,0,0,0-.19.12c0,.05,0,.17-.12.11s0-.14,0-.21A.35.35,0,0,1,10.75,15.41Z"/><path class="cls-45" d="M12.23,14.51a.47.47,0,0,1,.41-.18h.5a.88.88,0,0,1,.11.42.42.42,0,0,1-.36,0,.65.65,0,0,0-.34,0C12.28,14.84,12.2,14.77,12.23,14.51Z"/><path class="cls-46" d="M15.27,14.55l.09.07c-.08.11,0,.27-.14.37a.18.18,0,0,1-.14,0c-.33-.2-.33-.2-.52.18-.05,0,0-.11-.05-.17s0-.06,0-.08-.21-.19-.13-.43c.12-.09.24,0,.36,0A5.44,5.44,0,0,1,15.27,14.55Z"/><path class="cls-47" d="M12.23,14.51c0,.2.1.27.3.22a.69.69,0,0,1,.32,0,1.82,1.82,0,0,0,.4,0,.76.76,0,0,1-.05.33c0,.08-.1.15-.22.12a.24.24,0,0,1-.05-.14c0-.1-.11-.19-.23-.17a.21.21,0,0,0-.18.25.28.28,0,0,1,0,.13.5.5,0,0,1-.31-.54c0-.06,0-.12,0-.17Z"/><path class="cls-48" d="M15.27,14.55c-.14.07-.3,0-.44,0a2.63,2.63,0,0,1-.49-.06.28.28,0,0,1,0-.15c.08,0,.13,0,.19-.07A.48.48,0,0,1,15.27,14.55Z"/><path class="cls-49" d="M14.56,15.19c0-.16,0-.3.18-.35a.27.27,0,0,1,.34.17.26.26,0,0,1-.16.32A.27.27,0,0,1,14.56,15.19Z"/><path class="cls-50" d="M12.51,15.26a.27.27,0,0,1,.06-.38.24.24,0,0,1,.31,0,.32.32,0,0,1,.1.32C12.83,15.38,12.72,15.4,12.51,15.26Z"/><path class="cls-51" d="M12.73,16.92a1.62,1.62,0,0,1,.91.27s.12.08.08.15-.11,0-.16,0a1.52,1.52,0,0,0-1-.26c-.07,0-.18,0-.19-.05s.12-.09.2-.1A.56.56,0,0,1,12.73,16.92Z"/><path class="cls-27" d="M57.92,48.67Q56.87,45,55.8,41.4a1.24,1.24,0,0,0,0-.16,5,5,0,0,0,1.78-1.34c.09-.11.16-.22.24-.33s0-.06.07,0a.07.07,0,0,1,0,.06l.3,2L58.42,43c.1.62.19,1.24.29,1.86s.21,1.3.31,2,.17,1.08.26,1.62c0,.08,0,.23.14.23,0,0-.06,0-.1,0H58.06A.25.25,0,0,1,57.92,48.67Z"/><path class="cls-20" d="M58.44,50.82l.15.27a3.35,3.35,0,0,1-.12.89c0,.18,0,.35,0,.52h-.28c-.25,0-.26,0-.19-.25a6.1,6.1,0,0,0,.24-1.33C58.23,50.75,58.29,50.73,58.44,50.82Z"/><path class="cls-52" d="M58.3,49.69l0-.16a3.57,3.57,0,0,1,.73,0h.43v0A4.26,4.26,0,0,1,58.3,49.69Z"/><path class="cls-10" d="M50.89,32.1a4.89,4.89,0,0,0,1.76.7,4.63,4.63,0,0,0,2-.09c.22-.08.43-.18.65-.25.06,0,.12-.05.18,0a3.1,3.1,0,0,1,.23.71,2.54,2.54,0,0,1-.85.18,5.43,5.43,0,0,1-.9.05,4.51,4.51,0,0,1-3-1.14S50.85,32.18,50.89,32.1Z"/><path class="cls-3" d="M54.2,37.82l-.56.42c-.07,0-.12.06-.13-.05a.42.42,0,0,1,0-.31c.05-.54.09-1.08.16-1.61a1.86,1.86,0,0,1,.07-.52l.11-1h0l.77,2.63A2.61,2.61,0,0,1,54.2,37.82Z"/><path class="cls-53" d="M54.8,31.39c.15,0,.14.2.26.26a3.61,3.61,0,0,1,.27.56c0,.08-.08.16-.19.15a4.07,4.07,0,0,0-.53-.93C54.66,31.36,54.72,31.33,54.8,31.39Z"/><path class="cls-54" d="M55.14,32.36l.19-.15a.41.41,0,0,1,.11.23,3,3,0,0,1-.83.27A3.24,3.24,0,0,0,55.14,32.36Z"/><path class="cls-3" d="M53.11,22c0,.07-.13.06-.19.1a4.7,4.7,0,0,0-1.73.64c-.67.46-1.37.88-2,1.36-.06.08-.12.16-.23.15a2.25,2.25,0,0,1,.18-.71c.17-.6.36-1.19.54-1.79,0-.06.08-.13,0-.17A1.27,1.27,0,0,1,50,21a.17.17,0,0,1,.24,0,.16.16,0,0,1,0,.09c0,.24,0,.24.22.32a11.3,11.3,0,0,0,2.45.55A.3.3,0,0,1,53.11,22Z"/><path class="cls-3" d="M56.79,28.76c-.3-.33-.65-.6-1-.9-.06-.1,0-.19,0-.29.07-.28.18-.55.28-.83s.27-.79.4-1.19c0-.06,0-.13.1-.17.41.74.83,1.48,1.28,2.19l0,0c.05,0,.07.06.05.1s-.12.16-.19.22C57.44,28.2,57.14,28.5,56.79,28.76Z"/><path class="cls-6" d="M54.8,31.39l-.19,0a1.25,1.25,0,0,1-1.24-1s0-.08,0-.12h0a.14.14,0,0,1,.09,0,1.2,1.2,0,0,0,1,.09l.07,0s.12-.08,0-.12a1.31,1.31,0,0,1-.33-.12.38.38,0,0,1-.22-.23c0-.07-.08-.14,0-.2s.12,0,.19,0a3.66,3.66,0,0,0,1.86,0s0,.09,0,.15a2.3,2.3,0,0,0,.2.49c0,.07.09.14.06.23A5.37,5.37,0,0,1,54.8,31.39Z"/><path class="cls-32" d="M56.61,25.38c-.21.85-.59,1.64-.8,2.48a2.77,2.77,0,0,1-.45-.31,11.86,11.86,0,0,1,.43-1.27,1.48,1.48,0,0,0,0-1.3c-.05-.1,0-.18.11-.17s.24-.1.23-.25a2.55,2.55,0,0,1,.07-.73.88.88,0,0,1,.12-.24A3.44,3.44,0,0,0,56.61,25.38Z"/><path class="cls-55" d="M50.18,20.94a.33.33,0,0,0-.31.2c-.07.15-.17.29-.25.43a4.17,4.17,0,0,1-.73-.37,3.65,3.65,0,0,1,.5.14c.11,0,.18,0,.22-.08a.6.6,0,0,1,.75-.4C50.34,21,50.26,21,50.18,20.94Z"/><path class="cls-56" d="M48.93,24.24a.91.91,0,0,1,.23-.15,2.28,2.28,0,0,1-.44.81A2,2,0,0,1,48.93,24.24Z"/><path class="cls-57" d="M56.3,30.56c-.1-.24-.28-.44-.26-.72l.14.23a1.46,1.46,0,0,0,.27.41Z"/><path class="cls-58" d="M58,27.7l-.05-.1a.76.76,0,0,1,.57-.1C58.3,27.55,58.16,27.7,58,27.7Z"/><path class="cls-59" d="M48.7,21.13a.19.19,0,0,1,.19.08A.27.27,0,0,1,48.7,21.13Z"/><path class="cls-3" d="M41.83,52a5.38,5.38,0,0,1-1.46-.56c-.12-.06-.17-.19-.24-.3l-.23-.43c-.16-.27-.22-.28-.44-.07-.12-.56-.25-1.11-.36-1.66-.18-.81-.35-1.61-.52-2.42,0-.11,0-.17.12-.16s.22.22.31.34l2.3,3,.67.87a.33.33,0,0,1,.1.23,5.07,5.07,0,0,0-.13.87C41.93,51.76,41.93,51.87,41.83,52Z"/><path class="cls-29" d="M33.13,50a2.53,2.53,0,0,1,.21-.32.42.42,0,0,0,.1-.5c.26-.43.58-.82.88-1.23.41-.59.85-1.15,1.28-1.73L36.43,45c.07.33.1.63.19.93s.26.78.4,1.17c0,.08.1.16,0,.26l-.08,0c-.11,0-.12-.09-.16-.16-.17-.33-.33-.66-.49-1a.33.33,0,0,0-.12-.17.5.5,0,0,0-.16.22l-1.75,2.78c0,.06-.1.1-.14.16A8.07,8.07,0,0,1,33.13,50Z"/><path class="cls-29" d="M42.06,50.74c-.62-.81-1.25-1.62-1.87-2.44L38.7,46.35a1.49,1.49,0,0,1,.06-.88.84.84,0,0,1,.15.32A12.51,12.51,0,0,0,40.34,48c.64.87,1.29,1.73,1.93,2.59.18.23.35.46.53.68-.13.16-.18.16-.29,0l-.11-.15C42.25,51,42.19,50.87,42.06,50.74Z"/><path class="cls-20" d="M38.37,52.5h-.28c-.25,0-.27,0-.2-.25a6.2,6.2,0,0,0,.26-1.35c0-.07,0-.19.14-.15a1,1,0,0,1,.23.32,3.22,3.22,0,0,1-.13.87A5.06,5.06,0,0,0,38.37,52.5Z"/><path class="cls-60" d="M54.46,30.4a1,1,0,0,1-1.12-.1l0-.23a.22.22,0,0,1,.15.08A1.1,1.1,0,0,0,54.46,30.4Z"/><path class="cls-61" d="M54,29.89a1.24,1.24,0,0,0,.75.36.27.27,0,0,1-.19.11c-.14-.1-.31-.11-.44-.24A.31.31,0,0,1,54,29.89Z"/><path class="cls-39" d="M24.75,49.27l.11-.36a1,1,0,0,1,.61-.2,2.78,2.78,0,0,0,1.2-.66c.06,0,.09-.12.19,0a1.89,1.89,0,0,0,1.73.37h.08a1.06,1.06,0,0,1-.71.26,1.75,1.75,0,0,1-1-.14.17.17,0,0,0-.21,0,3.13,3.13,0,0,1-1.69.82C25,49.36,24.83,49.43,24.75,49.27Z"/><path class="cls-62" d="M25.47,48.71a6.21,6.21,0,0,1-.61.2l-.14,0c.18-.48.37-.94.58-1.38a2.13,2.13,0,0,0,.23-.57.58.58,0,0,0-.14-.56,13.35,13.35,0,0,1-1.61-2c0-.37.11-.74.16-1.11a5.59,5.59,0,0,0,0-1.78s0-.1,0-.2a3.06,3.06,0,0,1,.33.83,4.6,4.6,0,0,0,.06-2.24.65.65,0,0,1-.08-.27,1.77,1.77,0,0,1,.37.88,3.91,3.91,0,0,1-.13,1.7,3.3,3.3,0,0,0-.06,1.29,1.53,1.53,0,0,0,.31.67,1.37,1.37,0,0,0,.21.71,7.12,7.12,0,0,0,.92,1.49.43.43,0,0,1,.08.43,8.26,8.26,0,0,0-.44,1.62C25.48,48.54,25.48,48.62,25.47,48.71Z"/><path class="cls-63" d="M53.71,35.75c-.06.68-.11,1.35-.17,2l0,.41c0,.1,0,.21-.18.22.05-.37.09-.74.13-1.12s.12-.89.17-1.34c0-.13,0-.26,0-.39C53.73,35.62,53.69,35.69,53.71,35.75Z"/><path class="cls-43" d="M26,34.48c.09,0,.17,0,.22.07s0,.18-.1.24l-.2.1c-.07.07-.14.1-.22,0a.61.61,0,0,0-.45.24.13.13,0,0,1-.2,0,.16.16,0,0,1,0-.21.71.71,0,0,1,.51-.31,1.28,1.28,0,0,0,.34-.07A.12.12,0,0,1,26,34.48Z"/><path class="cls-64" d="M25.74,34.92l.22,0L26,35s0,0,0,.06a1,1,0,0,0-.38.41.77.77,0,0,1-.43.28,1.68,1.68,0,0,1-.53.15A2.25,2.25,0,0,0,25.74,34.92Z"/><path class="cls-65" d="M26,34.48l-.12.11c-.06,0-.07,0-.06-.08a3.31,3.31,0,0,0,.06-.94,1.63,1.63,0,0,1,.1.79A.25.25,0,0,0,26,34.48Z"/><path class="cls-16" d="M50.18,20.94l.18-.08a5.14,5.14,0,0,0,1.12-.57l.2-.11c.09,0,.1.09.11.16a2,2,0,0,0,.68.73.88.88,0,0,0,.6.05c.08,0,.17-.05.21.05a.36.36,0,0,1,0,.37c-.06.15,0,.33-.14.45a16.44,16.44,0,0,1-1.86-.33c-.33-.09-.66-.19-1-.3-.13-.05-.17-.1-.12-.23A.58.58,0,0,0,50.18,20.94Z"/><path class="cls-29" d="M53.25,21.54a1.92,1.92,0,0,1,0-.24c0-.15,0-.2-.18-.18a4.2,4.2,0,0,0,.92-.26,2,2,0,0,0,1-.95.33.33,0,0,1,.06-.1,4.21,4.21,0,0,1,0,.5,3.7,3.7,0,0,1-.38.59A1.69,1.69,0,0,1,53.25,21.54Z"/><path class="cls-43" d="M53.74,17.44a1.46,1.46,0,0,1,.58.22.48.48,0,0,1,.21.35.06.06,0,0,1,0,.08c0,.12-.15.13-.26.09s-.07-.06-.09-.1a1.28,1.28,0,0,0-.51-.28c-.07,0-.15,0-.2-.09a1,1,0,0,1-.17-.12c-.06-.06-.11-.12,0-.22s.13-.05.2,0h.05a.25.25,0,0,1,.12,0S53.72,17.41,53.74,17.44Z"/><path class="cls-42" d="M52.88,19.07c0,.08.06.22-.07.28a.59.59,0,0,1-.47,0c-.07,0-.07-.09-.05-.16a3.17,3.17,0,0,1,.38-.7c.06-.09.12-.09.14,0A2.17,2.17,0,0,1,52.88,19.07Z"/><path class="cls-43" d="M51.41,18.11c-.11-.07,0-.17,0-.25a.9.9,0,0,1,.84-.5c.06,0,.09,0,.13,0s.11.17,0,.27-.18,0-.28,0a.49.49,0,0,0-.31.16c-.09.05-.1.16-.17.24A.15.15,0,0,1,51.41,18.11Z"/><path class="cls-66" d="M53.48,17.71c.27,0,.46.18.7.24a.13.13,0,0,1,0,.14.19.19,0,0,1-.21.07,2,2,0,0,0-.6,0,.15.15,0,0,1-.2-.15c-.19,0-.41,0-.57-.15a1.9,1.9,0,0,0,.63,0C53.39,17.85,53.46,17.81,53.48,17.71Z"/><path class="cls-47" d="M53.22,18c0,.08.09.14.2.1a1.82,1.82,0,0,1,.57,0,.65.65,0,0,0,.24,0l.05.09a.37.37,0,0,1-.28.39s0-.09,0-.14-.1-.19-.22-.18a.21.21,0,0,0-.2.21s0,.08,0,.11c-.22,0-.27-.18-.29-.35A1.47,1.47,0,0,1,53.22,18Z"/><path class="cls-44" d="M55.53,18.34c.06.09.18.13.17.24s0,.1,0,.12-.07,0-.09-.06-.06-.13-.14-.09,0,.12,0,.18a.51.51,0,0,0,.07.15s.06.1,0,.13-.09,0-.13-.05a.53.53,0,0,1,0-.57.38.38,0,0,1,.42-.23.24.24,0,0,1,.23.21s0,.09,0,.11-.08,0-.1-.06S55.66,18.29,55.53,18.34Z"/><path class="cls-67" d="M52.1,17.68c.1,0,.2.05.29,0l0,.19c0,.25,0,.3-.24.24s-.12,0-.18.08a.18.18,0,0,1-.16,0c-.06,0-.09-.08-.18,0s0,0,0-.08,0-.19.15-.21A1.2,1.2,0,0,0,52.1,17.68Z"/><path class="cls-68" d="M53.51,18.57a.26.26,0,0,1,.09-.33.24.24,0,0,1,.28,0c.14.08.14.2.12.34C53.82,18.78,53.68,18.78,53.51,18.57Z"/><path class="cls-69" d="M51.83,18.15H52c.19.07.25.19.15.35s-.29.23-.5,0S51.62,18.2,51.83,18.15Z"/><path class="cls-70" d="M53.78,19.82c0,.08-.07.07-.12.08a.85.85,0,0,0-.66.36s-.07,0-.11,0,0-.06,0-.11a1.06,1.06,0,0,1,.81-.43A.1.1,0,0,1,53.78,19.82Z"/><path class="cls-71" d="M52.17,18.5a.29.29,0,0,0-.15-.35c0-.07,0-.17.15-.12s.26.06.26-.17a.66.66,0,0,1-.1.62C52.3,18.55,52.23,18.52,52.17,18.5Z"/><path class="cls-72" d="M52.35,17.4l-.13,0,.25-.85h0v.93c-.07-.16,0-.33-.06-.53C52.41,17.11,52.3,17.23,52.35,17.4Z"/><path class="cls-73" d="M51.83,18.15a.3.3,0,0,0-.16.38c-.12,0-.18-.11-.26-.18v-.24a.24.24,0,0,0,.23,0l0,.05C51.75,17.93,51.78,18.08,51.83,18.15Z"/><path class="cls-55" d="M51.79,20.34l-.11-.16a3.63,3.63,0,0,0,.47-.33C52.14,20.09,51.94,20.2,51.79,20.34Z"/><path class="cls-74" d="M54.54,18.09V18c.11-.08.24,0,.37,0s0,.06,0,.11Z"/><path class="cls-75" d="M51.19,19.7l.08.07a1.66,1.66,0,0,1-.49.07C50.91,19.77,51.06,19.78,51.19,19.7Z"/><path class="cls-76" d="M26.64,36.2c0-.1,0-.22,0-.35s.07-.14.15-.07a1.57,1.57,0,0,1,.5.64.15.15,0,0,1-.09.22c-.46.23-.59.15-.6-.36Z"/><path class="cls-77" d="M27.72,35.26l0,.26c-.14-.14-.08.07-.14.08a.15.15,0,0,1-.05-.07c-.09-.2-.18-.23-.37-.12,0,0-.06.05-.1,0s-.22,0-.25-.14a1.07,1.07,0,0,1,0-.44,1,1,0,0,1,.38,0C27.55,34.83,27.68,35,27.72,35.26Z"/><path class="cls-78" d="M27.72,35.26c-.12-.35-.28-.44-.65-.38a.27.27,0,0,1-.2,0c-.08-.19-.05-.24.14-.29a1.81,1.81,0,0,1,.52,0,1,1,0,0,1,.4.32c.08.08,0,.24-.14.24S27.74,35.22,27.72,35.26Z"/><path class="cls-51" d="M24.08,36.69a.35.35,0,0,1,0,.12c0,.07,0,.21-.15.17s0-.13,0-.19,0-.11,0-.17,0-.09-.07-.1-.08,0-.09.09,0,.13-.1.1-.06-.12,0-.18,0,0,0,0,.17-.08.06-.16-.16,0-.22.1,0,.19-.12.12,0-.17,0-.24a.37.37,0,0,1,.64.12A1.53,1.53,0,0,1,24.08,36.69Z"/><path class="cls-79" d="M25.62,35.41A.86.86,0,0,1,26,35a.54.54,0,0,1,.07.75c-.11-.08-.2-.21-.36-.2S25.64,35.47,25.62,35.41Z"/><path class="cls-68" d="M27.1,35.45a.28.28,0,0,1,.33-.14.27.27,0,0,1,.19.29.26.26,0,0,1-.33.21C27.14,35.79,27.08,35.66,27.1,35.45Z"/><path class="cls-68" d="M25.73,35.48a.27.27,0,1,1,.15.52.29.29,0,0,1-.3-.14C25.47,35.68,25.52,35.55,25.73,35.48Z"/><path class="cls-51" d="M26.09,37.29a1.17,1.17,0,0,1,.66.23s.11.09.06.15-.1,0-.14,0a1.16,1.16,0,0,0-.59-.2c-.07,0-.16,0-.15-.09S26,37.3,26.09,37.29Z"/><path class="cls-80" d="M25.73,35.48a.3.3,0,0,0-.15.38c-.2.12-.28,0-.37-.15l.41-.3Z"/><path class="cls-20" d="M42.06,50.74c.19.07.25.26.34.41a2.44,2.44,0,0,0-.12.61c-.1.44,0,.33-.41.22,0,0,0,0,0,0A5.07,5.07,0,0,0,42,51,.51.51,0,0,1,42.06,50.74Z"/><path class="cls-81" d="M53.63,17.41a.12.12,0,0,1-.11,0l.09-.69.09.51C53.65,17.25,53.71,17.35,53.63,17.41Z"/><path class="cls-82" d="M53.63,17.41c0-.08,0-.17.07-.22s.06.16,0,.25A.14.14,0,0,1,53.63,17.41Z"/><path class="cls-20" d="M52.32,50.82c.16-.1.19-.09.22.09s0,.25,0,.38a3.16,3.16,0,0,0,.15.73,2.81,2.81,0,0,1,.08.31c0,.15,0,.21-.18.19s-.21,0-.32,0a3.05,3.05,0,0,0-.13-1.08c0-.1,0-.21,0-.31Z"/><path class="cls-83" d="M52.39,49.54l0,.15a3.11,3.11,0,0,1-1.21-.16,5.53,5.53,0,0,1,.91,0A.54.54,0,0,1,52.39,49.54Z"/><path class="cls-84" d="M12.88,33.61l-.15.08c-.27-.14-.58-.2-.84-.35a.49.49,0,0,1-.18-.14l.59.25A1.67,1.67,0,0,0,12.88,33.61Z"/><path class="cls-10" d="M9.23,41.52a.15.15,0,0,1,.18,0Z"/><path class="cls-6" d="M34.15,49.28a9.78,9.78,0,0,1,.57-.94c.46-.74.93-1.47,1.39-2.2,0,0,0-.1.12-.12.17.35.35.7.53,1a1,1,0,0,0,.21.37L34.61,49Z"/><path class="cls-85" d="M52.1,17.68c0,.16-.16.19-.31.18A.32.32,0,0,1,52.1,17.68Z"/></g></g></svg>