<svg height="464pt" viewBox="0 0 464 464" width="464pt" xmlns="http://www.w3.org/2000/svg"><path d="m352 432-224-128v-144l224-128zm0 0" fill="#d6d6d4"/><path d="m372 0c11.046875 0 20 8.953125 20 20v424c0 11.046875-8.953125 20-20 20s-20-8.953125-20-20v-424c0-11.046875 8.953125-20 20-20zm0 0" fill="#e94f4f"/><path d="m32 160h96v144h-96zm0 0" fill="#e94f4f"/><path d="m0 184h32v96h-32zm0 0" fill="#d6d6d4"/><path d="m464 264-72 16v-96l72 16zm0 0" fill="#c9c9c7"/><path d="m64 304h64v160h-64zm0 0" fill="#d6d6d4"/><path d="m56 184h16v32h-16zm0 0" fill="#ba2727"/><path d="m88 184h16v32h-16zm0 0" fill="#ba2727"/><path d="m302.554688 97.144531 13.332031-8.003906 8.234375 13.71875-13.332032 8.003906zm0 0" fill="#ebebe9"/><path d="m155.890625 185.160156 133.324219-80.023437 8.234375 13.714843-133.324219 80.023438zm0 0" fill="#ebebe9"/><path d="m352 146.703125c-56.984375 85.542969-135.617188 139.753906-198.089844 172.105469l198.089844 113.191406zm0 0" fill="#c9c9c7"/><path d="m372 392c-11.046875 0-20-8.953125-20-20v72c0 11.046875 8.953125 20 20 20s20-8.953125 20-20v-72c0 11.046875-8.953125 20-20 20zm0 0" fill="#cf3a3a"/></svg>