<?xml version="1.0" standalone="no"?>
<!DOCTYPE svg PUBLIC "-//W3C//DTD SVG 20010904//EN"
 "http://www.w3.org/TR/2001/REC-SVG-20010904/DTD/svg10.dtd">
<svg version="1.0" xmlns="http://www.w3.org/2000/svg"
 width="1048.000000pt" height="1014.000000pt" viewBox="0 0 1048.000000 1014.000000"
 preserveAspectRatio="xMidYMid meet">

<g transform="translate(0.000000,1014.000000) scale(0.100000,-0.100000)"
fill="#000000" stroke="none">
<path d="M2540 9543 c-139 -11 -319 -62 -445 -126 -173 -87 -362 -258 -473
-426 -65 -99 -127 -243 -164 -383 l-23 -83 -3 -1955 c-3 -2162 -6 -2046 60
-2245 78 -232 229 -442 421 -586 108 -81 296 -172 420 -203 143 -37 298 -46
797 -46 l447 0 749 -965 c412 -530 752 -961 755 -957 3 4 340 438 749 965
l742 957 452 0 c248 0 504 5 569 10 336 28 628 176 837 424 127 152 199 292
259 506 l26 95 0 1980 c0 2152 3 2024 -56 2208 -115 355 -407 650 -758 767
-207 69 33 64 -2776 65 -1397 1 -2560 0 -2585 -2z m1738 -1378 c126 -30 272
-112 385 -215 143 -131 316 -395 397 -606 l24 -62 66 132 c129 259 318 491
492 604 162 105 297 138 522 129 650 -27 1016 -351 1111 -983 19 -126 19 -371
0 -494 -52 -342 -237 -688 -557 -1040 -203 -223 -532 -501 -1027 -868 -257
-191 -511 -395 -585 -471 l-60 -60 -80 77 c-101 97 -255 226 -506 422 -709
557 -1040 882 -1292 1265 -150 228 -240 447 -280 680 -17 103 -20 146 -15 305
19 602 254 978 709 1135 198 69 520 92 696 50z"/>
<path d="M4810 1091 c-41 -4 -51 -9 -40 -16 21 -13 617 -12 630 1 8 8 -12 13
-66 17 -90 8 -444 6 -524 -2z"/>
</g>
</svg>
