<svg xmlns="http://www.w3.org/2000/svg" viewBox="0 0 1702.51 1445.92"><defs><style>.cls-1{fill:#e3e8e0;}.cls-2{fill:#2c2a40;}.cls-3{fill:#f8b486;}.cls-4{fill:#83519d;}.cls-5{fill:#afb0c9;}.cls-6{fill:#df3641;}.cls-7{fill:#7b7b99;}.cls-8{fill:#f29468;}.cls-9{fill:#72498a;}.cls-10{fill:#9595ad;}.cls-11{fill:#9696ad;}.cls-12{fill:#fdfdfd;}.cls-13{fill:#f29568;}.cls-14{fill:#2e2c41;}.cls-15{fill:#f29569;}.cls-16{fill:#f6fcf0;}.cls-17{fill:#2f2c41;}.cls-18{fill:#f8fef2;}.cls-19{fill:#f8e9d4;}.cls-20{fill:#f39a6e;}.cls-21{fill:#f3996d;}.cls-22{fill:#f7fdf1;}.cls-23{fill:#313145;}.cls-24{fill:#f8dfc6;}.cls-25{fill:#767785;}.cls-26{fill:#bb3441;}.cls-27{fill:#556;}.cls-28{fill:#575769;}.cls-29{fill:#575668;}.cls-30{fill:#575768;}.cls-31{fill:#585769;}.cls-32{fill:#565668;}.cls-33{fill:#585869;}.cls-34{fill:#58586a;}.cls-35{fill:#585768;}.cls-36{fill:#59586a;}.cls-37{fill:#59596a;}.cls-38{fill:#01497b;}.cls-39{fill:#565567;}.cls-40{fill:#71498a;}.cls-41{fill:#f2966a;}.cls-42{fill:#fefefe;}.cls-43{fill:#2d2b40;}.cls-44{fill:#383244;}.cls-45{fill:#574149;}.cls-46{fill:#e3e7df;}.cls-47{fill:#b9a5a7;}.cls-48{fill:#363143;}.cls-49{fill:#403545;}</style></defs><title>Asset 1</title><g id="Layer_2" data-name="Layer 2"><g id="Layer_1-2" data-name="Layer 1"><path class="cls-1" d="M698.33,436.86l5,0c1.85,1.28,4.15-.24,6,1l5,0c1.5,1.21,3.5-.17,5,1,14.6,1.72,29.24,3.12,43.78,5.24,17.8,2.6,35.54,5.7,53.27,8.77,24.28,4.21,48.29,9.75,72.31,15.22,29.73,6.76,58.7,16.38,88.42,23.13,12.56,2.85,25.22,5.37,38.19,5.66,1.5,1.2,3.5-.17,5,1l6,0c1.85,1.27,4.15-.24,6,1l10,0a246.58,246.58,0,0,0,35,0l10,0c2.55-1.29,5.46.38,8-1l6,0c1.86-1.21,4.16.31,6-1,4.46,0,9,.18,13-2.09,3.82.91,3.61,4.43,4.35,7.12,5.21,18.94,10.64,37.82,16.77,56.49,2.45,7.42,4.69,14.9,7.57,22.17.79,2,1.63,4,.9,6.28a5.11,5.11,0,0,1-1.68,2.37c-6.41,4.45-6.89,11-6.42,17.89,1.33,9.38,1.94,18.84,4.06,28.11,1.11,4.85,3,9.52,3.28,14.56-.49,2.39-2.1,4.13-3.5,6-19,25.11-27.8,53.66-30.15,84.81-1.24,16.42.24,32.53,2,48.72.19,1.82.14,3.66.18,5.49-1.87,9.66-5,19-7.75,28.41-7.83,26.22-13,53-18.82,79.74-9.43,43.32-20.68,86.16-33.13,128.68-4,11-3.76,11.6,5.13,19,2.94,2.46,5.9,4.89,9,7.2a8,8,0,0,1,3.52,5.26c2.22,13.53,1.31,27.22,2,40.82,1.64,30.93,4.64,61.65,10.13,92.13.47,2.6,2.54,5.85-1.42,7.79-12.13-2.42-24.28-4.78-36.39-7.29q-24.46-5.07-49.31-7.77c-2.45-.26-4.8-1.34-7.34-1-1.5-1.21-3.49.17-5-1l-6,0c-3.57-1.37-7.42.34-11-1h-8c-3.24,1.32-6.77-.43-10,1a139.85,139.85,0,0,0-47.6,11.33c-20.86,9-38.55,22.46-54.72,38.32-18.31,18-34.15,38-50.07,57.94-12.7,15.94-25.27,32-38.8,47.26a400.53,400.53,0,0,1-33.05,33.76A278.34,278.34,0,0,1,676,1413a263.75,263.75,0,0,1-78.13,27.32c-9.08,1.67-18.18,3.74-27.54,3.47-1.51,1.13-3.5-.24-5,1l-8,0c-3.91,1.3-8.08-.42-12,1h-21c-4.25-1.44-8.74.39-13-1l-8,0c-1.84-1.28-4.14.23-6-1l-6,0c-1.49-1.21-3.49.17-5-1l-4,0c-1.49-1.21-3.49.17-5-1-14.6-.68-28.8-4-43-7.08-28-6.16-54.9-15.52-80.2-29.09a256,256,0,0,1-46.6-32,215,215,0,0,1-53.89-71.33,207,207,0,0,1-18.44-63.16c-.52-4.14-.77-8.23-.89-12.37-1.28-2.55.39-5.45-1-8v-19c1.36-2.54-.31-5.45,1-8,1-27.1,8.94-52.19,22-75.79.29-.53.92-.88,1.39-1.32,2.94-.39,4.5,1.79,6.3,3.45,19.53,17.94,39.86,34.89,62,49.48,11.72,7.7,23.89,14.57,37.73,17.93a28.5,28.5,0,0,0,19.42-2.11c13.27-6.17,22.76-16.8,31.95-27.51,19.51-22.74,34.68-48.45,49.3-74.47,15.59-27.75,29.64-56.31,43.12-85.12,4.55-9.73,11-17.27,20.45-22.41,11.9-6.44,23.27-5.42,34.65,1.22s21.53,14.53,31.79,22.5c26.58,20.65,52.37,42.28,79.26,62.52,10.51,7.91,21.11,15.72,32.59,22.23,1.25.71,3.19,1.29,2.86,3s-2.35,1.58-3.76,1.78c-12.37,1.74-24.74,3.47-36.74,7.12-13.29,4-25.19,9.93-34.18,21.27-7.73,9.75-18.47,16.24-28.91,22.81a328.45,328.45,0,0,1-46.63,23.9,34.15,34.15,0,0,1-13.13,2.73c-4.34,0-8,1.54-11.72,3.72-7.16,4.22-13.95,9.11-21.79,12.14-11.39.39-22.76,1-34.09,2.3-4.1.49-8.21.78-12.25,1.62-8.51,2.74-12.79,9-14.75,17.36-2.94,12.49-.86,24.84,1,37.18,1.71,11.19,4.4,22.2,6.5,33.32,2.81,14.88,3.07,30.1,6,45,3.77,19.33,8.32,38.37,17.05,56.2,4.91,10,12.09,17.42,22.74,21.18,4.41,1.56,8.76,2.18,12.71-1.19,3.33-5.07,3.76-10.77,3.67-16.59-.79-17.92-4-35.7-3.08-53.71.94-19.13,2.53-38.15,9.81-56.2a36.78,36.78,0,0,1,13.32-17c6.61-4.42,14.19-6.49,21.68-8.77,7.33-2.24,14.7-4.36,21.66-7.65,1.81-.85,3.81-1.55,5.14-3,5.94-6.56,14.07-8.69,22.06-11,32.2-9.28,64.94-16.37,97.65-23.54,27.5-6,55.19-11.41,81.15-22.86,16.51-7.28,32.53-15.45,45.43-28.54a57.41,57.41,0,0,0,9.53-13.39c5.13-9.56,4.4-19.25.52-29-7.09-17.76-17.18-33.86-28-49.5-27.7-40.07-58.86-77.42-90.68-114.24q-29.07-33.63-59.24-66.28c-7.58-8.18-15.21-16.32-22.69-24.59-1.22-1.34-2.67-2.61-2.25-4.75,1.33-2.25,3.75-2.68,5.92-3.25,3.88-1,4.87-3.16,4-7-3.51-15-6.26-30.13-9.12-45.25-7.83-40-15.22-80.16-21-120.57-1.21-8.56-3.26-17-3.37-25.71,4.4-8.94,8.91-17.84,12.27-27.26,12.41-34.81,14.45-69.84,2.09-105.13-6-17.17-15.59-32.3-27.07-46.3-1.15-1.41-2.54-2.66-3.14-4.46a5.77,5.77,0,0,1,.55-4.34c3.54-7,7.84-13.53,10.87-20.77a2.07,2.07,0,0,1,2.34-1.46c.06.35.11.7.17,1.05,6.83,1.2,13.72.19,20.57.54,2.76.15,5.57-.5,8.28.46l13,0c3.23,1.4,6.76-.35,10,1l8,0c2.54,1.36,5.45-.31,8,1l6,0C693.52,437.21,696.12,435.6,698.33,436.86Z"/><path class="cls-2" d="M643.29,843.82C662,864.34,681,884.67,699.44,905.43c42.19,47.4,83.7,95.39,119.9,147.66a301.77,301.77,0,0,1,24.22,40.7c10.27,21.36,11.32,36-12.58,57.34-16.8,15-37.43,23.26-58.38,30.64-25.2,8.87-51.55,13-77.45,19-29.48,6.83-59.07,13.16-88.06,21.94-5.7,1.73-11.06,3.69-15.57,8.25-5,5-12.15,6.66-18.76,8.91-10.21,3.48-20.92,5.56-30.42,11-2.79.25-4.14-1.82-5.52-3.62-11.71-15.34-21-31.83-24-51.26-1.11-5.47-2.12-10.94.27-16.35,7.56-4.5,15.08-9.07,22.71-13.48,1.83-1.06,4-2.29,6-2.23,13.11.34,24.08-5.83,35.21-11.33,18.22-9,36-18.78,51.23-32.5a22.75,22.75,0,0,0,3.23-3.12c12.1-16.72,30.09-22.78,49-27.11a239.69,239.69,0,0,1,28.61-4.3c-8.61-5.1-16.36-10-23.81-15.34-31.54-22.62-61-47.91-91.67-71.63-9.87-7.64-19.77-15.27-30.51-21.68-19.71-11.77-43-4.3-52.67,16.57-20.61,44.34-42.49,88-69.15,129.11-12.08,18.61-25.21,36.35-41.62,51.52-15.27,14.11-31.82,17.75-50.65,7.75-4.39-2.34-9-4.38-13.27-6.86-22.35-12.82-42.12-29.11-61.51-45.91-5.52-4.78-11-9.61-16.51-14.42-.55-.92-1-2-2.38-1.82-2.56.45-3.19-1.45-3.94-3.21-7.89-8.82-16.91-16.5-25.28-24.84-12-12-23.52-24.48-35.71-36.28A119,119,0,0,0,167,1030.9c-4.67-2.68-7.18-7.38-11.48-10.22-6.23-4.45-7.5-8.11-5.27-15.25,1.07-3.45,2.48-6.81,3.17-10.38,4.25-13.34,10.33-25.53,21.18-34.95,3.08-2.67,5.93-4.1,9.83-2.47,3.57,1.39,6.12,4.29,9.3,6.26,2.64,1.63,5.16,3.48,8.53,3,1.59,1,3.46,0,5.11.71,4.28,1.2,6.48,4.72,9.25,7.81,6.48,7.23,14.81,12.13,23.41,16.3,17.55,8.51,35.85,15.4,53.28,24.19,2.66,1.35,5.34,2.65,8,4a15.14,15.14,0,0,1,6,2.15,227.41,227.41,0,0,1,32.73,22.87c4.52,3.87,5.05,3.67,6.59-2.06,10.13-37.83,20.44-75.64,26.65-114.34,3.56-22.21,6.66-44.47,12.27-66.29.61-2.4.9-5,2.63-6.94,2.65-1.86,5.51-1,8.21-.38,13.19,2.79,26.51,5,39.58,8.35,24.35,6.2,48.95,6.34,73.82,4.43,37.67-2.88,74.44-10.56,111-19.75,5.33-1.34,10.56-3,15.88-4.42C638.85,842.91,641.17,841.94,643.29,843.82Z"/><path class="cls-1" d="M1544.42,1305.81c-.06.34-.11.67-.17,1-2.29.29-3-1.75-4.25-3-11.67-11.62-23.11-23.45-36.17-33.6-8.6-6.68-17.38-12.81-27.68-16.62-13.74-5.09-25.74-13.15-37-22.44a64,64,0,0,0-19.37-11.15,37.91,37.91,0,0,0-10.73-2c-5.4-.32-9.42,1.47-11.93,6.34-3.73,6.41-8,12.51-11.69,18.92-2,3.51-4.64,5.91-8.72,6.54-10.32,2.47-20.66,3.32-31.13.84-4.92-1.17-8.75.73-11.75,4.68-1.91,2.52-3.52,5.27-5.61,7.64s-4,5.42-7.86,5.59c-21-5.22-41.73-11.55-62.61-17.3-9.8-2.7-19.56-5.52-29.31-8.39-1.9-.56-3.94-.86-5.34-2.5-1.51-3,.6-5.07,2-7.23a255.9,255.9,0,0,1,28.26-36.68c16.83-18,27.46-39.38,34.52-62.75,1.78-5.89,3.14-11.88,4.34-17.92.43-2.2.46-4.74,3-6,3.42-1,6.94-.62,10.41-.6s5.3-1.38,4.89-5.06c-1.67-14.85-1.36-29.83-2.63-44.71-.35-4.08-1-8.31,1.13-12.2,1.42-1.74,3.52-1.67,5.45-2a121,121,0,0,0,34-11.13c16.85-8.7,26.75-23.45,35.37-39.44,10.6-19.68,18-40.71,25.61-61.64,1.75-2.56,4.48-3.94,7-5.47,4.77-2.9,7.44-8,11.91-11.16,2-.17,3.43,1,4.89,2.14,12.32,9.53,25.88,16.92,40.11,23.16,2.23,1,4.89,1.41,5.89,4.15,2.51,12.79,7.44,24.77,12.41,36.71,15.76,37.92,37.53,72.48,59.62,106.9,15.43,24,30.74,48.19,42.82,74.16,8.35,17.94,15.34,36.36,17.2,56.32.18,2,.63,3.91,1,5.86a125.57,125.57,0,0,1,0,24c-1.72,27-16.25,43.94-44.54,51.87-6,1.69-12.09,3.52-18.48,3.16C1547.81,1306,1545.84,1304.55,1544.42,1305.81Z"/><path class="cls-2" d="M1294.52,1110.75c-5.57,32.64-17.72,62.22-40.31,87-11.8,12.93-22.54,26.66-31.32,41.85.34,2.4-1.23,4.07-2.3,5.9-8.26,14.06-15.81,28.47-21.71,44.4,4-1.11,7.33-2.72,10.76-4,18.61-6.85,37.45-12.8,57.29-15a131.23,131.23,0,0,1,27.38-.18,54,54,0,0,0,23-2.5,5,5,0,0,1,2.9-.49c2.36.26,3.54-1.55,4.74-3a70.84,70.84,0,0,0,5.91-8c4.2-6.79,9.62-9.23,17.7-7.1,9.51,2.51,19.14.52,28.66-1.08a3,3,0,0,1,3.76,1.3c7.46,9.8,12.46,20.8,16.31,32.39,1.73,5.21,3.56,10.4,5.16,15.66,1.29,5.44,2.75,10.84,4.07,16.28.43,1.75,1,3.5.37,5.33-1.26,2.38-3.67,2.77-5.92,3.44-4,.66-7.47,3.48-11.74,3.31a16.62,16.62,0,0,0-9.53,5.56,61.14,61.14,0,0,1-22.52,17.2c-1.72.58-3.6-.19-5.29.64-9.24.66-17.28,5-25,9.34-10.78,6.1-22.4,10-33.76,14.51q-22.52,9-45.15,17.7-22.87,8.85-45.49,18.27c-11,4.58-21.86,9.18-32.27,15.09-12.58,7.13-26.89,9.19-41,11.37-1.94.85-4.14-.36-6,.79l-9,.26a25.18,25.18,0,0,1-7.94,0c-11.93-.12-23.67-1.75-34.7-6.33-14.19-5.9-23.36-16.21-25.53-31.91-.8-2.34.34-4.87-.72-7.19,0-1.48,0-3,0-4.45,1-3-.12-6.25.7-9.3.67-14,3.45-27.67,5.94-41.36,1.53-8.41,3.48-16.81,5.52-25.15,3.54-14.45,7.35-28.83,11-43.25,3.78-14.86,7.68-29.68,12.14-44.36,2-6.59,3.78-13.25,5.66-19.88,1.28-1.44,1-3.09.61-4.73-8-38.59-10.52-77.74-11.83-117-.22-6.8-.35-13.61-.53-20.42,1.77-.93,3.24,0,4.67.82,31,17.44,65,26.25,99.56,33a741.17,741.17,0,0,0,82.06,11.07,20.84,20.84,0,0,1,6.78,1.54c1.81,1.3.79,3,.56,4.52-.26,1.72-1.38,3.35-.53,5.45,2.86-2.93,1.54-8,5.58-10,5.17,0,10.32.32,15.47.38C1290.93,1108.4,1293.11,1108.72,1294.52,1110.75Z"/><path class="cls-2" d="M604.12,457.85c27.47,30.66,41.34,66.34,39.15,107.7-1.4,26.48-8.95,51.3-21.88,74.47a6.09,6.09,0,0,1-1,1.05c-2-1.17-2.22-3.19-2.52-5.18-2.18-14.49-4.48-29-6.51-43.48a14,14,0,0,1,.27-6.43c9-19.48,5.38-38.74-1.34-57.83-5.74-16.3-14.38-31.08-24.65-44.93-5.5-7.22-11.17-14.29-18.25-20.07-14.41-13.95-32.3-20-51.62-22.81a70.93,70.93,0,0,0-14.41-1.09c-1.79.11-2.77.3-2,2.63,6.07,19.38.23,35.57-16.78,46.86-8.54,5.67-17.79,8.94-28.18,8.55a21.51,21.51,0,0,0-6.65.3c-.17,2.07,1.46,3.2,2.4,4.62,21.4,32.21,38.09,66.47,44,105.09,6,39.21-2.71,74.72-28.5,105.45a92.41,92.41,0,0,1-18.71,16.42,108.06,108.06,0,0,1-38.36,17.57c-3.32.8-4.52,2.45-4.8,5.81-1.8,21.09-5.51,41.91-9.33,62.71-.38,2.08-.66,4.37-3.06,5.36-4.08.48-6.81-2.22-9.68-4.33-10.83-8-18.83-18.57-26.65-29.27-6.25-8.53-12.44-17.14-16.8-26.89.06-8,3.1-15.49,4.12-23.33a196.57,196.57,0,0,0,4.86-24.9c1.72-12.28,5.64-23.93,8.79-35.81,1.32-5,1.16-5-4-4.84-8,.24-16-.24-23.95.14a363.54,363.54,0,0,1-45.6-5.24c-.5-.06-1-.15-1.48-.24-11-2.08-12.85-6.73-6.64-16.51,2-1.21,4.19-.79,6.32-.39,19.18,3.55,38.49,5.76,58,5.28,12.5.28,24.46-2.33,36.13-6.65,3.31-1.23,4.6-3.65,4.88-6.85.86-10,2.2-19.86,3.22-29.79.2-1.88-.4-4.72,2.11-5,2.23-.22,2.83,2.47,3.5,4.33,7.2,19.83,11.27,40.39,14.26,61.22,1.33,9.24,2,18.53,2.9,27.81.32,3.49,1.54,3.77,4.44,2.63a87.36,87.36,0,0,0,52.77-61.79c2.82-11.8,1.93-23.49-.26-35.16-6.54-34.76-21.19-66.17-40.18-95.71a160.61,160.61,0,0,0-16.41-22c-1.69-1.84-3.39-3.67-5.15-5.44-3-3.08-6.3-4.07-10.81-3-11.35,2.65-22.67,5.43-34,8-9.27,2.09-16.67,8.16-23.66,14.44C317.2,515,307.77,532.2,301.2,551.21a597.36,597.36,0,0,0-17.95,61.39c-.52,2.25-.2,5.79-4.41,5.13-2.1-2.19-2-5.15-2.72-7.82-2.1-7.8-3.53-15.75-4.87-23.71a14.37,14.37,0,0,1,.21-6.36q-.65-7-1.3-14a236.46,236.46,0,0,1,0-26c.87-13.52,4.9-26,13-36.94,8.2-11.16,18.85-19.42,30.81-26.26,27.76-15.88,58.13-23.53,89.27-28.86a4.57,4.57,0,0,0,1.23-.65c1.13-1.53,2.48-1.29,3.89-.47.92.22,1.8.31,2.4-.65,4.42-.2,9.2,3.48,10.71,8.36a32.44,32.44,0,0,1,1.4,7.36c.86,12.65,11.09,19.9,23,19.89,12.36,0,23.95-1.45,33.7-9.79,4.63-3.95,8.44-8.51,10-14.57-1.14-5.09-4.35-9.21-6.52-13.8-.85-1.78-2.13-3.41-1.35-5.56,7.9-4.57,15.21-9.78,19.65-18.11.11-.21.59-.13.93,0l2.05-.2c1.62-.63,3.47.34,5-.7l1.88-.93c16.7-1.9,32.62,1.41,48.22,7a107.84,107.84,0,0,1,23.66,12.52c5.84,4.25,11.12,9.17,16.6,13.85A15.58,15.58,0,0,1,604.12,457.85Z"/><path class="cls-1" d="M1506.28,671.85l0,5c-1.21,1.49.17,3.49-1,5a449.2,449.2,0,0,1-10.47,58c-5.82,23.32-15,45.68-19.78,69.29-2,10-4.17,20-4.82,30.31a16.41,16.41,0,0,1-.93,3.31c-3.52.82-5.8-1.65-8.45-3.16-3.64-3.39-6-7.85-9.43-11.41q-5.69-7.62-11.4-15.18a13.16,13.16,0,0,1-3.07-7.76c.2-16.29,2.6-32.5,1.9-48.82-.69-16-2-31.9-6-47.44-6.91-26.82-24.92-43.64-49.56-54.39a178.25,178.25,0,0,0-36.67-11.3c-1.31-.26-2.62-.49-3.9-.85-4.08-1.15-4.61-2.26-1.92-5.35a66,66,0,0,0,7.56-11.12,8.85,8.85,0,0,1,4-2.88c10.87-4.43,16.76-13,19.82-23.91.66-2.38,1-4.9,2.55-6.95,5.65-6.1,11.89-11.61,16.82-18.42,14.38-19.9,16.41-40.8,6.3-63.18a121.55,121.55,0,0,0-19.11-29.7c-4-3.5-7.69-7.23-12.14-10.14-1.41-.92-3.43-1.55-3.29-3.88a179,179,0,0,1,50.62,11.81,130.55,130.55,0,0,1,51.47,35.79c11.91,13.41,20.52,28.91,27,45.57a212.72,212.72,0,0,1,14,60.79c1.21,1.86-.3,4.16,1,6l0,13a27.43,27.43,0,0,1,0,11l0,14C1505.93,667,1507.54,669.64,1506.28,671.85Z"/><path class="cls-3" d="M1461.35,838.92l7.93,3.83,26.9,16.32c1.18.07,1.65.92,2,1.86,1.21,1.44,3.31,2,4,3.89,1.72,2.32,1.38,5,1.46,7.67.18,5.63-.56,11.3.72,16.87.85,3.73,2,7.35,4.86,10.31-1.42-9,0-18,.34-27a3.05,3.05,0,0,1,2.66-2.74q5.06-5.5,10.09-11c.2-.5.48-.55.84-.16,9.59-8.6,21.7-13.52,31.56-21.78a453.8,453.8,0,0,0,34.31-31.45l14.16-14.63a2.65,2.65,0,0,1,2.22-1.92l.9-.89c.26-1.66,1.35-2.92,2.1-4.34l-5.18-5.91c-1.66-.41-1.36-2.06-2-3.12-2.43-7.9-6.43-15.38-6.26-24a67.9,67.9,0,0,1,0-13.82l.25-7c1-1.56,0-3.44.76-5.05,0-9.8,2.51-19.07,6.25-28-.72-1.31.48-2,.9-3,1.85-2.87,3.85-2.22,6.18-.5s3.55,4.2,5,6.55c.88,1.6-.22,3.51.81,5.09-1.14,4.22-3.35,8.2-3,12.77a9,9,0,0,0,0,6.22,36.87,36.87,0,0,0,.24,6c1.5,7.58,4.65,8.44,10.72,3.6,5.53-4.42,7.44-10.79,10-16.82,6.28-14.54,13.37-28.69,20.72-42.72.91-1.74,1.77-4.09,4.4-4.34,1.66-.32,3.33-.78,4.91.29,2.2,5.11.83,10.09-.67,15-2.65,8.72-6.74,16.84-10.47,25.12-1.72,3.81-4.17,7.53-3,12.1.23.91-.11,2.34,1.22,2.31a4,4,0,0,0,2.31-1.61c2.79-3.42,3.25-7.88,4.94-11.8,5.26-12.25,10-24.74,14.92-37.13-.15-.91,0-1.68,1-2,1.65-2.64,3.73-4.74,7.13-3.75,3.58,1,3.7,4.12,3.62,7.18,0,1.15.08,2.29.12,3.44a2.92,2.92,0,0,1-1,4c-.44,2.31-.89,4.61-1.33,6.92,1,5.49-2.29,9.88-4,14.6s-4,9.41-6.06,14.1a58.25,58.25,0,0,1-2.76,7.2c.41-1.54,1.92-3.21,2.13-5.4,2.87-7.5,6.48-14.67,9.43-22.13.76-1.92,1.4-4.1,3.66-5,1.51-.93,2-2.59,2.81-4,1.39-2.53,3.13-4.37,6.26-3.47s3.8,3.61,3.6,6.33c-.34,4.64-1.95,9-3.66,13.3l-7.29,18.4c-.62,5.29-3.7,9.72-5.26,14.36,2.7-4.41,3.24-10.28,7.65-14.11,1.88-3.58,3.76-7.16,5.67-10.73.74-1.39,1.06-3.16,3-3.48a1.61,1.61,0,0,1,2,0c4.68,3.08,3.19,7.63,2.45,11.71-.81,4.51-2.35,8.89-3.57,13.33h0c-1.77,1.51-2.1,3.78-2.67,5.77a107.51,107.51,0,0,1-13,28,66.81,66.81,0,0,1-13.25,15.18c-.82,1.19-1.11,2.92-3,3-6.51,4.67-11.5,11.53-20,13.46-1.41.32-2.7,2.42-3.52,4-6.43,12.3-14.64,23.5-21.69,35.42-3.66,6.19-8.51,11.67-11.8,18.14-.48,1.12-.59,2.5-2,3-3.91,5.46-7.79,11-11.73,16.38q-10.07,13.89-20.19,27.73a6.3,6.3,0,0,1-2.77,4.11l-.37-.14c-1.58.3-2.57,1.37-3.62,2.49a162.91,162.91,0,0,1-38.64,30.47c-11.32,6.4-22.75,7-34.63,2.84-17.18-6-32.11-15.86-46.14-27.38-11.53-9.47-12.88-21.45-10.31-34.74a95.59,95.59,0,0,1,19.4-41.7A3.31,3.31,0,0,1,1461.35,838.92Z"/><path class="cls-2" d="M1039.3,423c-5,2-6.48-.23-8.2-5.06-3.55-10-7.34-19.91-11.17-29.79-3.47-9-6.68-18.1-9.89-27.21-4.7-13.31-9.78-26.49-14.87-39.66-1.16-3-1.54-6.25-3.59-9-.79-1-1.05-3.39,1.72-3.44,2.85.36,2.82,2.95,3.53,4.8,11.62,30.68,22.81,61.51,34.42,92.19,1.09,2.86,1.65,6.05,4.28,8.56,1.9-2.24.34-4.05-.26-5.65-7.78-20.73-15.39-41.53-23.19-62.25-4.87-12.94-9.86-25.83-14.46-38.86-.66-1.87-1.52-3.73-1.1-5.81.29-2.38,2.52-2.19,4-2.73,14.49-5.42,29-10.7,43.54-16.07a36.26,36.26,0,0,0,4.28-2.23c.39-.3.79-.58,1.2-.85,8.38-2.47,13.47-.24,17,7.51a91,91,0,0,1,4,11.78,33,33,0,0,0,2.78,6.93c.66,1.16,1.41,2.45,2.92,2.42,1.66,0,1.93-1.56,2.4-2.79s.38-3.5,2-3.65c1.94-.18,2.21,2.12,3,3.47a22.18,22.18,0,0,0,2.54,3.69c2,2.2,3.77,2.79,5.06-.67,1.23-3.28,2.87-3.38,5.53-1.13,3.06,2.58,4.45,1.84,5.08-2.19.12-.82.09-1.66.21-2.48.42-2.84,1.37-3.84,4.21-1.86,3.17,2.2,4.36,1.56,4.56-2.3a85.79,85.79,0,0,0-2.23-24.73,21.25,21.25,0,0,0-3.84-7.49c-1.14-1.56-2.78-3-2.47-5.23,17.9-6.68,35.83-13.27,53.66-20.1,4-1.52,5.16-1.2,6.75,3.36,6.68,19.17,14.24,38,21.36,57,6.83,18.25,13.42,36.59,20.32,54.81,1.32,3.48.91,4.57-2.85,5.88-15.12,5.26-30,11.05-45,16.67-7.21,2.7-14.39,5.46-21.59,8.2-.47,1.43-1.68,2-2.94,2.46-14.37,5.61-29,10.64-43.34,16.22a3.67,3.67,0,0,1-1.48.13c-7.31.64-13.63,4.33-20.4,6.63s-13.65,5-20.47,7.55A8.44,8.44,0,0,1,1039.3,423Z"/><path class="cls-3" d="M565.14,291c.49-9.79,1.69-19.5,3-29.22,1.38-10.39,3.43-20.62,5.49-30.87,6.59-1.11,13.1-2.45,18.55-6.75a13.74,13.74,0,0,0,4.62-5.29,165.44,165.44,0,0,1-21.17,6,10.14,10.14,0,0,0-.69-2.87c-8.79-15-15.68-30.91-22.79-46.72a17.55,17.55,0,0,0-1.64-2.43,3.11,3.11,0,0,1-.91-3.08C544.32,157,539.77,144,535.5,130.92c-3.6-11.06-9.25-21.1-15.21-31-1.23-.63-2.56-1.19-2-3l-10-15c.52-2.08,2.54-2.56,4.72-4A23.69,23.69,0,0,1,506.27,80c-1.55-.8-2.88-2.11-4.77-2.16-2.61-1.16-5.46.16-8.08-.79-4.21-.78-9.45.68-11.26-5.24a16.35,16.35,0,0,1,0-6.86c-3.28-2.06-6.82-3.8-9.79-6.23-6.93-5.66-13-11.88-12-22,.53-5.37,3.34-9.36,8.73-10.64,3.21-.76,5.29-1.82,5.59-5.72a6.62,6.62,0,0,1,5.21-6c8.95-1.53,14.87-8.25,22.17-12.56C505.9-.52,511.61-1,515.38,2.85a215.1,215.1,0,0,1,25.92,32c2.84,4.31,3.15,9.18,1.47,14.15a17.56,17.56,0,0,0-.4,3.94c-.28,2-2,3.24-2.83,5,1.57-.72,2.3-2.46,3.91-3.1l14,19.15a13.76,13.76,0,0,1,6.71,9.1c5.85,9.71,12.35,19,19.11,28.06,1.42.48,1.53,1.86,2,3,4.52,8.4,10.1,16.13,15.62,23.87,2.34,3.28,3.24,7.42,6.42,10.12,1.84.23,1.28,2,2,3,5.1,8.57,10.37,17.06,15.24,25.77,2.54,4.55,4.39,9.49,6.55,14.26,2,19.1-.14,38.13-.93,57.19-.41,10-1,19.93-2.34,29.82-2.24,17.24-6,34.08-14.22,49.64-1.54,2.93-3,6-6.13,7.67-1.85.72-3.56.11-5.24-.64-12.51-5.58-24.57-12.12-37.11-17.67-1.36-.6-3.29-1.12-2.77-3.43,3.15-2.37.58-5.93,1.82-8.7l.24-8C565.48,295.09,564.35,292.91,565.14,291Z"/><path class="cls-3" d="M343.48,737.1q-2.16,11.86-4.31,23.71c-.34,8.74-3.54,16.81-5.89,25.07-3.87,13.63-10.2,26.25-16,39.09a256.39,256.39,0,0,0-11.19,28.75c-.43,1.37-.66,3-2.48,3.4-5.85-3.5-12.32-3.21-17.8-2.88,5.77-1.69,11.38,2.69,17.7,3.38,6.31,6,13.75,10.48,20.85,15.39a18.18,18.18,0,0,1,8.17,15.71c0,9.14.55,18.28.2,27.43-.07,2-.16,4-1.39,5.72-2,2.74-4.45,4.63-8,4-3.85-.65-6.17-3.26-7.18-6.85-2.07-7.36-3.76-14.84-5.65-22.26a13.63,13.63,0,0,0-1.62-4.69c-.66-1-1.53-2.08-2.82-1.32-1,.61-.45,1.8-.19,2.72,3.69,13.32,7,26.79,17.23,37.13a50.26,50.26,0,0,1,5,6.23c3.37,4.71,3.41,9.29.09,12.11s-7.52,2.7-11.47-1.61c-8.19-9-17.19-17.18-23.56-25.64,6.07,12.15,15.54,24,23.6,36.81,2.8,4.45,2.47,9-.58,11.31s-7.11,2-10.73-1.68c-6.18-6.26-13.06-11.87-18.07-19.24l-10-15a2.11,2.11,0,0,1-1.1-1.26,2.8,2.8,0,0,0,0,2.27A286.41,286.41,0,0,0,293.2,981.2c1.62,3.49,2.38,7-1.77,9-3.89,1.9-6.14-.77-8-3.82-4-6.52-8.07-13-12.11-19.51-4-4.24-4.1-10.09-6.24-14.54,1.39,4.92,3.64,10.13,5.26,15.53.48,2.14,2.24,4.56-1,6-2.9,1.29-3.9-1.16-5.58-2.78-5.93-5.72-7.33-13.82-11.19-20.61-2.13-3.73-.37-7.8.08-11.56,2-16.77,4.45-33.48,6.77-50.21.23-1.61.68-3.2,1-4.8.41-11.91.92-23.83,0-35.73-.28-3.65-.63-7.28-.63-10.94,0-23.44-.45-46.89,1.07-70.3,1.36-20.94,3.67-41.75,10.89-61.67.84-2.32,1.29-4.87,3.52-6.42,7.67-3.11,15.57-5,22.89-4.12-5.61-2-12.79,0-19.29-2.94a6.88,6.88,0,0,1-.73-4.78c.87-6,1.66-12.09,2.62-18.1.24-1.48.5-2.94,1.75-4,15.28,2.05,30.54,4.22,45.94,5.19a49.31,49.31,0,0,0,11.45.15c4.57-.41,5.82,1.71,5.91,5.71.17,8.15.37,16.32,0,24.46C345.27,712.67,345.87,725,343.48,737.1Z"/><path class="cls-1" d="M303.41,856.87c7.29-24.68,21-46.79,28.56-71.36,2.52-8.2,4.81-16.46,7.2-24.7,8.93,14.18,17.91,28.32,29.1,40.89,6.42,7.21,13.07,14.13,22,18.4,3.31,1.33,2.39,4.06,1.86,6.37-1.44,6.33-2.66,12.72-4.38,19-1,3.7-1.09,7,.93,10.36-6.4,23.79-10.08,48.08-13.86,72.39-5.68,36.64-15.51,72.41-25,108.22-1.06,4-2.26,8-3.25,12-.49,2-.92,3.31-3.06,1.32-12.77-11.79-27.4-21-42.19-29.89,2.76-3.18,1.22-7,.84-10.23a251.23,251.23,0,0,0-9.71-44.06l-5.1-16.65c6.33,6.13,12.77,12.16,18.94,18.45,2.89,2.94,6,4.06,9.2,1.51s2.4-6.06.3-9.37C307.7,946.74,298,935,291.57,921.18a18.52,18.52,0,0,1-1.67-4.66c6.71,8.16,14.2,15.52,21.39,23.16,2.51,2.66,4.91,5.43,7.55,8,2.82,2.7,6.08,2.93,8.9.16,2.59-2.56,2.44-5.74.39-8.62a64.61,64.61,0,0,0-6.76-8.63c-11-10.93-13.33-25.69-17.73-39.54-.3-.93-.56-2.55.41-2.66a6.48,6.48,0,0,1,5.82,2.15c.88,1.08,1.1,2.74,1.47,4.18,2,7.89,4,15.78,6,23.67,1.05,4.22,3.51,7.08,8.08,6.32,4.08-.68,6.07-3.63,6-7.92-.22-10.76.22-21.53-.89-32.27-.44-4.27-2.68-7.34-6.2-9.73-5.77-3.93-11.44-8-17.12-12.07-1.73-1.24-3.76-2.3-3.9-4.85A.67.67,0,0,1,303.41,856.87Z"/><path class="cls-3" d="M502.34,419.81c-4.11,8.88-10.66,15.06-20,18.08-4.5,2.2-9.36,2-14.09,1.62-18.47-1.57-33.18-11-46.56-22.95a9.57,9.57,0,0,0-2.25-1.8c.15,6.78,2.79,12.52,5.56,18.27,7.92,16.4,21.25,24.07,39.13,24.43,7.32.15,14.63.25,21.89-1.08,1.75-.32,3.62-.87,5.25.52C487,471,476.33,478.05,463,481.65a49.91,49.91,0,0,1-28.12-.47c-6.32-2-10.54-7.14-12.4-13.67a46.12,46.12,0,0,1-1.54-9.34c-.47-6.62-4.94-9.66-10.22-12.11-.22-2.82-3.2-3.33-4.42-5.31-5.43-5.42-9.19-12-12.75-18.66-1.56-2.94-3.14-4.69-6.83-4.12a9.42,9.42,0,0,1-7.42-2c-7.67-5.67-12.68-13.28-16.06-22.06-3.64-9.68.18-18.68,9.12-21.53,3.91-1.24,7.19-.76,9.58,3,1.34,2.1,2.95,4,4.3,6.14a4.63,4.63,0,0,0,5.11,2.21c4.13-.67,4.9-1.74,3.31-5.65-1.81-4.47-3.73-8.91-5.71-13.32a10.71,10.71,0,0,1-.22-9.14c3.06-7.07,2.41-14.09-1.23-20.68-2-3.6-1.6-6.52.62-9.7,9.87-14.11,23.09-23.81,39.1-29.84A96.63,96.63,0,0,1,459,289.07c7.59-.19,14.17,2.36,18,9.48,2.09,3.88,5.57,7.17,5.44,12.07,1.68,3.38,2.74,7.21,6.66,8.91-1.39,2.4-4.19,2.39-6.28,3.57-4,2.23-6.53,4.95-5.47,9.84a7.94,7.94,0,0,0,1.77,7.85c2.32,2.79,4.57,5.66,6.89,8.47,3.42,4.14,3.07,6.77-1.37,9.82-4.06,2.79-8.34,5.31-11.32,10.35,9.13-3.56,17.45-8,27.1-6.62a25.91,25.91,0,0,1,2.72,11.87C503.13,389.72,504.45,404.8,502.34,419.81Z"/><path class="cls-2" d="M482.44,310.62Q479.25,305,476,299.36c-3.37-5.83-8.52-9.17-15.16-8.91-25.75,1-48.64,8.88-66.31,28.66-1,1.12-1.91,2.32-2.87,3.47-3.56,4.27-5.49,8.12-1.95,14,3.8,6.36,3.4,13.82-.16,20.61a5.64,5.64,0,0,0,0,5.57c2.61,5.75,5,11.6,7.64,17.34,1.08,2.36,1,3.27-1.93,4-7.53,1.87-7.42,2-12.07-4.66-2.43-3.5-4-8.36-10.17-6.13-5.69,2-9.5,6.53-9.7,12.54-.09,2.66-.07,5.32-.1,8-7.3-7.64-11.68-17.16-16.74-26.22a68.75,68.75,0,0,1-3.38-7.4c-2-4.93-6.45-7.51-11.66-9.33,3.05-3.28,6.69-1.4,10.36-2.35-3.78-6.28-9.73-8.87-17.1-10.83l4.64-2.05a29.77,29.77,0,0,1,8.94,0c2.26,1.15,3.31-.1,3.72-2.06,3.08-14.9,9.94-28.07,18.39-40.52.46-.87.67-2,1.95-2.09a89.53,89.53,0,0,1,17.78-15.51,62.53,62.53,0,0,1,12.91-6.38c4.28-1.51,8.54-3.14,11.33-7.08a5.79,5.79,0,0,1,3.11-3.08c6-5.22,7.65-12.7,9.86-19.73a34.5,34.5,0,0,0,2-12.2c1-3,.15-6.12.49-9.16.15-1.31-.79-2.94,1-3.88,12.13,5.73,20.5,15.24,26.9,26.75.48.86.5,2.24,2.22,2.19,2.31-.06,1.33-1.87,1.73-2.86,1.59-4,.74-8.11.45-12.2-.46-1.29-.2-2.72-.73-4,.33-2.59-2.07-4.9-.6-7.77l7.54,3.73c1.92-.54,2.38.9,2.95,2.18,12.33,8.92,20.05,20.71,22.25,35.91a47.09,47.09,0,0,1,0,10.94c-.08,1-.15,2-.22,3,.43,1.68.25,3.94,3.12,3.35l7.05-8.79,2,8.47a41.81,41.81,0,0,1,0,10.95C493.49,295.34,490.22,304.17,482.44,310.62Z"/><path class="cls-1" d="M282.52,664.93q-1.57,13.46-3.16,26.92a6.93,6.93,0,0,1-3.23,6.81c-5.63,12.49-8.75,25.69-10.7,39.15-5,34.76-4.24,69.76-3.81,104.72.11,9.74,1.37,19.48.7,29.23-.27,4.07-.5,8.21-1.87,12.14.57-6.68-3.53-12-5.67-17.76-7.15-19.29-14.45-38.52-20.83-58.08a366.23,366.23,0,0,1-14.44-59.74,56.44,56.44,0,0,1-.15-7.48c-1.14-1.51.23-3.51-1-5l0-11a27.07,27.07,0,0,1,0-11c0-3.33,0-6.67,0-10,1.28-1.84-.24-4.15,1-6,1.13-19.93,6.62-38.81,14.13-57.14,8.55-20.89,20.56-39.76,34.33-57.55a28.22,28.22,0,0,1,3.64-3.33c2.55,12.72,4.56,25.56,8,38.09,1.58,1.17,1.61,2.85,1.36,4.51-1.21,8.21-3.19,16.27-4.63,24.43a6,6,0,0,1-1.78,3c-.06.32-.13.64-.18,1-.6,3.71-2.56,7.93-1.42,11C274.05,665,279.34,663.35,282.52,664.93Z"/><path class="cls-3" d="M1140.39,558.92c-6.71-18.67-11.7-37.85-17.1-56.91-.71-2.51-.87-5.26-2.93-7.22a6.67,6.67,0,0,0-1.15-4.94,4.1,4.1,0,0,1-.78-3c0-.67-.07-1.33-.11-2a115.75,115.75,0,0,1,19.07-10.81c-7.2,1.29-15.7,2.62-24.05,4.76-8.8-11.64-13.83-25-17.94-38.84-2.15-7.24-4.67-14.39-5.23-22,4.65-3.73,10.49-4.91,15.77-7.27,9.27-4.15,18.75-7.83,28.15-11.7,1.68-.69,3.39-1.61,5.14-.1q12.11,26.76,24.24,53.51c.75,1.64,1.77,3.15,2.66,4.72a1.11,1.11,0,0,1,.29,1.76l4.73,10.09a333.48,333.48,0,0,1,10.09,44.61c1.74,11.77,1.76,23.14-5.62,33.42-7.54,10.5-17.52,15.38-30.43,14.22A6.79,6.79,0,0,1,1140.39,558.92Z"/><path class="cls-1" d="M145.41,825.83c-1.31,1.52-3.09,1-4.68,1-45.4,0-90.8,0-136.2.1-4,0-5.23-.86-4.16-4.93,3.7-13.94,6.69-28.13,17.34-39a12.71,12.71,0,0,1,8.7-4.16,6.06,6.06,0,0,1,5,0c5.78,1.87,8.49,6.59,10.83,11.64.93,2,1.85,4.27,4.47,4s3.85-2.33,4.62-4.69C55.44,777,59.43,764.08,67.42,753c3.76-5.2,7.92-10.37,14.66-12.15,8.3-2.2,14.72.59,18.42,8.35a50.22,50.22,0,0,1,4.91,19.61c1.21,1.86-.3,4.16,1,6q0,9,0,18a5.52,5.52,0,0,0,0,5c2.37,4.1,4.17,1.33,5.76-.61,3.86-4.74,7.47-9.72,14.25-10.43a8.47,8.47,0,0,1,6,0c6.23,1.06,8.84,5.83,10.8,11,1.09,2.88,1.5,6,2.22,9A77.76,77.76,0,0,1,145.41,825.83Z"/><path class="cls-1" d="M906.34,318.88c0,2.15-.09,4.31,0,6.46.07,1.9-.73,4.39,1.75,5.18s3.8-1.57,5-3.25a25.21,25.21,0,0,1,7.28-7.34c10.12-6.24,20.64-1.82,23.8,9.87,2.31,8.56,2.37,17.31,2.17,26.07-1,1.87-2.8,1.49-4.42,1.5H803.22a4.57,4.57,0,0,1-2.9-.49c2.68-15.44,5.86-30.74,17.21-42.61,7.91-8.28,17.28-6.91,23,3,.65,1.16,1.23,2.37,1.81,3.56,1,2.11,1.84,4.34,4.93,4s3.89-2.7,4.64-5.11a175.64,175.64,0,0,1,10-26,63.41,63.41,0,0,1,13.43-18.39c7.87-7.4,19.68-5.92,25,3.43,3,5.27,4.18,11.13,5.08,17.06,1.15,1.5-.23,3.5,1,5l0,9A18.68,18.68,0,0,1,906.34,318.88Z"/><path class="cls-1" d="M1646.24,579.87v9a25.25,25.25,0,0,0,0,11c2.31,1.92,3.67.79,5.2-1.27a39.39,39.39,0,0,1,8.52-8.92,14.44,14.44,0,0,1,21.85,5.77,35.18,35.18,0,0,1,3.44,13.43,55.92,55.92,0,0,1,0,16l0,2c-1.56.88-3.26.47-4.89.47q-67.66,0-135.34-.08c-1.63,0-5,2-4.78-2.38,1.89-14.55,6.27-28.25,15.5-39.8,7.57-9.48,19.13-7.79,24.62,3l1.34,2.68c1.08,2.1,2.15,4.38,5.06,4s3.84-2.44,4.6-5.1c4-13.94,9.23-27.33,18-39.11,6.69-9,16.87-12.31,24.64-7.78,5.34,3.12,7.34,8.63,8.83,14,1.28,4.54,2.57,9.27,2.42,14.14C1646.53,573.77,1644.9,577,1646.24,579.87Z"/><path class="cls-4" d="M583.19,439c-14-9.3-29.18-15.89-45.88-18.6a113.71,113.71,0,0,0-20.86-1.56c-1.69.05-3.68.92-5.14-.84q1.7-3.48,3.37-7c-.12-1.18.89-1.53,1.55-2.14,7.16-13.23,14.55-26.34,21.41-39.73,4.91-9.57,9.11-19.49,13.62-29.26a1.47,1.47,0,0,1,0-2c2.82-2.29,3-5.86,4.34-8.88-.43-2.05.69-3.57,1.73-5.12l.94-.87a40.59,40.59,0,0,0,8,5c16.46,7.93,32.61,16.46,48.59,25.31,2.86,1.59,6.05,2.83,8.08,5.65.92,2.2.23,4.28-.55,6.31-9.23,24-19.77,47.33-33.09,69.34C588,436.75,587.18,440.26,583.19,439Z"/><path class="cls-5" d="M184.41,957.63c-3.77-.52-6.53,1.1-9.34,3.58-10.35,9.15-15.81,21.16-20.5,33.69-11.09,14.91-19.39,31.36-26.9,48.27a67.77,67.77,0,0,1-9.57,15.18c-7.63,9.34-17.69,11.18-28.87,9.2A13,13,0,0,1,80.6,1062a37.34,37.34,0,0,1-1.69-24.45c8.64-32.21,21.65-62.44,42.56-88.81a81.76,81.76,0,0,1,10.44-10.69c11.35-9.87,24-11.27,37.55-5.26a98,98,0,0,1,10.84,19.64A9.77,9.77,0,0,0,184.41,957.63Z"/><path class="cls-2" d="M1238.18,473.87c-2.75-19.86-1.23-37.45,25.13-41.23,1.67-.66,3.54.25,5.17-.69l5.67,0c1.59,1,3.45.07,5.09.69a63.81,63.81,0,0,1,26.92,12.31c2.74.87,5,2.26,6,5.16,2.39,2.6,4.07,5.83,7,8,2.94,1,4.22,3.69,5.78,6,9.15,13.49,15.64,28.28,20.48,43.76,4.23,13.5,7.64,27.26,11.29,40.94,2,8,3.86,16,4.36,24.3.14,2.32.32,4.61-.63,6.82-3,5.62-8.4,8.79-13.08,12.65-2.05,1.69-7.88-.14-10.44-2.67s-.69-4.55.35-6.74a32.06,32.06,0,0,1,1.76-3c3.19-5,5.64-10.06,2-16.06-1.08-1.77-1.11-4.13-1.13-6.3a96.42,96.42,0,0,1,2.78-28.22c.74-2.83,0-5.14-1.7-7.46-7.62-10.73-18.22-17.36-30.22-22a103.18,103.18,0,0,0-31.18-6.4c-6.78-.43-12.31,2.49-16.32,8a121,121,0,0,0-8.76,13.33c-2.75,5.17-2.75,5.17,2.4,8.81,6,4.28,6.49,5.65,3.58,11.21-2.67.64-4.28-1.3-6-2.64-2.76-2.12-6.17-3.07-8.88-5.24a5,5,0,0,1-.84-5.56c1.26-3.26,1.59-6.78,2.87-10,1.13-2.85.7-5.38-.52-8.1-3.33-7.38-6.62-14.79-8.51-22.72C1238,478.46,1237.43,476.2,1238.18,473.87Z"/><path class="cls-1" d="M1238.18,473.87a154.06,154.06,0,0,0,11.54,32.07,4.1,4.1,0,0,1-.26,4.19c-2.2,4.06-1,9.14-4,13-.86,1.1.44,2.47,1,3.63.79,2-.15,3.91-.64,5.79-1.18,4.47-2.34,8.93-2.19,13.62.09,3.09-1.19,5.78-2.79,8.33a77.07,77.07,0,0,0-5.58,11,75.14,75.14,0,0,0-3.49,23.11c0,2.45.46,5.05-1.39,7.16-3.47.42-3.94-2.61-4.83-4.64-4.42-10-9.67-19.7-14-29.78-1.29-2.91-2.75-5.74-4.25-8.55-8.67-20.61-18.15-40.86-27.16-61.32-.77-1.75-2.23-3.43-1-5.56C1198.9,482.26,1218.69,478.81,1238.18,473.87Z"/><path class="cls-6" d="M1355.5,548.75c-6.07-19.94-10-40.54-18.52-59.73a177.83,177.83,0,0,0-17.78-31l1.13-.4a51.48,51.48,0,0,1,10.89,0,89.81,89.81,0,0,1,32,9.3c5.6,4,11.4,7.67,15.87,13,1.92,4.4,4.44,8.48,5.93,13.12,6.71,20.91.82,38.17-17.66,50.2C1363.71,545.6,1360.58,549.36,1355.5,548.75Z"/><path class="cls-7" d="M1492.12,1341.07c2,6.06,4,12.15,6.12,18.17,2.64,7.41,3.48,15.19,4.89,22.83.41,2.26,1,4.49,1.31,6.77.79,1.6-.27,3.49.78,5.06l.3,6a89.92,89.92,0,0,1,0,14.86c-1.85,9.84-5.83,18.35-14.65,24a18.06,18.06,0,0,1-8.6,3c-2-2.44-1.47-5.38-1.41-8.14a303.83,303.83,0,0,0-4.44-61c-2.86-15.94-9.41-30-21.32-41.33-1-.91-2-1.81-2-3.3,1.31-1.67,3.22-1.63,5-1.53,11.63.62,22.48,3.74,32.25,10.25C1491.77,1337.78,1491.82,1339.47,1492.12,1341.07Z"/><path class="cls-8" d="M1459.29,840.85c-3.69,6.25-8.31,11.89-11.4,18.56-5.44,11.77-9,23.79-8.79,37,.1,5.81,1.93,10.57,5.73,14.39,16.22,16.28,35,28.45,57.48,34.23a33.47,33.47,0,0,0,24.16-3c15.42-7.85,28.37-19,40.88-30.71,1.28-1.2,2-3.82,4.74-2.56a94.18,94.18,0,0,0-9.91,11.93c-.36,1-.67,2-2,2q-10.12,10.49-20.24,21a1.57,1.57,0,0,1-1.78,1.05,70,70,0,0,1-18.69,11.77,8.25,8.25,0,0,1-5.58.34,291.29,291.29,0,0,1-34.67-11c-18.08-7.67-35.27-16.89-50.79-29A36.36,36.36,0,0,1,1414.36,904c-1.17-2.43.09-4.56.93-6.67,6.4-16,14.58-30.9,26.13-43.83a82.92,82.92,0,0,1,13-11.56C1455.79,840.94,1457.27,839.39,1459.29,840.85Z"/><path class="cls-3" d="M1102.33,261.2c11,11,9.64,25.13,10,38.83.05,1.71-.37,3.43-2.2,4.11s-3.17-.45-4.36-1.66c-.64-.67-1.2-1.42-1.93-2.28-1.65,3.83,1.59,9.09-3.35,10.84-3.45,1.22-4.64-3-6.64-4.93-.95.13-.89.86-1,1.45-.57,2.16,0,5.27-2.89,5.78s-4.33-2.12-5.67-4.17-2.31-4.34-3.47-6.58c-1.12,1-.42,2.22-.78,3.24-.64,1.79-.25,4.38-2.75,4.84-2.79.52-4.12-1.72-5.23-3.78-2.63-4.87-3.72-10.29-5.34-15.51-2.85-9.21-5.33-12.59-17.51-10.45a8.19,8.19,0,0,1-.06-5,17.49,17.49,0,0,1,2.34-6c.29-.89.71-1.59,1.84-1.18a73,73,0,0,1,22-9,42.92,42.92,0,0,0,6.12-3.82c5.84-3,11-1.43,15.84,2.34A41.47,41.47,0,0,0,1102.33,261.2Z"/><path class="cls-2" d="M1396.31,1223.8c2.11-5.69,6.34-7.44,12.17-7.23,11.92.45,21.85,5.63,30.67,12.91a148.66,148.66,0,0,0,43.2,25.36c7.43,2.75,13.62,7.62,19.79,12.41a304.91,304.91,0,0,1,42.11,39.56c3.39,4.63,7.12,9,10.08,13.92,5.67,9.33,7.88,19.24,4.08,30.06-.79,2.25-3.37,3.29-3.2,5.89-.82,1-1.6,2-3.09,1.78-5.52,1.88-11.09,3.21-16.91,1.43-.41-1.43.7-1.72,1.62-2.14a55,55,0,0,0,6.71-1.47c6.28-2.18,9.06-7.32,7.8-14.4-4.13-17-13.46-30.7-26.66-41.82-20.18-17-41.66-32.09-65.36-43.93-10.61-5.3-19.86-12.82-29.19-20.09-8.77-6.83-18.06-11.94-29.69-11C1399,1225.18,1397.41,1225.12,1396.31,1223.8Z"/><path class="cls-9" d="M583.19,439c4.9-1.84,6-6.8,8.26-10.62,11.73-20.1,21.09-41.35,29.56-63,.78-2,1.66-4,1.28-6.27,2.05-1.14,3.37.59,4.82,1.39,4.15,2.28,7.92,5.19,12.09,7.46-3.78,15.66-9.07,30.87-14.47,46-2.16,6-5.17,11.81-7.42,17.86l-13.19,26C597.83,450.8,590.54,444.85,583.19,439Z"/><path class="cls-8" d="M1179.15,486q13.35,30,26.67,60c1,2.26,1.78,4.63,2.67,6.94-.58,1.64-2.06,2.11-3.46,2.57-18.8,6.09-34.8,17.08-50.42,28.75-1.47,1.1-2.65,3.2-5.09,2.29q-4.56-13.79-9.13-27.56c20.38,5.19,36.08-8.08,39.79-26.31,2.12-10.4-.58-20.72-2.54-30.9-1.92-9.93-4.46-19.73-6.78-29.57-.27-1.15-.88-2.21.29-3.17q2.92,6,5.87,12a2.81,2.81,0,0,1,1.43,3.86C1178.69,485.2,1178.92,485.58,1179.15,486Z"/><path class="cls-10" d="M1552.35,1341.63c2.25,7.78-1.43,14.39-9.12,16.2-1.91.45-3.9.61-5.85.91-2-1.06-4.25.8-6.28-.36a17.81,17.81,0,0,0-4.69-.86c-9.15-2.44-16.41-8.52-24.62-12.77-2.87-1.49-5.54-3.38-8.3-5.09-1.22-.22-2-1.14-3-1.8-11.56-6.4-23.71-10.62-37.15-10.11-3.36,1.36-6.82.21-10.22.39-7.39-1.34-15-.5-22.34-2-5.33-1.07-11-1.39-14.6-6.41q-2.45-11-4.87-22c1.3-.44,2.27.25,3.18,1,15.32,12.21,33.3,16.06,52.31,16.61,2.83.09,5.68-.12,8.5.11s4.31-1.1,5-3.76c.79-3.24,1.21-6.56,2.13-9.76.36-1.26.7-2.9,2.18-3.06,1.84-.21,2.38,1.59,2.9,2.93a31.31,31.31,0,0,1,2.2,11.72c0,2.22.08,4.55,2.48,5.56,12.46,5.23,21.87,15.17,33.54,21.63,8.33,4.62,17,7.29,26.7,6.85C1547.16,1347.38,1550.77,1346.55,1552.35,1341.63Z"/><path class="cls-2" d="M169.46,932.81c-1,2.18-2.27.5-3.26.12-13.49-5.11-25-1.82-35.22,7.88-14,13.27-23.7,29.42-31.87,46.63-7.7,16.21-14.88,32.64-18.82,50.25-1.82,8.13-1,16.17,1.21,24.12a58.49,58.49,0,0,1,3.29,7.25c3.78,10,13,14.92,23.56,12.88,3-.57,5.82-2.8,9.09-1.12C104.06,1095.69,84,1091.73,77,1073c-2.59-6.9-4.57-13.83-4.83-21.21a50.28,50.28,0,0,1,0-12c.55-16.16,7.87-30.1,14.57-44.23a379.33,379.33,0,0,1,26.11-46.19C121.08,937,130.8,926,146.41,922.66a24.54,24.54,0,0,1,7.93-.09C160.9,923.74,165.5,927.81,169.46,932.81Z"/><path class="cls-8" d="M606.3,334.93c6.93-6.31,9.78-14.93,12.54-23.37,6.48-19.79,8.67-40.27,9.65-61,.89-19,2-38.05,1.9-57.12a8.41,8.41,0,0,1,.67-2.31c2.77,4.92,2.62,10.49,3.46,15.83,1.21,1.53.15,3.41.8,5,.07,1.33.14,2.67.22,4,.76,1.6-.29,3.48.76,5l.24,5c.71,1.66-.2,3.54.72,5.17q.12,3.92.26,7.82c.81,2-.26,4.21.74,6.18-2,2.37.13,4.75.08,7.14-.26,10.79-.09,21.6-.08,32.4-1.06,2.64.09,5.47-.69,8.14a411.14,411.14,0,0,1-5.8,41.22c-.79,4-2.56,7.7-2.66,11.83a44.69,44.69,0,0,1-22.85-10.45C606.19,335.35,606.29,335.09,606.3,334.93Z"/><path class="cls-10" d="M117.44,1080.82c-3.51,1-7,2.28-10.55,2.84-13.21,2.08-23.14-6.56-25.39-21.85,7.65,8.25,27.67,7,36.23-4.92a118.06,118.06,0,0,0,11.75-20.7c6.22-14,13-27.65,22.73-39.56a11.59,11.59,0,0,1,2.36-1.73c-.85,3.15-1.39,6.43-2.62,9.43-2.28,5.6-2.3,10.51,2.79,14.61.43.36.51,1.15.76,1.74-8.87,15.11-19.38,29.22-27.21,45C125.53,1071.22,122.24,1076.61,117.44,1080.82Z"/><path class="cls-11" d="M1389.28,1326.29c3.33-2.3,7.19-3.22,11-4.3a92.22,92.22,0,0,0,28.49,25.36c15.44,8.77,22.23,23.76,27.36,39.72a154.05,154.05,0,0,1,4,15.48c2.31,11.15,6.65,21.25,15.88,28.61.91,3.08.81,6-1.56,8.43-7.2-4.55-11.67-11.29-15.23-18.82-8-17-14-35-24.75-50.68-5-7.24-10.66-13.92-19.14-17.4a3.75,3.75,0,0,1-3.9-2c-4.28-4.53-10-7.33-14-12.24C1394.29,1334.65,1391,1331,1389.28,1326.29Z"/><path class="cls-2" d="M606.3,334.93a194.8,194.8,0,0,0,22.81,10.93c3.06,2.66,6.89,4,10.49,5.56,2.61,1.14,3.08,2.4,2.48,4.78-1,3.9-1.93,7.82-2.88,11.74-1.85,1.24-3-.24-4.38-1.07l-12.53-7.78c-19.38-11.37-39.41-21.51-59.51-31.51-2-1-4.66-1.41-4.48-4.56l0-1.13c-.34-.2-.46-.41-.38-.65s.19-.36.29-.36l3.12-7.11c.56-.39.95-.26,1.17.38C577.05,321.23,591.46,328.54,606.3,334.93Z"/><path class="cls-2" d="M1474.43,1439.59c.22-2.95,1.22-5.83.72-8.84-1.75-2.15-1.34-4.73-1.31-7.18.15-14-1.25-27.82-3-41.68-1.94-15.75-8.75-29.12-18.43-41.31-2.38-3-4.85-5.91-7.13-9-1-1.41-2.64-2.66-2-4.8,3.37,0,6.8-.47,10,1,13.82,11.7,21.36,27,24.51,44.45a314.16,314.16,0,0,1,4.36,69.5A9.94,9.94,0,0,1,1474.43,1439.59Z"/><path class="cls-8" d="M1139.23,398.89c-7.58,2-14.48,5.66-21.76,8.41-9.13,3.46-17.78,8.18-27.3,10.66-1.31-1.83-.15-4.48-2-6.11a2.63,2.63,0,0,1,.14-3l-1.1-3c.73-2.15,2.89-2.09,4.49-2.69,14.4-5.44,28.84-10.77,43.27-16.12C1135.44,391.34,1138.33,394.75,1139.23,398.89Z"/><path class="cls-12" d="M996.52,301.8q11.9,31.4,23.77,62.81c5.85,15.54,11.59,31.12,17.42,46.67.73,1.94,1.68,3.48-1.29,4.62s-3.28-1-3.94-2.73q-18.59-49.93-37.15-99.88c-.57-1.53-1.35-3-2-4.47C993.19,305.93,994.74,303.81,996.52,301.8Z"/><path class="cls-13" d="M500.42,362.81c-2.85,2.34-6.42.36-9.54,1.68-3.32,1.41-6.94,2.12-10.35,3.35-3.19,1.16-6.27,2.61-10.43,4.37,3.29-6.76,7.8-10.6,13.06-13.71s5.38-4.41,1.36-9c-2.82-3.23-5.36-6.71-8.07-10-1.94-2.38-1-4.65.11-7,3.52-4.33,7.88-7.13,13.59-7.47,1.35,4.93,3,9.8,3.46,14.93.73,3-.42,6.09.69,9C495.59,354,499.91,357.54,500.42,362.81Z"/><path class="cls-13" d="M1510.31,871.75c.31,1.11,1,2.27.87,3.33a102.31,102.31,0,0,0-.11,27.86c-6.76-4.29-8.25-11.13-8.72-18.14-.45-6.64-.09-13.32-.09-20l4.93,3.22C1509.22,868.45,1510.53,869.45,1510.31,871.75Z"/><path class="cls-14" d="M379.34,415.93c3.75-.24,7.44,2.11,11.26.2.33-.16,1.39.37,1.58.8,3.7,8.55,9.91,15.6,14.16,23.82-3.6.43-5.64-2.44-7.7-4.34-6-5.56-11.53-11.65-17.25-17.53-.69-.63-1.87-.8-1.91-2A3.14,3.14,0,0,1,379.34,415.93Z"/><path class="cls-13" d="M575.61,224.89a5.9,5.9,0,0,1,3.15-2.14c5.94-1.45,12-2.6,17.58-5.3.74-.36,1.58-.73,2.31-.06s.16,1.14-.1,1.76c-2.81,6.52-18.56,14.53-24.94,11.74C574.71,229,574,226.59,575.61,224.89Z"/><path class="cls-15" d="M1113.34,478.81c4.89-4.09,11.13-3.77,16.86-4.76,2.9-.5,5.93-2.05,9.91-.52-7.73,3.83-13.81,9.3-21.79,11.33C1115.61,483.71,1114.29,481.42,1113.34,478.81Z"/><path class="cls-16" d="M1540.23,624.87c.84,3.24,3.5,1.94,5.38,1.94q69.81.11,139.63.05c-1.48,1.61-3.43,1-5.18,1q-67.85.06-135.68-.08C1542.9,627.75,1538.55,630.1,1540.23,624.87Z"/><path class="cls-16" d="M800.32,356.88l140.19,0c2,0,4,.12,5.8-1-.37,2.46-2.29,2-3.88,2q-69.21,0-138.42,0C802.7,357.88,801.31,358.12,800.32,356.88Z"/><path class="cls-17" d="M490.15,325.05c-4.94,1.74-9.18,4.77-13.59,7.47-1.57-6.25-1.26-6.74,6.92-11.2a11.86,11.86,0,0,1,5.63-1.79C491.87,320.91,491.75,322.84,490.15,325.05Z"/><path class="cls-18" d="M1671.22,718.79q5.41-14.5,10.84-29c1.33.74,1.66,2.18,2.36,3.36q-6.14,13.85-12.26,27.69C1670.3,720.86,1670.69,719.86,1671.22,718.79Z"/><path class="cls-18" d="M1688.53,723.93c-2.82,5.48-4.06,11.8-9,16.22a54.19,54.19,0,0,1,6.58-16.47C1686.81,724.88,1687.72,723.92,1688.53,723.93Z"/><path class="cls-18" d="M564.14,83l-6.71-9.1C563,72.76,565.94,76.73,564.14,83Z"/><path class="cls-16" d="M1077.31,498.88c-1.15,1.34-2.72,1-4.16,1q-13.35,0-26.7,0c-1.44,0-3,.37-4.16-1Z"/><path class="cls-19" d="M270.33,967.87c-3.89-5-4.1-11.18-5.29-17.08l6.27,16.09Z"/><path class="cls-16" d="M646.33,433.86c-8.08,0-16.16,0-24.24,0-1.57,0-3.35.63-4.61-1,8.07,0,16.14,0,24.21,0C643.27,432.91,645,432.39,646.33,433.86Z"/><path class="cls-16" d="M270.19,539.89l0,26A83.34,83.34,0,0,1,270.19,539.89Z"/><path class="cls-20" d="M506.27,80c1.76-3.69,6.08-.93,8.46-3.35-1.45,2.7-3.91,4-6.42,5.27Z"/><path class="cls-16" d="M1612.27,1249.79v-24A59.77,59.77,0,0,1,1612.27,1249.79Z"/><path class="cls-21" d="M543.45,54.76c-.65,3.45-3.14,4.49-7.3,5.41,2.63-3,3.44-5.89,6.22-7.27Z"/><path class="cls-18" d="M1510.31,871.75l-3.12-3.71a2.81,2.81,0,0,1,3.21-2.84c2.68.36.13,2.26.66,3.3a7.58,7.58,0,0,0,1.24,1.43A3,3,0,0,1,1510.31,871.75Z"/><path class="cls-16" d="M145.41,825.83q0-9.48,0-19A38.71,38.71,0,0,1,145.41,825.83Z"/><path class="cls-16" d="M1685.26,624.85v-16A27.2,27.2,0,0,1,1685.26,624.85Z"/><path class="cls-18" d="M609.27,151.07c-.66-1-1.31-2-2-3,.77-5.8,4.12,1.15,5.56-1.47C612.2,148.74,609.19,148.55,609.27,151.07Z"/><path class="cls-16" d="M1505.47,1414.73q0-7.44,0-14.86A29.57,29.57,0,0,1,1505.47,1414.73Z"/><path class="cls-18" d="M1498.21,860.93l-2-1.86a10,10,0,0,1,.49-1.92c.4-.84.67-2.17,1.93-1.87,1.76.43,1,1.82.67,2.86A28.53,28.53,0,0,1,1498.21,860.93Z"/><path class="cls-18" d="M486.49,275.24,482.32,278c0-2.25-.46-4.28,1.05-6.06A6.35,6.35,0,0,1,486.49,275.24Z"/><path class="cls-18" d="M1411.41,1350.71a6.29,6.29,0,0,1,3.9,2c-.65,1.23-1.45,2.53-3,1.42C1411.28,1353.37,1409.39,1352.44,1411.41,1350.71Z"/><path class="cls-16" d="M1595.05,736.94v13.82A25.54,25.54,0,0,1,1595.05,736.94Z"/><path class="cls-18" d="M1039.3,423l7-2.9C1044.24,423.55,1041.4,424.73,1039.3,423Z"/><path class="cls-18" d="M1081.42,255.94c-1.57,2-2.6,4.91-6.12,3.82C1076.32,256.86,1079,256.54,1081.42,255.94Z"/><path class="cls-16" d="M420.85,214c-1.62,4.22.33,8.83-1.44,13C420.08,222.7,417.71,218,420.85,214Z"/><path class="cls-22" d="M511.36,1444.8c4.32.52,8.8-1.15,13,1C520.05,1445.24,515.56,1447,511.36,1444.8Z"/><path class="cls-18" d="M1312.2,450.08l-6-5.16C1309.49,445.11,1312.5,445.66,1312.2,450.08Z"/><path class="cls-16" d="M72.18,1039.85l0,12A18.86,18.86,0,0,1,72.18,1039.85Z"/><path class="cls-18" d="M1053.3,268.79l-1.84,1.18c-.82-1.61,1.24-3.68-1.54-5.12C1054,264.51,1053.85,266.52,1053.3,268.79Z"/><path class="cls-18" d="M1117,490.79a1.52,1.52,0,0,1-2.26.68,2.05,2.05,0,0,1-1.23-2.41,1,1,0,0,1,1.5-.64A3.75,3.75,0,0,1,1117,490.79Z"/><path class="cls-22" d="M545.34,1445.78c3.86-2,8-.51,12-1C553.47,1446.84,549.32,1445.29,545.34,1445.78Z"/><path class="cls-23" d="M1530.26,1357.81c2.39.17,4.86-.28,7.12.93a2.4,2.4,0,0,0-2.17,1.15c-1.63-.41-3.55.29-4.88-1.26-.26-.16-.36-.33-.3-.53S1530.18,1357.81,1530.26,1357.81Z"/><path class="cls-16" d="M1646.25,599.86a13.19,13.19,0,0,1,0-11Q1646.24,594.36,1646.25,599.86Z"/><path class="cls-16" d="M1507.28,650.85v-11A13.31,13.31,0,0,1,1507.28,650.85Z"/><path class="cls-16" d="M562.53,314.15l-1.17-.38c3.61-2.08.75-6.21,2.78-8.79C563.69,308.05,565.76,311.56,562.53,314.15Z"/><path class="cls-16" d="M495.54,285.87V274.92A15.75,15.75,0,0,1,495.54,285.87Z"/><path class="cls-22" d="M971.32,1185.83c3.65.47,7.48-1.11,11,1C978.66,1186.3,974.83,1187.91,971.32,1185.83Z"/><path class="cls-16" d="M1331.22,457.61l-10.89,0A16.92,16.92,0,0,1,1331.22,457.61Z"/><path class="cls-16" d="M218.36,713.86v11A13.23,13.23,0,0,1,218.36,713.86Z"/><path class="cls-18" d="M1572.46,908.9l2.77-4.11,2.48,3Z"/><path class="cls-16" d="M483.59,268.86l0-10.94A16.43,16.43,0,0,1,483.59,268.86Z"/><path class="cls-18" d="M251.43,1109.68l3.94,3.21c-.61,1.07-1.25,2-2.57.82S250.2,1111.59,251.43,1109.68Z"/><path class="cls-18" d="M1699.24,709.7l-2,0c.45-1.19-2.09-3.25.51-3.52C1699.9,706,1699,708.39,1699.24,709.7Z"/><path class="cls-16" d="M669.33,434.86c-3.33-.41-6.83,1-10-1C662.65,434.31,666.16,432.86,669.33,434.86Z"/><path class="cls-18" d="M1178.45,484.83c-.47-1.29-1-2.57-1.43-3.86,1.21.07,2.93-.69,3.47.57C1181.11,483,1179.16,483.71,1178.45,484.83Z"/><path class="cls-22" d="M953.3,1186.81c3.17-2,6.67-.58,10-1C960.13,1187.82,956.62,1186.37,953.3,1186.81Z"/><path class="cls-16" d="M906.34,318.88v-9A9.23,9.23,0,0,1,906.34,318.88Z"/><path class="cls-18" d="M551.29,337.89l0,2-3.66,1.65C548.11,339.08,549.34,338.11,551.29,337.89Z"/><path class="cls-16" d="M494.3,349c-1.32-2.93-.77-6-.69-9C495.12,342.9,494.06,346,494.3,349Z"/><path class="cls-16" d="M1646.24,579.87c-1.94-2.82-.58-6-1-9C1647.22,573.7,1645.82,576.88,1646.24,579.87Z"/><path class="cls-18" d="M1666.16,786.7l3-3C1669.1,788,1669.06,788,1666.16,786.7Z"/><path class="cls-22" d="M1046.09,1377.82c-.23,3.1-.47,6.2-.7,9.29C1045.57,1384,1044.54,1380.82,1046.09,1377.82Z"/><path class="cls-16" d="M338.34,335.68H329.4A11,11,0,0,1,338.34,335.68Z"/><path class="cls-18" d="M557.36,323.89a8.18,8.18,0,0,1-1.73,5.12C553.57,326.41,555.78,325.25,557.36,323.89Z"/><path class="cls-18" d="M1607.15,860.68a3.57,3.57,0,0,1,2-3,2.65,2.65,0,0,1-.2,3.4C1608.24,861.88,1607.63,861.4,1607.15,860.68Z"/><path class="cls-18" d="M1523.23,858.75a3.9,3.9,0,0,1-.84.16c-1.7-.92-2.79-2-.38-4C1522.46,856.3,1522.85,857.53,1523.23,858.75Z"/><path class="cls-18" d="M1619.29,847c1.11.08,1.68.4,1.78,1.15s-.42,1.24-1.19,1-1.89.08-1.75-1.14C1618.18,847.5,1619,847.16,1619.29,847Z"/><path class="cls-18" d="M461.31,222c-1-.73-2-1.46-2.95-2.18.5-.85,1-1.84,2.19-1.12S462.1,220.67,461.31,222Z"/><path class="cls-18" d="M408.36,446.71l-3.89.47c0-1.05.2-2,1.45-2.18A1.86,1.86,0,0,1,408.36,446.71Z"/><path class="cls-22" d="M233.38,1218.79c1.94,2.47.59,5.34,1,8C232.41,1224.32,233.79,1221.45,233.38,1218.79Z"/><path class="cls-22" d="M234.35,1191.82c-.38,2.66,1,5.53-1,8C233.79,1197.16,232.41,1194.29,234.35,1191.82Z"/><path class="cls-18" d="M1608.48,783.74c.85,2.2-.71,3.23-2.1,4.34C1604.93,785.59,1606.76,784.69,1608.48,783.74Z"/><path class="cls-16" d="M154.34,922.57l-7.93.09A8.85,8.85,0,0,1,154.34,922.57Z"/><path class="cls-16" d="M482.13,65l0,6.86C481.36,69.55,480,67.26,482.13,65Z"/><path class="cls-16" d="M493.42,77.07c2.7.09,5.49-.63,8.07.79C498.8,77.59,496,78.75,493.42,77.07Z"/><path class="cls-18" d="M518.32,96.92l2,3c-1.08.61-2.3.75-3-.26S517.46,97.65,518.32,96.92Z"/><path class="cls-18" d="M379.48,416.84c1,.32,2,.65,1.91,2-1.21-.28-2.54,1.48-3.43.27S378.55,417.37,379.48,416.84Z"/><path class="cls-16" d="M685.33,435.86c-2.66-.39-5.53,1-8-1C680,435.3,682.86,433.91,685.33,435.86Z"/><path class="cls-18" d="M585.26,114.06a3.59,3.59,0,0,1-2-3c.48-.72,1.08-1.2,1.82-.41A2.64,2.64,0,0,1,585.26,114.06Z"/><path class="cls-16" d="M1095.31,497.88c-2.47,1.94-5.35.59-8,1C1089.77,496.9,1092.65,498.29,1095.31,497.88Z"/><path class="cls-16" d="M637.57,292.81c-.06-2.74-.47-5.51.69-8.14C638.06,287.38,639.11,290.21,637.57,292.81Z"/><path class="cls-22" d="M1106.32,1437l7.94,0A9,9,0,0,1,1106.32,1437Z"/><path class="cls-18" d="M1560.22,922.71l2-2c.74,1.29.77,2.51-.69,3.24C1560.24,924.56,1560.37,923.41,1560.22,922.71Z"/><path class="cls-24" d="M276.27,934.89a7.52,7.52,0,0,1-1.6-4.51c1.81.73,2,2.25,2.66,3.5Z"/><path class="cls-18" d="M1673.5,672c-.34.66-.68,1.32-1,2-.92-.58-2.51-1-1.6-2.42C1671.56,670.5,1672.61,671.8,1673.5,672Z"/><path class="cls-25" d="M1530.26,1357.81a7.56,7.56,0,0,1,.07.82,5.36,5.36,0,0,1-3.92-1.11C1527.78,1356.39,1529.08,1356.35,1530.26,1357.81Z"/><path class="cls-18" d="M1552.12,1358.46a3.53,3.53,0,0,1,3.09-1.78C1554.75,1358.25,1554.93,1361,1552.12,1358.46Z"/><path class="cls-16" d="M1506.28,671.85c.34-2.33-.89-4.89,1-7C1506.89,667.17,1508.15,669.73,1506.28,671.85Z"/><path class="cls-18" d="M1118.43,486.86c1.15.76,1,1.87.78,3-1.12-.81-2.58-1.34-2.53-3.11Z"/><path class="cls-18" d="M1166.42,458.88c-.09-.59-.19-1.18-.29-1.76a1.38,1.38,0,0,1,2.54.44C1169.07,459.4,1167.3,458.6,1166.42,458.88Z"/><path class="cls-22" d="M1045.37,1391.57l.72,7.19C1044.57,1396.49,1045.56,1394,1045.37,1391.57Z"/><path class="cls-16" d="M698.33,436.86c-2.34-.34-4.89.88-7-1C693.65,436.25,696.21,435,698.33,436.86Z"/><path class="cls-18" d="M1698.12,734.74c1.15.22,2.37.39,2.67,1.8a.68.68,0,0,1-.86.86c-1.41-.3-1.57-1.52-1.8-2.67Z"/><path class="cls-18" d="M516.23,408.88c0,1.08-.89,1.53-1.55,2.14-.85-.45-2.21-.83-1.59-2C513.83,407.57,515.17,409.1,516.23,408.88Z"/><path class="cls-18" d="M1538.2,944.72c.32-.81,1-1,1.78-1.05.68.38,1.93,1,1.42,1.58C1540.4,946.41,1539.12,945.91,1538.2,944.72Z"/><path class="cls-16" d="M106.38,774.86c-1.75-1.77-.7-4-1-6C107.17,770.62,106.09,772.85,106.38,774.86Z"/><path class="cls-18" d="M362.4,291l-1.95,2.09c0-1.25-.44-2.76,1.05-3.39C362.18,289.42,362.31,290.41,362.4,291Z"/><path class="cls-16" d="M1107.31,496.88c-1.77,1.75-4,.7-6,1C1103.07,496.09,1105.3,497.18,1107.31,496.88Z"/><path class="cls-16" d="M132.38,786.82h-6A4.62,4.62,0,0,1,132.38,786.82Z"/><path class="cls-16" d="M1612.19,724a5.89,5.89,0,0,1,0-6.22Z"/><path class="cls-18" d="M1601.31,774.71l2,3.12C1598.59,779.37,1601.77,775.88,1601.31,774.71Z"/><path class="cls-18" d="M1628.73,721.23a3.44,3.44,0,0,1-1.17.39c-.53,0-1-.39-.76-1a1.52,1.52,0,0,1,1.17-.57C1628.48,720.08,1628.9,720.41,1628.73,721.23Z"/><path class="cls-16" d="M638.26,245.13c-1.3-1.93-.72-4.09-.74-6.18C639,240.86,638.11,243.06,638.26,245.13Z"/><path class="cls-22" d="M1123.23,1436.76a13.35,13.35,0,0,1,6-.79C1127.42,1437.45,1125.25,1436.54,1123.23,1436.76Z"/><path class="cls-16" d="M565.14,291c0,2,.58,4.14-.76,6C564.58,295,563.68,292.83,565.14,291Z"/><path class="cls-16" d="M709.32,437.86c-2-.27-4.23.77-6-1C705.33,437.18,707.56,436.1,709.32,437.86Z"/><path class="cls-22" d="M497.36,1443.81c2,.26,4.23-.78,6,1C501.36,1444.48,499.13,1445.56,497.36,1443.81Z"/><path class="cls-18" d="M635.35,207.9c1.2.64,2.31,1.45,1.75,3-.29.78-1.08.17-1.65,0A2.24,2.24,0,0,1,635.35,207.9Z"/><path class="cls-16" d="M1032.3,498.85c-2-.27-4.24.78-6-1C1028.29,498.17,1030.52,497.09,1032.3,498.85Z"/><path class="cls-16" d="M1507.25,626.87c-1.75-1.77-.7-4-1-6C1508,622.64,1507,624.87,1507.25,626.87Z"/><path class="cls-18" d="M1088.27,408.89l-.14,3c-.83-.35-2.41-.84-2.37-1C1086,409.58,1087.36,409.48,1088.27,408.89Z"/><path class="cls-18" d="M1683.39,682.85c.32-1.33.65-2.66,1-4C1686.23,680.73,1685.71,682,1683.39,682.85Z"/><path class="cls-18" d="M1603.21,693.86c.29,1.18-.4,2.07-.9,3-.88-.44-2.07-1-1.64-2C1600.92,694.26,1602.33,694.17,1603.21,693.86Z"/><path class="cls-16" d="M219.36,697.86c-.28,2,.78,4.23-1,6C218.68,701.86,217.6,699.63,219.36,697.86Z"/><path class="cls-18" d="M558.24,320.88l.09,1c-1.21-.08-2.57.22-3.31-1.26C556.23,319.14,557.19,320.61,558.24,320.88Z"/><path class="cls-16" d="M1049.12,276l.06,5-.48.11-.4-.27C1048.5,279.15,1047.74,277.38,1049.12,276Z"/><path class="cls-18" d="M407.53,259a7,7,0,0,1-3.11,3.08Q404.44,258.94,407.53,259Z"/><path class="cls-16" d="M1268.48,432l-5.17.69C1264.89,431.33,1266.74,432,1268.48,432Z"/><path class="cls-16" d="M637.26,231.13c-1.09-1.6-.81-3.4-.72-5.17C637.91,227.53,637.17,229.39,637.26,231.13Z"/><path class="cls-16" d="M451.42,223.87a5.72,5.72,0,0,1,.73,4C451.36,226.64,450.41,225.43,451.42,223.87Z"/><path class="cls-16" d="M719.32,438.86c-1.69-.2-3.58.63-5-1C716,438.1,717.91,437.24,719.32,438.86Z"/><path class="cls-16" d="M636.3,221c-1.11-1.55-.85-3.31-.76-5C636.9,217.47,636.16,219.3,636.3,221Z"/><path class="cls-16" d="M1020.3,497.85c-1.7-.19-3.59.63-5-1C1017,497.09,1018.88,496.23,1020.3,497.85Z"/><path class="cls-18" d="M1605.48,789a3.62,3.62,0,0,1-2.22,1.92c-.19-.69-.86-1.4-.24-2.11C1603.86,787.81,1604.67,788.76,1605.48,789Z"/><path class="cls-16" d="M1490.5,1337.86a4.53,4.53,0,0,1,3,1.8l-1.37,1.41Z"/><path class="cls-18" d="M549.58,169.79c1.08.8.71,2,.91,3.08C549.2,172.14,547.44,171.54,549.58,169.79Z"/><path class="cls-16" d="M1351.94,1349.69l5.29-.64C1355.6,1350.35,1353.72,1349.65,1351.94,1349.69Z"/><path class="cls-18" d="M31.38,778.82h-5A3.4,3.4,0,0,1,31.38,778.82Z"/><path class="cls-18" d="M1557.88,1361.05c-.32.45-.49,1-.82,1.1a.86.86,0,0,1-1.25-.87c0-.31.51-.83.86-.9S1557.38,1360.76,1557.88,1361.05Z"/><path class="cls-16" d="M1663.23,670l-4.91-.28C1660,668.5,1661.68,668.28,1663.23,670Z"/><path class="cls-16" d="M1505.28,681.85c.2-1.69-.63-3.59,1-5C1506,678.53,1506.89,680.43,1505.28,681.85Z"/><path class="cls-16" d="M1505.22,1393.9c-1-1.57-.86-3.32-.78-5.06C1505.83,1390.35,1505.08,1392.19,1505.22,1393.9Z"/><path class="cls-16" d="M218.39,735.84c1.6,1.42.77,3.31,1,5C217.74,739.42,218.6,737.52,218.39,735.84Z"/><path class="cls-22" d="M477.36,1441.81c1.69.19,3.59-.64,5,1C480.67,1442.56,478.78,1443.42,477.36,1441.81Z"/><path class="cls-16" d="M509.43,418.91a9.88,9.88,0,0,1-5,.7C505.93,418.36,507.73,419,509.43,418.91Z"/><path class="cls-16" d="M635.35,207.9c0,1,.07,2,.1,3,0,.35-.09.71-.13,1.06-1.12-1.54-.86-3.3-.8-5Z"/><path class="cls-22" d="M486.36,1442.81c1.7.19,3.59-.63,5,1C489.68,1443.56,487.78,1444.42,486.36,1442.81Z"/><path class="cls-22" d="M565.33,1444.78c1.42-1.61,3.31-.78,5-1C568.92,1445.42,567,1444.56,565.33,1444.78Z"/><path class="cls-16" d="M1596.06,724.92c.07,1.73.47,3.52-.76,5.05C1595.43,728.27,1594.68,726.43,1596.06,724.92Z"/><path class="cls-16" d="M1279.24,432.61l-5.09-.69C1275.86,432,1277.68,431.35,1279.24,432.61Z"/><path class="cls-18" d="M106.38,797.86a3.45,3.45,0,0,1,0-5C106.38,794.51,106.38,796.19,106.38,797.86Z"/><path class="cls-16" d="M1615.19,705c-1.2-1.55-.7-3.37-.81-5.09C1615.85,701.42,1615.06,703.28,1615.19,705Z"/><path class="cls-16" d="M1544.42,1305.81c1.32-1.74,3.2-.73,4.83-1C1547.9,1306.41,1546.05,1305.57,1544.42,1305.81Z"/><path class="cls-16" d="M906.31,300.9c-1.61-1.42-.78-3.31-1-5C907,297.31,906.09,299.21,906.31,300.9Z"/><path class="cls-22" d="M988.32,1186.83c1.69.19,3.58-.63,5,1C991.63,1187.58,989.73,1188.44,988.32,1186.83Z"/><path class="cls-16" d="M207.35,967.59a11,11,0,0,1-5.11-.71C204,967,205.79,966.29,207.35,967.59Z"/><path class="cls-6" d="M1056.51,1031.86c12-41.35,23.25-82.89,32.24-125,8-37.73,16.38-75.36,28-112.17,1.11-8.42,4.17-16.3,6.7-24.32,3.19-10.09,7-20,9.8-30.19.56-1.67,1.16-3.33,1.67-5,7.32-19.44,13.82-39.23,24.38-57.28a60.6,60.6,0,0,1,11.6-12.68c2.92-2.29,4-4.52,2.22-7.92a5.51,5.51,0,0,1-.62-3.83c4-6.67,10.81-10.07,17-14.1,12.51-8.13,26.55-12.67,40.72-16.87a2,2,0,0,1,1.86,1.37,32.1,32.1,0,0,0,9.6,14,3,3,0,0,1,1.09,2.61c-3.2,5.6-6.63,10.94-7.55,17.69-2,14.63,3.4,27.19,15.91,35.06a47.26,47.26,0,0,0,27.06,7.3c2.7-.07,6.43-1.13,7.77,1.72s-1.78,5.06-3.42,7.25c-20.36,27.21-31.8,57.78-35,91.58-1.11,11.61-2.21,23.19-1.8,34.85,1.25,35.31,8.45,69.27,23.39,101.44,1.74,3.74,4.86,6.85,5.13,11.25-4.37,16.55-8,33.31-16.09,48.68-16.06,30.67-40.5,51.35-73.8,60.61-42,11.68-81.71,4.61-118.87-17.7C1062,1038.07,1058.1,1036.14,1056.51,1031.86Z"/><path class="cls-4" d="M613.2,585.82c-1.89,5.51.48,10.76,1.2,16,1.78,13.1,4,26.14,6,39.2,6.76,49.2,15.46,98.08,24.72,146.86-.32,10.13-7.56,15.17-15.11,19.43-8.92,5-18.87,7.47-28.94,9-28.47,4.37-56.67,3.66-84.26-5.46-9.94-3.29-18.4-8.94-26.1-16.11-18.16-16.93-32-36.86-42.51-59.23-1.11-2.36-2.79-4.64-1.72-7.52,26.65-19.36,41-46.18,46.55-78,3.31-19.06,1.52-38.1-3-56.87-8-33.24-22.72-63.41-42-91.47-1.11-1.61-2.12-3.3-3.75-5.84h11.39a46,46,0,0,0,45.23-36.95c1.27-6.45.07-11.54-5-20.73,8.95-1,17.55.18,26.11,1.72,14.75,2.66,28.5,7.8,40.51,17a27,27,0,0,1,6.07,5.85,8.58,8.58,0,0,0,1.45,7c3.63,5.66,7.1,11.42,10.63,17.15,11.07,19.89,18.68,41.14,24.9,63,2.19,7.68,4.27,15.38,5.79,23.23C612.14,577.3,613.13,581.49,613.2,585.82Z"/><path class="cls-9" d="M446.48,728.05c11.84,28.41,29,53,53.06,72.37,10.95,8.8,24.41,11.67,37.81,14.39a147.57,147.57,0,0,0,31,2.82c18.9-.19,37.78-1.66,55.66-8.82,10-4,17.82-10.16,21.15-20.88,3.28,16.08,6.49,32.17,9.88,48.23.54,2.54-.17,3.56-2.5,4.3-3.11,1-6.46,1.38-9.21,3.36-10.23,1.45-19.92,5.1-29.9,7.57-28,6.94-56.34,12.7-85,16.19a407.93,407.93,0,0,1-43.2,3c-20.17.29-40-3.1-59.55-8-11.42-2.84-23.07-4.75-34.62-7a8.11,8.11,0,0,0-2.37.25c-4.21-1.43-4.06-4.17-3-7.91,2.11-7.66,3.67-15.48,5.46-23.23.37-1.64.65-3.27-.85-4.57,3-.61,2.49-3.43,2.81-5.25,3.76-21.54,7.9-43,9.4-64.91.13-1.92.28-3.6,2.72-4.05C420.29,743.12,433.77,736.47,446.48,728.05Z"/><path class="cls-26" d="M1056.51,1031.86c19.23,15.49,41.41,24.07,65.59,28,11,1.78,22.12,2.77,33.21,1.91,25.67-2,49.24-9.76,69.7-26,24-19.06,37.46-44.26,44.29-73.59,1-4.5,2.66-8.88,4-13.31,2.53,0,3.1,2.26,4.16,3.81,4.58,6.74,8.89,13.66,14.26,19.84,4.62,5.33,9.66,10.12,15.82,13.59,3.74,2.11,5.51,5,5,9.41a365.7,365.7,0,0,0-1.87,46.33,18.74,18.74,0,0,1-.54,5.43c-1.43,2.67-.77,5.55-.64,8.31.84,16.91,1.67,33.82,2.84,50.7.3,4.22-1.11,5.11-4.9,4.8-4.3-.35-8.63-.18-13-.24-7.3-1.68-14.82-.4-22.15-1.66-1.44.84-2.85,1.08-4.2-.2-41-3.87-81.87-8.78-121.86-19.13-24.21-6.26-47.83-14.12-69.41-27.14a17.25,17.25,0,0,0-2.29-1c-5.46-4.79-11.51-8.84-16.72-14-3.67-3.62-5.45-7.2-2.69-12.09A23.29,23.29,0,0,0,1056.51,1031.86Z"/><path class="cls-5" d="M514.23,1196.84c3.56,18.58,11.93,34.89,23.6,49.6,1.31,1.66,2.33,3.67,4.51,4.46-9.57,6.45-13.86,16.3-16.75,26.82-5.82,21.13-6.79,42.8-6.07,64.55.39,11.88,3,23.63,2.71,35.58-1.63,1.51-3.69,1.6-5.65,1.31-11-1.6-20-6.24-24.75-16.91-5.56-12.52-6.63-26-8-39.4s-.65-26.54,0-39.82c.47-9.22-1.07-18.24-3.28-27.15-1.84-7.43-3.73-14.84-5.07-22.38-3.14-17.62,5-31,22.3-35.72C503.08,1196.34,508.6,1194.32,514.23,1196.84Z"/><path class="cls-2" d="M1230.69,623.4c-3,2.07-6.54,2.29-9.83,3.34-17.78,5.66-34.16,13.76-47.76,26.83-3,5.8-8.6,9.47-12.22,14.78-1,1.49-2.23,2.86-3.19,4.41-12.55,17.79-18.8,37.87-21.55,59.23-1.06,2.45-1.09,5.11-1.57,7.68-2.78,11.84-7.3,23.14-10.93,34.71-2.14,6.81-4.55,13.54-6.84,20.31-5.7-35.89-5-71.27,8.44-105.63,5.62-14.37,13.67-27.31,23.16-39.4a10.26,10.26,0,0,1,3.19-5.37c4.63-4.42,8.9-9.21,13.73-13.43a164.67,164.67,0,0,1,53.42-30.07,40.86,40.86,0,0,1,7.21-1.87c2-.27,4-.47,5.23,1.76a10.88,10.88,0,0,1,.23,6.76C1229.94,612.73,1232.18,618.15,1230.69,623.4Z"/><path class="cls-10" d="M514.23,1196.84c-9,.7-17.87,1.49-25.76,6.48-9.3,5.88-13.89,17.7-11.8,29.1,2.34,12.72,6.58,25,8.1,37.89a90.2,90.2,0,0,1,.24,22.38c-1.6,12,0,23.87.87,35.73a161.32,161.32,0,0,0,4.11,24.42c3.59,15.73,14.54,25.46,32.24,25,.47,6.05-.47,11.77-3.84,17-16.6-.94-27.51-9.34-33.39-24.88-7.83-20.66-15-41.71-15.4-63.83-.48-26.33-6.85-51.37-12.85-76.6-4-16.63.23-31.61,8.52-45.88a252.11,252.11,0,0,1,40.38-3.87c2.49-.06,5,0,7.48-.07Q513.67,1188.27,514.23,1196.84Z"/><path class="cls-2" d="M465.27,1183.61c1.52,1.87-.42,3.06-1,4.33-7.17,14.53-9.55,29.26-5.14,45.39,5.6,20.51,11.1,41.24,11.37,62.67.27,20.56,4.81,40.14,10.87,59.54a157.06,157.06,0,0,0,7.62,19.49c5,10.66,13.7,15.84,24.82,17.92,1.58.3,3.87-.67,4.63,1.85-3.57,3.85-7.92,3.66-12.44,2.33-12.11-3.58-20.1-11.74-25.61-22.81-8.82-17.74-13.94-36.68-16.8-56.07-4.22-28.57-8.43-57.11-13.65-85.52-2-10.76-2.47-21.8.37-32.65C452.39,1191.94,457,1186.12,465.27,1183.61Z"/><path class="cls-2" d="M1149.52,586.48c14.36-11.1,29.06-21.65,45.92-28.72,4.28-1.79,8.69-3.27,13-4.89a32.59,32.59,0,0,1,4.06,8.32c-2,3.64-5.81,4.69-9.09,6.45-16.32,8.8-32.44,17.94-47.39,29a118.1,118.1,0,0,0-11.17,8.81c-1.13,1.08-2.3,2.48-4.24,1.6C1139,598.2,1141.64,591.2,1149.52,586.48Z"/><path class="cls-26" d="M1140.66,607l14.6-11.23a4.4,4.4,0,0,1,1.85,2.85c2.48,10.14,5.62,20.1,8.44,30.15a4.35,4.35,0,0,1-.16,3.39l-17,17.48A158.67,158.67,0,0,1,1140.66,607Z"/><path class="cls-27" d="M735.3,1090.52c-.15,1.46.37,3.91-2.18,4s-1.64-2.39-1.69-3.83c-.09-2.17-.12-4.29-1.23-6.26-.75-1.34,0-2.32,1.14-2.81s1.73.59,2.12,1.5A16.68,16.68,0,0,1,735.3,1090.52Z"/><path class="cls-28" d="M273.28,1029.3c-.32,1.4-.88,2.41-2.39,1.68-3.13-1.5-6.22-3.08-9.29-4.7a1.49,1.49,0,0,1-.7-2.1c.42-.82,1.16-1.38,2-1,3.28,1.57,6.51,3.24,9.72,4.94C273,1028.32,273.08,1028.94,273.28,1029.3Z"/><path class="cls-29" d="M384.42,979.94c.38-3.12.68-5.9,1.09-8.67.18-1.22.77-2.31,2.26-2a1.87,1.87,0,0,1,1.41,2.3c-.45,2.92-.95,5.83-1.54,8.72-.22,1.06-.37,2.55-2.06,2.16S384.5,980.67,384.42,979.94Z"/><path class="cls-30" d="M567.24,958.58a4,4,0,0,1,0,.49,1.93,1.93,0,0,1-2.59,1.63c-3.36-.84-6.68,2.29-9.91.07-.68-.47-.06-1.66.8-2A26.2,26.2,0,0,1,565.67,957,1.54,1.54,0,0,1,567.24,958.58Z"/><path class="cls-31" d="M349.79,1083.14c0-1.12.95-1.33,1.5-1.88,1.76-1.73,3.48-3.5,5.24-5.23.82-.8,1.22-2.8,3-1.31,1.45,1.25.33,2.57-.43,3.46a52.55,52.55,0,0,1-5.85,6C351.84,1085.34,350.46,1084.89,349.79,1083.14Z"/><path class="cls-32" d="M386.37,993.84c-.46,3-.82,5.74-1.36,8.47-.18.88-.58,2.05-1.94,1.73a1.87,1.87,0,0,1-1.6-2.16c.4-2.93.78-5.86,1.37-8.75.22-1,.75-2.39,2.32-2S386.17,993,386.37,993.84Z"/><path class="cls-29" d="M394.15,939.05c-.82-.26-1.8-.67-1.62-1.58.71-3.53,1.55-7,2.49-10.52a1.63,1.63,0,0,1,2.1-.85c1,.28,1.17,1.07,1,1.94-.72,3.21-1.44,6.42-2.24,9.61C395.65,938.4,395.24,939.23,394.15,939.05Z"/><path class="cls-33" d="M251.38,1020.72c-3.07-1.79-6.79-3.18-9.52-6.13-.49-.52-.2-1.23.29-1.76a1.31,1.31,0,0,1,1.78-.18c3,1.67,6,3.36,9,5a1.18,1.18,0,0,1,.61,1.62A2,2,0,0,1,251.38,1020.72Z"/><path class="cls-34" d="M673.09,1034.91c-.55,1.34-1.46,2.23-2.65,1.28-2.81-2.25-5.49-4.67-8.14-7.11-.77-.71-.2-1.51.42-2.1s1.07-1,1.71-.42q4.1,3.51,8.12,7.13C672.86,1034,672.93,1034.54,673.09,1034.91Z"/><path class="cls-31" d="M617.74,1150c-1.29.29-1.74-.18-2.06-.78a1.57,1.57,0,0,1,.43-2.2c2.83-1.69,5.72-3.29,8.6-4.88a1.59,1.59,0,0,1,2.22.36,1.52,1.52,0,0,1-.29,2.21C623.58,1146.67,620.43,1148.46,617.74,1150Z"/><path class="cls-33" d="M204.48,990.27c.33-1.42.9-2.47,2.62-1.26,2.68,1.89,5.37,3.77,8,5.72a2,2,0,0,1,.83,1.54,2.13,2.13,0,0,1-1.31,1.28C213.19,998,204.63,991.81,204.48,990.27Z"/><path class="cls-31" d="M547.28,1180.48c-.28.34-.58,1-1.08,1.27-2.85,1.34-5.72,2.62-8.63,3.81a1.91,1.91,0,0,1-2.55-.92c-.7-1.29.33-1.81,1.21-2.21,2.72-1.21,5.45-2.41,8.23-3.45A1.89,1.89,0,0,1,547.28,1180.48Z"/><path class="cls-33" d="M689.88,1049.34c-.87,1.37-1.57,2.65-3.15,1.32-2.5-2.12-5-4.27-7.41-6.46a1.6,1.6,0,0,1-.12-2.57,1.48,1.48,0,0,1,2.19-.12c2.51,2.1,5,4.23,7.47,6.39A7,7,0,0,1,689.88,1049.34Z"/><path class="cls-33" d="M645.94,1131.64c0,1.51-9,7.52-10.43,7-1.21-.47-1.51-1.74-.69-2.36a100.08,100.08,0,0,1,9-6.09C644.8,1129.61,645.73,1130.47,645.94,1131.64Z"/><path class="cls-31" d="M656.76,1020.41c-.49,1.06-1.24,1.53-2.37,1-3.33-1.67-5.51-4.67-8.12-7.17-.79-.75-.33-1.48.31-2.11s1.36-1,2.13-.25q3.9,3.79,7.74,7.66C656.65,1019.7,656.66,1020.09,656.76,1020.41Z"/><path class="cls-33" d="M588.91,964.17c-.62,1.54-1.74,1.87-3.2,1.25q-3.88-1.65-7.76-3.35c-1-.42-1.76-1.05-1.32-2.27a1.62,1.62,0,0,1,2.08-.89,33.13,33.13,0,0,1,9.17,3.73C588.48,963,589,963.37,588.91,964.17Z"/><path class="cls-31" d="M707.61,1110c-.23.21-.5.67-.87.77q-5.22,1.46-10.48,2.78a1.28,1.28,0,0,1-1.59-.8,1.59,1.59,0,0,1,.62-2.17,37.09,37.09,0,0,1,10.92-2.62C707,1107.94,707.45,1109,707.61,1110Z"/><path class="cls-34" d="M325.12,1069.75c-.25,1.24-.81,2-2.31,1.07a32.44,32.44,0,0,1-7.69-6.9c-1.16-1.36-.4-2.5,1.28-2.76C317.37,1061,325,1068.57,325.12,1069.75Z"/><path class="cls-35" d="M399.12,917.61a1.52,1.52,0,0,1-1.63-2c.67-3.07,1.42-6.13,2.28-9.15a1.88,1.88,0,0,1,2.3-1.42,1.36,1.36,0,0,1,1.07,1.88c-.76,3.05-1.55,6.1-2.41,9.12A1.93,1.93,0,0,1,399.12,917.61Z"/><path class="cls-33" d="M623.86,990.43c-.52,1.3-1,2.92-2.71,1.55-2.59-2-5-4.24-7.52-6.39a1.48,1.48,0,0,1-.1-2.5c.66-.63,1.34-1,2.14-.31q3.76,3.18,7.48,6.43A4.34,4.34,0,0,1,623.86,990.43Z"/><path class="cls-36" d="M665.15,1120.94a1.56,1.56,0,0,1-1,1.73c-3.07,1.26-6.14,2.56-9.23,3.77a1.58,1.58,0,0,1-2-.93,1.42,1.42,0,0,1,.7-2.09c3-1.34,6.11-2.59,9.19-3.82A1.57,1.57,0,0,1,665.15,1120.94Z"/><path class="cls-33" d="M291.75,1041.28c-.35,1.38-1.52,1.94-2.57,1.26a104,104,0,0,1-8.74-6.29c-1-.83-.3-1.81.75-2.22C282.71,1033.43,291.77,1039.65,291.75,1041.28Z"/><path class="cls-29" d="M413.06,862c1.18.14,2,.72,1.59,2.24-.8,3-1.59,6-2.4,9a1.84,1.84,0,0,1-2.65,1.38c-1.41-.47-.75-1.55-.51-2.45.75-2.84,1.54-5.68,2.29-8.53C411.6,862.83,411.86,862.1,413.06,862Z"/><path class="cls-34" d="M706.94,1063c-.43,1.35-1.33,2-2.61,1.26a38.2,38.2,0,0,1-8.24-6.29,1.45,1.45,0,0,1,0-2.2,1.26,1.26,0,0,1,1.78-.18q4.39,3.23,8.71,6.53C706.8,1062.32,706.83,1062.73,706.94,1063Z"/><path class="cls-33" d="M724.09,1076.39c-3.48-2.22-6.67-4.22-9.81-6.31-.61-.4-.44-1.16-.11-1.78s.85-1,1.58-.72c3.49,1.51,7,3.17,9.59,5.94C726.84,1075.1,724.59,1075.49,724.09,1076.39Z"/><path class="cls-34" d="M597.57,968.89a44.17,44.17,0,0,1,9.08,7.08c.66.62-.14,1.56-.68,2.15s-1.23.3-1.78-.11c-2.64-2-5.28-4-7.9-6a1.41,1.41,0,0,1-.29-2.16A5.5,5.5,0,0,1,597.57,968.89Z"/><path class="cls-33" d="M299.63,1047c3.87,1.49,6.23,4.88,9.12,7.53.89.82-.63,2.43-1.82,1.88-3.5-1.61-6.14-4.49-8.84-7.14C297,1048.16,298.33,1047.32,299.63,1047Z"/><path class="cls-37" d="M388,958.53c.62-3.55,1-6.14,1.57-8.68.23-1,.42-2.53,2.05-2.2s1.7,1.59,1.32,3.06c-.62,2.37-1.08,4.77-1.54,7.18-.24,1.24.05,2.94-1.94,2.71S387.92,958.89,388,958.53Z"/><path class="cls-34" d="M598.53,1160.32c-1.77.19-2-.42-2.37-1a1.4,1.4,0,0,1,.51-2.11c3.05-1.6,6.14-3.13,9.23-4.65a1.26,1.26,0,0,1,1.74.33c.42.56.73,1.37.14,1.75C604.49,1156.76,601.13,1158.75,598.53,1160.32Z"/><path class="cls-33" d="M578.9,1169.52c-1.66.29-2.37,0-2.85-.8a1.25,1.25,0,0,1,.63-2c3.12-1.44,6.26-2.84,9.4-4.25a1.31,1.31,0,0,1,1.72.49,1.41,1.41,0,0,1-.4,2.14C584.38,1166.75,581.3,1168.28,578.9,1169.52Z"/><path class="cls-33" d="M340.36,1085.63c-3.87-1.9-6.67-4.72-9.37-7.53-.92-1,.8-2.49,1.74-1.9a103.09,103.09,0,0,1,9,6.76c.29.23.22,1.28,0,1.75S340.73,1085.39,340.36,1085.63Z"/><path class="cls-36" d="M224.79,1000.87c3.22,2,6.31,4,9.37,5.94.67.43.61,1.09.27,1.73-.45.84-1.12,1.32-2,.79-3-1.78-5.93-3.63-8.89-5.45a1.22,1.22,0,0,1-.4-2A6.26,6.26,0,0,1,224.79,1000.87Z"/><path class="cls-31" d="M675.67,1118.75c-.77,0-1.87.13-2.11-1.21s.85-1.6,1.8-1.89c2.69-.8,5.39-1.58,8.08-2.39,1-.29,2-.62,2.55.58a1.89,1.89,0,0,1-1.46,2.67C681.68,1117.32,678.78,1118,675.67,1118.75Z"/><path class="cls-33" d="M557.57,1178.38a1.72,1.72,0,0,1-1.72-1,1.43,1.43,0,0,1,.69-2.1c3.2-1.37,6.46-2.61,9.71-3.88a1.26,1.26,0,0,1,1.63.74,1.45,1.45,0,0,1-.7,2.11C564,1175.72,560.78,1177,557.57,1178.38Z"/><path class="cls-36" d="M364.59,1067.3c-1.17-.45-2-.88-1.36-2.21,1.36-3,2.66-6,4-8.95a1.59,1.59,0,0,1,1.94-1.07,1.24,1.24,0,0,1,1,1.44,34.87,34.87,0,0,1-4.52,10.28C365.5,1067.11,364.89,1067.17,364.59,1067.3Z"/><path class="cls-36" d="M640.3,1005.49a5.28,5.28,0,0,1-.83,1.41c-.57.56-1.24.2-1.75-.25-2.5-2.18-5.07-4.29-7.45-6.59-1.31-1.28-.72-2.47.93-2.93C632.24,996.85,640.2,1004,640.3,1005.49Z"/><path class="cls-31" d="M728.71,1103.11c0,1.06-.81,1.47-1.55,1.74-2.92,1.07-5.88,2.05-8.81,3.09-1.1.39-1.92.28-2.31-1a1.45,1.45,0,0,1,1-1.94c3.05-1.21,6.09-2.44,9.17-3.55C727.63,1101,728.23,1102.06,728.71,1103.11Z"/><path class="cls-28" d="M198.29,982.66c-.7,1.85-1.72,2.55-3.06,1.32a30.18,30.18,0,0,0-6.71-4.08c-1-.54-2.27-1.06-1.74-2.53s1.86-.84,2.92-.57c2.78.71,5,2.52,7.21,4.15A7.51,7.51,0,0,1,198.29,982.66Z"/><path class="cls-30" d="M408.91,884.93c-1.08,4.07-1.82,6.92-2.62,9.76-.28,1-.82,1.85-2.11,1.44s-1.27-1.24-1-2.34c.77-2.85,1.45-5.72,2.19-8.58.25-1,.66-2,1.94-1.73C408.89,883.78,408.94,884.86,408.91,884.93Z"/><path class="cls-36" d="M382.49,1016.38c-.63,2.36-1.28,4.89-2,7.42-.26,1-.54,2-1.87,1.78s-1.42-1.37-1.23-2.32c.61-3,1.36-6.07,2.1-9.09a1.28,1.28,0,0,1,1.85-1C382.79,1013.74,382.21,1015.1,382.49,1016.38Z"/><path class="cls-34" d="M373.12,1046.68c-1.5-.08-1.94-1-1.65-2,.89-3.17,1.95-6.29,2.94-9.43.23-.73.77-1.19,1.44-.9s1.31.92,1.27,1.34a27.75,27.75,0,0,1-2.95,10.33C374,1046.33,373.41,1046.49,373.12,1046.68Z"/><path class="cls-31" d="M175.45,976c-2.18-.6-5.27.45-6.18-2.43-.4-1.25,1.61-2,3-1.63,2.06.6,5-.1,5.85,2.46C178.64,976.08,177,976.44,175.45,976Z"/><path class="cls-28" d="M521.37,1195.27c-1.13-.24-1.63-1.14-1.4-1.82,1-3,3.69-4,6.27-4.89,1.26-.45,1.86,1.25,1.52,1.84C526.34,1192.93,523.58,1193.85,521.37,1195.27Z"/><path class="cls-29" d="M540.68,966.17c1.61-1.75,2.94-3.35,5.15-2.74a1.56,1.56,0,0,1,.63,2.48C544.92,967.66,543.05,967.53,540.68,966.17Z"/><path class="cls-2" d="M1310.17,1047.18a11.73,11.73,0,0,1-.77-2.82,353.55,353.55,0,0,1,1.66-47.71c.48-4.27,0-7.18-4.39-9.7-14.39-8.15-22.88-21.82-31.43-35.32-.61-1-1.28-1.91-1.93-2.86-7.61-15-14.34-30.37-18.87-46.61a267.08,267.08,0,0,1-8.59-99.8c3.74-36.6,16.17-69.46,39-98.34.38-.48.65-1,1.31-2.12-7.17-.12-13.77.53-20.26-1.06-8.76-2.14-16.69-5.78-22.93-12.42-12.78-13.6-13-33.81-.66-48.62,3.22-.39,5.85.89,8.21,2.93.58,3.16-1.75,5.21-2.94,7.7-1.91,4-5.12,7.61-3.27,12.56,4.54,13.92,19.25,24.64,35.07,25.44,3.82.2,7.65.06,11.48,0,7.58-.1,17.38-6.45,18.93-15.54,1.5-8.82,4.85-17.28,7.08-26a11.24,11.24,0,0,1,4.39-6.46,110.58,110.58,0,0,0,15.63-14.65c5-5.5,7.21-5.5,13.06-.31a40.49,40.49,0,0,1-10.7,14.88c15.69,2.92,30.1,6.66,43.91,12.55,29.6,12.61,48,33.92,53.44,66.29,4.88,29.19,4.35,58.29,1,87.49-2.81.68-3.75-1.66-5-3.25-12.8-16.64-25.89-33.07-38.19-50.07-6.61-9.13-15.6-15.42-24-22.39s-16.82-14.15-25.33-21.11-12.57-7-20.71.35a89.16,89.16,0,0,0-19.23,24.1c-12.92,24-22.27,49.2-25.19,76.41-2.8,26.16,1.45,51.42,11.49,75.71,6.92,15.9,15.5,30.76,27.58,44.6,1.24-7.37,1.94-13.94,2.72-20.46,1.46-12.39,2.77-24.79,4.22-37.17.69-5.88,2.51-6.88,7.21-3.28Q1350,883,1365.89,897.08c6.83,6.07,13.73,12.08,20.48,18.26,5,4.55,5.22,4.37,6.89-2a155.2,155.2,0,0,1,18.66-43.92c9.51-14.92,20.9-28.16,34.91-39,1.62-1.25,3.05-3.21,5.58-2.7l8.94,11.24-2.06,1.93c-8.61,4.17-14.87,11.06-20.8,18.26-10.26,12.48-17.41,26.71-23.14,41.72a11.55,11.55,0,0,0-.31,2.91c-1.78,8.19-4.8,16-6.74,24.17-.58,2.41-.66,4.12,2,4.94-8.9,28.41-19.74,56-36.57,80.77-12,17.71-30,26-49.91,31.09C1319.38,1045.86,1314.74,1046.37,1310.17,1047.18Z"/><path class="cls-5" d="M1552.35,1341.63c-.3,7.08-.39,6.54-7.49,7.29-18.1,1.92-31.81-7.17-45.12-17.28-5.72-4.35-11.56-8.42-18.22-11.09-2.63-1-3.51-2.46-3.3-5.18a30.5,30.5,0,0,0-3.58-16.56c-1.37,5.74-2.52,10.67-3.73,15.59-.52,2.11-1.29,2.82-4.06,2.68-11.07-.58-22.16,0-33-3.13-11.86-3.42-23.55-7-32.48-16.16-3-8.41-5.84-16.89-9.07-25.22-2.76-7.11-6-14.13-11.38-19.65-1.35-1.38.25-5.24-3.6-4.34,3.81-.59,5.57-3.42,7.38-6.41,3.76-6.2,7.76-12.26,11.66-18.37,14.41-1.73,26.09,3.92,36.9,12.9,11,9.14,23.26,16.41,35.9,23.22,23.2,12.47,44.78,27.48,63.56,46.07C1542.59,1315.81,1549.8,1327.54,1552.35,1341.63Z"/><path class="cls-18" d="M1320.26,1267.75c-6.91,5-15.12,5.69-22.82,4.64-20.59-2.78-40.36.56-60,5.84a316.29,316.29,0,0,0-41.2,14.53c7.28-19.13,15.82-36.72,26.68-53.18q22.68,6.62,45.36,13.21Q1294.24,1260.3,1320.26,1267.75Z"/><path class="cls-38" d="M1410.35,932.85l-4.67,1.09c2.72-10.56,4.12-20.92,9.36-30.2l13.43,13.08C1424.09,924,1417.56,928.83,1410.35,932.85Z"/><path class="cls-5" d="M1443.3,1326.8c4.49,5.73,9.08,11.39,13.47,17.21,7.8,10.35,13.14,21.69,15,34.74,2.45,17.27,4.33,34.53,3.38,52-5.18-2.43-8.51-6.63-10.92-11.64-4.64-9.65-5.92-20.3-9-30.43-3.81-12.69-9.06-24.56-18.68-34-3.34-3.3-7.4-5.55-11.41-7.89-9.87-5.76-17.87-13.62-25-22.48-.66-.83-.29-1.52.06-2.27l5.91-2.23c9.44,5.24,19.76,6.13,30.26,6A29.17,29.17,0,0,1,1443.3,1326.8Z"/><path class="cls-39" d="M1277.21,1298.81h4c1.34,0,2.73,0,2.95,1.81s-1.16,2.07-2.42,2.53c-2.73,1-5.55.51-8.34.61-1.34,0-2.74,0-2.89-1.83a2.49,2.49,0,0,1,2.33-2.72A32.85,32.85,0,0,1,1277.21,1298.81Z"/><path class="cls-32" d="M1192,1314.79h3.47c1.22,0,2.37.15,2.61,1.67.27,1.82-.95,2.07-2.34,2.48a23.14,23.14,0,0,1-7.84.81c-1.5-.08-3.3-.1-3.23-2.16s1.33-2.89,3.36-2.76c1.32.09,2.64,0,4,0Z"/><path class="cls-39" d="M1254.53,1303.74a26.17,26.17,0,0,0-3.45.29c-1.93.38-2.31-1-2.54-2.26-.29-1.57.9-1.84,2.16-2,2.62-.28,5.21-.72,7.83-.93,1.75-.15,3.55.24,3.54,2.44s-1.84,2.42-3.58,2.44C1257.17,1303.76,1255.85,1303.75,1254.53,1303.74Z"/><path class="cls-33" d="M1386.12,1263.31c.08,1.67-.25,2.75-1.32,3-3.37.79-6.77,1.45-10.18,2-1.11.2-1.22-.84-1.48-1.61-.34-1-.61-2.23.61-2.54,3.51-.9,7.08-1.62,10.65-2.24A1.47,1.47,0,0,1,1386.12,1263.31Z"/><path class="cls-34" d="M1172.86,1300.82c1.06,0,2.08.24,2.22,1.47a20.28,20.28,0,0,0,2.9,8.27c.68,1.13-.1,2.23-1.22,2.85s-1.8.1-2.52-.76c-2.45-2.91-2.92-6.55-3.68-10.05C1170.23,1301,1171.65,1300.86,1172.86,1300.82Z"/><path class="cls-37" d="M1205.61,1223.35c-1.68,2.38-3.81,5.51-6.09,8.55-.6.79-1.53.2-2.23-.25a1.74,1.74,0,0,1-.61-2.58c1.73-2.82,3.52-5.61,5.37-8.34.7-1,1.71-.74,2.65-.18C1205.43,1221,1206.14,1221.41,1205.61,1223.35Z"/><path class="cls-37" d="M1256.06,1150.12a43.18,43.18,0,0,1-6,10c-.21.26-1.51-.23-2.2-.57a1.58,1.58,0,0,1-.63-2.49c1.58-2.72,3.12-5.47,4.76-8.15a2,2,0,0,1,2.62-.77A2.19,2.19,0,0,1,1256.06,1150.12Z"/><path class="cls-34" d="M1364.46,1269.14c.41,1-.14,1.48-1,1.77-3.13,1-6.25,2-9.35,3.06-1.61.54-2-.58-2.44-1.65s-.26-2,.92-2.39c3.11-1,6.21-2.13,9.36-3C1363.58,1266.46,1364.24,1267.67,1364.46,1269.14Z"/><path class="cls-34" d="M1259.64,1140.69c-1.62-.36-2.73-1.33-2.07-3.12,1-2.78,2.31-5.46,3.5-8.18.68-1.56,1.77-1.71,3.23-1.06s1.4,1.56.85,2.78c-1.15,2.56-2.22,5.15-3.37,7.7C1261.38,1139.7,1261,1140.66,1259.64,1140.69Z"/><path class="cls-37" d="M1236.45,1178.23c-.78-1-3.62-1-1.77-3.48s3.67-5.08,5.47-7.65a1.63,1.63,0,0,1,2.5-.58c.88.54,2,1.27,1.39,2.26-2,3.17-4.36,6.18-6.6,9.22C1237.3,1178.19,1236.85,1178.15,1236.45,1178.23Z"/><path class="cls-37" d="M1231.06,1187.07c-2,2.71-4.34,5.89-6.83,8.9-.61.73-1.46-.25-2-.8a2,2,0,0,1-.61-2.66c1.88-2.69,3.89-5.28,5.9-7.88a1.74,1.74,0,0,1,2.61-.22A2.4,2.4,0,0,1,1231.06,1187.07Z"/><path class="cls-28" d="M1303,1295.26c1.43-.57,2,.16,2.43,1.48.49,1.47-.06,2.29-1.36,2.61-3,.76-6.1,1.42-9.16,2.06-1.41.29-2.2-.49-2.42-1.83a2.12,2.12,0,0,1,1.79-2.56C1297.16,1296.36,1300.08,1295.84,1303,1295.26Z"/><path class="cls-34" d="M1326.71,1290.31c-.93,2-3,2.51-4.79,3.07-2.49.79-5.91,4.55-7.57.83-1.91-4.29,3.76-2.88,5.63-4.61,1-.93,2.67-1.23,4.1-1.59C1325.85,1287.55,1326.31,1288.91,1326.71,1290.31Z"/><path class="cls-37" d="M1335.62,1285.59a2.7,2.7,0,0,1-2.44-1.53c-.78-1.15.18-1.8.9-2.43,2.09-1.83,4.22-3.62,6.31-5.46,1.06-.93,2.1-1.74,3.31-.24s1.13,2.43-.51,3.63C1340.58,1281.47,1338.84,1284.51,1335.62,1285.59Z"/><path class="cls-37" d="M1181.43,1258c1.27.75,3.08.85,2.33,2.79-1.18,3.08-2.44,6.14-3.79,9.15-.48,1.07-1.64,1-2.62.77s-1.83-1-1.35-2.18c1.27-3.22,2.59-6.42,4-9.58C1180.2,1258.43,1181,1258.23,1181.43,1258Z"/><path class="cls-37" d="M1187.56,1251.28c-1.34-.72-3.46-.85-2.36-3,1.49-2.94,3.21-5.77,5-8.58a1.88,1.88,0,0,1,2.65-.52c1,.51,1.62,1.32,1,2.41-1.64,3-3.37,6.07-5.12,9.06C1188.52,1251,1187.93,1251.08,1187.56,1251.28Z"/><path class="cls-36" d="M1240.23,1304.44c.14,1.43-.59,2.11-1.9,2.47q-4.08,1.11-8.11,2.39a2.16,2.16,0,0,1-1.73-3.93c3.3-1.09,6.64-2.09,10-2.89C1239.71,1302.19,1240.08,1303.4,1240.23,1304.44Z"/><path class="cls-37" d="M1218.22,1204.86c-2,2.64-4.2,5.7-6.58,8.62-.51.63-1.58.24-2.28-.31s-1.17-1.34-.63-2.16c1.93-2.9,3.9-5.76,6-8.57a1.6,1.6,0,0,1,2.25-.19A2.77,2.77,0,0,1,1218.22,1204.86Z"/><path class="cls-37" d="M1208.85,1316.16c-1.75,0-2.22-.67-2.4-1.51-.25-1.19-.18-2.33,1.27-2.78l8.94-2.74c1-.31,2-.28,2.39.94.33,1,.33,2.16-.73,2.59C1215,1314,1211.57,1315.17,1208.85,1316.16Z"/><path class="cls-37" d="M1176.23,1281.25c-.6,3.54-.92,6-1.46,8.38a2.36,2.36,0,0,1-2.87,2.08c-1.86-.35-1.69-1.88-1.48-3.13.4-2.43,1-4.83,1.56-7.22.32-1.29.66-2.7,2.5-2.42A1.83,1.83,0,0,1,1176.23,1281.25Z"/><path class="cls-37" d="M1268.17,1108.89l4.2.2c-.95,3.15-1.95,6.28-2.83,9.45-.39,1.41-1,1.84-2.46,1.37s-2-1.16-1.54-2.54C1266.4,1114.54,1267.29,1111.72,1268.17,1108.89Z"/><path class="cls-4" d="M274.45,649.82c1.51-8.06,3-16.13,4.54-24.18.49-2.56,1.12-5.09.51-7.71,2.62-1.5,2.15-4.39,2.69-6.66,5.82-24.61,12.6-49,22.42-72.29,9.28-22,23.33-40.23,45.22-51.37,3.49-1.77,7.18-2.36,10.92-3.17,10.7-2.33,21.34-4.94,32-7.59a5.55,5.55,0,0,1,5.42,1.07c7.34,5.69,13,12.86,18.32,20.3a293.34,293.34,0,0,1,45.18,95c8,29.83,5.2,57.61-14.26,82.59a81,81,0,0,1-12.94,13.11c-3.22-.15-3.38-2.94-3.86-5-3.62-15.56-6.51-31.26-7.63-47.23-1.44-20.54-7.67-39.75-16-58.42-4.39-9.89-9.28-19.53-14.55-29-3.31-5.94-4.64-6.05-8.62-.68C373.74,562.27,369,578,366.88,594.49c-1.52,11.93-3.19,23.68-8,34.86-3.57,8.38-8.67,15.69-14.35,22.69a15.29,15.29,0,0,1-5.21,3.76c-20.23.76-40.18-1.74-60-5.38C277.73,650.13,276.08,650,274.45,649.82Z"/><path class="cls-9" d="M339.36,655.8c11.75-12.25,19.86-26.5,23.55-43.13,2.11-9.52,2.1-19.36,4.35-28.91,3.23-13.73,8.11-26.65,16.77-37.93,3.75-4.88,5-5,8.09.33,14.26,24.85,26.61,50.58,31,79.2,2.11,13.87,2.49,28,5.43,41.77,1.56,7.33,1.4,15.24,5.93,21.8-7.71,7.1-16.87,11.7-26.49,15.58-3.79,1.53-3.46-.63-3.65-3.22-2.28-31.24-6.91-62-17.5-91.69-.28-.78-.53-1.58-.88-2.33-.11-.24-.5-.35-1.12-.74-1.16,10.79-2.5,21.37-3.37,32-.69,8.55-.49,8.54-8.38,11.34A98,98,0,0,1,339.36,655.8Z"/><path class="cls-8" d="M491.22,456.9a111.17,111.17,0,0,1-34.64,1.15c-11.71-1.59-21.05-6.55-27.89-16.3-6.32-9-10.65-18.67-11.37-31.19,18.55,18.25,38.66,30.51,65,27.33,1.12,5.26,4.68,9.33,6.79,14.11C489.81,453.63,490.51,455.27,491.22,456.9Z"/><path class="cls-1" d="M613.2,585.82c-3.07-8.26-4-17-6.23-25.51-6.37-24.36-14.47-48.07-26.15-70.45-.46-.88-.77-1.84-1.14-2.76,1-3.28,2.36-6.09,6.61-5.26,14.49,19.6,25.89,40.66,30.54,64.88C619.39,560.08,619,573.21,613.2,585.82Z"/><path class="cls-13" d="M343.48,737.1c.29-19.12.61-38.25.84-57.37.11-8.76,0-8.68-8.56-8.88-2.43-.06-5,.73-7.3-.73,9.46-.32,19,.65,28.38-.91,2.5-.42,2.36.75,1.83,2.53-.81,2.7-1.23,5.53-2.18,8.18-6.41,17.78-8,36.61-12.15,54.89A17.59,17.59,0,0,1,343.48,737.1Z"/><path class="cls-40" d="M586.29,481.84c-3.06.67-4.16,3.81-6.61,5.26q-6.23-9.74-12.44-19.48c-1.28-2-1.09-3.75,1.31-4.83,5.69,3.12,8.56,9,13.15,13.26C583.48,477.7,584.77,479.89,586.29,481.84Z"/><path class="cls-6" d="M1290.32,886.83a146.64,146.64,0,0,1-12.21-52.64c-1.67-41.64,11.29-78.9,34.17-113.05,4.91-7.33,11.29-13.57,19.68-17.24,3.49-1.53,6.32-1.52,9.56,1.22,15.37,13,31.25,25.44,46.38,38.71,7.35,6.46,12.24,15.29,18.27,23,9.74,12.47,19.27,25.09,28.89,37.65.68.89,1.09,2.11,2.5,2.2,3,6.18,8,10.9,11.77,16.51,1,1.5,2.05,3,3.08,4.47-15.9,11.42-28.72,25.73-39.3,42.11-2,1.64-3.81.47-5.5-.54-29.27-17.6-58-35.94-82.9-59.61-3.47-3.3-3.63-3.33-5.28,1.53-8.1,23.79-16.76,47.38-24.5,71.29-.56,1.74-.94,3.6-2.25,5C1291.71,888.42,1290.91,887.81,1290.32,886.83Z"/><path class="cls-3" d="M1250.08,643l-7.78-3.17c-5.47-4.33-10-9.36-11.61-16.4-2.63-7.8-.1-15.75-.67-23.61-.84-1.19-1.52-2.41-.69-3.89,2.19-6.3.46-12.94,1.77-19.38a65.31,65.31,0,0,1,3.12-11.72c10.06-.61,18.76,3.54,27.89,8A32.11,32.11,0,0,0,1252,562.64c-5.74-3.67-6.14-6.92-1.64-12.07,1.09-1.24,2.32-2.37,3.46-3.57,3.33-3.5,6.24-7.22,6.34-12.38,3-5.63-1-7.94-4.85-10.43-5.7-3.72-5.68-3.76-1.91-9.3,5.23-5.8,12.31-6.85,19.49-7.35,15.62-1.09,29.43,4,42,12.85a110.42,110.42,0,0,1,19.93,18.66c4.82,5.59,6.44,11.73,6.25,18.73.55,4,1.11,8,3.39,11.37,1.21,1.81.49,3.09-.34,4.55-2.22,3.91-4.3,7.9-6.67,11.71-1.45,2.33-.69,3.13,1.47,4.41,4.6,2.72,8.28,2.89,12-1.63,2.5-3.06,5.79-5.48,8.72-8.19,4.15-2.57,7.3.11,10.22,2.32A12.84,12.84,0,0,1,1375.2,593c-1,3.47-1.72,7-3,10.39-4,10.76-11,18.6-22.28,22.1-8.11-2.94-8.15-3-13.84,3.35a68,68,0,0,1-11.66,10.85,16.84,16.84,0,0,0-7.23,10.72c-2.13,8.87-4.78,17.62-7.25,26.42a16.75,16.75,0,0,1-12.39,11.72c-15.7,3.62-30.81,1.47-43.79-9.11-5.24-4.27-9.39-9.4-10.7-16.32-.62-4.38,2.22-2.1,3.7-1.78A90.59,90.59,0,0,0,1275,663c19.88-2,31-14.4,38.08-31.63a44.59,44.59,0,0,0,2.88-11.55A95.58,95.58,0,0,1,1290.17,638c-11.89,6-24.42,7.22-37.4,6.09A4,4,0,0,1,1250.08,643Z"/><path class="cls-26" d="M1375.2,593c-1.3-.73-1.39-2.13-1.81-3.33-2.29-6.52-7-9.55-13.78-9.67,1-10.72-2-20.93-4.11-31.25,10.22-5.31,20.07-11.28,26-21.55,8-13.82,5.27-27.75-.73-41.51-.79-1.81-3.08-3.31-1.67-5.78,12.76,13.23,21.53,28.76,25.26,46.72,4.39,21.12-3.31,38.9-17,54.49C1383.57,585.35,1379.25,589.06,1375.2,593Z"/><path class="cls-16" d="M1671.22,718.79c.31.68.62,1.35.94,2a22.69,22.69,0,0,1-4.93,9.35C1667.68,725.4,1669.46,722.1,1671.22,718.79Z"/><path class="cls-13" d="M492.51,24.08a70.42,70.42,0,0,1,16.18,18c2.13,3.55,4.3,4.88,8,3.1,3.88-1.87,4.5-5.36,3.2-8.88-1.07-2.9-3.08-5.46-4.78-8.11a35.4,35.4,0,0,1-3.26-5.42,43.17,43.17,0,0,1,9.57,11.34C525,40,529,40.58,534.33,35.56c-.06,4.64-3,6.15-6.4,6.21-3.13.07-5,1-6,3.95a4,4,0,0,1-2.68,2.8c-5.17,1.1-8.86,3.95-12.63,7.7a18.85,18.85,0,0,0-4.05,6.12c-.46,1-.89,2.43-2.4,2-1.18-.38-.75-1.68-.82-2.61-.85-11.11-1.78-12.27-12.2-14.75a4.58,4.58,0,0,1-2.91-1.73,87.8,87.8,0,0,1-7.14-11.7c1.57,1.36,3.12,2.74,4.7,4.09,3.92,3.36,7.42,7,13.1,7.94,3.2.5,5.3,3.74,6.49,7,1.14,3.12,2.8,2.33,4.28.38,3.22-4.26,1.34-8.37-1.05-12C500.83,35.15,496.58,29.68,492.51,24.08Z"/><path class="cls-15" d="M276.13,698.66a23,23,0,0,1,3.23-6.81c7.14.08,14.43-.73,21,3.57C292,694.86,284.28,698.25,276.13,698.66Z"/><path class="cls-41" d="M303.41,856.87a4.54,4.54,0,0,1-.14,1c-.85.64-1.38,1.87-2.89,1-5.24-3-11.09-3.74-18.13-4.35,6.64-1.67,12.12-2.59,17.68-.66C301.49,854.39,303.19,854.78,303.41,856.87Z"/><path class="cls-42" d="M445.76,391.83l34.45-9.93c4-1.15,8-2.08,11.94-3.48,3-1.07,4.32,0,5.12,2.71,3.09,10.45.9,18.87-9.45,23.65C472.7,411.76,455.49,406.73,445.76,391.83Z"/><path class="cls-43" d="M452.28,335c-6.46-2.28-12.77-3.24-19.18-.93a24.48,24.48,0,0,0-9.91,7.28c-.92,1.05-1.44,3.36-3.72,1.45-1.65-1.38-2.94-2.61-1.92-5q4.51-10.57,15.88-11.84a43.09,43.09,0,0,1,13.33,1C450.93,327.83,453.35,329.72,452.28,335Z"/><path class="cls-44" d="M449.07,344.64c-9.9-2.48-16.27,1.57-20.27,10.69-.59-5.77,1.87-9.85,7.07-12.6C440.6,340.22,445,340.49,449.07,344.64Z"/><path class="cls-8" d="M1341.07,557.78c-5-24-23.13-35.65-43.34-44.79a47.66,47.66,0,0,0-38.13-1.06c-2.13.84-4.15,2-6.22,3A58.38,58.38,0,0,1,1264.51,498c5.71-6,13.06-6.21,20.83-5.21,20.07,2.59,38.59,8.34,53,23.67,4.64,5,7.71,9.74,5,17.15C1340.57,541.29,1341.1,549.63,1341.07,557.78Z"/><path class="cls-8" d="M1260.14,534.62c3.17,5.58-1.68,8.44-4.21,12-1.54,2.13-3.79,3.74-5.51,5.76-3.25,3.81-2.86,6.41,1.47,8.76,5.89,3.19,9.71,8.23,12.79,14.32-4.19-1.91-8.31-4-12.56-5.7-5.36-2.17-10.77-4.31-16.78-3.53-.78.1-1-.74-1.12-1.39,6.34-10.09,8.51-21.45,10.3-33,.27-1.75,1.28-3.38,1.94-5.07C1251.7,528.2,1255.57,532,1260.14,534.62Z"/><path class="cls-6" d="M1229.33,595.9c.2,1.3,1.25,2.45.69,3.89-8.24.65-15.75,3.81-23.21,7a153.38,153.38,0,0,0-38.93,23.8,18.87,18.87,0,0,1-2.49,1.6c-4-12-7.68-24-10.13-36.38,15-11.56,31.6-20.55,48.13-29.65,3-1.68,6.1-3.31,9.16-5Z"/><path class="cls-45" d="M480.72,340.43c3.33-5.31,5.45-5.68,10.76-1.84C487.41,338.34,483.83,338.2,480.72,340.43Z"/><path class="cls-26" d="M1160.9,800.47c-12.06-1.72-22.12-7.38-22.69-23.29-.72-19.95,8.36-36.5,17.54-53.09,1-1.79,2.14-2,3.9-.45q17.36,15.63,34.91,31c1.48,1.3,1.11,2.65.71,4.05-4,14.1-9.9,27.16-21.36,36.92C1170.29,798.71,1165.82,800,1160.9,800.47Z"/><path class="cls-46" d="M1135.17,731.73c2.11-21.8,8.74-42,21.84-59.75,2.41,1.26,3.16,3.41,3.16,5.95-5.28,11.26-10.82,22.4-15.1,34.09-2.92,8-6,15.88-8.93,23.81C1133.73,735,1135,733.22,1135.17,731.73Z"/><path class="cls-26" d="M1160.17,677.93,1157,672a75.23,75.23,0,0,1,16.09-18.4c3.63,5.94,2.9,10.48-3.33,14.57C1166,670.59,1163.34,674.62,1160.17,677.93Z"/><path class="cls-47" d="M1135.17,731.73c.56,1.31-.35,3,1,4.1l-1.57,3.84C1134.16,737,1134,734.3,1135.17,731.73Z"/><path class="cls-9" d="M577.83,578.87c-14.17.44-21.77-6.91-28.66-14.86a97.81,97.81,0,0,1-16.43-27.12c-1-2.41-.71-3.55,1.65-4.57,13.55-5.89,27.1-11.75,40.53-17.89,2.79-1.28,3.84-.2,5.06,1.79a130.19,130.19,0,0,1,14.74,33.65,33.84,33.84,0,0,1,.39,17.11C593.26,574.49,585.88,578.88,577.83,578.87Z"/><path class="cls-26" d="M1290.32,886.83c3.07,1.18,2.33-1.85,2.68-2.85,5.57-16,10.91-32,16.4-48.05,3.6-10.49,7.37-20.92,11.24-31.88,5.12,4.26,9.41,8.84,14.1,12.94,14.38,12.59,30,23.48,45.9,34,8.85,5.83,18,11.19,27,16.81,1.7,1.07,3.31,2.24,5.47,2a157.41,157.41,0,0,0-19.62,48.31c-1,4.3-2,3.45-4.48,1.23-18.57-16.41-36.88-33.14-56.67-48.12-1.22-.93-2.26-3-4.14-2-1.5.8-.76,2.72-.93,4.15-2.35,19.89-4.67,39.79-7.16,61A160.49,160.49,0,0,1,1290.32,886.83Z"/><path class="cls-8" d="M1250.08,643c10.36-.58,20.8,1.13,31-2.78,12.14-4.65,23.19-10.72,32.38-20,.91-.93,1.91-1.77,3.37-3.11,1.15,6.54-1,12-3.35,17-11.74,25.61-28.69,33.29-56.94,30-4.25-.49-8.7.09-12.5-2.58l-1,1.57c-1.63-3.36-.43-6.37,1.1-9.36C1246.07,650.11,1248.77,646.92,1250.08,643Z"/><path class="cls-42" d="M1289.2,596.59c-10.52,15.6-31,20.07-45.66,10.46-8.58-5.62-11-15.52-6.1-24.51.63-1.14,1-2.47,2.89-1.85C1256.55,586,1272.79,591.26,1289.2,596.59Z"/><path class="cls-43" d="M1299.48,529.42c10.56-.06,17.41,4.17,20.68,12.36,1.13,2.85,0,4.28-2.09,5.72-2.76,1.89-2.93-1-3.86-2.13-6.75-8.09-15.25-10.61-25.41-8.42-1.35.29-3.65,2.32-4.11,0s-.2-5.38,3.48-6.1S1295.63,529.29,1299.48,529.42Z"/><path class="cls-48" d="M1286.65,548.77c4.13-4,8.56-5.09,13.41-2.75,5.69,2.75,8.84,7.25,8.8,15C1304.23,550.56,1297.73,545.27,1286.65,548.77Z"/><path class="cls-49" d="M1256.1,543.77c-3.24-3.07-6.67-4-11.43-3.74C1251,536.68,1253.08,537.43,1256.1,543.77Z"/></g></g></svg>